ply
format ascii 1.0
comment Saved by Easy3D (liangliang.nan@gmail.com)
element vertex 538
property float x
property float y
property float z
element edge 3398
property list uchar int vertex_indices
end_header
0 0 0
1.11838 0.101102 -0.00499725
2.72508 -0.0439894 -0.0569954
3.11669 0.0455507 -0.00699615
3.55006 0.0860378 -0.0769958
4.41647 0.062197 -0.119995
5.24099 0.0524708 -0.0809975
5.70213 0.0369638 -0.125996
6.10716 -0.0412467 -0.0969963
6.8205 0.138066 -0.0379982
7.25318 -0.0310774 -0.111996
7.70044 -0.0185874 -0.212997
8.06417 0.0920086 -0.117996
8.8327 0.0545174 -0.137997
9.16832 0.116292 -0.0699959
9.61534 0.0589058 -0.230995
10.3841 0.0912913 -0.197998
10.8174 0.09684 -0.225998
11.2646 0.10933 -0.233997
11.684 0.142876 -0.213997
12.0749 0.0227859 -0.220997
12.4803 0.0493905 -0.262997
12.8854 0.00611843 -0.307995
13.249 0.081776 -0.243996
13.696 -0.010549 -0.276997
14.5346 0.0216044 -0.233997
15.3876 0.165514 -0.314995
15.8067 0.129183 -0.237995
16.2955 0.0227437 -0.254997
16.7431 0.140049 -0.345997
18.2658 -0.04669 -0.344997
18.6153 -0.012912 -0.253998
18.9928 0.0347485 -0.243996
19.4261 0.0402973 -0.350998
19.8177 0.129837 -0.371998
20.223 0.121504 -0.356998
21.0331 2.1098e-05 -0.274998
21.4526 0.0685054 -0.358997
21.844 0.0881687 -0.370998
23.0041 0.140218 -0.317997
23.4231 0.0340101 -0.318996
24.611 0.0300647 -0.352997
25.0302 0.0286722 -0.334995
25.8553 0.193638 -0.326996
26.3303 0.150134 -0.507996
26.6376 0.0932112 -0.307995
27.0426 0.0150007 -0.332996
27.4621 0.083485 -0.380997
27.8677 0.179966 -0.378998
28.3003 -0.0241151 -0.379997
28.6922 0.135302 -0.360996
29.1251 0.0360355 -0.357998
29.5308 0.167455 -0.349998
30.0058 0.123951 -0.422997
30.4107 0.0108022 -0.425995
31.1236 0.050361 -0.298996
31.8784 0.0758053 -0.393997
32.2561 0.193343 -0.434998
33.0107 0.183848 -0.440998
34.6316 0.0806367 -0.317997
35.0512 0.184059 -0.367996
37.0357 0.191444 -0.400997
38.2653 0.103507 -0.342999
38.6845 0.102115 -0.370998
39.104 0.170599 -0.391998
39.5089 0.05745 -0.484997
39.8303 0.0424071 -0.292995
40.7111 0.130323 -0.411995
41.1301 0.0590534 -0.350998
41.5911 0.008608 -0.372997
42.458 0.124521 -0.477997
43.2404 0.0590323 -0.375996
44.0933 0.168004 -0.353996
44.5264 0.138614 -0.345997
45.2949 0.101123 -0.382996
45.5888 0.211951 -0.306995
46.7763 0.103191 -0.649998
47.0279 0.0883797 -0.315998
47.7968 0.190642 -0.306995
48.1736 0.0286722 -0.227997
49.0125 0.130702 -0.269997
49.4879 0.192013 -0.351997
49.9347 0.0647499 -0.317997
50.8015 0.180663 -0.274998
51.207 0.242206 -0.270996
51.5977 0.0522388 -0.201996
52.0172 0.120723 -0.251995
52.3945 0.0985068 -0.224998
53.1776 0.242649 -0.263996
53.5827 0.199377 -0.285995
53.9598 0.107284 -0.255997
54.3372 0.120006 -0.265995
54.7144 0.0977895 -0.233997
56.3916 0.127158 -0.205997
57.37 0.158847 -0.233997
57.691 0.0389892 -0.126995
59.0609 0.12528 -0.138996
61.4092 0.243261 -0.172997
61.8143 0.199988 -0.130997
62.2336 0.198596 -0.0919952
64.5257 0.253873 -0.0619965
64.9169 0.203659 -0.0889969
67.0273 0.238577 -0.0399971
67.4322 0.125428 -0.00099945
68.5925 0.212415 -0.0629959
68.8997 0.155493 0.0500031
69.2494 0.224209 0.0180054
70.0041 0.249653 -0.0169983
70.7449 0.268156 0.0970001
71.6253 0.251257 0.0559998
72.4497 0.206592 0.0710068
72.8549 0.198258 0.109001
73.6095 0.153826 0.136002
73.9585 0.0478504 0.260002
76.349 0.256531 0.182007
76.7261 0.164438 0.253006
77.8722 0.209546 0.239006
78.5985 0.0813541 0.309006
79.6469 0.14775 0.319
80.0801 0.153298 0.242004
80.891 0.241446 0.346001
81.6874 0.182899 0.345001
82.0368 0.181739 0.426003
82.4421 0.173405 0.414001
82.8613 0.172012 0.397003
83.9654 0.161358 0.415001
84.3426 0.139142 0.427002
84.7205 0.291617 0.460007
85.5025 0.121314 0.550003
86.3552 0.160408 0.479004
87.1521 0.276553 0.562004
87.5993 0.254105 0.561005
88.0323 0.189777 0.542
90.8974 0.2152 0.650002
91.2746 0.192984 0.738007
94.2238 0.294993 0.849007
94.8944 0.208913 0.832001
95.2579 0.249632 0.819
95.5789 0.129774 0.873001
95.9986 0.268135 0.842003
96.376 0.280857 0.895004
96.739 0.181823 0.923004
97.1026 0.257481 0.895004
98.2206 0.218829 0.855003
98.5698 0.18273 0.914001
98.8912 0.167687 0.986
99.2267 0.194524 1.037
100.764 0.294233 1.051
101.183 0.257903 1.096
101.603 0.186633 1.111
102.469 0.337484 1.138
102.847 0.245391 1.153
103.196 0.209293 1.2
103.587 0.298833 1.19601
104.622 0.358287 1.355
104.985 0.224314 1.291
105.711 0.235876 1.19701
106.829 0.197225 1.34901
108.828 0.316365 1.479
109.177 0.175451 1.506
109.555 0.25805 1.482
110.659 0.317272 1.555
111.036 0.329995 1.62601
111.498 0.314488 1.59901
112.629 0.143024 1.772
113.007 0.295499 1.677
113.384 0.203406 1.636
113.761 0.251067 1.651
114.111 0.354721 1.787
115.355 0.273726 1.764
117.186 0.309572 1.915
117.549 0.245476 1.90501
118.639 0.192942 1.956
118.989 0.401411 2.05701
119.422 0.267207 1.97601
120.889 0.192456 2.122
121.322 0.267882 2.15701
122.65 0.333349 2.164
123.363 0.372908 2.255
123.754 0.322695 2.23701
124.117 0.22366 2.29
124.509 0.278262 2.306
125.208 0.345818 2.357
125.557 0.239843 2.348
125.906 0.343497 2.368
127.01 0.297904 2.431
127.387 0.24075 2.481
128.114 0.252312 2.48901
128.478 0.362908 2.533
129.554 0.408247 2.64001
129.917 0.274275 2.653
130.63 0.243957 2.729
131.384 0.199524 2.77901
132.139 0.224968 2.743
133.216 0.375123 2.789
133.523 0.283262 2.912
134.739 0.223323 2.92001
135.172 0.403563 2.90401
135.592 0.367233 2.952
136.374 0.266806 3.01601
137.03 0.208723 3.149
137.408 0.32626 3.07
137.716 0.374153 3.208
138.415 0.40677 3.209
138.778 0.377613 3.201
139.127 0.376453 3.242
139.477 0.305415 3.217
139.826 0.40907 3.318
140.245 0.372739 3.291
140.608 0.273705 3.37801
140.986 0.391242 3.305
141.573 0.263515 3.359
142.943 0.349806 3.54601
143.376 0.320416 3.54401
145.053 0.314846 3.755
145.472 0.313454 3.731
146.576 0.372676 3.772
146.94 0.378457 3.734
148.351 0.31088 3.845
148.729 0.393479 3.899
149.497 0.390926 3.939
149.832 0.278009 4.01801
150.224 0.262734 3.86401
150.503 0.331682 4.065
151.65 0.411728 4.146
152.446 0.353181 4.216
152.837 0.407783 4.22
153.215 0.420505 4.25401
153.829 0.236783 4.396
154.556 0.35316 4.30801
154.892 0.379997 4.333
156.457 0.318897 4.484
157.169 0.288579 4.52901
157.547 0.301301 4.566
158.693 0.311471 4.647
159.056 0.317251 4.716
159.769 0.321872 4.79301
160.776 0.472259 4.93401
161.181 0.428987 4.944
161.628 0.3716 4.938
0.321271 -0.0499813 -0.0059967
0.866634 0.0460359 0.0370026
1.06157 -0.171232 -0.0279961
1.45341 -0.0118149 -0.131996
1.67646 -0.180262 -0.0329971
1.9149 0.0774931 -0.0719948
2.12395 -0.097895 -0.0389977
2.57156 0.0194102 -0.0519981
4.2486 0.0138403 -0.140995
4.91937 -0.00236298 -0.137997
5.52049 0.0515425 -0.102997
5.72954 -0.123846 -0.086998
6.28879 -0.0558254 -0.190998
6.86203 0.0191359 -0.115997
7.56045 -0.088 -0.184998
8.10559 -0.0618595 -0.147995
8.48331 0.0556778 -0.215996
8.70636 -0.112769 -0.166996
8.97268 0.12393 -0.187996
9.16762 -0.0933378 -0.237995
9.62911 -0.00402973 -0.211998
10.3136 -0.0831685 -0.175995
10.6497 0.11836 -0.256996
10.8867 -0.0780839 -0.191998
11.39 -0.00289043 -0.245998
11.9073 0.0443059 -0.274998
12.1303 -0.124141 -0.176998
12.55 0.0142201 -0.258995
13.2486 -0.0579774 -0.175995
13.8078 0.0100427 -0.240997
14.3532 0.10606 -0.235996
14.5622 -0.0693282 -0.202995
15.0098 0.047977 -0.346996
15.625 0.108824 -0.293995
15.834 -0.0665643 -0.243996
16.2679 0.113676 -0.324997
16.4909 -0.0547705 -0.225998
17.0502 0.0132496 -0.288998
18.2382 0.0442426 -0.318996
18.4333 -0.103148 -0.253998
18.6437 0.105786 -0.364998
18.8807 -0.0557199 -0.299995
19.2443 0.0199377 -0.340996
19.6918 0.102304 -0.290997
19.8868 -0.114963 -0.355995
20.2228 0.0865653 -0.402996
20.4739 -0.067999 -0.287998
20.9075 0.0423649 -0.336998
21.648 -0.00900887 -0.282997
22.2909 -0.00415632 -0.329998
22.8502 0.0638638 -0.412998
23.6465 -0.0296217 -0.327995
24.2753 -0.0317104 -0.356998
24.7788 0.0784215 -0.357998
25.3657 0.055509 -0.332996
25.7711 0.0821136 -0.368996
26.3858 0.0032069 -0.353996
26.9588 0.00829153 -0.328995
27.4623 0.118423 -0.410995
27.6993 -0.0430822 -0.329998
28.2588 0.0948146 -0.343998
28.4678 -0.0805734 -0.342999
28.9434 0.0506142 -0.551998
29.1946 -0.0690117 -0.306995
29.5866 0.125344 -0.397995
29.8376 -0.0292208 -0.248997
30.0619 0.186654 -0.475998
30.285 0.0182076 -0.410995
30.7185 0.0936331 -0.372997
30.9555 -0.0678724 -0.258995
31.3052 0.0357823 -0.427998
31.9759 -0.0153594 -0.413998
32.6328 -0.00356557 -0.395996
33.4152 -0.0690539 -0.398998
33.849 0.111187 -0.426998
34.0581 -0.0642014 -0.426998
34.5059 0.122981 -0.331997
35.0509 0.114183 -0.371998
35.6238 0.0843289 -0.411995
36.1967 0.0544752 -0.467999
36.8116 0.0454452 -0.414997
37.4125 0.029474 -0.375996
37.9858 0.104435 -0.295998
38.6703 0.0252966 -0.368996
39.2017 0.114373 -0.429996
39.4387 -0.047133 -0.314995
39.8724 0.0981692 -0.367996
40.5711 0.0609101 -0.380997
41.0746 0.171042 -0.387997
41.2696 -0.0112875 -0.435997
41.7731 0.0988444 -0.388996
42.402 0.0967557 -0.354996
43.1006 0.0594965 -0.294998
43.7015 0.0435253 -0.344997
44.2469 0.139542 -0.315998
44.9871 -0.0166464 -0.365997
45.4767 0.121483 -0.353996
46.0638 0.168447 -0.286995
46.2869 -2.84217e-14 -0.254997
46.7065 0.103423 -0.350998
47.2936 0.150387 -0.359997
47.5026 -0.0250012 -0.342999
47.8946 0.169354 -0.403996
48.1318 0.0427868 -0.271996
48.7468 0.0686952 -0.302998
49.4174 0.0175536 -0.356998
49.907 0.155683 -0.362995
50.1441 -0.00582306 -0.263996
50.6752 0.0133762 -0.289997
51.2065 0.0675138 -0.288998
51.8212 0.0235454 -0.309998
52.3804 0.0566272 -0.323997
52.9395 0.0897089 -0.283997
53.5265 0.101735 -0.320995
54.1136 0.148699 -0.277996
54.3227 -0.026689 -0.293995
54.8401 0.0554457 -0.296997
56.1677 0.0510362 -0.186996
56.7407 0.0561208 -0.230995
57.3001 0.159079 -0.158997
57.4951 -0.0232501 -0.207996
58.0405 0.0727672 -0.215996
58.7811 0.0563318 -0.166996
59.4102 0.0891815 -0.159996
59.9274 0.136378 -0.350998
60.2064 -0.004304 -0.137997
60.5563 0.134289 -0.247997
61.1154 0.167371 -0.168995
61.7444 0.20022 -0.0509949
61.9535 0.0248324 -0.0849953
62.4566 0.0301491 -0.157997
62.9741 0.147222 -0.109997
63.6309 0.124078 -0.111996
64.1622 0.213154 -0.060997
64.3993 0.051648 0.00500489
64.763 0.162244 -0.113998
65.336 0.167329 -0.0909958
65.5731 0.00582306 -0.0079956
66.16 -0.0170894 -0.0649948
66.6636 0.127981 -0.0209961
67.2367 0.168004 -0.079998
67.4737 0.0064982 0.00200653
68.0611 0.123339 -0.0579948
68.7461 0.183954 0.0390015
69.5425 0.125407 0.105003
70.2272 0.0812064 0.0699997
70.8422 0.107115 0.0430069
71.5409 0.104794 0.104004
72.1977 0.0816495 0.155006
72.6591 0.136019 0.0820007
73.3715 0.0358245 0.161003
73.8051 0.146188 0.121002
74.2945 0.214441 0.113007
74.5175 0.0459937 0.146004
75.0907 0.0860167 0.127007
75.6919 0.174861 0.198006
76.5303 0.137137 0.296005
77.229 0.0998782 0.249001
77.9277 0.0975574 0.275002
78.2637 0.264148 0.252007
78.5007 0.102642 0.300003
78.8925 0.227121 0.245003
79.1295 0.0656149 0.310005
79.605 0.161864 0.332001
79.8702 0.0491796 0.513
80.3456 0.145429 0.368004
81.0165 0.164164 0.357002
81.7293 0.168784 0.354004
82.4279 0.131525 0.347
83.1268 0.164143 0.451004
83.7138 0.176169 0.436005
84.2172 0.251362 0.445
84.4543 0.0898566 0.479004
84.7762 0.249506 0.465004
85.0133 0.088 0.515007
85.5024 0.0863754 0.466003
85.8942 0.245792 0.477005
86.1313 0.0842867 0.510002
86.8439 0.0539688 0.585007
87.2358 0.213386 0.446007
87.501 0.100701 0.643005
88.1161 0.161548 0.629005
88.9405 0.116883 0.673004
89.4442 0.296892 0.686005
89.6812 0.135386 0.735001
90.2125 0.189524 0.590004
90.9531 0.173088 0.705002
91.568 0.164058 0.670006
92.1692 0.217964 0.706001
92.3922 0.0495171 0.755005
92.8818 0.187646 0.751007
93.5385 0.129563 0.777
94.6707 0.202668 0.843002
95.3135 0.172582 0.798004
95.8449 0.261658 0.868004
96.697 0.160999 0.904007
97.4238 0.172561 0.957001
97.9832 0.275519 0.943001
98.2062 0.107073 0.959
98.626 0.280372 0.992004
98.8771 0.125808 1.05701
99.4223 0.186887 1.04501
100.037 0.177857 1.048
100.596 0.245877 1.03201
101.351 0.201444 1.148
102.022 0.150302 1.118
104.006 0.122748 1.147
104.621 0.218534 1.258
105.25 0.251383 1.247
106.075 0.17178 1.345
106.69 0.16275 1.314
107.346 0.139606 1.39001
107.947 0.158573 1.395
108.548 0.212478 1.445
109.331 0.14699 1.472
110.687 0.22634 1.568
111.148 0.350586 1.514
111.399 0.23096 1.662
112.042 0.235813 1.604
112.727 0.226551 1.634
113.468 0.210115 1.749
114.166 0.137918 1.723
114.6 0.248282 1.71301
114.837 0.0867763 1.71301
115.354 0.168911 1.75201
116.095 0.117537 1.82401
116.612 0.199672 1.806
117.339 0.246172 1.931
118.625 0.290816 1.972
118.848 0.122369 1.939
119.338 0.330374 2.056
119.561 0.161928 2.024
121.015 0.219989 2.15701
121.546 0.344004 2.132
121.797 0.154501 2.132
122.44 0.159354 2.056
123.055 0.255139 2.16801
123.74 0.280815 2.245
123.963 0.112368 2.246
124.411 0.264612 2.32
125.137 0.241235 2.366
125.822 0.231973 2.384
126.563 0.145661 2.441
127.01 0.228028 2.371
127.597 0.274992 2.50201
127.834 0.113486 2.51701
128.226 0.272903 2.54301
129.022 0.179418 2.576
129.554 0.338371 2.631
129.791 0.141927 2.565
130.434 0.251594 2.687
131.091 0.263388 2.661
131.664 0.373288 2.756
131.873 0.1979 2.675
132.559 0.293453 2.845
134.124 0.197414 2.86301
134.641 0.349426 2.959
134.892 0.159923 2.958
135.549 0.206655 2.985
136.178 0.239505 3.07401
136.626 0.321872 3.039
136.877 0.167308 3.104
137.324 0.284613 3.134
137.883 0.352633 3.15601
138.107 0.184186 3.139
139.518 0.256362 3.248
141.531 0.382444 3.429
141.782 0.22788 3.494
142.481 0.190621 3.46001
143.166 0.181359 3.33701
143.697 0.37525 3.54
145.29 0.293094 3.717
145.849 0.326176 3.674
146.072 0.122791 3.542
146.492 0.331028 3.732
146.744 0.246341 3.896
147.96 0.326155 3.894
148.854 0.281258 4.02901
150.419 0.255097 4.049
151.104 0.280773 4.05701
151.887 0.285161 4.162
153.298 0.252523 4.343
153.746 0.334889 4.291
153.983 0.138445 4.242
155.185 0.316133 4.444
156.051 0.257354 4.50201
156.583 0.381368 4.505
156.862 0.240687 4.58801
157.505 0.315416 4.58601
157.756 0.160852 4.58701
158.371 0.291575 4.69
159.168 0.267966 4.732
159.741 0.377866 4.812
159.978 0.251299 4.894
160.496 0.333434 4.866
161.111 0.359342 4.925
161.362 0.239716 5.006
161.893 0.293854 4.96201
2 0 1
2 0 240
2 0 241
2 0 242
2 0 243
2 0 536
2 1 3
2 1 4
2 1 9
2 1 26
2 1 237
2 1 240
2 1 241
2 1 242
2 1 243
2 1 244
2 1 245
2 1 246
2 1 247
2 1 258
2 1 262
2 2 3
2 2 4
2 2 243
2 2 244
2 2 245
2 2 246
2 2 247
2 2 248
2 2 251
2 3 4
2 3 5
2 3 6
2 3 9
2 3 241
2 3 244
2 3 245
2 3 246
2 3 247
2 3 248
2 3 251
2 4 5
2 4 6
2 4 9
2 4 243
2 4 245
2 4 247
2 4 248
2 4 258
2 5 6
2 5 7
2 5 9
2 5 243
2 5 245
2 5 248
2 5 249
2 5 250
2 5 251
2 5 252
2 5 256
2 5 258
2 5 262
2 6 9
2 6 249
2 6 250
2 6 251
2 7 8
2 7 9
2 7 11
2 7 249
2 7 250
2 7 251
2 7 252
2 7 256
2 7 258
2 8 9
2 8 10
2 8 250
2 8 251
2 8 252
2 8 253
2 9 10
2 9 11
2 9 12
2 9 14
2 9 19
2 9 26
2 9 43
2 9 75
2 9 84
2 9 154
2 9 173
2 9 237
2 9 241
2 9 244
2 9 250
2 9 251
2 9 252
2 9 253
2 9 255
2 9 256
2 9 258
2 9 368
2 9 404
2 9 515
2 9 536
2 10 11
2 10 12
2 10 14
2 10 251
2 10 252
2 10 253
2 10 254
2 10 255
2 10 257
2 11 12
2 11 22
2 11 243
2 11 252
2 11 253
2 11 254
2 11 255
2 11 256
2 11 257
2 11 259
2 11 262
2 12 13
2 12 14
2 12 254
2 12 255
2 12 256
2 12 257
2 12 258
2 13 14
2 13 256
2 13 257
2 13 258
2 13 259
2 14 15
2 14 16
2 14 19
2 14 26
2 14 27
2 14 32
2 14 43
2 14 75
2 14 241
2 14 244
2 14 251
2 14 255
2 14 257
2 14 258
2 14 259
2 14 260
2 14 261
2 14 262
2 14 263
2 14 266
2 14 268
2 14 270
2 14 276
2 14 305
2 14 309
2 14 322
2 14 368
2 14 404
2 14 515
2 14 536
2 15 16
2 15 256
2 15 258
2 15 259
2 15 260
2 15 261
2 15 262
2 16 17
2 16 19
2 16 260
2 16 261
2 16 262
2 16 263
2 17 18
2 17 19
2 17 262
2 17 263
2 17 264
2 18 19
2 18 262
2 18 263
2 18 264
2 18 265
2 19 20
2 19 21
2 19 22
2 19 23
2 19 26
2 19 27
2 19 258
2 19 262
2 19 263
2 19 264
2 19 265
2 19 266
2 19 268
2 19 270
2 20 21
2 20 265
2 20 266
2 20 268
2 21 22
2 21 23
2 21 265
2 21 266
2 21 267
2 21 268
2 22 23
2 22 24
2 22 26
2 22 30
2 22 243
2 22 259
2 22 262
2 22 263
2 22 264
2 22 265
2 22 266
2 22 267
2 22 268
2 22 272
2 22 274
2 22 284
2 23 24
2 23 26
2 23 267
2 23 268
2 23 269
2 23 270
2 23 272
2 24 25
2 24 266
2 24 268
2 24 269
2 24 270
2 24 271
2 24 272
2 24 274
2 25 26
2 25 27
2 25 269
2 25 270
2 25 271
2 25 272
2 26 27
2 26 29
2 26 34
2 26 39
2 26 43
2 26 44
2 26 237
2 26 245
2 26 258
2 26 262
2 26 270
2 26 271
2 26 272
2 26 273
2 26 274
2 26 275
2 26 283
2 26 306
2 27 28
2 27 29
2 27 32
2 27 34
2 27 39
2 27 43
2 27 268
2 27 270
2 27 271
2 27 273
2 27 274
2 27 275
2 27 276
2 27 277
2 27 283
2 28 29
2 28 274
2 28 275
2 28 276
2 29 30
2 29 31
2 29 32
2 29 34
2 29 44
2 29 262
2 29 272
2 29 274
2 29 275
2 29 276
2 29 277
2 29 278
2 29 280
2 29 283
2 29 285
2 30 266
2 30 272
2 30 274
2 30 276
2 30 277
2 30 278
2 30 279
2 30 280
2 30 281
2 30 282
2 30 284
2 30 285
2 31 32
2 31 276
2 31 277
2 31 278
2 31 279
2 31 280
2 31 281
2 32 33
2 32 36
2 32 39
2 32 43
2 32 45
2 32 268
2 32 276
2 32 277
2 32 278
2 32 279
2 32 280
2 32 281
2 32 282
2 32 283
2 32 284
2 32 286
2 32 305
2 33 34
2 33 280
2 33 282
2 33 283
2 33 284
2 33 285
2 34 35
2 34 38
2 34 39
2 34 43
2 34 44
2 34 280
2 34 283
2 34 284
2 34 285
2 34 290
2 35 36
2 35 37
2 35 38
2 35 39
2 35 283
2 35 284
2 35 285
2 35 286
2 35 287
2 36 37
2 36 38
2 36 39
2 36 43
2 36 45
2 36 279
2 36 283
2 36 286
2 36 287
2 36 288
2 36 305
2 37 38
2 37 284
2 37 285
2 37 286
2 37 287
2 37 288
2 37 289
2 37 290
2 38 39
2 38 285
2 38 288
2 38 289
2 38 290
2 39 40
2 39 42
2 39 43
2 39 44
2 39 45
2 39 283
2 39 288
2 39 289
2 39 290
2 39 292
2 39 293
2 40 41
2 40 42
2 40 43
2 40 45
2 40 288
2 40 289
2 40 290
2 40 291
2 40 292
2 40 293
2 40 294
2 41 42
2 41 44
2 41 291
2 41 292
2 41 293
2 42 43
2 42 44
2 42 45
2 42 291
2 42 292
2 42 293
2 42 294
2 42 295
2 42 296
2 42 297
2 42 299
2 43 44
2 43 45
2 43 48
2 43 52
2 43 57
2 43 60
2 43 61
2 43 75
2 43 84
2 43 154
2 43 173
2 43 237
2 43 288
2 43 293
2 43 294
2 43 295
2 43 296
2 43 305
2 43 306
2 43 316
2 43 322
2 43 368
2 44 45
2 44 46
2 44 48
2 44 76
2 44 262
2 44 272
2 44 284
2 44 285
2 44 290
2 44 292
2 44 293
2 44 294
2 44 295
2 44 296
2 44 297
2 44 298
2 44 299
2 44 302
2 44 306
2 45 46
2 45 47
2 45 48
2 45 52
2 45 288
2 45 291
2 45 294
2 45 296
2 45 297
2 45 298
2 45 299
2 45 300
2 45 305
2 46 47
2 46 48
2 46 297
2 46 298
2 46 299
2 47 48
2 47 298
2 47 299
2 48 49
2 48 50
2 48 52
2 48 57
2 48 298
2 48 299
2 48 300
2 48 302
2 48 305
2 48 306
2 49 50
2 49 298
2 49 299
2 49 300
2 49 301
2 49 302
2 50 51
2 50 52
2 50 300
2 50 301
2 50 302
2 50 303
2 50 305
2 50 306
2 51 52
2 51 302
2 51 303
2 51 304
2 52 53
2 52 55
2 52 57
2 52 60
2 52 300
2 52 302
2 52 303
2 52 304
2 52 305
2 52 306
2 52 308
2 52 316
2 52 322
2 53 302
2 53 304
2 53 305
2 53 306
2 53 307
2 53 308
2 54 301
2 54 302
2 54 303
2 54 305
2 54 306
2 54 307
2 54 308
2 54 309
2 54 310
2 54 311
2 55 56
2 55 57
2 55 58
2 55 305
2 55 306
2 55 308
2 55 309
2 55 310
2 55 311
2 55 312
2 55 316
2 56 57
2 56 309
2 56 310
2 56 311
2 56 312
2 57 58
2 57 60
2 57 61
2 57 75
2 57 76
2 57 84
2 57 302
2 57 306
2 57 308
2 57 310
2 57 311
2 57 312
2 57 316
2 58 60
2 58 61
2 58 65
2 58 76
2 58 302
2 58 306
2 58 311
2 58 312
2 58 313
2 58 314
2 58 315
2 58 316
2 58 319
2 59 60
2 59 305
2 59 309
2 59 312
2 59 313
2 59 315
2 59 316
2 59 317
2 59 318
2 59 320
2 59 321
2 59 322
2 59 325
2 60 61
2 60 75
2 60 314
2 60 315
2 60 316
2 60 317
2 60 318
2 60 319
2 60 322
2 61 62
2 61 63
2 61 64
2 61 65
2 61 70
2 61 75
2 61 76
2 61 84
2 61 318
2 61 319
2 61 320
2 61 321
2 61 322
2 61 324
2 61 328
2 62 63
2 62 64
2 62 321
2 62 322
2 62 323
2 63 64
2 63 65
2 63 321
2 63 322
2 63 323
2 63 324
2 63 325
2 64 65
2 64 66
2 64 67
2 64 70
2 64 75
2 64 322
2 64 323
2 64 324
2 64 325
2 64 326
2 64 328
2 65 66
2 65 67
2 65 70
2 65 76
2 65 302
2 65 315
2 65 319
2 65 320
2 65 321
2 65 323
2 65 324
2 65 325
2 65 326
2 65 327
2 65 328
2 65 329
2 66 67
2 66 68
2 66 69
2 66 75
2 66 79
2 66 309
2 66 322
2 66 324
2 66 325
2 66 326
2 66 327
2 66 328
2 66 329
2 66 332
2 66 337
2 66 338
2 67 68
2 67 70
2 67 326
2 67 327
2 67 328
2 67 329
2 68 69
2 68 325
2 68 327
2 68 328
2 68 329
2 68 330
2 68 331
2 68 332
2 69 70
2 69 71
2 69 325
2 69 328
2 69 329
2 69 330
2 69 331
2 69 332
2 69 333
2 69 335
2 70 71
2 70 72
2 70 75
2 70 76
2 70 328
2 70 329
2 70 330
2 70 331
2 70 332
2 70 335
2 71 72
2 71 329
2 71 331
2 71 332
2 71 333
2 71 335
2 72 73
2 72 75
2 72 76
2 72 328
2 72 331
2 72 332
2 72 333
2 72 334
2 72 335
2 73 74
2 73 75
2 73 76
2 73 333
2 73 334
2 73 335
2 74 75
2 74 76
2 74 335
2 74 336
2 74 338
2 75 76
2 75 78
2 75 81
2 75 84
2 75 322
2 75 328
2 75 332
2 75 334
2 75 335
2 75 336
2 75 337
2 75 338
2 75 340
2 75 342
2 75 368
2 76 77
2 76 78
2 76 81
2 76 84
2 76 88
2 76 89
2 76 97
2 76 107
2 76 284
2 76 302
2 76 306
2 76 315
2 76 319
2 76 328
2 76 329
2 76 335
2 76 336
2 76 337
2 76 338
2 76 339
2 76 340
2 76 341
2 76 342
2 76 345
2 76 346
2 76 350
2 76 351
2 76 353
2 76 355
2 76 356
2 76 364
2 76 378
2 77 78
2 77 79
2 77 337
2 77 338
2 77 339
2 77 340
2 77 341
2 78 79
2 78 80
2 78 81
2 78 84
2 78 337
2 78 338
2 78 340
2 78 341
2 78 342
2 78 343
2 78 344
2 79 80
2 79 84
2 79 85
2 79 95
2 79 305
2 79 309
2 79 322
2 79 332
2 79 337
2 79 338
2 79 341
2 79 342
2 79 343
2 79 344
2 79 345
2 79 347
2 79 368
2 79 404
2 80 81
2 80 82
2 80 83
2 80 84
2 80 85
2 80 342
2 80 344
2 80 345
2 80 347
2 81 82
2 81 83
2 81 84
2 81 342
2 81 344
2 81 345
2 81 346
2 81 347
2 82 345
2 82 346
2 82 347
2 82 348
2 83 84
2 83 85
2 83 346
2 83 347
2 83 348
2 83 349
2 84 85
2 84 86
2 84 87
2 84 88
2 84 100
2 84 108
2 84 154
2 84 173
2 84 306
2 84 337
2 84 342
2 84 346
2 84 349
2 84 350
2 84 351
2 84 359
2 84 368
2 85 86
2 85 87
2 85 88
2 85 92
2 85 95
2 85 337
2 85 347
2 85 348
2 85 349
2 85 350
2 85 355
2 85 357
2 85 359
2 85 360
2 85 368
2 85 404
2 86 87
2 86 88
2 86 350
2 86 351
2 87 88
2 87 90
2 87 92
2 87 350
2 87 351
2 87 352
2 87 355
2 87 357
2 87 359
2 88 89
2 88 90
2 88 92
2 88 93
2 88 94
2 88 97
2 88 100
2 88 108
2 88 154
2 88 346
2 88 351
2 88 352
2 88 353
2 88 354
2 88 357
2 88 359
2 88 364
2 88 368
2 89 90
2 89 93
2 89 94
2 89 353
2 89 354
2 89 356
2 89 364
2 90 91
2 90 92
2 90 352
2 90 353
2 90 354
2 90 355
2 91 92
2 91 354
2 91 355
2 91 356
2 92 93
2 92 354
2 92 355
2 92 356
2 92 357
2 92 359
2 93 94
2 93 354
2 93 356
2 93 357
2 93 358
2 93 359
2 94 95
2 94 96
2 94 97
2 94 354
2 94 356
2 94 358
2 94 359
2 94 360
2 94 361
2 94 364
2 95 96
2 95 338
2 95 347
2 95 355
2 95 357
2 95 358
2 95 359
2 95 360
2 95 361
2 95 362
2 95 365
2 95 368
2 95 369
2 95 374
2 95 377
2 95 404
2 96 97
2 96 359
2 96 361
2 96 362
2 96 363
2 96 364
2 96 365
2 96 366
2 96 367
2 96 368
2 97 98
2 97 99
2 97 100
2 97 102
2 97 104
2 97 107
2 97 108
2 97 359
2 97 363
2 97 364
2 97 366
2 97 367
2 97 368
2 97 369
2 97 370
2 97 371
2 97 372
2 97 375
2 98 99
2 98 368
2 98 369
2 98 370
2 98 371
2 99 100
2 99 368
2 99 369
2 99 370
2 99 371
2 99 373
2 99 374
2 100 101
2 100 102
2 100 104
2 100 107
2 100 108
2 100 364
2 100 368
2 100 371
2 100 372
2 100 373
2 100 374
2 100 375
2 100 376
2 100 377
2 100 379
2 100 384
2 101 102
2 101 104
2 101 364
2 101 374
2 101 375
2 101 376
2 101 377
2 101 380
2 102 103
2 102 104
2 102 106
2 102 107
2 102 108
2 102 364
2 102 374
2 102 376
2 102 378
2 102 379
2 102 380
2 102 381
2 102 382
2 102 383
2 102 384
2 103 104
2 103 105
2 103 374
2 103 377
2 103 379
2 103 380
2 103 381
2 103 382
2 103 383
2 103 384
2 104 105
2 104 106
2 104 107
2 104 119
2 104 364
2 104 380
2 104 382
2 104 383
2 104 384
2 104 385
2 104 386
2 104 389
2 104 394
2 105 106
2 105 381
2 105 382
2 105 383
2 105 384
2 105 385
2 106 107
2 106 108
2 106 383
2 106 384
2 106 385
2 107 108
2 107 109
2 107 110
2 107 114
2 107 119
2 107 127
2 107 364
2 107 384
2 107 385
2 107 386
2 107 389
2 107 392
2 107 394
2 107 399
2 107 419
2 108 109
2 108 111
2 108 113
2 108 114
2 108 127
2 108 154
2 108 368
2 108 383
2 108 384
2 108 385
2 108 386
2 108 387
2 108 388
2 108 392
2 108 396
2 108 399
2 108 404
2 108 423
2 109 110
2 109 111
2 109 114
2 109 386
2 109 387
2 109 388
2 109 389
2 109 392
2 110 111
2 110 386
2 110 387
2 110 388
2 110 389
2 110 391
2 110 392
2 110 394
2 111 112
2 111 113
2 111 114
2 111 388
2 111 389
2 111 390
2 111 391
2 111 392
2 112 113
2 112 389
2 112 390
2 112 391
2 112 392
2 113 114
2 113 368
2 113 374
2 113 377
2 113 378
2 113 381
2 113 384
2 113 388
2 113 390
2 113 391
2 113 392
2 113 393
2 113 394
2 113 395
2 113 396
2 113 397
2 113 404
2 114 115
2 114 116
2 114 119
2 114 127
2 114 392
2 114 394
2 114 395
2 114 396
2 114 397
2 114 399
2 114 401
2 114 419
2 115 116
2 115 394
2 115 395
2 115 396
2 115 397
2 115 399
2 116 119
2 116 394
2 116 396
2 116 397
2 116 398
2 116 399
2 116 401
2 117 393
2 117 397
2 117 398
2 117 399
2 117 400
2 117 401
2 117 402
2 117 404
2 118 119
2 118 401
2 118 402
2 118 403
2 118 404
2 119 120
2 119 121
2 119 127
2 119 364
2 119 392
2 119 393
2 119 394
2 119 397
2 119 398
2 119 401
2 119 402
2 119 403
2 119 404
2 119 405
2 119 406
2 119 407
2 119 408
2 119 415
2 119 419
2 120 121
2 120 122
2 120 123
2 120 124
2 120 127
2 120 399
2 120 401
2 120 403
2 120 404
2 120 405
2 120 406
2 120 411
2 121 122
2 121 123
2 121 124
2 121 127
2 121 406
2 121 407
2 121 408
2 121 411
2 122 123
2 122 127
2 122 404
2 122 406
2 122 407
2 122 408
2 122 409
2 122 411
2 123 124
2 123 408
2 123 409
2 123 411
2 124 125
2 124 408
2 124 409
2 124 410
2 124 411
2 125 126
2 125 127
2 125 408
2 125 409
2 125 410
2 125 411
2 125 412
2 125 419
2 126 127
2 126 408
2 126 411
2 126 412
2 126 413
2 126 414
2 126 415
2 126 416
2 126 419
2 127 128
2 127 130
2 127 135
2 127 139
2 127 150
2 127 154
2 127 399
2 127 401
2 127 404
2 127 408
2 127 409
2 127 411
2 127 412
2 127 413
2 127 414
2 127 415
2 127 416
2 127 419
2 127 423
2 128 130
2 128 404
2 128 409
2 128 411
2 128 413
2 128 414
2 128 415
2 128 416
2 128 417
2 128 418
2 128 420
2 129 130
2 129 415
2 129 416
2 129 417
2 129 418
2 129 419
2 130 131
2 130 404
2 130 416
2 130 418
2 130 419
2 130 420
2 130 421
2 130 423
2 131 132
2 131 419
2 131 420
2 131 421
2 131 423
2 132 418
2 132 419
2 132 420
2 132 421
2 132 422
2 132 423
2 132 425
2 133 134
2 133 135
2 133 139
2 133 419
2 133 423
2 133 425
2 133 426
2 133 427
2 133 428
2 134 135
2 134 423
2 134 424
2 134 426
2 134 427
2 134 428
2 134 429
2 134 430
2 135 136
2 135 137
2 135 138
2 135 139
2 135 140
2 135 141
2 135 150
2 135 154
2 135 419
2 135 423
2 135 424
2 135 428
2 135 429
2 135 430
2 135 431
2 135 432
2 135 433
2 135 434
2 135 439
2 135 440
2 136 137
2 136 138
2 136 431
2 136 432
2 136 433
2 136 434
2 137 138
2 137 139
2 137 143
2 137 425
2 137 428
2 137 430
2 137 431
2 137 433
2 137 434
2 138 139
2 138 140
2 138 141
2 138 429
2 138 431
2 138 432
2 138 433
2 138 434
2 138 435
2 138 436
2 138 438
2 138 440
2 139 140
2 139 142
2 139 143
2 139 150
2 139 419
2 139 423
2 139 425
2 139 428
2 139 433
2 139 434
2 139 435
2 139 437
2 140 141
2 140 142
2 140 150
2 140 434
2 140 435
2 140 436
2 140 437
2 140 439
2 140 440
2 141 142
2 141 435
2 141 436
2 141 440
2 142 143
2 142 435
2 142 436
2 142 437
2 143 144
2 143 147
2 143 150
2 143 156
2 143 415
2 143 419
2 143 425
2 143 429
2 143 433
2 143 435
2 143 436
2 143 437
2 143 438
2 143 439
2 143 443
2 143 445
2 143 446
2 143 456
2 144 145
2 144 146
2 144 438
2 144 439
2 144 440
2 144 441
2 144 442
2 144 443
2 144 445
2 144 446
2 145 146
2 145 438
2 145 439
2 145 440
2 145 441
2 145 442
2 146 439
2 146 440
2 146 441
2 146 444
2 147 148
2 147 149
2 147 150
2 147 154
2 147 437
2 147 439
2 147 441
2 147 442
2 147 443
2 147 444
2 147 445
2 148 149
2 148 150
2 148 443
2 148 444
2 149 150
2 149 442
2 149 443
2 149 444
2 149 445
2 150 151
2 150 152
2 150 153
2 150 154
2 150 156
2 150 173
2 150 419
2 150 423
2 150 437
2 150 439
2 150 443
2 150 444
2 150 445
2 150 446
2 150 456
2 151 152
2 151 153
2 151 445
2 151 446
2 152 153
2 152 154
2 152 155
2 152 444
2 152 445
2 152 446
2 152 447
2 152 449
2 153 154
2 153 156
2 153 446
2 153 447
2 153 448
2 154 155
2 154 156
2 154 157
2 154 158
2 154 159
2 154 162
2 154 164
2 154 168
2 154 173
2 154 214
2 154 237
2 154 368
2 154 404
2 154 423
2 154 424
2 154 439
2 154 440
2 154 444
2 154 446
2 154 447
2 154 448
2 154 449
2 154 451
2 154 456
2 154 457
2 154 515
2 155 156
2 155 446
2 155 447
2 155 448
2 155 449
2 156 157
2 156 158
2 156 160
2 156 166
2 156 167
2 156 446
2 156 448
2 156 449
2 156 450
2 156 452
2 156 454
2 156 456
2 156 463
2 156 475
2 157 158
2 157 449
2 157 450
2 157 451
2 157 452
2 158 159
2 158 160
2 158 161
2 158 162
2 158 451
2 158 452
2 158 453
2 158 454
2 158 456
2 158 457
2 159 160
2 159 162
2 159 164
2 159 449
2 159 451
2 159 452
2 159 453
2 159 454
2 159 455
2 159 457
2 160 161
2 160 162
2 160 452
2 160 453
2 160 454
2 160 455
2 160 456
2 161 162
2 161 455
2 161 456
2 162 163
2 162 164
2 162 165
2 162 168
2 162 455
2 162 456
2 162 457
2 163 164
2 163 165
2 163 168
2 163 456
2 163 457
2 163 458
2 164 165
2 164 166
2 164 168
2 164 173
2 164 191
2 164 192
2 164 202
2 164 404
2 164 429
2 164 440
2 164 449
2 164 451
2 164 454
2 164 455
2 164 457
2 164 458
2 164 459
2 164 460
2 164 461
2 164 463
2 164 465
2 164 467
2 164 471
2 164 472
2 164 478
2 164 485
2 164 515
2 164 536
2 165 166
2 165 167
2 165 168
2 165 456
2 165 458
2 165 459
2 165 460
2 166 167
2 166 454
2 166 456
2 166 458
2 166 459
2 166 460
2 166 461
2 166 463
2 167 168
2 167 169
2 167 174
2 167 456
2 167 460
2 167 461
2 167 462
2 167 463
2 167 466
2 167 475
2 168 169
2 168 170
2 168 173
2 168 456
2 168 460
2 168 461
2 168 462
2 168 463
2 168 464
2 168 465
2 168 467
2 169 170
2 169 173
2 169 174
2 169 456
2 169 462
2 169 463
2 169 464
2 169 465
2 169 466
2 170 171
2 170 173
2 170 174
2 170 465
2 170 466
2 170 467
2 170 468
2 171 172
2 171 173
2 171 174
2 171 465
2 171 466
2 171 467
2 171 468
2 171 469
2 172 173
2 172 467
2 172 468
2 172 469
2 172 471
2 173 174
2 173 176
2 173 177
2 173 178
2 173 189
2 173 191
2 173 197
2 173 202
2 173 207
2 173 214
2 173 237
2 173 456
2 173 467
2 173 468
2 173 469
2 173 470
2 173 471
2 173 472
2 173 473
2 173 480
2 173 515
2 174 175
2 174 177
2 174 456
2 174 466
2 174 468
2 174 469
2 174 470
2 174 471
2 174 473
2 174 475
2 175 176
2 175 470
2 175 471
2 175 472
2 175 473
2 175 474
2 175 475
2 175 478
2 176 177
2 176 178
2 176 472
2 176 473
2 176 474
2 177 178
2 177 179
2 177 184
2 177 189
2 177 194
2 177 197
2 177 456
2 177 473
2 177 474
2 177 475
2 177 476
2 178 179
2 178 180
2 178 181
2 178 182
2 178 184
2 178 189
2 178 197
2 178 456
2 178 472
2 178 473
2 178 474
2 178 476
2 178 477
2 178 478
2 178 479
2 178 480
2 179 180
2 179 181
2 179 182
2 179 183
2 179 184
2 179 475
2 179 476
2 179 477
2 179 478
2 179 479
2 180 181
2 180 472
2 180 477
2 180 478
2 180 479
2 180 480
2 181 182
2 181 183
2 181 478
2 181 479
2 181 480
2 182 183
2 182 184
2 182 188
2 182 189
2 182 479
2 182 480
2 182 481
2 182 482
2 182 484
2 183 184
2 183 475
2 183 478
2 183 480
2 183 481
2 183 482
2 183 483
2 184 185
2 184 188
2 184 189
2 184 194
2 184 197
2 184 475
2 184 481
2 184 482
2 184 483
2 184 484
2 185 186
2 185 188
2 185 482
2 185 483
2 185 484
2 186 482
2 186 483
2 186 484
2 186 485
2 187 188
2 187 483
2 187 484
2 187 485
2 187 486
2 187 487
2 187 489
2 188 189
2 188 194
2 188 197
2 188 483
2 188 484
2 188 486
2 188 487
2 188 489
2 188 491
2 188 493
2 189 190
2 189 191
2 189 194
2 189 195
2 189 197
2 189 202
2 189 203
2 189 207
2 189 237
2 189 472
2 189 480
2 189 482
2 189 484
2 189 485
2 189 486
2 189 487
2 189 488
2 189 489
2 189 490
2 189 491
2 189 492
2 189 494
2 189 496
2 190 191
2 190 487
2 190 488
2 190 489
2 190 490
2 191 192
2 191 195
2 191 202
2 191 472
2 191 480
2 191 482
2 191 484
2 191 485
2 191 486
2 191 487
2 191 488
2 191 489
2 191 490
2 191 491
2 191 492
2 191 494
2 192 193
2 192 195
2 192 200
2 192 202
2 192 472
2 192 485
2 192 487
2 192 489
2 192 491
2 192 492
2 192 493
2 192 494
2 192 495
2 192 497
2 192 501
2 192 515
2 193 194
2 193 195
2 193 492
2 193 493
2 193 494
2 193 495
2 194 195
2 194 197
2 194 475
2 194 483
2 194 491
2 194 492
2 194 493
2 194 494
2 194 495
2 194 496
2 195 200
2 195 202
2 195 492
2 195 494
2 195 495
2 195 496
2 195 497
2 195 499
2 196 197
2 196 495
2 196 496
2 196 497
2 196 498
2 197 198
2 197 199
2 197 201
2 197 202
2 197 203
2 197 204
2 197 207
2 197 210
2 197 222
2 197 227
2 197 237
2 197 456
2 197 475
2 197 483
2 197 492
2 197 493
2 197 495
2 197 496
2 197 497
2 197 498
2 197 500
2 197 509
2 198 199
2 198 201
2 198 202
2 198 496
2 198 498
2 198 499
2 198 500
2 199 201
2 199 495
2 199 498
2 199 499
2 199 500
2 199 501
2 199 504
2 199 509
2 200 201
2 200 202
2 200 209
2 200 485
2 200 497
2 200 499
2 200 500
2 200 501
2 200 502
2 200 504
2 200 505
2 200 507
2 200 515
2 201 202
2 201 203
2 201 204
2 201 206
2 201 210
2 201 500
2 201 501
2 201 502
2 201 503
2 201 504
2 201 509
2 202 203
2 202 205
2 202 207
2 202 209
2 202 214
2 202 237
2 202 492
2 202 496
2 202 499
2 202 500
2 202 502
2 202 503
2 202 504
2 202 505
2 202 507
2 202 515
2 203 204
2 203 205
2 203 207
2 203 210
2 203 503
2 203 504
2 204 205
2 204 206
2 204 207
2 204 208
2 204 210
2 204 503
2 204 504
2 204 505
2 205 206
2 205 207
2 205 208
2 205 504
2 205 505
2 206 207
2 206 208
2 206 210
2 206 211
2 206 504
2 206 505
2 206 509
2 207 208
2 207 209
2 207 210
2 207 214
2 207 216
2 207 217
2 207 219
2 207 224
2 207 227
2 207 237
2 207 505
2 207 506
2 207 507
2 207 510
2 208 209
2 208 210
2 208 505
2 209 210
2 209 211
2 209 504
2 209 505
2 209 506
2 209 507
2 210 211
2 210 217
2 210 219
2 210 220
2 210 222
2 210 224
2 210 227
2 210 505
2 210 506
2 210 509
2 210 510
2 211 505
2 211 506
2 211 507
2 211 508
2 211 509
2 212 213
2 212 214
2 212 506
2 212 507
2 212 508
2 212 509
2 212 510
2 213 214
2 213 508
2 213 509
2 213 510
2 214 215
2 214 216
2 214 219
2 214 224
2 214 237
2 214 404
2 214 506
2 214 507
2 214 508
2 214 509
2 214 510
2 214 511
2 214 512
2 214 513
2 214 515
2 214 517
2 215 216
2 215 511
2 215 512
2 215 513
2 215 515
2 216 217
2 216 219
2 216 224
2 216 506
2 216 510
2 216 512
2 216 514
2 216 515
2 216 516
2 216 517
2 217 218
2 217 219
2 217 220
2 217 222
2 217 230
2 217 509
2 217 510
2 217 512
2 217 513
2 217 514
2 217 515
2 217 516
2 218 219
2 218 220
2 218 222
2 218 513
2 218 515
2 218 516
2 218 517
2 219 220
2 219 222
2 219 224
2 219 227
2 219 510
2 219 516
2 219 517
2 220 221
2 220 222
2 220 223
2 220 224
2 220 227
2 220 230
2 220 517
2 221 222
2 221 223
2 221 517
2 221 518
2 222 223
2 222 224
2 222 226
2 222 227
2 222 229
2 222 230
2 222 234
2 222 509
2 222 513
2 222 517
2 222 518
2 222 519
2 222 520
2 222 523
2 222 529
2 223 224
2 223 517
2 223 518
2 223 519
2 223 520
2 223 521
2 224 225
2 224 226
2 224 227
2 224 228
2 224 237
2 224 517
2 224 519
2 224 520
2 224 521
2 225 226
2 225 227
2 225 520
2 225 521
2 225 523
2 226 227
2 226 229
2 226 520
2 226 521
2 226 523
2 227 228
2 227 229
2 227 230
2 227 237
2 227 521
2 227 522
2 227 523
2 227 524
2 227 526
2 228 229
2 228 230
2 228 237
2 228 515
2 228 517
2 228 518
2 228 521
2 228 522
2 228 523
2 228 524
2 228 525
2 228 527
2 228 529
2 228 533
2 228 536
2 229 230
2 229 522
2 229 523
2 229 524
2 230 231
2 230 232
2 230 234
2 230 237
2 230 239
2 230 523
2 230 524
2 230 525
2 230 526
2 231 232
2 231 523
2 231 525
2 231 526
2 231 527
2 231 529
2 232 233
2 232 234
2 232 523
2 232 526
2 232 527
2 232 528
2 232 529
2 233 234
2 233 526
2 233 528
2 233 529
2 233 530
2 234 235
2 234 236
2 234 237
2 234 239
2 234 523
2 234 526
2 234 528
2 234 529
2 234 530
2 234 531
2 234 532
2 234 534
2 234 537
2 235 236
2 235 530
2 235 531
2 235 532
2 235 533
2 236 237
2 236 239
2 236 531
2 236 532
2 236 533
2 236 534
2 236 537
2 237 238
2 237 239
2 237 241
2 237 404
2 237 515
2 237 517
2 237 524
2 237 526
2 237 527
2 237 530
2 237 532
2 237 533
2 237 534
2 237 535
2 237 536
2 238 239
2 238 534
2 238 535
2 238 536
2 238 537
2 239 534
2 239 535
2 239 536
2 239 537
2 240 241
2 240 242
2 240 243
2 240 536
2 241 242
2 241 244
2 241 246
2 241 536
2 242 243
2 242 244
2 242 259
2 242 536
2 243 244
2 243 245
2 243 246
2 243 247
2 243 248
2 243 252
2 243 256
2 243 259
2 243 262
2 243 272
2 244 245
2 244 246
2 244 248
2 244 251
2 244 252
2 244 254
2 244 257
2 244 259
2 244 266
2 244 284
2 244 309
2 244 378
2 244 404
2 244 513
2 244 523
2 244 529
2 244 536
2 245 246
2 245 247
2 245 258
2 245 262
2 246 247
2 248 249
2 248 251
2 248 252
2 248 256
2 249 250
2 249 251
2 249 252
2 250 251
2 251 252
2 251 254
2 251 257
2 251 259
2 251 266
2 251 305
2 251 309
2 252 253
2 252 254
2 252 256
2 252 259
2 253 254
2 254 255
2 254 257
2 254 259
2 255 256
2 255 257
2 256 257
2 256 258
2 256 259
2 256 262
2 257 258
2 257 259
2 257 261
2 257 266
2 258 259
2 258 262
2 259 260
2 259 261
2 259 262
2 259 263
2 259 264
2 259 265
2 259 266
2 259 272
2 259 284
2 259 302
2 260 261
2 260 262
2 261 262
2 261 263
2 261 266
2 262 263
2 262 264
2 262 265
2 262 272
2 263 264
2 263 266
2 264 265
2 264 266
2 265 266
2 265 267
2 266 267
2 266 268
2 266 271
2 266 274
2 266 279
2 266 284
2 266 305
2 266 309
2 267 268
2 268 269
2 268 270
2 268 271
2 268 276
2 268 279
2 268 305
2 269 270
2 269 271
2 270 271
2 270 272
2 271 272
2 271 274
2 271 276
2 271 279
2 272 273
2 272 274
2 272 275
2 272 280
2 272 284
2 272 285
2 272 302
2 273 274
2 273 275
2 274 275
2 274 276
2 274 277
2 274 279
2 274 284
2 275 276
2 276 277
2 276 279
2 276 305
2 277 278
2 277 279
2 278 279
2 278 280
2 279 280
2 279 281
2 279 284
2 279 286
2 279 288
2 279 301
2 279 303
2 279 305
2 279 309
2 280 281
2 280 282
2 280 283
2 280 284
2 280 285
2 281 282
2 281 284
2 282 284
2 283 284
2 283 286
2 284 285
2 284 286
2 284 287
2 284 288
2 284 289
2 284 290
2 284 291
2 284 292
2 284 301
2 284 302
2 284 309
2 284 313
2 284 315
2 284 355
2 284 360
2 284 378
2 285 286
2 285 287
2 285 290
2 285 302
2 286 287
2 286 288
2 286 289
2 286 291
2 286 301
2 286 303
2 286 305
2 288 289
2 288 291
2 288 305
2 289 290
2 289 291
2 290 291
2 290 292
2 290 293
2 290 302
2 291 292
2 291 297
2 291 299
2 291 301
2 291 303
2 291 305
2 292 293
2 292 296
2 292 297
2 292 299
2 292 301
2 292 302
2 293 294
2 293 295
2 294 295
2 294 296
2 294 297
2 295 296
2 296 297
2 296 299
2 296 301
2 296 302
2 297 299
2 297 305
2 298 299
2 298 302
2 299 300
2 299 301
2 299 302
2 299 303
2 299 305
2 300 301
2 300 302
2 300 303
2 300 305
2 301 302
2 301 303
2 301 309
2 301 311
2 301 313
2 301 315
2 302 303
2 302 304
2 302 306
2 302 307
2 302 310
2 302 311
2 302 313
2 302 315
2 302 319
2 303 304
2 303 305
2 303 307
2 303 309
2 303 311
2 304 305
2 304 306
2 304 307
2 305 306
2 305 307
2 305 308
2 305 309
2 305 316
2 305 322
2 305 404
2 306 307
2 306 308
2 306 310
2 307 308
2 307 309
2 308 309
2 308 310
2 309 310
2 309 311
2 309 312
2 309 313
2 309 316
2 309 322
2 309 325
2 309 338
2 309 360
2 309 378
2 309 404
2 310 311
2 311 312
2 311 313
2 311 315
2 312 313
2 312 316
2 313 314
2 313 315
2 313 316
2 313 325
2 313 355
2 313 360
2 314 315
2 314 316
2 314 318
2 314 319
2 315 316
2 315 317
2 315 318
2 315 319
2 315 320
2 315 321
2 315 325
2 315 329
2 315 341
2 315 355
2 316 317
2 316 322
2 317 318
2 318 319
2 318 320
2 318 322
2 319 320
2 319 321
2 319 325
2 320 321
2 320 322
2 321 322
2 321 323
2 321 324
2 321 325
2 322 323
2 322 325
2 322 328
2 322 337
2 322 368
2 322 404
2 323 324
2 323 325
2 324 325
2 325 327
2 325 329
2 325 332
2 325 335
2 325 338
2 325 341
2 325 347
2 325 355
2 325 360
2 325 377
2 325 404
2 326 327
2 326 328
2 327 328
2 327 329
2 328 329
2 328 330
2 328 331
2 328 332
2 328 334
2 329 330
2 329 333
2 329 335
2 329 341
2 330 331
2 331 332
2 332 333
2 332 334
2 332 335
2 332 337
2 332 338
2 333 334
2 333 335
2 334 335
2 334 338
2 335 336
2 335 338
2 335 341
2 336 337
2 336 338
2 337 338
2 337 339
2 337 340
2 337 368
2 338 339
2 338 341
2 338 347
2 338 360
2 338 365
2 338 377
2 338 404
2 339 340
2 340 341
2 340 342
2 341 342
2 341 343
2 341 344
2 341 345
2 341 347
2 341 355
2 342 343
2 342 344
2 342 345
2 343 344
2 344 345
2 345 346
2 345 347
2 345 348
2 345 350
2 345 355
2 346 347
2 346 348
2 346 349
2 346 350
2 346 351
2 346 353
2 347 348
2 347 350
2 347 355
2 347 360
2 348 349
2 348 350
2 349 350
2 350 351
2 350 355
2 351 352
2 351 353
2 351 355
2 352 353
2 352 355
2 353 354
2 353 355
2 353 356
2 353 364
2 354 355
2 354 356
2 355 356
2 355 357
2 355 358
2 355 360
2 355 364
2 355 378
2 356 357
2 356 358
2 356 360
2 356 364
2 357 358
2 357 359
2 357 360
2 358 359
2 358 360
2 358 364
2 359 360
2 359 361
2 359 368
2 360 361
2 360 362
2 360 364
2 360 365
2 360 370
2 360 377
2 360 378
2 360 404
2 361 362
2 361 364
2 362 363
2 362 364
2 362 365
2 363 364
2 363 365
2 363 366
2 363 367
2 363 368
2 364 365
2 364 366
2 364 370
2 364 372
2 364 375
2 364 378
2 364 380
2 364 382
2 364 394
2 364 419
2 365 366
2 365 367
2 365 368
2 365 369
2 365 370
2 365 374
2 365 377
2 365 378
2 366 367
2 366 369
2 366 370
2 367 368
2 367 369
2 367 370
2 368 369
2 368 371
2 368 373
2 368 374
2 368 384
2 368 404
2 369 370
2 369 371
2 369 374
2 369 377
2 369 378
2 370 371
2 370 372
2 370 374
2 370 375
2 370 377
2 370 378
2 371 372
2 371 373
2 371 374
2 372 373
2 372 374
2 372 375
2 372 377
2 372 378
2 373 374
2 373 375
2 374 375
2 374 377
2 374 379
2 374 384
2 374 404
2 375 376
2 375 377
2 375 378
2 375 380
2 376 377
2 376 378
2 376 379
2 376 380
2 377 378
2 377 379
2 377 381
2 377 384
2 377 404
2 378 379
2 378 380
2 378 381
2 378 382
2 378 386
2 378 390
2 378 393
2 378 394
2 378 404
2 378 415
2 378 418
2 378 429
2 378 463
2 378 485
2 378 513
2 378 523
2 379 380
2 379 381
2 380 381
2 380 382
2 381 382
2 381 383
2 381 384
2 381 385
2 381 386
2 381 388
2 381 390
2 382 383
2 382 384
2 382 385
2 382 386
2 382 394
2 383 384
2 384 385
2 384 387
2 384 388
2 384 404
2 385 386
2 385 387
2 385 388
2 385 390
2 386 387
2 386 388
2 386 389
2 386 390
2 386 393
2 386 394
2 387 388
2 387 389
2 387 390
2 388 389
2 388 390
2 389 390
2 389 391
2 389 392
2 389 393
2 389 394
2 390 391
2 390 393
2 390 404
2 390 418
2 391 392
2 391 393
2 391 394
2 392 393
2 392 394
2 392 395
2 393 394
2 393 396
2 393 397
2 393 402
2 393 404
2 393 415
2 393 418
2 393 429
2 394 395
2 394 396
2 394 397
2 394 401
2 394 402
2 394 415
2 395 396
2 396 397
2 396 398
2 396 399
2 396 404
2 397 398
2 397 401
2 397 402
2 397 404
2 398 399
2 398 400
2 398 401
2 398 402
2 398 404
2 399 400
2 399 401
2 399 403
2 399 404
2 399 419
2 400 401
2 400 404
2 401 402
2 401 403
2 401 404
2 401 419
2 402 403
2 402 404
2 402 408
2 402 412
2 402 415
2 402 418
2 403 404
2 403 405
2 404 405
2 404 406
2 404 407
2 404 408
2 404 409
2 404 412
2 404 414
2 404 415
2 404 418
2 404 420
2 404 423
2 404 424
2 404 429
2 404 440
2 404 463
2 404 485
2 404 515
2 404 523
2 404 529
2 404 536
2 405 406
2 406 407
2 406 408
2 407 408
2 408 409
2 408 411
2 408 412
2 408 415
2 408 419
2 409 410
2 409 411
2 409 412
2 409 414
2 410 411
2 410 412
2 411 412
2 411 414
2 412 413
2 412 414
2 412 415
2 412 418
2 413 414
2 413 415
2 414 415
2 414 417
2 414 418
2 415 416
2 415 417
2 415 418
2 415 419
2 415 429
2 416 417
2 416 418
2 416 419
2 417 418
2 417 419
2 417 429
2 418 419
2 418 420
2 418 422
2 418 424
2 418 425
2 418 429
2 419 420
2 419 423
2 419 425
2 419 429
2 420 421
2 420 422
2 420 423
2 420 424
2 420 429
2 421 422
2 421 423
2 422 423
2 422 424
2 422 425
2 422 429
2 423 424
2 423 425
2 423 426
2 423 428
2 424 425
2 424 426
2 424 429
2 424 440
2 425 426
2 425 427
2 425 428
2 425 429
2 425 433
2 426 427
2 426 429
2 427 428
2 427 429
2 427 431
2 427 433
2 428 429
2 428 430
2 428 431
2 428 433
2 429 430
2 429 431
2 429 432
2 429 433
2 429 438
2 429 440
2 429 446
2 429 463
2 429 485
2 430 431
2 430 433
2 431 432
2 431 433
2 432 433
2 432 434
2 433 434
2 433 435
2 433 438
2 435 436
2 435 438
2 436 437
2 436 438
2 436 439
2 436 440
2 437 438
2 437 439
2 437 440
2 438 439
2 438 440
2 438 442
2 438 445
2 438 446
2 438 451
2 438 463
2 439 440
2 439 441
2 439 443
2 439 444
2 440 441
2 440 442
2 440 444
2 440 445
2 440 446
2 440 449
2 440 451
2 440 463
2 441 442
2 441 443
2 441 444
2 442 443
2 442 444
2 442 445
2 443 444
2 443 445
2 443 446
2 444 445
2 444 449
2 445 446
2 445 449
2 446 447
2 446 448
2 446 449
2 446 450
2 446 451
2 446 452
2 446 454
2 446 463
2 446 475
2 447 448
2 448 449
2 449 450
2 449 451
2 450 451
2 450 452
2 450 454
2 451 452
2 451 453
2 451 454
2 451 463
2 452 453
2 452 454
2 452 456
2 453 454
2 454 455
2 454 456
2 454 457
2 454 458
2 454 463
2 455 456
2 455 457
2 455 458
2 456 457
2 456 458
2 456 459
2 456 475
2 457 458
2 458 459
2 460 461
2 461 462
2 461 463
2 461 465
2 462 463
2 462 464
2 462 466
2 463 464
2 463 465
2 463 466
2 463 469
2 463 475
2 463 478
2 463 485
2 463 513
2 463 523
2 464 465
2 464 466
2 465 466
2 465 467
2 465 469
2 465 471
2 465 478
2 466 467
2 466 468
2 466 469
2 466 475
2 467 468
2 467 469
2 467 471
2 467 472
2 468 469
2 469 470
2 469 471
2 469 474
2 469 475
2 469 478
2 470 471
2 470 472
2 470 473
2 471 472
2 471 474
2 471 475
2 471 478
2 472 473
2 472 474
2 472 478
2 472 479
2 472 480
2 472 482
2 472 485
2 473 474
2 473 475
2 474 475
2 474 476
2 474 478
2 475 476
2 475 478
2 475 483
2 475 489
2 475 493
2 475 509
2 475 513
2 476 477
2 476 478
2 477 478
2 478 479
2 478 480
2 478 482
2 478 483
2 478 485
2 478 489
2 478 513
2 479 480
2 480 481
2 480 482
2 480 484
2 481 482
2 481 483
2 482 483
2 482 484
2 482 485
2 483 484
2 483 485
2 483 489
2 483 491
2 483 493
2 484 485
2 484 486
2 485 486
2 485 487
2 485 489
2 485 497
2 485 501
2 485 513
2 485 515
2 485 523
2 485 529
2 485 536
2 486 487
2 487 488
2 487 489
2 488 489
2 489 490
2 489 491
2 489 493
2 489 497
2 489 509
2 489 513
2 490 491
2 490 492
2 491 492
2 491 493
2 492 493
2 492 494
2 492 496
2 493 495
2 493 497
2 493 509
2 495 496
2 495 497
2 495 498
2 495 504
2 495 509
2 496 497
2 496 498
2 496 499
2 497 498
2 497 499
2 497 501
2 497 504
2 497 509
2 497 513
2 498 499
2 498 501
2 498 504
2 499 500
2 499 501
2 500 501
2 500 502
2 501 502
2 501 504
2 501 507
2 501 508
2 501 509
2 501 513
2 501 515
2 501 523
2 502 504
2 503 504
2 504 505
2 504 507
2 504 508
2 504 509
2 504 513
2 505 507
2 505 508
2 505 509
2 506 507
2 506 508
2 506 509
2 506 510
2 507 508
2 507 515
2 508 509
2 508 513
2 508 515
2 509 510
2 509 511
2 509 512
2 509 513
2 510 511
2 510 512
2 510 513
2 511 512
2 511 513
2 511 515
2 512 513
2 512 514
2 512 515
2 513 514
2 513 515
2 513 516
2 513 517
2 513 518
2 513 523
2 514 515
2 515 516
2 515 517
2 515 523
2 515 529
2 515 533
2 515 536
2 516 517
2 517 518
2 517 521
2 517 523
2 518 519
2 518 520
2 518 521
2 518 523
2 519 520
2 519 523
2 520 521
2 520 523
2 521 522
2 521 523
2 522 523
2 523 524
2 523 525
2 523 527
2 523 529
2 524 525
2 524 526
2 524 527
2 525 526
2 525 527
2 525 529
2 526 527
2 526 528
2 526 530
2 526 532
2 527 528
2 527 529
2 527 530
2 527 533
2 528 529
2 528 530
2 528 532
2 529 530
2 529 531
2 529 533
2 529 536
2 529 537
2 530 531
2 530 532
2 530 533
2 531 532
2 531 533
2 531 534
2 531 536
2 531 537
2 532 533
2 532 534
2 533 534
2 533 536
2 534 535
2 534 536
2 534 537
2 535 536
2 535 537
2 536 537
