ply
format ascii 1.0
comment Saved by Easy3D (liangliang.nan@gmail.com)
element vertex 538
property float x
property float y
property float z
element edge 2532
property list uchar int vertex_indices
end_header
0 0 0
0.321271 -0.0499813 -0.0059967
0.866634 0.0460359 0.0370026
1.06157 -0.171232 -0.0279961
1.11838 0.101102 -0.00499725
1.45341 -0.0118149 -0.131996
1.67646 -0.180262 -0.0329971
1.9149 0.0774931 -0.0719948
2.12395 -0.097895 -0.0389977
2.57156 0.0194102 -0.0519981
2.72508 -0.0439894 -0.0569954
3.11669 0.0455507 -0.00699615
3.55006 0.0860378 -0.0769958
4.2486 0.0138403 -0.140995
4.41647 0.062197 -0.119995
4.91937 -0.00236298 -0.137997
5.24099 0.0524708 -0.0809975
5.52049 0.0515425 -0.102997
5.70213 0.0369638 -0.125996
5.72954 -0.123846 -0.086998
6.10716 -0.0412467 -0.0969963
6.28879 -0.0558254 -0.190998
6.8205 0.138066 -0.0379982
6.86203 0.0191359 -0.115997
7.25318 -0.0310774 -0.111996
7.56045 -0.088 -0.184998
7.70044 -0.0185874 -0.212997
8.06417 0.0920086 -0.117996
8.10559 -0.0618595 -0.147995
8.48331 0.0556778 -0.215996
8.70636 -0.112769 -0.166996
8.8327 0.0545174 -0.137997
8.97268 0.12393 -0.187996
9.16832 0.116292 -0.0699959
9.61534 0.0589058 -0.230995
9.62911 -0.00402973 -0.211998
9.16762 -0.0933378 -0.237995
10.3136 -0.0831685 -0.175995
10.3841 0.0912913 -0.197998
10.6497 0.11836 -0.256996
10.8174 0.09684 -0.225998
10.8867 -0.0780839 -0.191998
11.2646 0.10933 -0.233997
11.39 -0.00289043 -0.245998
11.684 0.142876 -0.213997
11.9073 0.0443059 -0.274998
12.0749 0.0227859 -0.220997
12.1303 -0.124141 -0.176998
12.4803 0.0493905 -0.262997
12.55 0.0142201 -0.258995
12.8854 0.00611843 -0.307995
13.249 0.081776 -0.243996
13.2486 -0.0579774 -0.175995
13.696 -0.010549 -0.276997
13.8078 0.0100427 -0.240997
14.3532 0.10606 -0.235996
14.5346 0.0216044 -0.233997
14.5622 -0.0693282 -0.202995
15.0098 0.047977 -0.346996
15.3876 0.165514 -0.314995
15.625 0.108824 -0.293995
15.8067 0.129183 -0.237995
15.834 -0.0665643 -0.243996
16.2679 0.113676 -0.324997
16.2955 0.0227437 -0.254997
16.4909 -0.0547705 -0.225998
16.7431 0.140049 -0.345997
17.0502 0.0132496 -0.288998
18.2382 0.0442426 -0.318996
18.2658 -0.04669 -0.344997
18.6153 -0.012912 -0.253998
18.8807 -0.0557199 -0.299995
18.9928 0.0347485 -0.243996
19.2443 0.0199377 -0.340996
19.4261 0.0402973 -0.350998
19.6918 0.102304 -0.290997
18.4333 -0.103148 -0.253998
19.8177 0.129837 -0.371998
19.8868 -0.114963 -0.355995
18.6437 0.105786 -0.364998
20.2228 0.0865653 -0.402996
20.223 0.121504 -0.356998
20.4739 -0.067999 -0.287998
20.9075 0.0423649 -0.336998
21.0331 2.1098e-05 -0.274998
21.4526 0.0685054 -0.358997
21.648 -0.00900887 -0.282997
21.844 0.0881687 -0.370998
22.2909 -0.00415632 -0.329998
22.8502 0.0638638 -0.412998
23.0041 0.140218 -0.317997
23.4231 0.0340101 -0.318996
23.6465 -0.0296217 -0.327995
24.2753 -0.0317104 -0.356998
24.611 0.0300647 -0.352997
24.7788 0.0784215 -0.357998
25.0302 0.0286722 -0.334995
25.3657 0.055509 -0.332996
25.7711 0.0821136 -0.368996
25.8553 0.193638 -0.326996
26.3303 0.150134 -0.507996
26.3858 0.0032069 -0.353996
26.6376 0.0932112 -0.307995
26.9588 0.00829153 -0.328995
27.0426 0.0150007 -0.332996
27.4623 0.118423 -0.410995
27.4621 0.083485 -0.380997
27.6993 -0.0430822 -0.329998
27.8677 0.179966 -0.378998
28.2588 0.0948146 -0.343998
28.3003 -0.0241151 -0.379997
28.4678 -0.0805734 -0.342999
28.6922 0.135302 -0.360996
28.9434 0.0506142 -0.551998
29.1251 0.0360355 -0.357998
29.5308 0.167455 -0.349998
29.5866 0.125344 -0.397995
29.8376 -0.0292208 -0.248997
30.0058 0.123951 -0.422997
30.0619 0.186654 -0.475998
30.285 0.0182076 -0.410995
30.4107 0.0108022 -0.425995
30.7185 0.0936331 -0.372997
29.1946 -0.0690117 -0.306995
30.9555 -0.0678724 -0.258995
31.1236 0.050361 -0.298996
31.3052 0.0357823 -0.427998
31.8784 0.0758053 -0.393997
31.9759 -0.0153594 -0.413998
32.6328 -0.00356557 -0.395996
33.0107 0.183848 -0.440998
32.2561 0.193343 -0.434998
33.4152 -0.0690539 -0.398998
33.849 0.111187 -0.426998
34.0581 -0.0642014 -0.426998
34.5059 0.122981 -0.331997
34.6316 0.0806367 -0.317997
35.0509 0.114183 -0.371998
35.0512 0.184059 -0.367996
35.6238 0.0843289 -0.411995
36.1967 0.0544752 -0.467999
36.8116 0.0454452 -0.414997
37.0357 0.191444 -0.400997
37.9858 0.104435 -0.295998
38.2653 0.103507 -0.342999
38.6703 0.0252966 -0.368996
38.6845 0.102115 -0.370998
39.104 0.170599 -0.391998
37.4125 0.029474 -0.375996
39.2017 0.114373 -0.429996
39.4387 -0.047133 -0.314995
39.5089 0.05745 -0.484997
39.8303 0.0424071 -0.292995
39.8724 0.0981692 -0.367996
40.5711 0.0609101 -0.380997
40.7111 0.130323 -0.411995
41.0746 0.171042 -0.387997
41.1301 0.0590534 -0.350998
41.2696 -0.0112875 -0.435997
41.5911 0.008608 -0.372997
41.7731 0.0988444 -0.388996
42.402 0.0967557 -0.354996
42.458 0.124521 -0.477997
43.1006 0.0594965 -0.294998
43.2404 0.0590323 -0.375996
43.7015 0.0435253 -0.344997
44.0933 0.168004 -0.353996
44.2469 0.139542 -0.315998
44.5264 0.138614 -0.345997
44.9871 -0.0166464 -0.365997
45.2949 0.101123 -0.382996
45.4767 0.121483 -0.353996
45.5888 0.211951 -0.306995
46.0638 0.168447 -0.286995
46.2869 -2.84217e-14 -0.254997
46.7065 0.103423 -0.350998
46.7763 0.103191 -0.649998
47.7968 0.190642 -0.306995
47.8946 0.169354 -0.403996
47.0279 0.0883797 -0.315998
47.2936 0.150387 -0.359997
47.5026 -0.0250012 -0.342999
48.1318 0.0427868 -0.271996
48.1736 0.0286722 -0.227997
48.7468 0.0686952 -0.302998
49.0125 0.130702 -0.269997
49.4174 0.0175536 -0.356998
49.4879 0.192013 -0.351997
49.907 0.155683 -0.362995
49.9347 0.0647499 -0.317997
50.1441 -0.00582306 -0.263996
50.6752 0.0133762 -0.289997
50.8015 0.180663 -0.274998
51.2065 0.0675138 -0.288998
51.207 0.242206 -0.270996
51.5977 0.0522388 -0.201996
51.8212 0.0235454 -0.309998
52.0172 0.120723 -0.251995
52.3804 0.0566272 -0.323997
52.3945 0.0985068 -0.224998
52.9395 0.0897089 -0.283997
53.1776 0.242649 -0.263996
53.5265 0.101735 -0.320995
53.5827 0.199377 -0.285995
53.9598 0.107284 -0.255997
54.1136 0.148699 -0.277996
54.3372 0.120006 -0.265995
54.3227 -0.026689 -0.293995
54.7144 0.0977895 -0.233997
54.8401 0.0554457 -0.296997
56.1677 0.0510362 -0.186996
56.3916 0.127158 -0.205997
56.7407 0.0561208 -0.230995
57.3001 0.159079 -0.158997
57.37 0.158847 -0.233997
57.4951 -0.0232501 -0.207996
57.691 0.0389892 -0.126995
58.0405 0.0727672 -0.215996
58.7811 0.0563318 -0.166996
59.0609 0.12528 -0.138996
59.4102 0.0891815 -0.159996
59.9274 0.136378 -0.350998
60.2064 -0.004304 -0.137997
60.5563 0.134289 -0.247997
61.4092 0.243261 -0.172997
61.1154 0.167371 -0.168995
61.8143 0.199988 -0.130997
62.2336 0.198596 -0.0919952
62.4566 0.0301491 -0.157997
62.9741 0.147222 -0.109997
61.7444 0.20022 -0.0509949
63.6309 0.124078 -0.111996
64.5257 0.253873 -0.0619965
64.1622 0.213154 -0.060997
64.9169 0.203659 -0.0889969
65.336 0.167329 -0.0909958
65.5731 0.00582306 -0.0079956
66.16 -0.0170894 -0.0649948
66.6636 0.127981 -0.0209961
67.0273 0.238577 -0.0399971
68.0611 0.123339 -0.0579948
68.5925 0.212415 -0.0629959
67.4322 0.125428 -0.00099945
68.7461 0.183954 0.0390015
68.8997 0.155493 0.0500031
69.2494 0.224209 0.0180054
69.5425 0.125407 0.105003
67.4737 0.0064982 0.00200653
67.2367 0.168004 -0.079998
70.0041 0.249653 -0.0169983
70.2272 0.0812064 0.0699997
70.7449 0.268156 0.0970001
70.8422 0.107115 0.0430069
71.5409 0.104794 0.104004
71.6253 0.251257 0.0559998
72.1977 0.0816495 0.155006
72.4497 0.206592 0.0710068
72.6591 0.136019 0.0820007
72.8549 0.198258 0.109001
73.3715 0.0358245 0.161003
73.6095 0.153826 0.136002
73.8051 0.146188 0.121002
73.9585 0.0478504 0.260002
74.2945 0.214441 0.113007
74.5175 0.0459937 0.146004
75.0907 0.0860167 0.127007
76.349 0.256531 0.182007
76.5303 0.137137 0.296005
76.7261 0.164438 0.253006
75.6919 0.174861 0.198006
77.229 0.0998782 0.249001
77.8722 0.209546 0.239006
77.9277 0.0975574 0.275002
78.2637 0.264148 0.252007
78.5007 0.102642 0.300003
78.5985 0.0813541 0.309006
78.8925 0.227121 0.245003
79.1295 0.0656149 0.310005
79.605 0.161864 0.332001
79.6469 0.14775 0.319
79.8702 0.0491796 0.513
80.0801 0.153298 0.242004
80.3456 0.145429 0.368004
80.891 0.241446 0.346001
81.0165 0.164164 0.357002
81.6874 0.182899 0.345001
81.7293 0.168784 0.354004
82.0368 0.181739 0.426003
82.4279 0.131525 0.347
82.4421 0.173405 0.414001
82.8613 0.172012 0.397003
83.1268 0.164143 0.451004
83.7138 0.176169 0.436005
83.9654 0.161358 0.415001
84.2172 0.251362 0.445
84.3426 0.139142 0.427002
84.4543 0.0898566 0.479004
84.7205 0.291617 0.460007
84.7762 0.249506 0.465004
85.0133 0.088 0.515007
85.5024 0.0863754 0.466003
85.5025 0.121314 0.550003
86.1313 0.0842867 0.510002
86.3552 0.160408 0.479004
85.8942 0.245792 0.477005
86.8439 0.0539688 0.585007
87.1521 0.276553 0.562004
87.2358 0.213386 0.446007
87.501 0.100701 0.643005
87.5993 0.254105 0.561005
88.0323 0.189777 0.542
88.1161 0.161548 0.629005
88.9405 0.116883 0.673004
89.4442 0.296892 0.686005
89.6812 0.135386 0.735001
90.8974 0.2152 0.650002
91.2746 0.192984 0.738007
91.568 0.164058 0.670006
90.2125 0.189524 0.590004
92.1692 0.217964 0.706001
92.3922 0.0495171 0.755005
90.9531 0.173088 0.705002
92.8818 0.187646 0.751007
94.2238 0.294993 0.849007
94.6707 0.202668 0.843002
94.8944 0.208913 0.832001
93.5385 0.129563 0.777
95.2579 0.249632 0.819
95.3135 0.172582 0.798004
95.5789 0.129774 0.873001
95.8449 0.261658 0.868004
95.9986 0.268135 0.842003
96.376 0.280857 0.895004
96.697 0.160999 0.904007
96.739 0.181823 0.923004
97.1026 0.257481 0.895004
97.4238 0.172561 0.957001
97.9832 0.275519 0.943001
98.2062 0.107073 0.959
98.2206 0.218829 0.855003
98.5698 0.18273 0.914001
98.626 0.280372 0.992004
98.8912 0.167687 0.986
98.8771 0.125808 1.05701
99.2267 0.194524 1.037
99.4223 0.186887 1.04501
100.037 0.177857 1.048
100.764 0.294233 1.051
100.596 0.245877 1.03201
101.183 0.257903 1.096
101.351 0.201444 1.148
101.603 0.186633 1.111
102.022 0.150302 1.118
102.469 0.337484 1.138
102.847 0.245391 1.153
103.196 0.209293 1.2
103.587 0.298833 1.19601
104.006 0.122748 1.147
104.621 0.218534 1.258
104.622 0.358287 1.355
104.985 0.224314 1.291
105.25 0.251383 1.247
105.711 0.235876 1.19701
106.075 0.17178 1.345
106.69 0.16275 1.314
106.829 0.197225 1.34901
107.346 0.139606 1.39001
107.947 0.158573 1.395
108.548 0.212478 1.445
108.828 0.316365 1.479
109.177 0.175451 1.506
109.331 0.14699 1.472
109.555 0.25805 1.482
110.659 0.317272 1.555
110.687 0.22634 1.568
111.036 0.329995 1.62601
111.148 0.350586 1.514
111.399 0.23096 1.662
111.498 0.314488 1.59901
112.042 0.235813 1.604
112.629 0.143024 1.772
112.727 0.226551 1.634
113.007 0.295499 1.677
113.384 0.203406 1.636
113.468 0.210115 1.749
113.761 0.251067 1.651
114.111 0.354721 1.787
114.166 0.137918 1.723
114.6 0.248282 1.71301
114.837 0.0867763 1.71301
115.355 0.273726 1.764
115.354 0.168911 1.75201
116.095 0.117537 1.82401
116.612 0.199672 1.806
117.186 0.309572 1.915
117.549 0.245476 1.90501
118.625 0.290816 1.972
118.639 0.192942 1.956
118.848 0.122369 1.939
118.989 0.401411 2.05701
117.339 0.246172 1.931
119.338 0.330374 2.056
119.422 0.267207 1.97601
119.561 0.161928 2.024
120.889 0.192456 2.122
121.015 0.219989 2.15701
121.322 0.267882 2.15701
121.546 0.344004 2.132
121.797 0.154501 2.132
122.44 0.159354 2.056
122.65 0.333349 2.164
123.055 0.255139 2.16801
123.363 0.372908 2.255
123.74 0.280815 2.245
123.754 0.322695 2.23701
123.963 0.112368 2.246
124.117 0.22366 2.29
124.411 0.264612 2.32
124.509 0.278262 2.306
125.137 0.241235 2.366
125.208 0.345818 2.357
125.557 0.239843 2.348
125.822 0.231973 2.384
125.906 0.343497 2.368
126.563 0.145661 2.441
127.01 0.228028 2.371
127.01 0.297904 2.431
127.387 0.24075 2.481
127.597 0.274992 2.50201
127.834 0.113486 2.51701
128.114 0.252312 2.48901
128.226 0.272903 2.54301
128.478 0.362908 2.533
129.022 0.179418 2.576
129.554 0.338371 2.631
129.554 0.408247 2.64001
129.791 0.141927 2.565
130.434 0.251594 2.687
130.63 0.243957 2.729
129.917 0.274275 2.653
131.091 0.263388 2.661
131.384 0.199524 2.77901
131.664 0.373288 2.756
131.873 0.1979 2.675
132.139 0.224968 2.743
132.559 0.293453 2.845
133.216 0.375123 2.789
133.523 0.283262 2.912
134.124 0.197414 2.86301
134.641 0.349426 2.959
134.739 0.223323 2.92001
134.892 0.159923 2.958
135.172 0.403563 2.90401
135.549 0.206655 2.985
135.592 0.367233 2.952
136.178 0.239505 3.07401
136.374 0.266806 3.01601
136.626 0.321872 3.039
136.877 0.167308 3.104
137.03 0.208723 3.149
137.324 0.284613 3.134
137.408 0.32626 3.07
137.716 0.374153 3.208
137.883 0.352633 3.15601
138.107 0.184186 3.139
138.415 0.40677 3.209
138.778 0.377613 3.201
139.127 0.376453 3.242
139.477 0.305415 3.217
139.518 0.256362 3.248
139.826 0.40907 3.318
140.245 0.372739 3.291
140.608 0.273705 3.37801
140.986 0.391242 3.305
141.531 0.382444 3.429
141.573 0.263515 3.359
141.782 0.22788 3.494
142.481 0.190621 3.46001
142.943 0.349806 3.54601
143.166 0.181359 3.33701
143.376 0.320416 3.54401
143.697 0.37525 3.54
145.053 0.314846 3.755
145.29 0.293094 3.717
145.472 0.313454 3.731
145.849 0.326176 3.674
146.072 0.122791 3.542
146.492 0.331028 3.732
146.576 0.372676 3.772
146.744 0.246341 3.896
146.94 0.378457 3.734
147.96 0.326155 3.894
148.351 0.31088 3.845
148.729 0.393479 3.899
149.497 0.390926 3.939
149.832 0.278009 4.01801
150.224 0.262734 3.86401
150.419 0.255097 4.049
150.503 0.331682 4.065
151.104 0.280773 4.05701
148.854 0.281258 4.02901
151.65 0.411728 4.146
151.887 0.285161 4.162
152.446 0.353181 4.216
152.837 0.407783 4.22
153.215 0.420505 4.25401
153.298 0.252523 4.343
153.746 0.334889 4.291
153.829 0.236783 4.396
153.983 0.138445 4.242
154.556 0.35316 4.30801
154.892 0.379997 4.333
155.185 0.316133 4.444
156.051 0.257354 4.50201
156.457 0.318897 4.484
156.862 0.240687 4.58801
157.169 0.288579 4.52901
157.505 0.315416 4.58601
157.547 0.301301 4.566
157.756 0.160852 4.58701
156.583 0.381368 4.505
158.371 0.291575 4.69
158.693 0.311471 4.647
159.056 0.317251 4.716
159.168 0.267966 4.732
159.741 0.377866 4.812
159.769 0.321872 4.79301
159.978 0.251299 4.894
160.496 0.333434 4.866
160.776 0.472259 4.93401
161.111 0.359342 4.925
161.181 0.428987 4.944
161.362 0.239716 5.006
161.628 0.3716 4.938
161.893 0.293854 4.96201
61.9535 0.0248324 -0.0849953
64.3993 0.051648 0.00500489
64.763 0.162244 -0.113998
2 0 1
2 0 2
2 0 3
2 0 4
2 0 5
2 0 6
2 0 7
2 0 8
2 0 9
2 4 2
2 4 7
2 4 1
2 4 8
2 4 9
2 10 11
2 10 8
2 10 7
2 10 12
2 10 6
2 10 5
2 10 13
2 4 10
2 11 12
2 11 9
2 11 8
2 11 13
2 11 7
2 11 14
2 11 6
2 11 5
2 12 13
2 12 14
2 12 9
2 12 15
2 12 8
2 12 7
2 12 16
2 14 15
2 14 16
2 14 17
2 14 18
2 14 19
2 14 20
2 16 17
2 16 15
2 16 18
2 16 19
2 16 20
2 16 13
2 16 21
2 16 22
2 18 19
2 18 17
2 18 20
2 18 21
2 18 15
2 18 22
2 18 23
2 20 21
2 20 19
2 20 17
2 20 22
2 20 23
2 20 24
2 20 15
2 22 24
2 22 21
2 22 25
2 22 26
2 22 19
2 22 27
2 24 25
2 24 23
2 24 26
2 24 27
2 24 28
2 24 21
2 24 29
2 26 25
2 26 27
2 26 28
2 26 29
2 26 23
2 26 30
2 26 31
2 27 29
2 27 25
2 27 30
2 27 31
2 27 32
2 27 33
2 31 29
2 31 28
2 31 34
2 31 35
2 33 34
2 33 35
2 33 30
2 33 29
2 33 28
2 34 36
2 34 32
2 34 37
2 34 38
2 34 30
2 34 39
2 38 39
2 38 40
2 38 41
2 38 35
2 38 42
2 38 43
2 33 38
2 40 39
2 40 41
2 40 42
2 40 37
2 40 43
2 40 44
2 40 45
2 40 35
2 42 44
2 42 39
2 42 45
2 42 46
2 42 47
2 44 46
2 44 48
2 44 49
2 46 48
2 46 49
2 46 43
2 46 50
2 46 51
2 48 49
2 48 47
2 48 50
2 48 45
2 48 51
2 48 52
2 48 43
2 50 49
2 50 51
2 50 52
2 50 47
2 50 53
2 50 54
2 50 45
2 51 53
2 51 54
2 51 49
2 51 55
2 51 47
2 53 54
2 53 52
2 53 55
2 53 56
2 53 57
2 53 49
2 48 53
2 56 57
2 56 58
2 56 54
2 56 59
2 56 60
2 56 61
2 51 56
2 59 60
2 59 58
2 59 61
2 59 62
2 59 57
2 59 63
2 59 64
2 59 55
2 61 60
2 61 63
2 61 64
2 61 65
2 61 58
2 61 66
2 61 67
2 64 63
2 64 65
2 64 62
2 64 66
2 64 60
2 64 67
2 64 58
2 66 67
2 66 63
2 66 62
2 66 60
2 59 66
2 66 68
2 69 70
2 69 71
2 69 72
2 69 73
2 69 74
2 69 67
2 70 71
2 70 72
2 70 68
2 70 73
2 70 74
2 70 75
2 72 73
2 72 74
2 72 76
2 72 75
2 72 68
2 74 73
2 74 75
2 74 77
2 74 78
2 74 71
2 74 79
2 74 80
2 74 81
2 77 75
2 77 78
2 77 81
2 77 80
2 77 73
2 77 82
2 72 77
2 77 71
2 81 82
2 81 78
2 81 75
2 81 83
2 81 84
2 81 73
2 84 85
2 84 82
2 84 86
2 84 87
2 84 80
2 84 78
2 77 84
2 85 87
2 85 83
2 85 88
2 85 82
2 85 80
2 81 85
2 85 89
2 87 88
2 87 83
2 87 89
2 87 90
2 87 82
2 87 91
2 90 91
2 90 92
2 90 88
2 90 93
2 90 86
2 85 90
2 90 94
2 91 92
2 91 89
2 91 93
2 91 88
2 91 94
2 91 95
2 91 96
2 94 95
2 94 93
2 94 96
2 94 97
2 94 92
2 94 98
2 94 99
2 96 95
2 96 97
2 96 98
2 96 93
2 96 99
2 96 100
2 96 101
2 96 92
2 99 97
2 99 100
2 99 101
2 99 102
2 99 95
2 99 103
2 99 104
2 100 98
2 100 103
2 100 104
2 100 97
2 100 105
2 100 106
2 102 103
2 102 104
2 102 106
2 102 105
2 102 98
2 102 107
2 104 103
2 104 106
2 104 105
2 104 101
2 104 107
2 104 108
2 106 107
2 106 108
2 106 103
2 106 109
2 106 110
2 106 111
2 108 109
2 108 105
2 108 110
2 108 111
2 108 112
2 108 103
2 110 109
2 110 111
2 110 107
2 110 113
2 110 114
2 110 105
2 112 109
2 112 114
2 112 115
2 112 116
2 114 115
2 114 116
2 114 111
2 114 117
2 114 109
2 115 118
2 115 119
2 115 113
2 115 120
2 118 119
2 118 120
2 118 116
2 118 121
2 118 122
2 118 123
2 114 118
2 121 120
2 121 122
2 121 119
2 121 124
2 121 117
2 121 125
2 121 116
2 121 126
2 125 126
2 125 122
2 125 127
2 125 120
2 125 128
2 125 119
2 118 125
2 127 126
2 127 129
2 127 124
2 127 130
2 127 122
2 121 127
2 131 130
2 131 126
2 125 131
2 131 132
2 131 124
2 131 122
2 130 133
2 130 134
2 130 135
2 130 136
2 136 137
2 136 138
2 136 134
2 136 133
2 136 139
2 136 132
2 136 140
2 138 135
2 138 139
2 138 134
2 138 140
2 138 133
2 138 132
2 138 141
2 142 140
2 142 143
2 142 144
2 142 139
2 142 145
2 142 146
2 138 142
2 144 143
2 144 145
2 144 146
2 144 147
2 144 148
2 144 149
2 144 150
2 144 151
2 146 147
2 146 149
2 146 143
2 146 150
2 146 151
2 146 152
2 146 153
2 147 149
2 147 150
2 147 151
2 147 152
2 147 153
2 147 143
2 151 149
2 151 153
2 151 145
2 151 154
2 151 155
2 152 150
2 152 149
2 152 154
2 152 155
2 152 145
2 155 154
2 155 156
2 155 157
2 155 158
2 155 153
2 155 159
2 155 160
2 157 156
2 157 159
2 157 154
2 157 160
2 157 153
2 157 161
2 152 157
2 159 158
2 159 156
2 159 161
2 159 162
2 159 154
2 159 163
2 162 163
2 162 160
2 162 164
2 162 158
2 162 165
2 157 162
2 162 156
2 164 163
2 164 165
2 164 161
2 164 166
2 164 167
2 164 168
2 164 160
2 159 164
2 166 167
2 166 165
2 166 168
2 166 169
2 166 163
2 166 170
2 166 171
2 166 172
2 168 167
2 168 169
2 168 170
2 168 165
2 168 171
2 168 172
2 168 163
2 170 171
2 170 169
2 170 173
2 170 174
2 170 167
2 170 175
2 172 173
2 172 169
2 172 174
2 172 175
2 172 176
2 172 167
2 176 173
2 176 177
2 176 178
2 179 180
2 179 175
2 179 181
2 179 174
2 179 177
2 179 178
2 179 173
2 179 182
2 177 182
2 177 183
2 177 180
2 177 184
2 177 175
2 183 178
2 183 184
2 183 181
2 183 185
2 183 180
2 179 183
2 183 186
2 185 184
2 185 186
2 185 187
2 185 182
2 185 188
2 185 189
2 185 178
2 185 190
2 187 188
2 187 189
2 187 190
2 187 184
2 187 191
2 187 192
2 183 187
2 189 188
2 189 190
2 189 186
2 189 191
2 189 192
2 189 184
2 189 193
2 192 194
2 192 193
2 192 190
2 192 195
2 192 188
2 192 196
2 192 197
2 194 195
2 194 191
2 194 196
2 194 197
2 194 190
2 194 198
2 194 199
2 195 193
2 195 197
2 195 198
2 195 199
2 195 191
2 195 200
2 197 196
2 197 198
2 197 199
2 197 193
2 197 200
2 197 201
2 199 200
2 199 196
2 199 201
2 199 202
2 199 193
2 199 203
2 201 203
2 201 204
2 201 198
2 201 205
2 201 206
2 203 204
2 203 205
2 203 200
2 203 206
2 203 207
2 203 208
2 204 206
2 204 207
2 204 202
2 204 208
2 204 209
2 204 200
2 206 205
2 206 208
2 206 209
2 206 202
2 206 200
2 208 209
2 208 207
2 208 205
2 208 202
2 208 210
2 201 208
2 211 212
2 211 213
2 211 214
2 211 215
2 211 216
2 211 209
2 211 217
2 208 211
2 214 212
2 214 217
2 214 210
2 214 218
2 214 219
2 216 212
2 216 218
2 216 219
2 216 210
2 219 218
2 219 220
2 219 221
2 219 217
2 219 222
2 219 223
2 219 215
2 224 225
2 224 226
2 224 227
2 224 223
2 224 228
2 224 222
2 224 221
2 226 227
2 226 228
2 226 225
2 226 229
2 226 223
2 226 222
2 227 230
2 227 229
2 227 225
2 227 231
2 227 223
2 232 233
2 232 234
2 232 235
2 232 231
2 232 236
2 232 229
2 232 237
2 234 235
2 234 236
2 234 233
2 234 237
2 234 231
2 234 238
2 239 238
2 239 237
2 239 240
2 239 236
2 239 241
2 239 235
2 242 240
2 242 238
2 242 241
2 242 237
2 242 243
2 242 244
2 241 244
2 241 240
2 241 245
2 241 246
2 241 247
2 241 248
2 241 249
2 244 243
2 244 245
2 244 246
2 244 240
2 244 249
2 244 250
2 244 247
2 245 246
2 245 243
2 245 249
2 245 250
2 245 240
2 245 251
2 245 252
2 249 251
2 249 252
2 249 243
2 249 253
2 251 253
2 251 254
2 251 255
2 251 256
2 254 255
2 254 252
2 254 256
2 254 257
2 254 258
2 254 250
2 249 254
2 256 257
2 256 258
2 256 253
2 256 259
2 256 260
2 256 261
2 256 262
2 258 259
2 258 255
2 258 260
2 258 261
2 258 262
2 258 253
2 260 261
2 260 263
2 260 264
2 260 257
2 260 255
2 262 264
2 262 259
2 262 265
2 262 257
2 266 267
2 266 268
2 266 269
2 266 270
2 266 265
2 266 271
2 266 272
2 266 264
2 266 273
2 268 267
2 268 270
2 268 269
2 268 271
2 268 272
2 268 273
2 268 265
2 268 274
2 271 273
2 271 274
2 271 270
2 271 275
2 271 276
2 271 277
2 271 267
2 275 274
2 275 276
2 275 277
2 275 272
2 275 278
2 275 279
2 275 280
2 279 278
2 279 280
2 279 281
2 279 277
2 279 282
2 279 276
2 279 274
2 279 283
2 281 278
2 281 283
2 281 284
2 281 277
2 281 276
2 275 281
2 283 282
2 283 285
2 283 286
2 283 280
2 283 287
2 283 278
2 285 287
2 285 284
2 285 288
2 285 289
2 285 290
2 285 282
2 285 291
2 287 286
2 287 288
2 287 289
2 287 290
2 287 284
2 287 291
2 287 292
2 289 290
2 289 291
2 289 286
2 289 292
2 289 284
2 289 293
2 290 291
2 290 288
2 290 292
2 290 293
2 290 286
2 290 294
2 293 292
2 293 294
2 293 295
2 293 296
2 293 297
2 293 298
2 293 291
2 293 299
2 295 296
2 295 297
2 295 298
2 295 292
2 295 299
2 295 300
2 295 301
2 297 298
2 297 296
2 297 299
2 297 294
2 297 301
2 297 300
2 297 292
2 301 299
2 301 302
2 301 298
2 301 303
2 301 296
2 303 304
2 303 305
2 303 306
2 303 300
2 303 307
2 303 308
2 303 309
2 306 309
2 306 310
2 306 311
2 306 302
2 306 304
2 309 310
2 309 311
2 309 305
2 309 312
2 309 302
2 310 308
2 310 312
2 310 305
2 310 313
2 310 314
2 315 316
2 315 317
2 315 318
2 315 314
2 315 319
2 315 313
2 315 320
2 315 312
2 316 317
2 316 321
2 316 319
2 316 318
2 316 320
2 316 314
2 316 322
2 316 313
2 323 324
2 323 325
2 323 326
2 323 327
2 323 328
2 323 322
2 323 329
2 323 330
2 323 331
2 325 324
2 325 327
2 325 328
2 325 329
2 325 330
2 325 331
2 325 326
2 325 332
2 327 330
2 327 324
2 327 331
2 327 332
2 327 333
2 329 330
2 329 331
2 329 332
2 329 324
2 329 333
2 329 334
2 331 330
2 331 332
2 331 328
2 331 333
2 331 334
2 331 335
2 332 333
2 332 334
2 332 330
2 332 335
2 332 336
2 332 328
2 334 335
2 334 336
2 334 330
2 334 337
2 334 328
2 335 333
2 335 337
2 335 338
2 335 339
2 335 330
2 339 340
2 339 341
2 339 342
2 339 343
2 339 336
2 339 344
2 340 342
2 340 343
2 340 338
2 340 337
2 340 344
2 340 345
2 340 336
2 342 341
2 342 344
2 342 345
2 342 338
2 342 337
2 342 346
2 344 345
2 344 343
2 344 341
2 344 346
2 344 338
2 344 337
2 347 348
2 347 349
2 347 350
2 347 346
2 347 351
2 347 352
2 347 345
2 344 347
2 347 353
2 349 350
2 349 351
2 349 348
2 349 352
2 349 346
2 349 353
2 349 354
2 349 345
2 351 350
2 351 352
2 351 353
2 351 348
2 351 354
2 351 346
2 351 355
2 353 354
2 353 355
2 353 356
2 353 350
2 353 357
2 354 355
2 354 356
2 354 352
2 354 357
2 354 350
2 354 358
2 355 356
2 355 357
2 355 352
2 355 358
2 355 359
2 355 360
2 356 358
2 356 359
2 356 360
2 356 352
2 356 361
2 359 361
2 359 362
2 359 363
2 354 359
2 360 361
2 360 358
2 360 362
2 360 357
2 360 363
2 360 364
2 362 361
2 362 364
2 362 358
2 362 365
2 362 366
2 362 357
2 365 366
2 365 363
2 365 367
2 365 361
2 365 368
2 360 365
2 365 369
2 369 368
2 369 370
2 369 371
2 369 372
2 369 367
2 369 366
2 369 373
2 369 374
2 370 371
2 370 372
2 370 368
2 370 367
2 370 373
2 370 374
2 370 366
2 370 375
2 372 371
2 372 368
2 372 373
2 372 374
2 372 375
2 372 376
2 372 367
2 373 375
2 373 376
2 373 377
2 373 378
2 373 371
2 373 379
2 375 377
2 375 378
2 375 379
2 375 380
2 375 381
2 378 376
2 378 379
2 378 374
2 378 380
2 378 381
2 378 382
2 380 379
2 380 383
2 380 384
2 380 385
2 380 377
2 380 386
2 382 381
2 382 384
2 382 385
2 382 379
2 382 386
2 382 387
2 383 385
2 383 381
2 383 387
2 383 388
2 383 379
2 385 387
2 385 388
2 385 381
2 385 389
2 386 388
2 386 384
2 386 389
2 386 390
2 386 391
2 390 388
2 390 392
2 390 387
2 390 393
2 385 390
2 390 394
2 394 395
2 394 393
2 394 392
2 394 396
2 394 397
2 394 398
2 394 399
2 395 400
2 395 393
2 395 396
2 395 397
2 395 398
2 395 399
2 395 392
2 395 401
2 397 398
2 397 401
2 397 402
2 397 403
2 397 400
2 399 401
2 399 396
2 399 402
2 399 403
2 399 400
2 402 403
2 402 398
2 402 396
2 402 404
2 402 405
2 395 402
2 404 406
2 404 407
2 404 408
2 404 403
2 404 409
2 404 401
2 404 410
2 406 407
2 406 405
2 406 408
2 406 409
2 406 410
2 406 411
2 406 403
2 402 406
2 410 411
2 410 412
2 410 408
2 410 413
2 410 407
2 410 414
2 410 415
2 412 411
2 412 413
2 412 414
2 412 415
2 412 416
2 412 409
2 412 417
2 412 418
2 414 415
2 414 416
2 414 417
2 414 411
2 414 418
2 414 409
2 416 417
2 416 413
2 416 418
2 416 419
2 416 411
2 416 420
2 418 417
2 418 415
2 418 419
2 418 420
2 418 413
2 418 421
2 420 421
2 420 422
2 420 423
2 420 417
2 420 415
2 420 424
2 421 422
2 421 423
2 421 419
2 421 424
2 421 417
2 416 421
2 421 425
2 423 424
2 423 419
2 423 426
2 423 425
2 418 423
2 423 427
2 426 427
2 426 424
2 426 428
2 426 429
2 426 430
2 426 422
2 426 431
2 427 428
2 427 425
2 427 429
2 427 430
2 427 424
2 427 431
2 427 432
2 430 431
2 430 429
2 430 432
2 430 428
2 430 433
2 430 425
2 430 434
2 432 431
2 432 433
2 432 429
2 432 428
2 432 434
2 432 435
2 432 436
2 435 437
2 435 438
2 435 431
2 430 435
2 439 434
2 439 437
2 439 438
2 439 433
2 439 440
2 432 439
2 439 441
2 438 437
2 438 440
2 438 441
2 438 436
2 438 442
2 438 434
2 438 443
2 441 443
2 441 444
2 441 437
2 441 445
2 441 436
2 444 443
2 444 445
2 444 442
2 444 440
2 444 446
2 444 447
2 438 444
2 444 437
2 446 445
2 446 448
2 446 443
2 446 449
2 446 450
2 446 442
2 446 451
2 447 448
2 447 445
2 447 449
2 447 450
2 447 451
2 447 452
2 447 443
2 450 448
2 450 453
2 450 454
2 450 455
2 452 454
2 452 449
2 452 455
2 452 448
2 452 456
2 452 457
2 454 455
2 454 456
2 454 449
2 454 457
2 454 458
2 456 455
2 456 457
2 456 458
2 456 459
2 456 453
2 456 460
2 456 461
2 459 458
2 459 460
2 459 461
2 459 462
2 459 455
2 459 463
2 459 464
2 461 460
2 461 462
2 461 463
2 461 458
2 461 464
2 461 457
2 461 465
2 462 463
2 462 460
2 462 464
2 462 465
2 462 458
2 462 466
2 462 457
2 465 466
2 465 463
2 465 467
2 465 468
2 465 460
2 465 469
2 466 467
2 466 464
2 466 468
2 466 469
2 466 463
2 466 470
2 461 466
2 467 468
2 467 469
2 467 470
2 467 464
2 467 471
2 467 463
2 462 467
2 468 470
2 468 471
2 468 472
2 468 464
2 468 473
2 470 469
2 470 471
2 470 472
2 470 473
2 465 470
2 470 474
2 471 469
2 471 473
2 471 474
2 471 475
2 466 471
2 472 474
2 472 475
2 472 469
2 472 476
2 467 472
2 473 474
2 473 475
2 473 476
2 473 469
2 473 477
2 475 477
2 475 478
2 475 479
2 470 475
2 478 480
2 478 481
2 478 476
2 478 474
2 473 478
2 478 482
2 480 481
2 480 477
2 480 476
2 480 482
2 475 480
2 480 474
2 480 483
2 482 483
2 482 484
2 482 485
2 482 486
2 482 481
2 482 487
2 482 488
2 482 489
2 484 483
2 484 485
2 484 486
2 484 487
2 484 488
2 484 489
2 484 490
2 484 481
2 488 487
2 488 490
2 488 486
2 488 485
2 488 483
2 488 491
2 490 487
2 490 486
2 490 491
2 490 485
2 490 492
2 490 483
2 492 493
2 492 491
2 492 494
2 492 495
2 492 489
2 488 492
2 492 487
2 493 494
2 493 491
2 493 495
2 493 496
2 493 497
2 493 498
2 490 493
2 494 496
2 494 497
2 494 498
2 494 491
2 494 499
2 495 497
2 495 498
2 495 500
2 495 499
2 495 501
2 496 499
2 496 500
2 496 501
2 496 502
2 498 499
2 498 501
2 498 502
2 498 500
2 501 499
2 501 503
2 501 504
2 501 497
2 501 505
2 501 506
2 503 504
2 503 502
2 503 505
2 503 506
2 503 507
2 503 499
2 503 508
2 503 509
2 504 505
2 504 506
2 504 507
2 504 502
2 504 508
2 504 509
2 504 510
2 505 507
2 505 508
2 505 509
2 505 502
2 505 510
2 508 506
2 508 510
2 508 511
2 508 512
2 510 511
2 510 509
2 510 512
2 510 507
2 510 506
2 510 513
2 511 509
2 511 507
2 511 513
2 511 514
2 511 506
2 505 511
2 514 513
2 514 515
2 514 516
2 514 517
2 514 518
2 514 512
2 514 519
2 516 515
2 516 517
2 516 518
2 516 520
2 516 519
2 516 513
2 516 521
2 516 522
2 518 517
2 518 519
2 518 515
2 518 521
2 518 520
2 518 522
2 518 513
2 522 521
2 522 523
2 522 524
2 522 519
2 522 525
2 522 526
2 522 517
2 522 527
2 523 521
2 523 525
2 523 526
2 523 527
2 523 519
2 523 528
2 518 523
2 526 524
2 526 528
2 526 529
2 526 530
2 526 521
2 529 530
2 529 531
2 529 532
2 529 527
2 529 533
2 529 525
2 529 534
2 531 533
2 531 528
2 531 534
2 531 527
2 526 531
2 531 525
2 533 534
2 533 530
2 533 528
2 533 527
2 526 533
2 533 525
2 1 2
2 1 3
2 1 5
2 1 6
2 1 7
2 1 8
2 1 9
2 2 6
2 2 7
2 2 8
2 2 9
2 3 6
2 3 7
2 3 8
2 3 9
2 5 7
2 5 8
2 5 9
2 6 8
2 6 9
2 7 9
2 8 9
2 13 15
2 13 17
2 18 13
2 13 19
2 15 17
2 15 19
2 15 21
2 17 19
2 17 21
2 22 17
2 19 21
2 19 23
2 21 23
2 21 25
2 23 25
2 27 23
2 25 28
2 25 29
2 25 30
2 28 29
2 28 30
2 28 32
2 28 36
2 29 32
2 29 36
2 30 32
2 30 36
2 30 35
2 32 36
2 32 35
2 36 35
2 27 36
2 35 37
2 35 39
2 37 39
2 37 41
2 42 37
2 37 43
2 36 37
2 39 41
2 39 43
2 44 39
2 41 43
2 41 45
2 46 41
2 43 45
2 43 47
2 45 49
2 47 49
2 47 52
2 49 52
2 52 54
2 52 55
2 46 52
2 54 55
2 54 57
2 54 58
2 49 54
2 55 58
2 55 60
2 57 58
2 57 60
2 61 57
2 57 62
2 58 60
2 58 62
2 58 63
2 60 62
2 60 63
2 60 65
2 62 63
2 62 65
2 62 67
2 63 67
2 65 67
2 59 65
2 58 65
2 67 68
2 67 76
2 68 79
2 68 71
2 68 73
2 74 68
2 76 71
2 76 73
2 74 76
2 76 75
2 79 73
2 79 75
2 71 73
2 71 75
2 73 75
2 73 78
2 75 78
2 75 80
2 75 82
2 78 80
2 78 82
2 72 78
2 71 78
2 80 83
2 73 80
2 82 83
2 74 82
2 83 86
2 78 83
2 77 83
2 86 88
2 82 86
2 86 89
2 81 86
2 88 89
2 84 88
2 88 92
2 83 88
2 89 92
2 89 93
2 94 89
2 92 93
2 92 95
2 92 97
2 93 95
2 93 97
2 93 98
2 95 97
2 95 98
2 100 95
2 97 98
2 97 101
2 102 97
2 98 101
2 98 103
2 101 103
2 106 101
2 101 105
2 103 105
2 103 107
2 105 107
2 105 109
2 105 111
2 107 109
2 107 111
2 112 107
2 109 113
2 111 123
2 113 116
2 113 117
2 123 116
2 123 117
2 110 123
2 116 119
2 116 120
2 117 119
2 117 120
2 117 122
2 119 120
2 119 122
2 123 119
2 119 124
2 120 122
2 120 124
2 122 124
2 122 126
2 116 122
2 124 126
2 118 124
2 124 128
2 126 128
2 120 126
2 119 126
2 128 129
2 122 128
2 128 132
2 129 132
2 129 133
2 126 129
2 129 134
2 125 129
2 132 134
2 132 135
2 127 132
2 133 135
2 133 137
2 131 133
2 134 137
2 134 139
2 135 137
2 135 139
2 135 140
2 137 139
2 137 140
2 132 137
2 137 141
2 139 140
2 139 141
2 133 139
2 140 141
2 140 148
2 140 143
2 141 148
2 141 143
2 144 141
2 141 145
2 148 143
2 148 145
2 146 148
2 147 148
2 139 148
2 143 145
2 143 149
2 143 150
2 145 149
2 145 150
2 145 153
2 149 150
2 149 153
2 150 153
2 150 154
2 153 154
2 154 156
2 154 158
2 156 158
2 156 160
2 153 156
2 152 156
2 156 161
2 158 160
2 158 161
2 153 158
2 160 161
2 154 160
2 160 163
2 161 163
2 161 165
2 163 165
2 163 167
2 165 167
2 165 169
2 170 165
2 167 169
2 167 171
2 169 171
2 169 173
2 169 174
2 171 173
2 171 174
2 171 175
2 176 171
2 173 175
2 173 180
2 174 175
2 174 180
2 174 181
2 175 180
2 175 181
2 175 178
2 180 178
2 180 182
2 181 182
2 178 182
2 178 184
2 182 184
2 182 186
2 184 186
2 184 188
2 186 190
2 186 191
2 188 191
2 188 193
2 190 191
2 190 193
2 191 193
2 191 196
2 193 196
2 193 198
2 196 198
2 196 200
2 198 200
2 198 202
2 200 202
2 200 205
2 202 205
2 202 207
2 205 207
2 205 209
2 207 209
2 201 207
2 200 207
2 203 209
2 202 209
2 209 210
2 210 212
2 210 213
2 210 215
2 206 210
2 212 213
2 212 215
2 212 217
2 209 212
2 208 212
2 213 217
2 213 218
2 219 213
2 215 217
2 215 218
2 217 218
2 217 220
2 218 220
2 218 221
2 218 222
2 220 221
2 220 222
2 220 223
2 220 225
2 216 220
2 215 220
2 221 223
2 221 225
2 221 230
2 217 221
2 222 225
2 222 230
2 223 225
2 223 230
2 223 535
2 225 230
2 225 535
2 225 228
2 230 228
2 230 229
2 535 228
2 535 229
2 535 231
2 228 229
2 228 231
2 228 233
2 229 231
2 229 233
2 229 536
2 231 233
2 231 536
2 231 537
2 233 537
2 233 235
2 233 236
2 536 235
2 536 236
2 536 237
2 537 235
2 537 236
2 537 237
2 229 537
2 235 237
2 235 238
2 236 237
2 236 238
2 237 238
2 237 248
2 237 247
2 238 248
2 238 247
2 238 240
2 248 240
2 248 243
2 244 248
2 247 240
2 247 243
2 240 243
2 243 246
2 243 250
2 246 250
2 246 252
2 240 246
2 250 252
2 250 253
2 252 253
2 252 255
2 256 252
2 253 255
2 253 257
2 255 257
2 255 259
2 257 259
2 257 261
2 259 261
2 259 263
2 259 264
2 261 263
2 261 264
2 261 265
2 263 265
2 263 269
2 258 263
2 257 263
2 264 265
2 264 269
2 258 264
2 265 269
2 265 267
2 260 265
2 269 267
2 269 270
2 262 269
2 261 269
2 267 270
2 267 272
2 267 273
2 267 274
2 270 272
2 270 273
2 270 274
2 275 270
2 272 274
2 272 276
2 272 277
2 273 276
2 273 277
2 273 278
2 279 273
2 274 276
2 274 277
2 274 278
2 276 278
2 276 280
2 277 278
2 277 280
2 278 280
2 278 282
2 280 284
2 282 284
2 277 282
2 282 286
2 284 286
2 279 284
2 278 284
2 286 288
2 286 291
2 288 291
2 288 292
2 284 288
2 293 288
2 291 292
2 291 294
2 295 291
2 291 296
2 292 294
2 292 296
2 292 298
2 294 296
2 294 298
2 294 299
2 294 300
2 296 298
2 296 299
2 296 300
2 298 299
2 298 300
2 299 300
2 299 304
2 300 304
2 300 302
2 304 305
2 298 304
2 297 304
2 302 305
2 302 307
2 299 302
2 298 302
2 305 308
2 305 311
2 307 311
2 304 307
2 308 311
2 302 308
2 308 312
2 311 312
2 311 313
2 311 314
2 312 314
2 312 318
2 307 312
2 306 312
2 313 318
2 313 321
2 309 313
2 314 321
2 314 317
2 318 321
2 318 317
2 318 319
2 311 318
2 321 317
2 321 319
2 321 320
2 321 322
2 317 319
2 317 320
2 317 322
2 317 326
2 319 322
2 319 326
2 323 319
2 320 326
2 323 320
2 318 320
2 322 326
2 322 324
2 315 322
2 326 324
2 327 326
2 326 328
2 324 328
2 324 330
2 331 324
2 332 324
2 328 330
2 328 333
2 330 333
2 333 336
2 333 337
2 336 337
2 336 338
2 336 341
2 337 341
2 337 343
2 338 341
2 338 343
2 341 345
2 343 345
2 343 346
2 345 346
2 345 348
2 339 345
2 338 345
2 346 348
2 346 350
2 341 346
2 348 350
2 344 348
2 348 352
2 342 348
2 350 352
2 355 350
2 357 358
2 357 361
2 358 361
2 358 363
2 361 363
2 361 364
2 363 364
2 363 366
2 363 367
2 364 366
2 364 367
2 364 368
2 358 364
2 366 367
2 366 368
2 366 371
2 367 368
2 367 371
2 368 371
2 373 368
2 371 374
2 375 371
2 371 376
2 374 377
2 374 379
2 376 379
2 380 376
2 376 381
2 377 379
2 377 381
2 382 377
2 379 381
2 381 384
2 386 381
2 384 387
2 384 388
2 384 389
2 387 389
2 387 391
2 388 391
2 388 392
2 389 391
2 389 392
2 383 389
2 391 392
2 391 393
2 385 391
2 394 391
2 392 393
2 392 400
2 387 392
2 393 400
2 389 393
2 388 393
2 393 396
2 400 396
2 400 398
2 390 400
2 396 398
2 396 401
2 396 403
2 398 401
2 398 403
2 401 403
2 401 405
2 403 405
2 405 407
2 405 408
2 405 409
2 410 405
2 407 409
2 407 411
2 412 407
2 403 407
2 408 409
2 408 411
2 412 408
2 408 413
2 409 411
2 409 413
2 411 413
2 411 415
2 411 417
2 413 415
2 413 417
2 415 419
2 417 419
2 419 422
2 414 419
2 422 424
2 422 425
2 418 422
2 417 422
2 424 428
2 424 429
2 425 428
2 425 429
2 425 431
2 428 429
2 428 431
2 428 433
2 429 431
2 429 433
2 431 433
2 431 434
2 433 436
2 433 437
2 434 436
2 434 437
2 436 437
2 436 440
2 431 436
2 437 440
2 437 442
2 440 442
2 440 443
2 440 445
2 442 445
2 439 442
2 443 445
2 437 443
2 445 448
2 438 445
2 448 451
2 448 453
2 454 448
2 449 453
2 449 455
2 451 453
2 451 455
2 456 451
2 453 455
2 453 457
2 453 458
2 455 457
2 455 458
2 455 460
2 461 455
2 457 460
2 458 460
2 458 463
2 458 464
2 460 463
2 460 464
2 464 469
2 474 477
2 474 479
2 476 477
2 476 479
2 471 476
2 477 479
2 477 481
2 472 477
2 482 479
2 479 483
2 481 483
2 476 481
2 475 481
2 483 485
2 483 486
2 483 487
2 483 489
2 485 487
2 485 489
2 485 491
2 486 487
2 486 491
2 487 491
2 489 491
2 491 500
2 495 491
2 500 497
2 490 500
2 497 499
2 497 502
2 499 502
2 504 499
2 502 506
2 506 509
2 507 512
2 509 512
2 512 513
2 512 520
2 512 515
2 513 515
2 513 517
2 520 515
2 520 517
2 520 519
2 511 520
2 515 517
2 515 519
2 515 521
2 517 519
2 517 521
2 519 521
2 521 524
2 521 525
2 524 525
2 524 527
2 524 528
2 519 524
2 518 524
2 525 528
2 525 530
2 527 528
2 527 530
2 528 530
2 528 532
2 530 532
2 530 534
2 532 534
2 527 532
2 526 532
2 525 532
2 528 534
2 527 534
2 526 534
2 525 534
2 4 11
2 14 21
2 22 28
2 22 29
2 24 33
2 24 19
2 24 30
2 26 21
2 26 36
2 33 37
2 33 39
2 33 41
2 34 29
2 38 44
2 44 50
2 44 51
2 44 52
2 50 43
2 51 58
2 53 47
2 53 58
2 61 55
2 66 69
2 66 70
2 66 58
2 66 79
2 69 65
2 69 78
2 69 80
2 70 67
2 72 67
2 72 82
2 77 79
2 81 87
2 84 90
2 84 75
2 85 78
2 87 80
2 90 95
2 91 86
2 91 97
2 94 100
2 96 102
2 96 103
2 100 108
2 100 107
2 102 108
2 102 109
2 108 115
2 108 113
2 108 117
2 112 117
2 112 119
2 115 125
2 115 109
2 115 122
2 118 113
2 121 111
2 121 113
2 121 123
2 121 128
2 125 130
2 125 117
2 147 155
2 147 156
2 151 156
2 151 158
2 152 159
2 152 143
2 152 158
2 155 162
2 157 150
2 157 163
2 162 166
2 164 158
2 164 169
2 166 161
2 170 176
2 172 180
2 176 169
2 177 185
2 177 187
2 177 173
2 177 174
2 183 174
2 183 190
2 185 192
2 187 194
2 187 178
2 194 201
2 194 188
2 195 201
2 195 190
2 199 204
2 199 207
2 224 229
2 227 233
2 239 243
2 242 236
2 241 250
2 256 263
2 262 255
2 281 285
2 281 286
2 283 289
2 283 290
2 289 294
2 295 288
2 295 304
2 297 291
2 301 306
2 301 294
2 301 305
2 329 336
2 331 337
2 332 337
2 339 333
2 340 346
2 353 348
2 375 382
2 380 374
2 380 387
2 382 376
2 386 392
2 412 420
2 412 419
2 414 420
2 414 421
2 421 415
2 423 428
2 426 432
2 430 436
2 432 425
2 435 428
2 435 429
2 435 440
2 438 433
2 444 448
2 446 452
2 447 442
2 454 461
2 456 464
2 462 455
2 462 469
2 470 476
2 492 496
2 505 512
2 522 528
2 19 25
2 25 36
2 30 37
2 32 39
2 36 39
2 36 41
2 37 47
2 39 45
2 41 47
2 52 57
2 57 65
2 65 76
2 76 78
2 79 78
2 79 80
2 78 86
2 82 88
2 86 92
2 89 95
2 97 103
2 101 107
2 105 113
2 107 113
2 107 123
2 109 123
2 109 117
2 113 119
2 113 120
2 123 120
2 123 124
2 117 124
2 124 129
2 129 135
2 148 149
2 150 158
2 163 169
2 181 184
2 181 186
2 178 186
2 188 196
2 190 196
2 198 207
2 207 210
2 222 535
2 223 228
2 228 536
2 231 236
2 235 248
2 236 247
2 237 240
2 246 253
2 250 255
2 252 257
2 253 259
2 257 264
2 270 276
2 270 277
2 272 280
2 273 280
2 274 280
2 280 286
2 288 294
2 291 299
2 299 305
2 300 305
2 300 307
2 308 313
2 333 338
2 336 343
2 338 346
2 341 348
2 345 350
2 346 352
2 352 357
2 409 415
2 419 424
2 429 436
2 451 458
2 513 519
2 520 521
2 521 527
