ply
format ascii 1.0
comment Saved by Easy3D (liangliang.nan@gmail.com)
element vertex 371
property float x
property float y
property float z
element edge 310
property list uchar int vertex_indices
end_header
1.11838 0.101102 -0.00499725
1.06157 -0.171232 -0.0279961
1.45341 -0.0118149 -0.131996
1.67646 -0.180262 -0.0329971
2.72508 -0.0439894 -0.0569954
2.57156 0.0194102 -0.0519981
4.41647 0.062197 -0.119995
4.2486 0.0138403 -0.140995
6.8205 0.138066 -0.0379982
6.86203 0.0191359 -0.115997
8.06417 0.0920086 -0.117996
8.10559 -0.0618595 -0.147995
8.8327 0.0545174 -0.137997
8.97268 0.12393 -0.187996
8.70636 -0.112769 -0.166996
9.16832 0.116292 -0.0699959
9.16762 -0.0933378 -0.237995
9.61534 0.0589058 -0.230995
9.62911 -0.00402973 -0.211998
10.3841 0.0912913 -0.197998
10.3136 -0.0831685 -0.175995
11.2646 0.10933 -0.233997
11.39 -0.00289043 -0.245998
10.8867 -0.0780839 -0.191998
11.684 0.142876 -0.213997
11.9073 0.0443059 -0.274998
12.1303 -0.124141 -0.176998
12.0749 0.0227859 -0.220997
13.249 0.081776 -0.243996
13.2486 -0.0579774 -0.175995
14.5346 0.0216044 -0.233997
14.3532 0.10606 -0.235996
15.8067 0.129183 -0.237995
15.834 -0.0665643 -0.243996
16.7431 0.140049 -0.345997
16.4909 -0.0547705 -0.225998
18.2658 -0.04669 -0.344997
18.2382 0.0442426 -0.318996
18.4333 -0.103148 -0.253998
18.6437 0.105786 -0.364998
18.6153 -0.012912 -0.253998
18.9928 0.0347485 -0.243996
18.8807 -0.0557199 -0.299995
20.223 0.121504 -0.356998
20.2228 0.0865653 -0.402996
21.0331 2.1098e-05 -0.274998
20.9075 0.0423649 -0.336998
21.4526 0.0685054 -0.358997
21.648 -0.00900887 -0.282997
21.844 0.0881687 -0.370998
23.0041 0.140218 -0.317997
22.8502 0.0638638 -0.412998
25.8553 0.193638 -0.326996
25.7711 0.0821136 -0.368996
26.3303 0.150134 -0.507996
26.3858 0.0032069 -0.353996
26.6376 0.0932112 -0.307995
27.4621 0.083485 -0.380997
27.4623 0.118423 -0.410995
27.8677 0.179966 -0.378998
27.6993 -0.0430822 -0.329998
28.3003 -0.0241151 -0.379997
28.6922 0.135302 -0.360996
28.4678 -0.0805734 -0.342999
28.9434 0.0506142 -0.551998
29.1946 -0.0690117 -0.306995
29.1251 0.0360355 -0.357998
29.5308 0.167455 -0.349998
29.5866 0.125344 -0.397995
29.8376 -0.0292208 -0.248997
30.0058 0.123951 -0.422997
31.1236 0.050361 -0.298996
30.9555 -0.0678724 -0.258995
31.8784 0.0758053 -0.393997
31.9759 -0.0153594 -0.413998
32.2561 0.193343 -0.434998
32.6328 -0.00356557 -0.395996
33.0107 0.183848 -0.440998
33.4152 -0.0690539 -0.398998
34.6316 0.0806367 -0.317997
34.5059 0.122981 -0.331997
35.0512 0.184059 -0.367996
35.0509 0.114183 -0.371998
37.0357 0.191444 -0.400997
36.8116 0.0454452 -0.414997
37.4125 0.029474 -0.375996
38.6845 0.102115 -0.370998
38.6703 0.0252966 -0.368996
39.104 0.170599 -0.391998
39.5089 0.05745 -0.484997
39.4387 -0.047133 -0.314995
39.8303 0.0424071 -0.292995
39.8724 0.0981692 -0.367996
41.1301 0.0590534 -0.350998
41.2696 -0.0112875 -0.435997
41.5911 0.008608 -0.372997
41.7731 0.0988444 -0.388996
42.458 0.124521 -0.477997
42.402 0.0967557 -0.354996
45.2949 0.101123 -0.382996
45.5888 0.211951 -0.306995
45.4767 0.121483 -0.353996
46.7763 0.103191 -0.649998
46.7065 0.103423 -0.350998
47.0279 0.0883797 -0.315998
47.2936 0.150387 -0.359997
46.2869 -2.84217e-14 -0.254997
47.5026 -0.0250012 -0.342999
47.7968 0.190642 -0.306995
47.8946 0.169354 -0.403996
48.1736 0.0286722 -0.227997
48.1318 0.0427868 -0.271996
49.4879 0.192013 -0.351997
49.4174 0.0175536 -0.356998
50.8015 0.180663 -0.274998
50.6752 0.0133762 -0.289997
51.207 0.242206 -0.270996
51.2065 0.0675138 -0.288998
51.5977 0.0522388 -0.201996
51.8212 0.0235454 -0.309998
52.3945 0.0985068 -0.224998
52.3804 0.0566272 -0.323997
53.1776 0.242649 -0.263996
52.9395 0.0897089 -0.283997
53.5265 0.101735 -0.320995
53.5827 0.199377 -0.285995
53.9598 0.107284 -0.255997
54.1136 0.148699 -0.277996
54.3372 0.120006 -0.265995
54.3227 -0.026689 -0.293995
56.3916 0.127158 -0.205997
56.1677 0.0510362 -0.186996
57.37 0.158847 -0.233997
57.3001 0.159079 -0.158997
57.4951 -0.0232501 -0.207996
57.691 0.0389892 -0.126995
58.0405 0.0727672 -0.215996
61.4092 0.243261 -0.172997
61.7444 0.20022 -0.0509949
61.9535 0.0248324 -0.0849953
61.8143 0.199988 -0.130997
62.2336 0.198596 -0.0919952
62.4566 0.0301491 -0.157997
64.5257 0.253873 -0.0619965
64.3993 0.051648 0.00500489
64.763 0.162244 -0.113998
64.9169 0.203659 -0.0889969
67.0273 0.238577 -0.0399971
67.2367 0.168004 -0.079998
67.4322 0.125428 -0.00099945
67.4737 0.0064982 0.00200653
68.5925 0.212415 -0.0629959
68.7461 0.183954 0.0390015
70.0041 0.249653 -0.0169983
70.2272 0.0812064 0.0699997
69.5425 0.125407 0.105003
70.7449 0.268156 0.0970001
70.8422 0.107115 0.0430069
71.6253 0.251257 0.0559998
71.5409 0.104794 0.104004
72.4497 0.206592 0.0710068
72.1977 0.0816495 0.155006
72.8549 0.198258 0.109001
72.6591 0.136019 0.0820007
73.6095 0.153826 0.136002
73.3715 0.0358245 0.161003
73.9585 0.0478504 0.260002
73.8051 0.146188 0.121002
74.2945 0.214441 0.113007
77.8722 0.209546 0.239006
77.9277 0.0975574 0.275002
78.5985 0.0813541 0.309006
78.2637 0.264148 0.252007
80.0801 0.153298 0.242004
80.3456 0.145429 0.368004
79.8702 0.0491796 0.513
80.891 0.241446 0.346001
81.0165 0.164164 0.357002
81.6874 0.182899 0.345001
81.7293 0.168784 0.354004
82.4421 0.173405 0.414001
82.4279 0.131525 0.347
84.3426 0.139142 0.427002
84.2172 0.251362 0.445
85.5025 0.121314 0.550003
85.5024 0.0863754 0.466003
85.8942 0.245792 0.477005
86.3552 0.160408 0.479004
86.1313 0.0842867 0.510002
87.1521 0.276553 0.562004
87.2358 0.213386 0.446007
86.8439 0.0539688 0.585007
87.501 0.100701 0.643005
87.5993 0.254105 0.561005
88.0323 0.189777 0.542
88.1161 0.161548 0.629005
90.8974 0.2152 0.650002
90.9531 0.173088 0.705002
95.2579 0.249632 0.819
95.3135 0.172582 0.798004
95.5789 0.129774 0.873001
96.739 0.181823 0.923004
96.697 0.160999 0.904007
97.1026 0.257481 0.895004
97.4238 0.172561 0.957001
98.2206 0.218829 0.855003
98.2062 0.107073 0.959
97.9832 0.275519 0.943001
98.5698 0.18273 0.914001
98.626 0.280372 0.992004
98.8912 0.167687 0.986
98.8771 0.125808 1.05701
102.469 0.337484 1.138
102.022 0.150302 1.118
103.587 0.298833 1.19601
104.006 0.122748 1.147
104.622 0.358287 1.355
104.621 0.218534 1.258
104.985 0.224314 1.291
105.711 0.235876 1.19701
106.075 0.17178 1.345
106.829 0.197225 1.34901
106.69 0.16275 1.314
110.659 0.317272 1.555
110.687 0.22634 1.568
111.036 0.329995 1.62601
111.148 0.350586 1.514
111.498 0.314488 1.59901
111.399 0.23096 1.662
112.629 0.143024 1.772
112.727 0.226551 1.634
113.007 0.295499 1.677
113.384 0.203406 1.636
113.468 0.210115 1.749
114.111 0.354721 1.787
113.761 0.251067 1.651
114.166 0.137918 1.723
115.355 0.273726 1.764
115.354 0.168911 1.75201
114.837 0.0867763 1.71301
117.186 0.309572 1.915
117.339 0.246172 1.931
118.639 0.192942 1.956
118.625 0.290816 1.972
118.989 0.401411 2.05701
118.848 0.122369 1.939
119.422 0.267207 1.97601
119.338 0.330374 2.056
120.889 0.192456 2.122
121.015 0.219989 2.15701
122.65 0.333349 2.164
122.44 0.159354 2.056
123.754 0.322695 2.23701
123.74 0.280815 2.245
124.117 0.22366 2.29
123.963 0.112368 2.246
125.208 0.345818 2.357
125.137 0.241235 2.366
125.906 0.343497 2.368
125.822 0.231973 2.384
127.01 0.297904 2.431
127.01 0.228028 2.371
129.554 0.408247 2.64001
129.554 0.338371 2.631
129.791 0.141927 2.565
129.917 0.274275 2.653
129.022 0.179418 2.576
131.384 0.199524 2.77901
131.091 0.263388 2.661
131.664 0.373288 2.756
133.216 0.375123 2.789
133.523 0.283262 2.912
134.739 0.223323 2.92001
134.641 0.349426 2.959
134.892 0.159923 2.958
135.172 0.403563 2.90401
135.549 0.206655 2.985
135.592 0.367233 2.952
137.03 0.208723 3.149
136.626 0.321872 3.039
138.415 0.40677 3.209
138.107 0.184186 3.139
139.477 0.305415 3.217
139.518 0.256362 3.248
140.245 0.372739 3.291
140.608 0.273705 3.37801
140.986 0.391242 3.305
141.573 0.263515 3.359
141.531 0.382444 3.429
141.782 0.22788 3.494
142.943 0.349806 3.54601
143.166 0.181359 3.33701
142.481 0.190621 3.46001
143.376 0.320416 3.54401
146.576 0.372676 3.772
146.744 0.246341 3.896
146.94 0.378457 3.734
148.351 0.31088 3.845
148.854 0.281258 4.02901
148.729 0.393479 3.899
149.497 0.390926 3.939
149.832 0.278009 4.01801
150.224 0.262734 3.86401
150.419 0.255097 4.049
150.503 0.331682 4.065
151.65 0.411728 4.146
151.887 0.285161 4.162
153.215 0.420505 4.25401
153.298 0.252523 4.343
153.829 0.236783 4.396
153.746 0.334889 4.291
153.983 0.138445 4.242
154.892 0.379997 4.333
155.185 0.316133 4.444
156.457 0.318897 4.484
156.583 0.381368 4.505
159.056 0.317251 4.716
159.168 0.267966 4.732
159.769 0.321872 4.79301
159.741 0.377866 4.812
159.978 0.251299 4.894
160.776 0.472259 4.93401
160.496 0.333434 4.866
161.181 0.428987 4.944
161.111 0.359342 4.925
161.362 0.239716 5.006
161.628 0.3716 4.938
0.866634 0.0460359 0.0370026
1.9149 0.0774931 -0.0719948
2.12395 -0.097895 -0.0389977
8.48331 0.0556778 -0.215996
14.5622 -0.0693282 -0.202995
16.2679 0.113676 -0.324997
20.4739 -0.067999 -0.287998
28.2588 0.0948146 -0.343998
33.849 0.111187 -0.426998
34.0581 -0.0642014 -0.426998
46.0638 0.168447 -0.286995
49.907 0.155683 -0.362995
50.1441 -0.00582306 -0.263996
59.9274 0.136378 -0.350998
60.2064 -0.004304 -0.137997
60.5563 0.134289 -0.247997
64.1622 0.213154 -0.060997
65.336 0.167329 -0.0909958
65.5731 0.00582306 -0.0079956
74.5175 0.0459937 0.146004
78.5007 0.102642 0.300003
78.8925 0.227121 0.245003
79.1295 0.0656149 0.310005
88.9405 0.116883 0.673004
89.4442 0.296892 0.686005
89.6812 0.135386 0.735001
90.2125 0.189524 0.590004
92.1692 0.217964 0.706001
92.3922 0.0495171 0.755005
92.8818 0.187646 0.751007
114.6 0.248282 1.71301
121.546 0.344004 2.132
121.797 0.154501 2.132
124.411 0.264612 2.32
126.563 0.145661 2.441
131.873 0.1979 2.675
134.124 0.197414 2.86301
136.877 0.167308 3.104
137.883 0.352633 3.15601
143.697 0.37525 3.54
145.849 0.326176 3.674
146.072 0.122791 3.542
146.492 0.331028 3.732
156.051 0.257354 4.50201
2 0 1
2 0 2
2 0 3
2 4 5
2 6 7
2 8 9
2 10 11
2 12 13
2 12 14
2 12 15
2 12 16
2 15 13
2 15 16
2 17 18
2 19 20
2 21 22
2 21 23
2 24 25
2 24 22
2 24 26
2 24 23
2 27 26
2 27 25
2 28 29
2 30 31
2 32 33
2 34 35
2 36 37
2 36 38
2 36 39
2 40 39
2 40 38
2 41 42
2 41 39
2 43 44
2 45 46
2 47 48
2 49 48
2 50 51
2 52 53
2 54 55
2 54 56
2 56 55
2 57 58
2 59 60
2 61 62
2 62 63
2 62 64
2 62 65
2 66 65
2 66 64
2 67 68
2 67 69
2 67 65
2 70 69
2 71 72
2 73 74
2 73 75
2 75 74
2 75 76
2 77 76
2 77 78
2 77 74
2 79 80
2 81 82
2 83 84
2 83 85
2 86 87
2 88 87
2 89 90
2 89 91
2 91 92
2 93 94
2 95 96
2 97 98
2 99 100
2 100 101
2 102 103
2 102 104
2 102 105
2 102 106
2 102 107
2 108 109
2 108 107
2 110 111
2 112 113
2 114 115
2 116 117
2 118 119
2 120 121
2 122 123
2 122 124
2 125 124
2 126 127
2 128 129
2 130 131
2 132 133
2 132 134
2 132 135
2 135 134
2 135 136
2 135 133
2 137 138
2 137 139
2 140 138
2 140 139
2 141 142
2 141 139
2 143 144
2 143 145
2 146 145
2 146 144
2 147 148
2 147 149
2 147 150
2 149 150
2 149 148
2 151 152
2 153 154
2 153 155
2 156 157
2 156 154
2 156 155
2 158 159
2 160 161
2 162 163
2 164 165
2 164 166
2 166 167
2 166 168
2 169 170
2 171 172
2 173 174
2 173 175
2 176 177
2 178 179
2 180 181
2 182 183
2 184 185
2 184 186
2 187 188
2 189 190
2 189 191
2 189 192
2 193 192
2 193 190
2 194 195
2 194 190
2 196 197
2 198 199
2 198 200
2 200 199
2 201 202
2 203 204
2 205 206
2 205 207
2 208 209
2 210 211
2 212 213
2 214 215
2 216 217
2 216 218
2 216 215
2 219 220
2 221 222
2 223 224
2 225 226
2 225 224
2 227 228
2 229 230
2 229 231
2 231 232
2 232 233
2 232 234
2 235 233
2 235 234
2 234 236
2 237 238
2 237 239
2 240 241
2 242 243
2 242 244
2 244 245
2 246 247
2 248 249
2 250 251
2 252 253
2 254 255
2 256 257
2 258 259
2 260 261
2 262 263
2 262 264
2 262 265
2 262 266
2 265 264
2 267 268
2 267 269
2 270 271
2 272 273
2 272 274
2 272 275
2 275 274
2 275 276
2 277 276
2 277 274
2 278 279
2 280 281
2 282 283
2 284 285
2 285 286
2 287 288
2 287 289
2 290 291
2 290 292
2 293 291
2 294 295
2 296 295
2 297 298
2 299 298
2 300 301
2 300 298
2 301 302
2 302 303
2 302 304
2 304 303
2 305 306
2 307 308
2 309 310
2 309 311
2 312 313
2 314 315
2 316 317
2 318 319
2 318 320
2 321 322
2 323 324
2 323 325
2 326 325
2 327 1
2 327 2
2 1 2
2 2 3
2 3 328
2 328 329
2 330 14
2 25 26
2 31 331
2 332 35
2 37 38
2 38 39
2 39 42
2 44 333
2 334 63
2 63 64
2 64 65
2 68 69
2 78 335
2 335 336
2 336 80
2 337 106
2 105 107
2 107 109
2 113 338
2 338 339
2 133 134
2 340 341
2 341 342
2 138 139
2 343 144
2 144 145
2 344 345
2 148 150
2 168 346
2 170 172
2 172 347
2 348 349
2 175 174
2 186 188
2 191 190
2 190 192
2 350 351
2 351 352
2 352 353
2 354 355
2 355 356
2 207 206
2 209 211
2 224 226
2 226 228
2 236 357
2 357 239
2 358 359
2 255 360
2 361 261
2 266 263
2 269 362
2 363 273
2 273 274
2 279 364
2 365 281
2 288 289
2 291 366
2 367 368
2 368 295
2 369 295
2 308 310
2 310 311
2 370 315
2 319 320
