# Rhino

mtllib 1powerline.mtl
usemtl diffuse_0
v 152.57164610071845 0.31206770664717726 4.2327435256843815
v 161.89319042233623 0.33303077163548145 5.027868886683895
cstype bspline
deg 1
curv 15 16 1 2
parm u 15 15 16 16
end
usemtl diffuse_0
v 143.14386443513024 0.29104956643997892 3.501679642352439
v 152.57164610071845 0.31206770664717726 4.2327435256843815
cstype bspline
deg 1
curv 14 15 3 4
parm u 14 14 15 15
end
usemtl diffuse_0
v 133.60984542557159 0.26997635101388617 2.8346772366880622
v 143.14386443513024 0.29104956643997892 3.501679642352439
cstype bspline
deg 1
curv 13 14 5 6
parm u 13 13 14 14
end
usemtl diffuse_0
v 123.96958907204252 0.24884806036889923 2.2317363086912554
v 133.60984542557159 0.26997635101388617 2.8346772366880622
cstype bspline
deg 1
curv 12 13 7 8
parm u 12 12 13 13
end
usemtl diffuse_0
v 114.22309537454302 0.227664694505018 1.6928568583620167
v 123.96958907204252 0.24884806036889923 2.2317363086912554
cstype bspline
deg 1
curv 11 12 9 10
parm u 11 11 12 12
end
usemtl diffuse_0
v 104.3703643330731 0.20642625342224258 1.2180388857003464
v 114.22309537454302 0.227664694505018 1.6928568583620167
cstype bspline
deg 1
curv 10 11 11 12
parm u 10 10 11 11
end
usemtl diffuse_0
v 94.411395947632712 0.18513273712057279 0.80728239070624463
v 104.3703643330731 0.20642625342224258 1.2180388857003464
cstype bspline
deg 1
curv 9 10 13 14
parm u 9 9 10 10
end
usemtl diffuse_0
v 84.346190218221921 0.16378414560000884 0.46058737337971234
v 94.411395947632712 0.18513273712057279 0.80728239070624463
cstype bspline
deg 1
curv 8 9 15 16
parm u 8 8 9 9
end
usemtl diffuse_0
v 74.174747144840694 0.14238047886055061 0.17795383372074858
v 84.346190218221921 0.16378414560000884 0.46058737337971234
cstype bspline
deg 1
curv 7 8 17 18
parm u 7 7 8 8
end
usemtl diffuse_0
v 63.897066727489033 0.12092173690219807 -0.040618228270647372
v 74.174747144840694 0.14238047886055061 0.17795383372074858
cstype bspline
deg 1
curv 6 7 19 20
parm u 6 6 7 7
end
usemtl diffuse_0
v 53.513148966166938 0.099407919724951305 -0.1951288125944744
v 63.897066727489033 0.12092173690219807 -0.040618228270647372
cstype bspline
deg 1
curv 5 6 21 22
parm u 5 5 6 6
end
usemtl diffuse_0
v 43.022993860874415 0.077839027328810248 -0.28557791925073284
v 53.513148966166938 0.099407919724951305 -0.1951288125944744
cstype bspline
deg 1
curv 4 5 23 24
parm u 4 4 5 5
end
usemtl diffuse_0
v 32.426601411611458 0.05621505971377494 -0.31196554823942257
v 43.022993860874415 0.077839027328810248 -0.28557791925073284
cstype bspline
deg 1
curv 3 4 25 26
parm u 3 3 4 4
end
usemtl diffuse_0
v 21.723971618378073 0.03453601687984538 -0.27429169956054389
v 32.426601411611458 0.05621505971377494 -0.31196554823942257
cstype bspline
deg 1
curv 2 3 27 28
parm u 2 2 3 3
end
usemtl diffuse_0
v 10.91510448117425 0.012801898827021554 -0.17255637321409661
v 21.723971618378073 0.03453601687984538 -0.27429169956054389
cstype bspline
deg 1
curv 1 2 29 30
parm u 1 1 2 2
end
usemtl diffuse_0
v 0 -0.0089872944446965364 -0.0067595692000807089
v 10.91510448117425 0.012801898827021554 -0.17255637321409661
cstype bspline
deg 1
curv 0 1 31 32
parm u 0 0 1 1
end
