# Rhino

mtllib 2powerlines.mtl
usemtl diffuse_0
v 301.49794951860542 8.4503946325260202 -2.0877280090044446
v 310.72546488203812 8.4643806428153585 -1.3100013799999957
cstype bspline
deg 1
curv 31 32 1 2
parm u 31 31 32 32
end
usemtl diffuse_0
v 292.24614605942605 8.4375795592102243 -2.8130408220045746
v 301.49794951860542 8.4503946325260202 -2.0877280090044446
cstype bspline
deg 1
curv 30 31 3 4
parm u 30 30 31 31
end
usemtl diffuse_0
v 282.97005450450001 8.4259354228679726 -3.4859398190003841
v 292.24614605942605 8.4375795592102243 -2.8130408220045746
cstype bspline
deg 1
curv 29 30 5 6
parm u 29 29 30 30
end
usemtl diffuse_0
v 273.6696748538273 8.4154622234992651 -4.1064249999918756
v 282.97005450450001 8.4259354228679726 -3.4859398190003841
cstype bspline
deg 1
curv 28 29 7 8
parm u 28 28 29 29
end
usemtl diffuse_0
v 264.34500710740792 8.4061599611041 -4.6744963649790465
v 273.6696748538273 8.4154622234992651 -4.1064249999918756
cstype bspline
deg 1
curv 27 28 9 10
parm u 27 27 28 28
end
usemtl diffuse_0
v 254.9960512652419 8.3980286356824809 -5.1901539139618986
v 264.34500710740792 8.4061599611041 -4.6744963649790465
cstype bspline
deg 1
curv 26 27 11 12
parm u 26 26 27 27
end
usemtl diffuse_0
v 245.62280732732918 8.3910682472344043 -5.6533976469404328
v 254.9960512652419 8.3980286356824809 -5.1901539139618986
cstype bspline
deg 1
curv 25 26 13 14
parm u 25 25 26 26
end
usemtl diffuse_0
v 236.22527529366977 8.38527879575987 -6.0642275639146437
v 245.62280732732918 8.3910682472344043 -5.6533976469404328
cstype bspline
deg 1
curv 24 25 15 16
parm u 24 24 25 25
end
usemtl diffuse_0
v 226.8034551642638 8.3806602812588835 -6.4226436648845384
v 236.22527529366977 8.38527879575987 -6.0642275639146437
cstype bspline
deg 1
curv 23 24 17 18
parm u 23 23 24 24
end
usemtl diffuse_0
v 217.3573469391111 8.3772127037314377 -6.7286459498501152
v 226.8034551642638 8.3806602812588835 -6.4226436648845384
cstype bspline
deg 1
curv 22 23 19 20
parm u 22 22 23 23
end
usemtl diffuse_0
v 207.8869506182117 8.3749360631775378 -6.9822344188113696
v 217.3573469391111 8.3772127037314377 -6.7286459498501152
cstype bspline
deg 1
curv 21 22 21 22
parm u 21 21 22 22
end
usemtl diffuse_0
v 198.39226620156566 8.3738303595971821 -7.183409071768307
v 207.8869506182117 8.3749360631775378 -6.9822344188113696
cstype bspline
deg 1
curv 20 21 23 24
parm u 20 20 21 21
end
usemtl diffuse_0
v 188.87329368917298 8.3738955929903689 -7.3321699087209247
v 198.39226620156566 8.3738303595971821 -7.183409071768307
cstype bspline
deg 1
curv 19 20 25 26
parm u 19 19 20 20
end
usemtl diffuse_0
v 179.33003308103355 8.3751317633570981 -7.4285169296692217
v 188.87329368917298 8.3738955929903689 -7.3321699087209247
cstype bspline
deg 1
curv 18 19 27 28
parm u 18 18 19 19
end
usemtl diffuse_0
v 169.76248437714753 8.3775388706973732 -7.4724501346132008
v 179.33003308103355 8.3751317633570981 -7.4285169296692217
cstype bspline
deg 1
curv 17 18 29 30
parm u 17 17 18 18
end
usemtl diffuse_0
v 160.17064757751484 8.3811169150111908 -7.4639695235528603
v 169.76248437714753 8.3775388706973732 -7.4724501346132008
cstype bspline
deg 1
curv 16 17 31 32
parm u 16 16 17 17
end
usemtl diffuse_0
v 150.55452268213548 8.3858658962985544 -7.4030750964881999
v 160.17064757751484 8.3811169150111908 -7.4639695235528603
cstype bspline
deg 1
curv 15 16 33 34
parm u 15 15 16 16
end
usemtl diffuse_0
v 140.91410969100943 8.3917858145594622 -7.2897668534192217
v 150.55452268213548 8.3858658962985544 -7.4030750964881999
cstype bspline
deg 1
curv 14 15 35 36
parm u 14 14 15 15
end
usemtl diffuse_0
v 131.24940860413676 8.3988766697939141 -7.1240447943459246
v 140.91410969100943 8.3917858145594622 -7.2897668534192217
cstype bspline
deg 1
curv 13 14 37 38
parm u 13 13 14 14
end
usemtl diffuse_0
v 121.56041942151739 8.4071384620019085 -6.9059089192683079
v 131.24940860413676 8.3988766697939141 -7.1240447943459246
cstype bspline
deg 1
curv 12 13 39 40
parm u 12 12 13 13
end
usemtl diffuse_0
v 111.84714214315136 8.4165711911834435 -6.6353592281863714
v 121.56041942151739 8.4071384620019085 -6.9059089192683079
cstype bspline
deg 1
curv 11 12 41 42
parm u 11 11 12 12
end
usemtl diffuse_0
v 102.10957676903867 8.4271748573385281 -6.3123957211001152
v 111.84714214315136 8.4165711911834435 -6.6353592281863714
cstype bspline
deg 1
curv 10 11 43 44
parm u 10 10 11 11
end
usemtl diffuse_0
v 92.347723299179279 8.4389494604671533 -5.9370183980095383
v 102.10957676903867 8.4271748573385281 -6.3123957211001152
cstype bspline
deg 1
curv 9 10 45 46
parm u 9 9 10 10
end
usemtl diffuse_0
v 82.561581733573263 8.451895000569321 -5.5092272589146436
v 92.347723299179279 8.4389494604671533 -5.9370183980095383
cstype bspline
deg 1
curv 8 9 47 48
parm u 8 8 9 9
end
usemtl diffuse_0
v 72.751152072220577 8.4660114776450346 -5.02902230381543
v 82.561581733573263 8.451895000569321 -5.5092272589146436
cstype bspline
deg 1
curv 7 8 49 50
parm u 7 7 8 8
end
usemtl diffuse_0
v 62.916434315121222 8.4812988916942942 -4.4964035327118985
v 72.751152072220577 8.4660114776450346 -5.02902230381543
cstype bspline
deg 1
curv 6 7 51 52
parm u 6 6 7 7
end
usemtl diffuse_0
v 53.057428462275197 8.4977572427170944 -3.911370945604046
v 62.916434315121222 8.4812988916942942 -4.4964035327118985
cstype bspline
deg 1
curv 5 6 53 54
parm u 5 5 6 6
end
usemtl diffuse_0
v 43.174134513682496 8.5153865307134389 -3.2739245424918737
v 53.057428462275197 8.4977572427170944 -3.911370945604046
cstype bspline
deg 1
curv 4 5 55 56
parm u 4 4 5 5
end
usemtl diffuse_0
v 33.266552469343139 8.5341867556833293 -2.5840643233753831
v 43.174134513682496 8.5153865307134389 -3.2739245424918737
cstype bspline
deg 1
curv 3 4 57 58
parm u 3 3 4 4
end
usemtl diffuse_0
v 23.334682329257113 8.5541579176267621 -1.8417902882545731
v 33.266552469343139 8.5341867556833293 -2.5840643233753831
cstype bspline
deg 1
curv 2 3 59 60
parm u 2 2 3 3
end
usemtl diffuse_0
v 13.378524093424428 8.5753000165437374 -1.047102437129444
v 23.334682329257113 8.5541579176267621 -1.8417902882545731
cstype bspline
deg 1
curv 1 2 61 62
parm u 1 1 2 2
end
usemtl diffuse_0
v 3.3980777618450744 8.5976130524342604 -0.2000007699999955
v 13.378524093424428 8.5753000165437374 -1.047102437129444
cstype bspline
deg 1
curv 0 1 63 64
parm u 0 0 1 1
end
usemtl diffuse_0
v 293.73469002612188 0.24553060345953101 -2.9085763870384933
v 302.70359734925273 0.25695627530775866 -2.0999984799999964
cstype bspline
deg 1
curv 31 32 65 66
parm u 31 31 32 32
end
usemtl diffuse_0
v 284.7332848281871 0.23519458799941506 -3.6607531141288172
v 293.73469002612188 0.24553060345953101 -2.9085763870384933
cstype bspline
deg 1
curv 30 31 67 68
parm u 30 30 31 31
end
usemtl diffuse_0
v 275.69938175544848 0.22594822892741093 -4.3565286612709677
v 284.7332848281871 0.23519458799941506 -3.6607531141288172
cstype bspline
deg 1
curv 29 30 69 70
parm u 29 29 30 30
end
usemtl diffuse_0
v 266.63298080790599 0.21779152624351852 -4.9959030284649462
v 275.69938175544848 0.22594822892741093 -4.3565286612709677
cstype bspline
deg 1
curv 28 29 71 72
parm u 28 28 29 29
end
usemtl diffuse_0
v 257.53408198555962 0.21072447994773788 -5.5788762157107517
v 266.63298080790599 0.21779152624351852 -4.9959030284649462
cstype bspline
deg 1
curv 27 28 73 74
parm u 27 27 28 28
end
usemtl diffuse_0
v 248.40268528840946 0.20474709004006905 -6.1054482230083842
v 257.53408198555962 0.21072447994773788 -5.5788762157107517
cstype bspline
deg 1
curv 26 27 75 76
parm u 26 26 27 27
end
usemtl diffuse_0
v 239.23879071645536 0.19985935652051195 -6.5756190503578438
v 248.40268528840946 0.20474709004006905 -6.1054482230083842
cstype bspline
deg 1
curv 25 26 77 78
parm u 25 25 26 26
end
usemtl diffuse_0
v 230.0423982696974 0.19606127938906659 -6.9893886977591277
v 239.23879071645536 0.19985935652051195 -6.5756190503578438
cstype bspline
deg 1
curv 24 25 79 80
parm u 24 24 25 25
end
usemtl diffuse_0
v 220.81350794813562 0.19335285864573309 -7.3467571652122423
v 230.0423982696974 0.19606127938906659 -6.9893886977591277
cstype bspline
deg 1
curv 23 24 81 82
parm u 23 23 24 24
end
usemtl diffuse_0
v 211.55211975176994 0.19173409429051128 -7.6477244527171839
v 220.81350794813562 0.19335285864573309 -7.3467571652122423
cstype bspline
deg 1
curv 22 23 83 84
parm u 22 22 23 23
end
usemtl diffuse_0
v 202.2582336806004 0.19120498632340122 -7.8922905602739526
v 211.55211975176994 0.19173409429051128 -7.6477244527171839
cstype bspline
deg 1
curv 21 22 85 86
parm u 21 21 22 22
end
usemtl diffuse_0
v 192.93184973462695 0.191765534744403 -8.0804554878825492
v 202.2582336806004 0.19120498632340122 -7.8922905602739526
cstype bspline
deg 1
curv 20 21 87 88
parm u 20 20 21 21
end
usemtl diffuse_0
v 183.57296791384968 0.19341573955351646 -8.2122192355429711
v 192.93184973462695 0.191765534744403 -8.0804554878825492
cstype bspline
deg 1
curv 19 20 89 90
parm u 19 19 20 20
end
usemtl diffuse_0
v 174.18158821826847 0.1961556007507417 -8.28758180325522
v 183.57296791384968 0.19341573955351646 -8.2122192355429711
cstype bspline
deg 1
curv 18 19 91 92
parm u 18 18 19 19
end
usemtl diffuse_0
v 164.75771064788347 0.19998511833607874 -8.3065431910192977
v 174.18158821826847 0.1961556007507417 -8.28758180325522
cstype bspline
deg 1
curv 17 18 93 94
parm u 17 17 18 18
end
usemtl diffuse_0
v 155.30133520269456 0.2049042923095275 -8.2691033988352025
v 164.75771064788347 0.19998511833607874 -8.3065431910192977
cstype bspline
deg 1
curv 16 17 95 96
parm u 16 16 17 17
end
usemtl diffuse_0
v 145.81246188270183 0.21091312267108808 -8.1752624267029326
v 155.30133520269456 0.2049042923095275 -8.2691033988352025
cstype bspline
deg 1
curv 15 16 97 98
parm u 15 15 16 16
end
usemtl diffuse_0
v 136.29109068790518 0.21801160942076037 -8.0250202746224915
v 145.81246188270183 0.21091312267108808 -8.1752624267029326
cstype bspline
deg 1
curv 14 15 99 100
parm u 14 14 15 15
end
usemtl diffuse_0
v 126.73722161830474 0.22619975255854452 -7.8183769425938792
v 136.29109068790518 0.21801160942076037 -8.0250202746224915
cstype bspline
deg 1
curv 13 14 101 102
parm u 13 13 14 14
end
usemtl diffuse_0
v 117.1508546739004 0.23547755208444041 -7.5553324306170921
v 126.73722161830474 0.22619975255854452 -7.8183769425938792
cstype bspline
deg 1
curv 12 13 103 104
parm u 12 12 13 13
end
usemtl diffuse_0
v 107.53198985469217 0.24584500799844794 -7.2358867386921322
v 117.1508546739004 0.23547755208444041 -7.5553324306170921
cstype bspline
deg 1
curv 11 12 105 106
parm u 11 11 12 12
end
usemtl diffuse_0
v 97.880627160680078 0.25730212030056737 -6.860039866819001
v 107.53198985469217 0.24584500799844794 -7.2358867386921322
cstype bspline
deg 1
curv 10 11 107 108
parm u 10 10 11 11
end
usemtl diffuse_0
v 88.196766591864119 0.26984888899079851 -6.4277918149976934
v 97.880627160680078 0.25730212030056737 -6.860039866819001
cstype bspline
deg 1
curv 9 10 109 110
parm u 9 9 10 10
end
usemtl diffuse_0
v 78.480408148244294 0.2834853140691414 -5.9391425832282154
v 88.196766591864119 0.26984888899079851 -6.4277918149976934
cstype bspline
deg 1
curv 8 9 111 112
parm u 8 8 9 9
end
usemtl diffuse_0
v 68.731551829820603 0.29821139553559606 -5.3940921715105645
v 78.480408148244294 0.2834853140691414 -5.9391425832282154
cstype bspline
deg 1
curv 7 8 113 114
parm u 7 7 8 8
end
usemtl diffuse_0
v 58.950197636593053 0.31402713339016258 -4.7926405798447416
v 68.731551829820603 0.29821139553559606 -5.3940921715105645
cstype bspline
deg 1
curv 6 7 115 116
parm u 6 6 7 7
end
usemtl diffuse_0
v 49.136345568561637 0.33093252763284076 -4.1347878082307457
v 58.950197636593053 0.31402713339016258 -4.7926405798447416
cstype bspline
deg 1
curv 5 6 117 118
parm u 5 5 6 6
end
usemtl diffuse_0
v 39.289995625726348 0.34892757826363074 -3.4205338566685759
v 49.136345568561637 0.33093252763284076 -4.1347878082307457
cstype bspline
deg 1
curv 4 5 119 120
parm u 4 4 5 5
end
usemtl diffuse_0
v 29.411147808087186 0.36801228528253244 -2.6498787251582336
v 39.289995625726348 0.34892757826363074 -3.4205338566685759
cstype bspline
deg 1
curv 3 4 121 122
parm u 3 3 4 4
end
usemtl diffuse_0
v 19.499802115644165 0.38818664868954594 -1.8228224136997193
v 29.411147808087186 0.36801228528253244 -2.6498787251582336
cstype bspline
deg 1
curv 2 3 123 124
parm u 2 2 3 3
end
usemtl diffuse_0
v 9.5559585483972818 0.40945066848467121 -0.93936492229303181
v 19.499802115644165 0.38818664868954594 -1.8228224136997193
cstype bspline
deg 1
curv 1 2 125 126
parm u 1 1 2 2
end
usemtl diffuse_0
v -0.42038289365347159 0.43180434466790824 0.00049374906182850231
v 9.5559585483972818 0.40945066848467121 -0.93936492229303181
cstype bspline
deg 1
curv 0 1 127 128
parm u 0 0 1 1
end
