# Rhino

mtllib 4powerlines.mtl
usemtl diffuse_0
v 296.5314805605492 1.6389297912229024 -3.1323568170728961
v 305.90720993179133 1.7080901024361816 -2.1806621648538349
cstype bspline
deg 1
curv 31 32 1 2
parm u 31 31 32 32
end
usemtl diffuse_0
v 287.14370302758385 1.5707761191034115 -4.0182556801704532
v 296.5314805605492 1.6389297912229024 -3.1323568170728961
cstype bspline
deg 1
curv 30 31 3 4
parm u 30 30 31 31
end
usemtl diffuse_0
v 277.74387733289541 1.5036290860777093 -4.8383587541465083
v 287.14370302758385 1.5707761191034115 -4.0182556801704532
cstype bspline
deg 1
curv 29 30 5 6
parm u 29 29 30 30
end
usemtl diffuse_0
v 268.33200347648386 1.4374886921457961 -5.5926660390010596
v 277.74387733289541 1.5036290860777093 -4.8383587541465083
cstype bspline
deg 1
curv 28 29 7 8
parm u 28 28 29 29
end
usemtl diffuse_0
v 258.90808145834916 1.3723549373076713 -6.2811775347341099
v 268.33200347648386 1.4374886921457961 -5.5926660390010596
cstype bspline
deg 1
curv 27 28 9 10
parm u 27 27 28 28
end
usemtl diffuse_0
v 249.47211127849135 1.3082278215633354 -6.9038932413456564
v 258.90808145834916 1.3723549373076713 -6.2811775347341099
cstype bspline
deg 1
curv 26 27 11 12
parm u 26 26 27 27
end
usemtl diffuse_0
v 240.02409293691039 1.2451073449127881 -7.4608131588356983
v 249.47211127849135 1.3082278215633354 -6.9038932413456564
cstype bspline
deg 1
curv 25 26 13 14
parm u 25 25 26 26
end
usemtl diffuse_0
v 230.56402643360627 1.1829935073560298 -7.9519372872042409
v 240.02409293691039 1.2451073449127881 -7.4608131588356983
cstype bspline
deg 1
curv 24 25 15 16
parm u 24 24 25 25
end
usemtl diffuse_0
v 221.09191176857902 1.1218863088930597 -8.3772656264512797
v 230.56402643360627 1.1829935073560298 -7.9519372872042409
cstype bspline
deg 1
curv 23 24 17 18
parm u 23 23 24 24
end
usemtl diffuse_0
v 211.60774894182867 1.0617857495238787 -8.7367981765768139
v 221.09191176857902 1.1218863088930597 -8.3772656264512797
cstype bspline
deg 1
curv 22 23 19 20
parm u 22 22 23 23
end
usemtl diffuse_0
v 202.1115379533552 1.0026918292484863 -9.0305349375808461
v 211.60774894182867 1.0617857495238787 -8.7367981765768139
cstype bspline
deg 1
curv 21 22 21 22
parm u 21 21 22 22
end
usemtl diffuse_0
v 192.60327880315859 0.94460454806688277 -9.2584759094633746
v 202.1115379533552 1.0026918292484863 -9.0305349375808461
cstype bspline
deg 1
curv 20 21 23 24
parm u 20 20 21 21
end
usemtl diffuse_0
v 183.08297149123882 0.88752390597906772 -9.4206210922243994
v 192.60327880315859 0.94460454806688277 -9.2584759094633746
cstype bspline
deg 1
curv 19 20 25 26
parm u 19 19 20 20
end
usemtl diffuse_0
v 173.55061601759593 0.83144990298504151 -9.5169704858639221
v 183.08297149123882 0.88752390597906772 -9.4206210922243994
cstype bspline
deg 1
curv 18 19 27 28
parm u 18 18 19 19
end
usemtl diffuse_0
v 164.00621238222996 0.77638253908480426 -9.5475240903819429
v 173.55061601759593 0.83144990298504151 -9.5169704858639221
cstype bspline
deg 1
curv 17 18 29 30
parm u 17 17 18 18
end
usemtl diffuse_0
v 154.44976058514078 0.72232181427835518 -9.5122819057784582
v 164.00621238222996 0.77638253908480426 -9.5475240903819429
cstype bspline
deg 1
curv 16 17 31 32
parm u 16 16 17 17
end
usemtl diffuse_0
v 144.88126062632853 0.66926772856569539 -9.4112439320534733
v 154.44976058514078 0.72232181427835518 -9.5122819057784582
cstype bspline
deg 1
curv 15 16 33 34
parm u 15 15 16 16
end
usemtl diffuse_0
v 135.30071250579311 0.61722028194682388 -9.2444101692069847
v 144.88126062632853 0.66926772856569539 -9.4112439320534733
cstype bspline
deg 1
curv 14 15 35 36
parm u 14 14 15 15
end
usemtl diffuse_0
v 125.70811622353457 0.5661794744217411 -9.0117806172389923
v 135.30071250579311 0.61722028194682388 -9.2444101692069847
cstype bspline
deg 1
curv 13 14 37 38
parm u 13 13 14 14
end
usemtl diffuse_0
v 116.10347177955288 0.51614530599044717 -8.7133552761494961
v 125.70811622353457 0.5661794744217411 -9.0117806172389923
cstype bspline
deg 1
curv 12 13 39 40
parm u 12 12 13 13
end
usemtl diffuse_0
v 106.48677917384808 0.46711777665294191 -8.3491341459384998
v 116.10347177955288 0.51614530599044717 -8.7133552761494961
cstype bspline
deg 1
curv 11 12 41 42
parm u 11 11 12 12
end
usemtl diffuse_0
v 96.858038406420135 0.41909688640922532 -7.9191172266059988
v 106.48677917384808 0.46711777665294191 -8.3491341459384998
cstype bspline
deg 1
curv 10 11 43 44
parm u 10 10 11 11
end
usemtl diffuse_0
v 87.217249477269064 0.37208263525929747 -7.4233045181519959
v 96.858038406420135 0.41909688640922532 -7.9191172266059988
cstype bspline
deg 1
curv 9 10 45 46
parm u 9 9 10 10
end
usemtl diffuse_0
v 77.564412386394864 0.3260750232031584 -6.8616960205764883
v 87.217249477269064 0.37208263525929747 -7.4233045181519959
cstype bspline
deg 1
curv 8 9 47 48
parm u 8 8 9 9
end
usemtl diffuse_0
v 67.899527133797534 0.281074050240808 -6.2342917338794788
v 77.564412386394864 0.3260750232031584 -6.8616960205764883
cstype bspline
deg 1
curv 7 8 49 50
parm u 7 7 8 8
end
usemtl diffuse_0
v 58.222593719477061 0.23707971637224629 -5.5410916580609673
v 67.899527133797534 0.281074050240808 -6.2342917338794788
cstype bspline
deg 1
curv 6 7 51 52
parm u 6 6 7 7
end
usemtl diffuse_0
v 48.533612143433466 0.19409202159747327 -4.782095793120952
v 58.222593719477061 0.23707971637224629 -5.5410916580609673
cstype bspline
deg 1
curv 5 6 53 54
parm u 5 5 6 6
end
usemtl diffuse_0
v 38.832582405666727 0.15211096591648901 -3.957304139059433
v 48.533612143433466 0.19409202159747327 -4.782095793120952
cstype bspline
deg 1
curv 4 5 55 56
parm u 4 4 5 5
end
usemtl diffuse_0
v 29.11950450617687 0.11113654932929343 -3.0667166958764129
v 38.832582405666727 0.15211096591648901 -3.957304139059433
cstype bspline
deg 1
curv 3 4 57 58
parm u 3 3 4 4
end
usemtl diffuse_0
v 19.39437844496387 0.07116877183588656 -2.1103334635718882
v 29.11950450617687 0.11113654932929343 -3.0667166958764129
cstype bspline
deg 1
curv 2 3 59 60
parm u 2 2 3 3
end
usemtl diffuse_0
v 9.6572042220277403 0.032207633436268403 -1.0881544421458611
v 19.39437844496387 0.07116877183588656 -2.1103334635718882
cstype bspline
deg 1
curv 1 2 61 62
parm u 1 1 2 2
end
usemtl diffuse_0
v -0.092018162631519435 -0.0057468658695610372 -0.00017963159833094144
v 9.6572042220277403 0.032207633436268403 -1.0881544421458611
cstype bspline
deg 1
curv 0 1 63 64
parm u 0 0 1 1
end
usemtl diffuse_0
v 300.79768942270903 10.272002034982151 4.9853032744874515
v 310.58729341965415 10.337339280741213 5.7839964567891577
cstype bspline
deg 1
curv 31 32 65 66
parm u 31 31 32 32
end
usemtl diffuse_0
v 291.02007077513917 10.20753946108738 4.2402274007882976
v 300.79768942270903 10.272002034982151 4.9853032744874515
cstype bspline
deg 1
curv 30 31 67 68
parm u 30 30 31 31
end
usemtl diffuse_0
v 281.25443747694464 10.1439515590569 3.548768835691694
v 291.02007077513917 10.20753946108738 4.2402274007882976
cstype bspline
deg 1
curv 29 30 69 70
parm u 29 29 30 30
end
usemtl diffuse_0
v 271.50078952812538 10.081238328890711 2.9109275791976414
v 281.25443747694464 10.1439515590569 3.548768835691694
cstype bspline
deg 1
curv 28 29 71 72
parm u 28 28 29 29
end
usemtl diffuse_0
v 261.75912692868155 10.019399770588814 2.32670363130614
v 271.50078952812538 10.081238328890711 2.9109275791976414
cstype bspline
deg 1
curv 27 28 73 74
parm u 27 27 28 28
end
usemtl diffuse_0
v 252.02944967861302 9.9584358841512088 1.7960969920171919
v 261.75912692868155 10.019399770588814 2.32670363130614
cstype bspline
deg 1
curv 26 27 75 76
parm u 26 26 27 27
end
usemtl diffuse_0
v 242.31175777791975 9.8983466695778937 1.3191076613307935
v 252.02944967861302 9.9584358841512088 1.7960969920171919
cstype bspline
deg 1
curv 25 26 77 78
parm u 25 25 26 26
end
usemtl diffuse_0
v 232.60605122660189 9.8391321268688738 0.89573563924694755
v 242.31175777791975 9.8983466695778937 1.3191076613307935
cstype bspline
deg 1
curv 24 25 79 80
parm u 24 24 25 25
end
usemtl diffuse_0
v 222.91233002465938 9.7807922560241423 0.52598092576565314
v 232.60605122660189 9.8391321268688738 0.89573563924694755
cstype bspline
deg 1
curv 23 24 81 82
parm u 23 23 24 24
end
usemtl diffuse_0
v 213.23059417209205 9.7233270570437007 0.20984352088690839
v 222.91233002465938 9.7807922560241423 0.52598092576565314
cstype bspline
deg 1
curv 22 23 83 84
parm u 22 22 23 23
end
usemtl diffuse_0
v 203.56084366890008 9.6667365299275509 -0.052676575389285163
v 213.23059417209205 9.7233270570437007 0.20984352088690839
cstype bspline
deg 1
curv 21 22 85 86
parm u 21 21 22 22
end
usemtl diffuse_0
v 193.90307851508345 9.611020674675693 -0.26157936306292662
v 203.56084366890008 9.6667365299275509 -0.052676575389285163
cstype bspline
deg 1
curv 20 21 87 88
parm u 20 20 21 21
end
usemtl diffuse_0
v 184.25729871064217 9.5561794912881286 -0.41686484213401731
v 193.90307851508345 9.611020674675693 -0.26157936306292662
cstype bspline
deg 1
curv 19 20 89 90
parm u 19 19 20 20
end
usemtl diffuse_0
v 174.62350425557619 9.5022129797648542 -0.5185330126025568
v 184.25729871064217 9.5561794912881286 -0.41686484213401731
cstype bspline
deg 1
curv 18 19 91 92
parm u 18 18 19 19
end
usemtl diffuse_0
v 165.00169514988553 9.4491211401058735 -0.56658387446854486
v 174.62350425557619 9.5022129797648542 -0.5185330126025568
cstype bspline
deg 1
curv 17 18 93 94
parm u 17 17 18 18
end
usemtl diffuse_0
v 155.3918713935702 9.3969039723111809 -0.56101742773198149
v 165.00169514988553 9.4491211401058735 -0.56658387446854486
cstype bspline
deg 1
curv 16 17 95 96
parm u 16 16 17 17
end
usemtl diffuse_0
v 145.79403298663019 9.3455614763807802 -0.50183367239286691
v 155.3918713935702 9.3969039723111809 -0.56101742773198149
cstype bspline
deg 1
curv 15 16 97 98
parm u 15 15 16 16
end
usemtl diffuse_0
v 136.20817992906547 9.2950936523146694 -0.3890326084512008
v 145.79403298663019 9.3455614763807802 -0.50183367239286691
cstype bspline
deg 1
curv 14 15 99 100
parm u 14 14 15 15
end
usemtl diffuse_0
v 126.63431222087607 9.2455005001128523 -0.2226142359069837
v 136.20817992906547 9.2950936523146694 -0.3890326084512008
cstype bspline
deg 1
curv 13 14 101 102
parm u 13 13 14 14
end
usemtl diffuse_0
v 117.07242986206202 9.1967820197753269 -0.0025785547602155123
v 126.63431222087607 9.2455005001128523 -0.2226142359069837
cstype bspline
deg 1
curv 12 13 103 104
parm u 12 12 13 13
end
usemtl diffuse_0
v 107.5225328526233 9.1489382113020916 0.27107443498910377
v 117.07242986206202 9.1967820197753269 -0.0025785547602155123
cstype bspline
deg 1
curv 11 12 105 106
parm u 11 11 12 12
end
usemtl diffuse_0
v 97.984621192559885 9.1019690746931481 0.59834473334097482
v 107.5225328526233 9.1489382113020916 0.27107443498910377
cstype bspline
deg 1
curv 10 11 107 108
parm u 10 10 11 11
end
usemtl diffuse_0
v 88.458694881871793 9.0558746099484981 0.97923234029539663
v 97.984621192559885 9.1019690746931481 0.59834473334097482
cstype bspline
deg 1
curv 9 10 109 110
parm u 9 9 10 10
end
usemtl diffuse_0
v 78.944753920559023 9.0106548170681364 1.4137372558523702
v 88.458694881871793 9.0558746099484981 0.97923234029539663
cstype bspline
deg 1
curv 8 9 111 112
parm u 8 8 9 9
end
usemtl diffuse_0
v 69.442798308621548 8.9663096960520665 1.9018594800118955
v 78.944753920559023 9.0106548170681364 1.4137372558523702
cstype bspline
deg 1
curv 7 8 113 114
parm u 7 7 8 8
end
usemtl diffuse_0
v 59.952828046059423 8.9228392469002884 2.4435990127739711
v 69.442798308621548 8.9663096960520665 1.9018594800118955
cstype bspline
deg 1
curv 6 7 115 116
parm u 6 6 7 7
end
usemtl diffuse_0
v 50.474843132872614 8.8802434696128003 3.0389558541385968
v 59.952828046059423 8.9228392469002884 2.4435990127739711
cstype bspline
deg 1
curv 5 6 117 118
parm u 5 5 6 6
end
usemtl diffuse_0
v 41.008843569061128 8.838522364189604 3.687930004105775
v 50.474843132872614 8.8802434696128003 3.0389558541385968
cstype bspline
deg 1
curv 4 5 119 120
parm u 4 4 5 5
end
usemtl diffuse_0
v 31.554829354624957 8.7976759306307031 4.3905214626755056
v 41.008843569061128 8.838522364189604 3.687930004105775
cstype bspline
deg 1
curv 3 4 121 122
parm u 3 3 4 4
end
usemtl diffuse_0
v 22.112800489564108 8.7577041689360922 5.1467302298477868
v 31.554829354624957 8.7976759306307031 4.3905214626755056
cstype bspline
deg 1
curv 2 3 123 124
parm u 2 2 3 3
end
usemtl diffuse_0
v 12.682756973878579 8.7186070791057713 5.9565563056226205
v 22.112800489564108 8.7577041689360922 5.1467302298477868
cstype bspline
deg 1
curv 1 2 125 126
parm u 1 1 2 2
end
usemtl diffuse_0
v 3.2646988075683705 8.6803846611397404 6.8199996900000031
v 12.682756973878579 8.7186070791057713 5.9565563056226205
cstype bspline
deg 1
curv 0 1 127 128
parm u 0 0 1 1
end
usemtl diffuse_0
v 305.7608924983835 10.676274925739621 -2.0700700078365881
v 315.44509130026216 10.719705802506365 -1.0499992399999982
cstype bspline
deg 1
curv 31 32 129 130
parm u 31 31 32 32
end
usemtl diffuse_0
v 296.07238341249109 10.632190952786228 -3.0229991135345324
v 305.7608924983835 10.676274925739621 -2.0700700078365881
cstype bspline
deg 1
curv 30 31 131 132
parm u 30 30 31 31
end
usemtl diffuse_0
v 286.37956404258512 10.587453883646202 -3.9087865570938209
v 296.07238341249109 10.632190952786228 -3.0229991135345324
cstype bspline
deg 1
curv 29 30 133 134
parm u 29 29 30 30
end
usemtl diffuse_0
v 276.68243438866534 10.542063718319525 -4.7274323385144577
v 286.37956404258512 10.587453883646202 -3.9087865570938209
cstype bspline
deg 1
curv 28 29 135 136
parm u 28 28 29 29
end
usemtl diffuse_0
v 266.98099445073194 10.496020456806205 -5.4789364577964426
v 276.68243438866534 10.542063718319525 -4.7274323385144577
cstype bspline
deg 1
curv 27 28 137 138
parm u 27 27 28 28
end
usemtl diffuse_0
v 257.27524422878486 10.449324099106239 -6.1632989149397783
v 266.98099445073194 10.496020456806205 -5.4789364577964426
cstype bspline
deg 1
curv 26 27 139 140
parm u 26 26 27 27
end
usemtl diffuse_0
v 247.56518372282403 10.401974645219635 -6.7805197099444614
v 257.27524422878486 10.449324099106239 -6.1632989149397783
cstype bspline
deg 1
curv 25 26 141 142
parm u 25 25 26 26
end
usemtl diffuse_0
v 237.85081293284955 10.353972095146382 -7.3305988428104953
v 247.56518372282403 10.401974645219635 -6.7805197099444614
cstype bspline
deg 1
curv 24 25 143 144
parm u 24 24 25 25
end
usemtl diffuse_0
v 228.13213185886138 10.30531644888649 -7.8135363135378775
v 237.85081293284955 10.353972095146382 -7.3305988428104953
cstype bspline
deg 1
curv 23 24 145 146
parm u 23 23 24 24
end
usemtl diffuse_0
v 218.40914050085954 10.25600770643995 -8.2293321221266105
v 228.13213185886138 10.30531644888649 -7.8135363135378775
cstype bspline
deg 1
curv 22 23 147 148
parm u 22 22 23 23
end
usemtl diffuse_0
v 208.68183885884397 10.206045867806768 -8.577986268576689
v 218.40914050085954 10.25600770643995 -8.2293321221266105
cstype bspline
deg 1
curv 21 22 149 150
parm u 21 21 22 22
end
usemtl diffuse_0
v 198.9502269328147 10.155430932986942 -8.8594987528881184
v 208.68183885884397 10.206045867806768 -8.577986268576689
cstype bspline
deg 1
curv 20 21 151 152
parm u 20 20 21 21
end
usemtl diffuse_0
v 189.21430472277174 10.104162901980471 -9.0738695750608969
v 198.9502269328147 10.155430932986942 -8.8594987528881184
cstype bspline
deg 1
curv 19 20 153 154
parm u 19 19 20 20
end
usemtl diffuse_0
v 179.4740722287151 10.052241774787358 -9.2210987350950226
v 189.21430472277174 10.104162901980471 -9.0738695750608969
cstype bspline
deg 1
curv 18 19 155 156
parm u 18 18 19 19
end
usemtl diffuse_0
v 169.72952945064478 9.999667551407601 -9.3011862329904975
v 179.4740722287151 10.052241774787358 -9.2210987350950226
cstype bspline
deg 1
curv 17 18 157 158
parm u 17 17 18 18
end
usemtl diffuse_0
v 159.98067638856077 9.9464402318412013 -9.3141320687473268
v 169.72952945064478 9.999667551407601 -9.3011862329904975
cstype bspline
deg 1
curv 16 17 159 160
parm u 16 16 17 17
end
usemtl diffuse_0
v 150.22751304246299 9.8925598160881556 -9.2599362423654981
v 159.98067638856077 9.9464402318412013 -9.3141320687473268
cstype bspline
deg 1
curv 15 16 161 162
parm u 15 15 16 16
end
usemtl diffuse_0
v 140.47003941235161 9.8380263041484675 -9.1385987538450237
v 150.22751304246299 9.8925598160881556 -9.2599362423654981
cstype bspline
deg 1
curv 14 15 163 164
parm u 14 14 15 15
end
usemtl diffuse_0
v 130.70825549822649 9.7828396960221351 -8.9501196031858967
v 140.47003941235161 9.8380263041484675 -9.1385987538450237
cstype bspline
deg 1
curv 13 14 165 166
parm u 13 13 14 14
end
usemtl diffuse_0
v 120.94216130008772 9.7269999917091603 -8.694498790388117
v 130.70825549822649 9.7828396960221351 -8.9501196031858967
cstype bspline
deg 1
curv 12 13 167 168
parm u 12 12 13 13
end
usemtl diffuse_0
v 111.17175681793526 9.6705071912095413 -8.3717363154516899
v 120.94216130008772 9.7269999917091603 -8.694498790388117
cstype bspline
deg 1
curv 11 12 169 170
parm u 11 11 12 12
end
usemtl diffuse_0
v 101.39704205176908 9.6133612945232763 -7.9818321783766102
v 111.17175681793526 9.6705071912095413 -8.3717363154516899
cstype bspline
deg 1
curv 10 11 171 172
parm u 10 10 11 11
end
usemtl diffuse_0
v 91.618017001589209 9.5555623016503706 -7.5247863791628777
v 101.39704205176908 9.6133612945232763 -7.9818321783766102
cstype bspline
deg 1
curv 9 10 173 174
parm u 9 9 10 10
end
usemtl diffuse_0
v 81.834681667395643 9.4971102125908171 -7.0005989178104944
v 91.618017001589209 9.5555623016503706 -7.5247863791628777
cstype bspline
deg 1
curv 8 9 175 176
parm u 8 8 9 9
end
usemtl diffuse_0
v 72.047036049188392 9.438005027344623 -6.4092697943194619
v 81.834681667395643 9.4971102125908171 -7.0005989178104944
cstype bspline
deg 1
curv 7 8 177 178
parm u 7 7 8 8
end
usemtl diffuse_0
v 62.255080146967444 9.3782467459117829 -5.7507990086897758
v 72.047036049188392 9.438005027344623 -6.4092697943194619
cstype bspline
deg 1
curv 6 7 179 180
parm u 6 6 7 7
end
usemtl diffuse_0
v 52.458813960732833 9.3178353682923021 -5.0251865609214423
v 62.255080146967444 9.3782467459117829 -5.7507990086897758
cstype bspline
deg 1
curv 5 6 181 182
parm u 5 5 6 6
end
usemtl diffuse_0
v 42.65823749048451 9.2567708944861788 -4.2324324510144553
v 52.458813960732833 9.3178353682923021 -5.0251865609214423
cstype bspline
deg 1
curv 4 5 183 184
parm u 4 4 5 5
end
usemtl diffuse_0
v 32.853350736222488 9.1950533244934078 -3.3725366789688174
v 42.65823749048451 9.2567708944861788 -4.2324324510144553
cstype bspline
deg 1
curv 3 4 185 186
parm u 3 3 4 4
end
usemtl diffuse_0
v 23.044153697946783 9.1326826583139944 -2.4454992447845294
v 32.853350736222488 9.1950533244934078 -3.3725366789688174
cstype bspline
deg 1
curv 2 3 187 188
parm u 2 2 3 3
end
usemtl diffuse_0
v 13.230646375657386 9.0696588959479385 -1.4513201484615903
v 23.044153697946783 9.1326826583139944 -2.4454992447845294
cstype bspline
deg 1
curv 1 2 189 190
parm u 1 1 2 2
end
usemtl diffuse_0
v 3.412828769354296 9.0059820373952366 -0.38999938999999983
v 13.230646375657386 9.0696588959479385 -1.4513201484615903
cstype bspline
deg 1
curv 0 1 191 192
parm u 0 0 1 1
end
usemtl diffuse_0
v 293.56226496164692 2.0709800468613278 4.2329248005516051
v 302.85282292448431 2.1393661459368984 5.0458803455012964
cstype bspline
deg 1
curv 31 32 193 194
parm u 31 31 32 32
end
usemtl diffuse_0
v 284.25949049703462 2.0036877020979351 3.4763965304055526
v 293.56226496164692 2.0709800468613278 4.2329248005516051
cstype bspline
deg 1
curv 30 31 195 196
parm u 30 30 31 31
end
usemtl diffuse_0
v 274.94449953064736 1.9374891116467197 2.7762955350631366
v 284.25949049703462 2.0036877020979351 3.4763965304055526
cstype bspline
deg 1
curv 29 30 197 198
parm u 29 29 30 30
end
usemtl diffuse_0
v 265.61729206248521 1.8723842755076807 2.1326218145243523
v 274.94449953064736 1.9374891116467197 2.7762955350631366
cstype bspline
deg 1
curv 28 29 199 200
parm u 28 28 29 29
end
usemtl diffuse_0
v 256.27786809254809 1.8083731936808192 1.5453753687892067
v 265.61729206248521 1.8723842755076807 2.1326218145243523
cstype bspline
deg 1
curv 27 28 201 202
parm u 27 27 28 28
end
usemtl diffuse_0
v 246.92622762083604 1.7454558661661348 1.0145561978576951
v 256.27786809254809 1.8083731936808192 1.5453753687892067
cstype bspline
deg 1
curv 26 27 203 204
parm u 26 26 27 27
end
usemtl diffuse_0
v 237.5623706473491 1.6836322929636278 0.54016430172982011
v 246.92622762083604 1.7454558661661348 1.0145561978576951
cstype bspline
deg 1
curv 25 26 205 206
parm u 25 25 26 26
end
usemtl diffuse_0
v 228.18629717208719 1.6229024740732976 0.1221996804055816
v 237.5623706473491 1.6836322929636278 0.54016430172982011
cstype bspline
deg 1
curv 24 25 207 208
parm u 24 24 25 25
end
usemtl diffuse_0
v 218.79800719505039 1.5632664094951449 -0.23933766611502261
v 228.18629717208719 1.6229024740732976 0.1221996804055816
cstype bspline
deg 1
curv 23 24 209 210
parm u 23 23 24 24
end
usemtl diffuse_0
v 209.39750071623865 1.5047240992291697 -0.54444773783199107
v 218.79800719505039 1.5632664094951449 -0.23933766611502261
cstype bspline
deg 1
curv 22 23 211 212
parm u 22 22 23 23
end
usemtl diffuse_0
v 199.98477773565196 1.4472755432753708 -0.79313053474532302
v 209.39750071623865 1.5047240992291697 -0.54444773783199107
cstype bspline
deg 1
curv 21 22 213 214
parm u 21 21 22 22
end
usemtl diffuse_0
v 190.55983825329037 1.3909207416337499 -0.98538605685502012
v 199.98477773565196 1.4472755432753708 -0.79313053474532302
cstype bspline
deg 1
curv 20 21 215 216
parm u 20 20 21 21
end
usemtl diffuse_0
v 181.12268226915387 1.335659694304306 -1.1212143041610818
v 190.55983825329037 1.3909207416337499 -0.98538605685502012
cstype bspline
deg 1
curv 19 20 217 218
parm u 19 19 20 20
end
usemtl diffuse_0
v 171.67330978324247 1.2814924012870395 -1.2006152766635072
v 181.12268226915387 1.335659694304306 -1.1212143041610818
cstype bspline
deg 1
curv 18 19 219 220
parm u 18 18 19 19
end
usemtl diffuse_0
v 162.21172079555603 1.2284188625819494 -1.223588974362297
v 171.67330978324247 1.2814924012870395 -1.2006152766635072
cstype bspline
deg 1
curv 17 18 221 222
parm u 17 17 18 18
end
usemtl diffuse_0
v 152.73791530609475 1.176439078189037 -1.1901353972574511
v 162.21172079555603 1.2284188625819494 -1.223588974362297
cstype bspline
deg 1
curv 16 17 223 224
parm u 16 16 17 17
end
usemtl diffuse_0
v 143.25189331485853 1.1255530481083018 -1.1002545453489696
v 152.73791530609475 1.176439078189037 -1.1901353972574511
cstype bspline
deg 1
curv 15 16 225 226
parm u 15 15 16 16
end
usemtl diffuse_0
v 133.75365482184739 1.075760772339744 -0.95394641863685237
v 143.25189331485853 1.1255530481083018 -1.1002545453489696
cstype bspline
deg 1
curv 14 15 227 228
parm u 14 14 15 15
end
usemtl diffuse_0
v 124.24319982706129 1.0270622508833629 -0.75121101712109994
v 133.75365482184739 1.075760772339744 -0.95394641863685237
cstype bspline
deg 1
curv 13 14 229 230
parm u 13 13 14 14
end
usemtl diffuse_0
v 114.72052833050029 0.97945748373915931 -0.49204834080171156
v 124.24319982706129 1.0270622508833629 -0.75121101712109994
cstype bspline
deg 1
curv 12 13 231 232
parm u 12 12 13 13
end
usemtl diffuse_0
v 105.18564033216435 0.9329464709071329 -0.17645838967868732
v 114.72052833050029 0.97945748373915931 -0.49204834080171156
cstype bspline
deg 1
curv 11 12 233 234
parm u 11 11 12 12
end
usemtl diffuse_0
v 95.638535832053492 0.88752921238728366 0.1955588362479721
v 105.18564033216435 0.9329464709071329 -0.17645838967868732
cstype bspline
deg 1
curv 10 11 235 236
parm u 10 10 11 11
end
usemtl diffuse_0
v 86.079214830167743 0.84320570817961171 0.62400333697826693
v 95.638535832053492 0.88752921238728366 0.1955588362479721
cstype bspline
deg 1
curv 9 10 237 238
parm u 9 9 10 10
end
usemtl diffuse_0
v 76.507677326507007 0.79997595828411672 1.1088751125121989
v 86.079214830167743 0.84320570817961171 0.62400333697826693
cstype bspline
deg 1
curv 8 9 239 240
parm u 8 8 9 9
end
usemtl diffuse_0
v 66.923923321071385 0.75783996270079923 1.6501741628497661
v 76.507677326507007 0.79997595828411672 1.1088751125121989
cstype bspline
deg 1
curv 7 8 241 242
parm u 7 7 8 8
end
usemtl diffuse_0
v 57.327952813860819 0.71679772142965859 2.2479004879909681
v 66.923923321071385 0.75783996270079923 1.6501741628497661
cstype bspline
deg 1
curv 6 7 243 244
parm u 6 6 7 7
end
usemtl diffuse_0
v 47.719765804875315 0.67684923447069523 2.9020540879358054
v 57.327952813860819 0.71679772142965859 2.2479004879909681
cstype bspline
deg 1
curv 5 6 245 246
parm u 5 5 6 6
end
usemtl diffuse_0
v 38.099362294114897 0.63799450182390904 3.6126349626842789
v 47.719765804875315 0.67684923447069523 2.9020540879358054
cstype bspline
deg 1
curv 4 5 247 248
parm u 4 4 5 5
end
usemtl diffuse_0
v 28.466742281579556 0.60023352348930037 4.3796431122363897
v 38.099362294114897 0.63799450182390904 3.6126349626842789
cstype bspline
deg 1
curv 3 4 249 250
parm u 3 3 4 4
end
usemtl diffuse_0
v 18.821905767269286 0.56356629946686843 5.2030785365921339
v 28.466742281579556 0.60023352348930037 4.3796431122363897
cstype bspline
deg 1
curv 2 3 251 252
parm u 2 2 3 3
end
usemtl diffuse_0
v 9.1648527511840889 0.52799282975661399 6.082941235751516
v 18.821905767269286 0.56356629946686843 5.2030785365921339
cstype bspline
deg 1
curv 1 2 253 254
parm u 1 1 2 2
end
usemtl diffuse_0
v -0.50441676667603341 0.49351311435853656 7.0192312097145306
v 9.1648527511840889 0.52799282975661399 6.082941235751516
cstype bspline
deg 1
curv 0 1 255 256
parm u 0 0 1 1
end
