# Rhino

mtllib 1.mtl
usemtl diffuse_0
v 5.21875 0.069999694824220526 -11.03125
v 8.3014244080145687 10.782999038696291 -20.368540983606557
cstype bspline
deg 1
curv 0 14.541534972628291 1 2
parm u 0 0 14.541534972628291 14.541534972628291
end
usemtl diffuse_0
v -0.17642440801456849 0.069999694824220526 -0.16270901639344437
v 2.90625 10.782999038696291 -9.5
cstype bspline
deg 1
curv 0 14.541534972628291 3 4
parm u 0 0 14.541534972628291 14.541534972628291
end
usemtl diffuse_0
v 5.2923255919854313 -0.0069999694824200986 -10.662709016393444
v -0.20767440801456871 11.107999801635751 -2.7252090163934444
cstype bspline
deg 1
curv 0 14.724032265719774 5 6
parm u 0 0 14.724032265719774 14.724032265719774
end
usemtl diffuse_0
v 10.6875 -0.0069999694824200986 -21.53125
v 5.1875 11.107999801635751 -13.59375
cstype bspline
deg 1
curv 0 14.724032265719774 7 8
parm u 0 0 14.724032265719774 14.724032265719774
end
usemtl diffuse_0
v -2.1607994080145687 0.014999389648441053 -14.256459016393444
v -5.2232994080145687 11.076000213623049 -5.1002090163934444
cstype bspline
deg 1
curv 0 14.682014832456307 9 10
parm u 0 0 14.682014832456307 14.682014832456307
end
usemtl diffuse_0
v -7.1451744080145687 0.20199966430664951 -3.7877090163934444
v -2.0045494080145687 10.833000183105471 -11.662709016393444
cstype bspline
deg 1
curv 0 14.193654301177192 11 12
parm u 0 0 14.193654301177192 14.193654301177192
end
usemtl diffuse_0
v 3.234375 0.014999389648441053 -25.125
v 0.171875 11.076000213623049 -15.96875
cstype bspline
deg 1
curv 0 14.682014832456307 13 14
parm u 0 0 14.682014832456307 14.682014832456307
end
usemtl diffuse_0
v -1.75 0.20199966430664951 -14.65625
v 3.390625 10.833000183105471 -22.53125
cstype bspline
deg 1
curv 0 14.193654301177192 15 16
parm u 0 0 14.193654301177192 14.193654301177192
end
usemtl diffuse_0
v 8.671875 55.189002990722663 -25.6875
v 10.265625 57.075996398925788 -29.375
cstype bspline
deg 1
curv 0 4.4382924008116058 17 18
parm u 0 0 4.4382924008116058 4.4382924008116058
end
usemtl diffuse_0
v 9.546875 56.950996398925788 -29.875
v 7.2495375820736125 55.189002990722663 -26.409322222522
cstype bspline
deg 1
curv 0 4.5158944229975955 19 20
parm u 0 0 4.5158944229975955 4.5158944229975955
end
usemtl diffuse_0
v -4.140625 55.112998962402351 0.53125
v -6.46875 57.052001953125007 4.34375
cstype bspline
deg 1
curv 0 4.8698105572656942 21 22
parm u 0 0 4.8698105572656942 4.8698105572656942
end
usemtl diffuse_0
v -5.5629624179263875 55.112998962402351 -0.19057222252200035
v -7.0625 57.00599670410157 3.84375
cstype bspline
deg 1
curv 0 4.7018942145973863 23 24
parm u 0 0 4.7018942145973863 4.7018942145973863
end
usemtl diffuse_0
v -7.0625 57.00599670410157 3.84375
v -5.5629624179263875 57.028890795471796 -0.19057222252200035
cstype bspline
deg 1
curv 0 4.3040554009684513 25 26
parm u 0 0 4.3040554009684513 4.3040554009684513
end
usemtl diffuse_0
v -6.46875 57.052001953125007 4.34375
v -7.0625 57.00599670410157 3.84375
cstype bspline
deg 1
curv 0 0.77759600400060469 27 28
parm u 0 0 0.77759600400060469 0.77759600400060469
end
usemtl diffuse_0
v -4.140625 57.028890795471796 0.53125
v -6.46875 57.052001953125007 4.34375
cstype bspline
deg 1
curv 0 4.4671978231586147 29 30
parm u 0 0 4.4671978231586147 4.4671978231586147
end
usemtl diffuse_0
v 10.265625 57.075996398925788 -29.375
v 8.671875 57.104894823792108 -25.6875
cstype bspline
deg 1
curv 0 4.0172789835235188 31 32
parm u 0 0 4.0172789835235188 4.0172789835235188
end
usemtl diffuse_0
v 9.546875 56.950996398925788 -29.875
v 10.265625 57.075996398925788 -29.375
cstype bspline
deg 1
curv 0 0.8844357311303066 33 34
parm u 0 0 0.8844357311303066 0.8844357311303066
end
usemtl diffuse_0
v 7.2495375820736125 57.104894823792108 -26.409322222522
v 9.546875 56.950996398925788 -29.875
cstype bspline
deg 1
curv 0 4.1608131890636306 35 36
parm u 0 0 4.1608131890636306 4.1608131890636306
end
usemtl diffuse_0
v 8.671875 57.104894823792108 -25.6875
v -4.140625 57.028890795471796 0.53125
cstype bspline
deg 1
curv 0 29.181994181769362 37 38
parm u 0 0 29.181994181769362 29.181994181769362
end
usemtl diffuse_0
v 7.2495375820736125 57.104894823792108 -26.409322222522
v -5.5629624179263875 57.028890795471796 -0.19057222252200035
cstype bspline
deg 1
curv 0 29.181994181769362 39 40
parm u 0 0 29.181994181769362 29.181994181769362
end
usemtl diffuse_0
v 7.2495375820736125 55.189002990722663 -26.409322222522
v -5.5629624179263875 55.112998962402351 -0.19057222252200035
cstype bspline
deg 1
curv 0 29.181994181769362 41 42
parm u 0 0 29.181994181769362 29.181994181769362
end
usemtl diffuse_0
v 8.671875 55.189002990722663 -25.6875
v -4.140625 55.112998962402351 0.53125
cstype bspline
deg 1
curv 0 29.181994181769362 43 44
parm u 0 0 29.181994181769362 29.181994181769362
end
usemtl diffuse_0
v 6.890625 43.870794719386936 -20.25
v 9.59375 43.812999725341804 -29.21875
cstype bspline
deg 1
curv 0 6.1323150495955741 45 46
parm u 0 0 6.1323150495955741 6.1323150495955741
end
usemtl diffuse_0
v 9.59375 43.812999725341804 -29.21875
v 4.453125 43.863794749904514 -21.375
cstype bspline
deg 1
curv 0 6.1222107092743725 47 48
parm u 0 0 6.1222107092743725 6.1222107092743725
end
usemtl diffuse_0
v 4.453125 45.841621634258971 -21.375
v 9.59375 43.812999725341804 -29.21875
cstype bspline
deg 1
curv 0 6.4497259534873423 49 50
parm u 0 0 6.4497259534873423 6.4497259534873423
end
usemtl diffuse_0
v 9.59375 43.812999725341804 -29.21875
v 6.890625 45.848621603741393 -20.25
cstype bspline
deg 1
curv 0 6.461460998063421 51 52
parm u 0 0 6.461460998063421 6.461460998063421
end
usemtl diffuse_0
v -3.78125 43.802793925929905 -4.53125
v -6.375 43.80799865722657 3.6875
cstype bspline
deg 1
curv 0 5.041939167592381 53 54
parm u 0 0 5.041939167592381 5.041939167592381
end
usemtl diffuse_0
v -6.375 43.80799865722657 3.6875
v -1.71875 43.796793407131076 -3.1875
cstype bspline
deg 1
curv 0 5.0347015415684302 55 56
parm u 0 0 5.0347015415684302 5.0347015415684302
end
usemtl diffuse_0
v -6.375 43.80799865722657 3.6875
v -3.4419369692627662 45.783134464867778 -5.2253286473144929
cstype bspline
deg 1
curv 0 6.0917299419680129 57 58
parm u 0 0 6.0917299419680129 6.0917299419680129
end
usemtl diffuse_0
v -1.2922924277807961 45.778285879285541 -4.0326754425832503
v -6.375 43.80799865722657 3.6875
cstype bspline
deg 1
curv 0 6.0677706808611038 59 60
parm u 0 0 6.0677706808611038 6.0677706808611038
end
usemtl diffuse_0
v -1.71875 43.796793407131076 -3.1875
v 6.890625 43.870794719386936 -20.25
cstype bspline
deg 1
curv 0 19.111664509791932 61 62
parm u 0 0 19.111664509791932 19.111664509791932
end
usemtl diffuse_0
v 4.453125 43.863794749904514 -21.375
v -3.78125 43.802793925929905 -4.53125
cstype bspline
deg 1
curv 0 18.748881748084354 63 64
parm u 0 0 18.748881748084354 18.748881748084354
end
usemtl diffuse_0
v 4.453125 45.841621634258971 -21.375
v -3.4419369692627662 45.783134464867778 -5.2253286473144929
cstype bspline
deg 1
curv 0 18.748881748084354 65 66
parm u 0 0 18.748881748084354 18.748881748084354
end
usemtl diffuse_0
v -1.2922924277807961 45.778285879285541 -4.0326754425832503
v 6.890625 45.848621603741393 -20.25
cstype bspline
deg 1
curv 0 19.111664509791932 67 68
parm u 0 0 19.111664509791932 19.111664509791932
end
usemtl diffuse_0
v 8.15625 32.480998992919929 -26.25
v 6.890625 34.517827799881807 -20.25
cstype bspline
deg 1
curv 0 6.461460998063421 69 70
parm u 0 0 6.461460998063421 6.461460998063421
end
usemtl diffuse_0
v 4.453125 34.510827830399386 -21.375
v 8.15625 32.480998992919929 -26.25
cstype bspline
deg 1
curv 0 6.4497259534873423 71 72
parm u 0 0 6.4497259534873423 6.4497259534873423
end
usemtl diffuse_0
v -1.2922924277807961 34.447492075425956 -4.0326754425832503
v -5.0625 32.590000152587905 0.34375
cstype bspline
deg 1
curv 0 6.0677706808611038 73 74
parm u 0 0 6.0677706808611038 6.0677706808611038
end
usemtl diffuse_0
v -5.0625 32.590000152587905 0.34375
v -3.4419369692627662 34.452340661008193 -5.2253286473144929
cstype bspline
deg 1
curv 0 6.0917299419680129 75 76
parm u 0 0 6.0917299419680129 6.0917299419680129
end
usemtl diffuse_0
v -1.2922924277807961 34.447492075425956 -4.0326754425832503
v 6.890625 34.517827799881807 -20.25
cstype bspline
deg 1
curv 0 19.111664509791932 77 78
parm u 0 0 19.111664509791932 19.111664509791932
end
usemtl diffuse_0
v 4.453125 34.510827830399386 -21.375
v -3.4419369692627662 34.452340661008193 -5.2253286473144929
cstype bspline
deg 1
curv 0 18.748881748084354 79 80
parm u 0 0 18.748881748084354 18.748881748084354
end
usemtl diffuse_0
v -5.0625 32.590000152587905 0.34375
v -1.71875 32.465999603271491 -3.1875
cstype bspline
deg 1
curv 0 5.0347015415684302 81 82
parm u 0 0 5.0347015415684302 5.0347015415684302
end
usemtl diffuse_0
v -3.78125 32.47200012207032 -4.53125
v -5.0625 32.590000152587905 0.34375
cstype bspline
deg 1
curv 0 5.041939167592381 83 84
parm u 0 0 5.041939167592381 5.041939167592381
end
usemtl diffuse_0
v 4.453125 32.533000946044929 -21.375
v -3.78125 32.47200012207032 -4.53125
cstype bspline
deg 1
curv 0 18.748881748084354 85 86
parm u 0 0 18.748881748084354 18.748881748084354
end
usemtl diffuse_0
v 8.15625 32.480998992919929 -26.25
v 4.453125 32.533000946044929 -21.375
cstype bspline
deg 1
curv 0 6.1222107092743725 87 88
parm u 0 0 6.1222107092743725 6.1222107092743725
end
usemtl diffuse_0
v 6.890625 32.540000915527351 -20.25
v 8.15625 32.480998992919929 -26.25
cstype bspline
deg 1
curv 0 6.1323150495955741 89 90
parm u 0 0 6.1323150495955741 6.1323150495955741
end
usemtl diffuse_0
v -1.71875 32.465999603271491 -3.1875
v 6.890625 32.540000915527351 -20.25
cstype bspline
deg 1
curv 0 19.111664509791932 91 92
parm u 0 0 19.111664509791932 19.111664509791932
end
usemtl diffuse_0
v 1.1633281853940145 20.145999908447273 -8.1310651915635397
v 0.4289531853940145 55.155998229980476 -8.0373151915635397
cstype bspline
deg 1
curv 0 35.017825149156288 93 94
parm u 0 0 35.017825149156288 35.017825149156288
end
usemtl diffuse_0
v -1.4929218146059855 19.978000640869155 -9.5998151915635397
v -1.4147968146059855 55.180000305175788 -8.7248151915635397
cstype bspline
deg 1
curv 0 35.056372198625702 95 96
parm u 0 0 35.056372198625702 35.056372198625702
end
usemtl diffuse_0
v -3.5241718146059853 19.974998474121101 -6.0060651915635406
v -2.4929218146059853 55.097999572753913 -6.5685651915635406
cstype bspline
deg 1
curv 0 35.142639186422265 97 98
parm u 0 0 35.142639186422265 35.142639186422265
end
usemtl diffuse_0
v -0.8522968146059855 19.771999359130859 -4.5998151915635406
v -0.6491718146059855 55.179000854492195 -6.0359682224914168
cstype bspline
deg 1
curv 0 35.440679186785417 99 100
parm u 0 0 35.440679186785417 35.440679186785417
end
usemtl diffuse_0
v 4.53125 19.771999359130859 -15.46875
v 4.734375 55.179000854492195 -16.904903030927876
cstype bspline
deg 1
curv 0 35.440679186785417 101 102
parm u 0 0 35.440679186785417 35.440679186785417
end
usemtl diffuse_0
v 1.859375 19.974998474121101 -16.875
v 2.890625 55.097999572753913 -17.4375
cstype bspline
deg 1
curv 0 35.142639186422265 103 104
parm u 0 0 35.142639186422265 35.142639186422265
end
usemtl diffuse_0
v 3.890625 19.978000640869155 -20.46875
v 3.96875 55.180000305175788 -19.59375
cstype bspline
deg 1
curv 0 35.056372198625702 105 106
parm u 0 0 35.056372198625702 35.056372198625702
end
usemtl diffuse_0
v 6.546875 20.145999908447273 -19
v 5.8125 55.155998229980476 -18.90625
cstype bspline
deg 1
curv 0 35.017825149156288 107 108
parm u 0 0 35.017825149156288 35.017825149156288
end
usemtl diffuse_0
v 5.2923255919854313 -0.0069999694824200986 -10.662709016393444
v 1.1517005919854315 20.145999908447273 -8.1314590163934444
cstype bspline
deg 1
curv 0 20.729095639534286 109 110
parm u 0 0 20.729095639534286 20.729095639534286
end
usemtl diffuse_0
v -2.1607994080145687 0.014999389648441053 -14.256459016393444
v -1.5045494080145685 19.978000640869155 -9.6002090163934444
cstype bspline
deg 1
curv 0 20.509333170077468 111 112
parm u 0 0 20.509333170077468 20.509333170077468
end
usemtl diffuse_0
v -3.5357994080145687 19.974998474121101 -6.0064590163934444
v -7.1451744080145687 0.20199966430664951 -3.7877090163934444
cstype bspline
deg 1
curv 0 20.221817954527452 113 114
parm u 0 0 20.221817954527452 20.221817954527452
end
usemtl diffuse_0
v -0.86392440801456849 19.771999359130859 -4.6002090163934444
v -0.17642440801456849 0.069999694824220526 -0.16270901639344437
cstype bspline
deg 1
curv 0 20.207247543204371 115 116
parm u 0 0 20.207247543204371 20.207247543204371
end
usemtl diffuse_0
v 4.53125 19.771999359130859 -15.46875
v 5.21875 0.069999694824220526 -11.03125
cstype bspline
deg 1
curv 0 20.207247543204371 117 118
parm u 0 0 20.207247543204371 20.207247543204371
end
usemtl diffuse_0
v 1.859375 19.974998474121101 -16.875
v -1.75 0.20199966430664951 -14.65625
cstype bspline
deg 1
curv 0 20.221817954527452 119 120
parm u 0 0 20.221817954527452 20.221817954527452
end
usemtl diffuse_0
v 3.234375 0.014999389648441053 -25.125
v 3.890625 19.978000640869155 -20.46875
cstype bspline
deg 1
curv 0 20.509333170077468 121 122
parm u 0 0 20.509333170077468 20.509333170077468
end
usemtl diffuse_0
v 10.6875 -0.0069999694824200986 -21.53125
v 6.546875 20.145999908447273 -19
cstype bspline
deg 1
curv 0 20.729095639534286 123 124
parm u 0 0 20.729095639534286 20.729095639534286
end
