ply
format ascii 1.0
element vertex 124
property float x
property float y
property float z
end_header
5.21875 0.06999969482422053 -11.03125
8.301424408014569 10.78299903869629 -20.368540983606557
-0.1764244080145685 0.06999969482422053 -0.16270901639344437
2.90625 10.78299903869629 -9.5
5.292325591985431 -0.006999969482420099 -10.662709016393444
-0.2076744080145687 11.107999801635751 -2.7252090163934444
10.6875 -0.006999969482420099 -21.53125
5.1875 11.107999801635751 -13.59375
-2.1607994080145687 0.014999389648441053 -14.256459016393444
-5.223299408014569 11.076000213623049 -5.100209016393444
-7.145174408014569 0.2019996643066495 -3.7877090163934444
-2.0045494080145687 10.83300018310547 -11.662709016393444
3.234375 0.014999389648441053 -25.125
0.171875 11.076000213623049 -15.96875
-1.75 0.2019996643066495 -14.65625
3.390625 10.83300018310547 -22.53125
8.671875 55.18900299072266 -25.6875
10.265625 57.07599639892579 -29.375
9.546875 56.95099639892579 -29.875
7.2495375820736125 55.18900299072266 -26.409322222522
-4.140625 55.11299896240235 0.53125
-6.46875 57.05200195312501 4.34375
-5.5629624179263875 55.11299896240235 -0.19057222252200035
-7.0625 57.00599670410157 3.84375
-7.0625 57.00599670410157 3.84375
-5.5629624179263875 57.028890795471796 -0.19057222252200035
-6.46875 57.05200195312501 4.34375
-7.0625 57.00599670410157 3.84375
-4.140625 57.028890795471796 0.53125
-6.46875 57.05200195312501 4.34375
10.265625 57.07599639892579 -29.375
8.671875 57.10489482379211 -25.6875
9.546875 56.95099639892579 -29.875
10.265625 57.07599639892579 -29.375
7.2495375820736125 57.10489482379211 -26.409322222522
9.546875 56.95099639892579 -29.875
8.671875 57.10489482379211 -25.6875
-4.140625 57.028890795471796 0.53125
7.2495375820736125 57.10489482379211 -26.409322222522
-5.5629624179263875 57.028890795471796 -0.19057222252200035
7.2495375820736125 55.18900299072266 -26.409322222522
-5.5629624179263875 55.11299896240235 -0.19057222252200035
8.671875 55.18900299072266 -25.6875
-4.140625 55.11299896240235 0.53125
6.890625 43.870794719386936 -20.25
9.59375 43.812999725341804 -29.21875
9.59375 43.812999725341804 -29.21875
4.453125 43.863794749904514 -21.375
4.453125 45.84162163425897 -21.375
9.59375 43.812999725341804 -29.21875
9.59375 43.812999725341804 -29.21875
6.890625 45.84862160374139 -20.25
-3.78125 43.802793925929905 -4.53125
-6.375 43.80799865722657 3.6875
-6.375 43.80799865722657 3.6875
-1.71875 43.79679340713108 -3.1875
-6.375 43.80799865722657 3.6875
-3.441936969262766 45.78313446486778 -5.225328647314493
-1.2922924277807961 45.77828587928554 -4.03267544258325
-6.375 43.80799865722657 3.6875
-1.71875 43.79679340713108 -3.1875
6.890625 43.870794719386936 -20.25
4.453125 43.863794749904514 -21.375
-3.78125 43.802793925929905 -4.53125
4.453125 45.84162163425897 -21.375
-3.441936969262766 45.78313446486778 -5.225328647314493
-1.2922924277807961 45.77828587928554 -4.03267544258325
6.890625 45.84862160374139 -20.25
8.15625 32.48099899291993 -26.25
6.890625 34.51782779988181 -20.25
4.453125 34.510827830399386 -21.375
8.15625 32.48099899291993 -26.25
-1.2922924277807961 34.447492075425956 -4.03267544258325
-5.0625 32.590000152587905 0.34375
-5.0625 32.590000152587905 0.34375
-3.441936969262766 34.45234066100819 -5.225328647314493
-1.2922924277807961 34.447492075425956 -4.03267544258325
6.890625 34.51782779988181 -20.25
4.453125 34.510827830399386 -21.375
-3.441936969262766 34.45234066100819 -5.225328647314493
-5.0625 32.590000152587905 0.34375
-1.71875 32.46599960327149 -3.1875
-3.78125 32.47200012207032 -4.53125
-5.0625 32.590000152587905 0.34375
4.453125 32.53300094604493 -21.375
-3.78125 32.47200012207032 -4.53125
8.15625 32.48099899291993 -26.25
4.453125 32.53300094604493 -21.375
6.890625 32.54000091552735 -20.25
8.15625 32.48099899291993 -26.25
-1.71875 32.46599960327149 -3.1875
6.890625 32.54000091552735 -20.25
1.1633281853940145 20.145999908447273 -8.13106519156354
0.4289531853940145 55.155998229980476 -8.03731519156354
-1.4929218146059855 19.978000640869155 -9.59981519156354
-1.4147968146059855 55.18000030517579 -8.72481519156354
-3.5241718146059853 19.9749984741211 -6.006065191563541
-2.4929218146059853 55.09799957275391 -6.568565191563541
-0.8522968146059855 19.77199935913086 -4.599815191563541
-0.6491718146059855 55.179000854492195 -6.035968222491417
4.53125 19.77199935913086 -15.46875
4.734375 55.179000854492195 -16.904903030927876
1.859375 19.9749984741211 -16.875
2.890625 55.09799957275391 -17.4375
3.890625 19.978000640869155 -20.46875
3.96875 55.18000030517579 -19.59375
6.546875 20.145999908447273 -19.0
5.8125 55.155998229980476 -18.90625
5.292325591985431 -0.006999969482420099 -10.662709016393444
1.1517005919854315 20.145999908447273 -8.131459016393444
-2.1607994080145687 0.014999389648441053 -14.256459016393444
-1.5045494080145685 19.978000640869155 -9.600209016393444
-3.5357994080145687 19.9749984741211 -6.006459016393444
-7.145174408014569 0.2019996643066495 -3.7877090163934444
-0.8639244080145685 19.77199935913086 -4.600209016393444
-0.1764244080145685 0.06999969482422053 -0.16270901639344437
4.53125 19.77199935913086 -15.46875
5.21875 0.06999969482422053 -11.03125
1.859375 19.9749984741211 -16.875
-1.75 0.2019996643066495 -14.65625
3.234375 0.014999389648441053 -25.125
3.890625 19.978000640869155 -20.46875
10.6875 -0.006999969482420099 -21.53125
6.546875 20.145999908447273 -19.0
