# Rhino

mtllib pylon4_lines.mtl
usemtl diffuse_0
v 3.5437187356095499 1.0709933554213329 4.3752120115562807
v 1.121154387889459 3.4750352184021196 4.3752120115562807
cstype bspline
deg 1
curv 10.238853338156446 13.651804450875261 1 2
parm u 10.238853338156446 10.238853338156446 13.651804450875261 13.651804450875261
end
usemtl diffuse_0
v 5.9662830833296407 3.4750352184021196 4.3752120115562807
v 3.5437187356095499 1.0709933554213329 4.3752120115562807
cstype bspline
deg 1
curv 6.8259022254376305 10.238853338156446 3 4
parm u 6.8259022254376305 6.8259022254376305 10.238853338156446 10.238853338156446
end
usemtl diffuse_0
v 3.5437187356095499 5.8790770813829063 4.3752120115562807
v 5.9662830833296407 3.4750352184021196 4.3752120115562807
cstype bspline
deg 1
curv 3.4129511127188152 6.8259022254376305 5 6
parm u 3.4129511127188152 3.4129511127188152 6.8259022254376305 6.8259022254376305
end
usemtl diffuse_0
v 1.121154387889459 3.4750352184021196 4.3752120115562807
v 3.5437187356095499 5.8790770813829063 4.3752120115562807
cstype bspline
deg 1
curv 0 3.4129511127188152 7 8
parm u 0 0 3.4129511127188152 3.4129511127188152
end
usemtl diffuse_0
v 2.6621541036022949 4.3859578324855315 18.447447898632543
v 2.8762092190227553 2.7732410008163231 21.061793085900213
cstype bspline
deg 1
curv 9.1712170024093105 12.250417536602637 9 10
parm u 9.1712170024093105 9.1712170024093105 12.250417536602637 12.250417536602637
end
usemtl diffuse_0
v 4.2112282521963449 4.1768294359879157 21.061793085900216
v 2.6621541036022949 4.3859578324855315 18.447447898632543
cstype bspline
deg 1
curv 6.1252087683013183 9.1712170024093105 11 12
parm u 6.1252087683013183 6.1252087683013183 9.1712170024093105 9.1712170024093105
end
usemtl diffuse_0
v 4.4252833676168057 2.5641126043187077 18.447447898632543
v 4.2112282521963449 4.1768294359879157 21.061793085900216
cstype bspline
deg 1
curv 3.0460082341079899 6.1252087683013183 13 14
parm u 3.0460082341079899 3.0460082341079899 6.1252087683013183 6.1252087683013183
end
usemtl diffuse_0
v 2.8762092190227553 2.7732410008163231 21.061793085900213
v 4.4252833676168057 2.5641126043187077 18.447447898632543
cstype bspline
deg 1
curv 0 3.0460082341079899 15 16
parm u 0 0 3.0460082341079899 3.0460082341079899
end
usemtl diffuse_0
v 2.8762092190227557 4.1768294359879157 21.06179308590022
v 2.6621541036022949 2.5641126043187077 18.447447898632543
cstype bspline
deg 1
curv 9.1712170024093176 12.250417536602649 17 18
parm u 9.1712170024093176 9.1712170024093176 12.250417536602649 12.250417536602649
end
usemtl diffuse_0
v 4.4252833676168049 4.3859578324855306 18.447447898632547
v 2.8762092190227557 4.1768294359879157 21.06179308590022
cstype bspline
deg 1
curv 6.1252087683013245 9.1712170024093176 19 20
parm u 6.1252087683013245 6.1252087683013245 9.1712170024093176 9.1712170024093176
end
usemtl diffuse_0
v 4.2112282521963449 2.7732410008163226 21.06179308590022
v 4.4252833676168049 4.3859578324855306 18.447447898632547
cstype bspline
deg 1
curv 3.0460082341079957 6.1252087683013245 21 22
parm u 3.0460082341079957 3.0460082341079957 6.1252087683013245 6.1252087683013245
end
usemtl diffuse_0
v 2.6621541036022949 2.5641126043187077 18.447447898632543
v 4.2112282521963449 2.7732410008163226 21.06179308590022
cstype bspline
deg 1
curv 0 3.0460082341079957 23 24
parm u 0 0 3.0460082341079957 3.0460082341079957
end
usemtl diffuse_0
v 14.664390223809185 3.8117333488301606 21.894469134145943
v 9.7524701845118713 4.0872011985104439 19.054378215603847
cstype bspline
deg 1
curv 10.819010969965573 16.499588179567013 25 26
parm u 10.819010969965573 10.819010969965573 16.499588179567013 16.499588179567013
end
usemtl diffuse_0
v 4.4252833676168057 4.3859578324855315 18.447447898632543
v 14.664390223809185 3.8117333488301606 21.894469134145943
cstype bspline
deg 1
curv 0 10.819010969965573 27 28
parm u 0 0 10.819010969965573 10.819010969965573
end
usemtl diffuse_0
v 14.664390223809185 3.1383370879740786 21.894469134145943
v 9.7524701845118713 2.8628692382937948 19.054378215603847
cstype bspline
deg 1
curv 10.819010969965573 16.499588179567013 29 30
parm u 10.819010969965573 10.819010969965573 16.499588179567013 16.499588179567013
end
usemtl diffuse_0
v 4.4252833676168057 2.5641126043187077 18.447447898632543
v 14.664390223809185 3.1383370879740786 21.894469134145943
cstype bspline
deg 1
curv 0 10.819010969965573 31 32
parm u 0 0 10.819010969965573 10.819010969965573
end
usemtl diffuse_0
v -7.5769527525900848 3.8117333488301606 21.894469134145943
v -2.6650327132927707 4.0872011985104439 19.054378215603847
cstype bspline
deg 1
curv 10.819010969965573 16.499588179567013 33 34
parm u 10.819010969965573 10.819010969965573 16.499588179567013 16.499588179567013
end
usemtl diffuse_0
v 2.6621541036022949 4.3859578324855315 18.447447898632543
v -7.5769527525900848 3.8117333488301606 21.894469134145943
cstype bspline
deg 1
curv 0 10.819010969965573 35 36
parm u 0 0 10.819010969965573 10.819010969965573
end
usemtl diffuse_0
v -7.5769527525900848 3.1383370879740786 21.894469134145943
v -2.6650327132927707 2.8628692382937948 19.054378215603847
cstype bspline
deg 1
curv 10.819010969965573 16.499588179567013 37 38
parm u 10.819010969965573 10.819010969965573 16.499588179567013 16.499588179567013
end
usemtl diffuse_0
v 2.6621541036022949 2.5641126043187077 18.447447898632543
v -7.5769527525900848 3.1383370879740786 21.894469134145943
cstype bspline
deg 1
curv 0 10.819010969965573 39 40
parm u 0 0 10.819010969965573 10.819010969965573
end
usemtl diffuse_0
v 5.3949150284463618 1.6167981053201803 6.6049284571662179
v 5.9662830833296407 3.4750352184021196 4.3752120115562807
cstype bspline
deg 1
curv 19.296100295108634 22.254333222110766 41 42
parm u 19.296100295108634 19.296100295108634 22.254333222110766 22.254333222110766
end
usemtl diffuse_0
v 5.2358545824312444 5.1778728403016236 8.5476006082496205
v 5.3949150284463618 1.6167981053201803 6.6049284571662179
cstype bspline
deg 1
curv 15.29233274840723 19.296100295108634 43 44
parm u 15.29233274840723 15.29233274840723 19.296100295108634 19.296100295108634
end
usemtl diffuse_0
v 5.0288296947196089 1.9744575738789614 11.07608266657568
v 5.2358545824312444 5.1778728403016236 8.5476006082496205
cstype bspline
deg 1
curv 11.108208701731117 15.29233274840723 45 46
parm u 11.108208701731117 11.108208701731117 15.29233274840723 15.29233274840723
end
usemtl diffuse_0
v 4.8206541045400026 4.7722286677908095 13.618618738295465
v 5.0288296947196089 1.9744575738789614 11.07608266657568
cstype bspline
deg 1
curv 7.3220034978004573 11.108208701731117 47 48
parm u 7.3220034978004573 7.3220034978004573 11.108208701731117 11.108208701731117
end
usemtl diffuse_0
v 4.6434440925230049 2.3509730935493698 15.782959175300515
v 4.8206541045400026 4.7722286677908095 13.618618738295465
cstype bspline
deg 1
curv 4.0695810972796522 7.3220034978004573 49 50
parm u 4.0695810972796522 4.0695810972796522 7.3220034978004573 7.3220034978004573
end
usemtl diffuse_0
v 4.4848849899205412 4.4441876565033018 17.719508208347403
v 4.6434440925230049 2.3509730935493698 15.782959175300515
cstype bspline
deg 1
curv 1.2135505734624861 4.0695810972796522 51 52
parm u 1.2135505734624861 1.2135505734624861 4.0695810972796522 4.0695810972796522
end
usemtl diffuse_0
v 4.4252833676168049 3.47503521840212 18.447447898632543
v 4.4848849899205412 4.4441876565033018 17.719508208347403
cstype bspline
deg 1
curv 1.2073675392798577E-15 1.2135505734624861 53 54
parm u 1.2073675392798577E-15 1.2073675392798577E-15 1.2135505734624861 1.2135505734624861
end
usemtl diffuse_0
v 5.3949150284463618 5.3332723314840589 6.6049284571662179
v 5.9662830833296407 3.4750352184021196 4.3752120115562807
cstype bspline
deg 1
curv 19.296100295108634 22.254333222110766 55 56
parm u 19.296100295108634 19.296100295108634 22.254333222110766 22.254333222110766
end
usemtl diffuse_0
v 5.2358545824312444 1.7721975965026155 8.5476006082496205
v 5.3949150284463618 5.3332723314840589 6.6049284571662179
cstype bspline
deg 1
curv 15.29233274840723 19.296100295108634 57 58
parm u 15.29233274840723 15.29233274840723 19.296100295108634 19.296100295108634
end
usemtl diffuse_0
v 5.0288296947196089 4.9756128629252778 11.07608266657568
v 5.2358545824312444 1.7721975965026155 8.5476006082496205
cstype bspline
deg 1
curv 11.108208701731117 15.29233274840723 59 60
parm u 11.108208701731117 11.108208701731117 15.29233274840723 15.29233274840723
end
usemtl diffuse_0
v 4.8206541045400026 2.1778417690134293 13.618618738295465
v 5.0288296947196089 4.9756128629252778 11.07608266657568
cstype bspline
deg 1
curv 7.3220034978004573 11.108208701731117 61 62
parm u 7.3220034978004573 7.3220034978004573 11.108208701731117 11.108208701731117
end
usemtl diffuse_0
v 4.6434440925230049 4.5990973432548694 15.782959175300515
v 4.8206541045400026 2.1778417690134293 13.618618738295465
cstype bspline
deg 1
curv 4.0695810972796522 7.3220034978004573 63 64
parm u 4.0695810972796522 4.0695810972796522 7.3220034978004573 7.3220034978004573
end
usemtl diffuse_0
v 4.4848849899205412 2.5058827803009374 17.719508208347403
v 4.6434440925230049 4.5990973432548694 15.782959175300515
cstype bspline
deg 1
curv 1.2135505734624861 4.0695810972796522 65 66
parm u 1.2135505734624861 1.2135505734624861 4.0695810972796522 4.0695810972796522
end
usemtl diffuse_0
v 4.4252833676168049 3.4750352184021196 18.447447898632543
v 4.4848849899205412 2.5058827803009374 17.719508208347403
cstype bspline
deg 1
curv -3.8857805861880479E-16 1.2135505734624861 67 68
parm u -3.8857805861880479E-16 -3.8857805861880479E-16 1.2135505734624861 1.2135505734624861
end
usemtl diffuse_0
v 2.8762092190227557 4.1768294359879157 21.06179308590022
v 2.8762092190227557 2.7732410008163226 21.06179308590022
cstype bspline
deg 1
curv 4.0736265015187714 5.4772149366903644 69 70
parm u 4.0736265015187714 4.0736265015187714 5.4772149366903644 5.4772149366903644
end
usemtl diffuse_0
v 4.2112282521963449 4.1768294359879157 21.06179308590022
v 2.8762092190227557 4.1768294359879157 21.06179308590022
cstype bspline
deg 1
curv 2.7386074683451822 4.0736265015187714 71 72
parm u 2.7386074683451822 2.7386074683451822 4.0736265015187714 4.0736265015187714
end
usemtl diffuse_0
v 4.2112282521963449 2.7732410008163226 21.06179308590022
v 4.2112282521963449 4.1768294359879157 21.06179308590022
cstype bspline
deg 1
curv 1.3350190331735892 2.7386074683451822 73 74
parm u 1.3350190331735892 1.3350190331735892 2.7386074683451822 2.7386074683451822
end
usemtl diffuse_0
v 2.8762092190227557 2.7732410008163226 21.06179308590022
v 4.2112282521963449 2.7732410008163226 21.06179308590022
cstype bspline
deg 1
curv 0 1.3350190331735892 75 76
parm u 0 0 1.3350190331735892 1.3350190331735892
end
usemtl diffuse_0
v 1.6925224427727379 1.6167981053201803 6.6049284571662179
v 1.121154387889459 3.4750352184021196 4.3752120115562807
cstype bspline
deg 1
curv 19.296100295108634 22.254333222110766 77 78
parm u 19.296100295108634 19.296100295108634 22.254333222110766 22.254333222110766
end
usemtl diffuse_0
v 1.8515828887878554 5.1778728403016236 8.5476006082496205
v 1.6925224427727379 1.6167981053201803 6.6049284571662179
cstype bspline
deg 1
curv 15.29233274840723 19.296100295108634 79 80
parm u 15.29233274840723 15.29233274840723 19.296100295108634 19.296100295108634
end
usemtl diffuse_0
v 2.0586077764994908 1.9744575738789614 11.07608266657568
v 1.8515828887878554 5.1778728403016236 8.5476006082496205
cstype bspline
deg 1
curv 11.108208701731117 15.29233274840723 81 82
parm u 11.108208701731117 11.108208701731117 15.29233274840723 15.29233274840723
end
usemtl diffuse_0
v 2.2667833666790971 4.7722286677908095 13.618618738295465
v 2.0586077764994908 1.9744575738789614 11.07608266657568
cstype bspline
deg 1
curv 7.3220034978004573 11.108208701731117 83 84
parm u 7.3220034978004573 7.3220034978004573 11.108208701731117 11.108208701731117
end
usemtl diffuse_0
v 2.4439933786960948 2.3509730935493698 15.782959175300515
v 2.2667833666790971 4.7722286677908095 13.618618738295465
cstype bspline
deg 1
curv 4.0695810972796522 7.3220034978004573 85 86
parm u 4.0695810972796522 4.0695810972796522 7.3220034978004573 7.3220034978004573
end
usemtl diffuse_0
v 2.6025524812985585 4.4441876565033018 17.719508208347403
v 2.4439933786960948 2.3509730935493698 15.782959175300515
cstype bspline
deg 1
curv 1.2135505734624861 4.0695810972796522 87 88
parm u 1.2135505734624861 1.2135505734624861 4.0695810972796522 4.0695810972796522
end
usemtl diffuse_0
v 2.6621541036022949 3.4750352184021196 18.447447898632543
v 2.6025524812985585 4.4441876565033018 17.719508208347403
cstype bspline
deg 1
curv 0 1.2135505734624861 89 90
parm u 0 0 1.2135505734624861 1.2135505734624861
end
usemtl diffuse_0
v 1.6925224427727379 5.3332723314840589 6.6049284571662179
v 1.121154387889459 3.4750352184021196 4.3752120115562807
cstype bspline
deg 1
curv 19.296100295108634 22.254333222110766 91 92
parm u 19.296100295108634 19.296100295108634 22.254333222110766 22.254333222110766
end
usemtl diffuse_0
v 1.8515828887878554 1.7721975965026155 8.5476006082496205
v 1.6925224427727379 5.3332723314840589 6.6049284571662179
cstype bspline
deg 1
curv 15.29233274840723 19.296100295108634 93 94
parm u 15.29233274840723 15.29233274840723 19.296100295108634 19.296100295108634
end
usemtl diffuse_0
v 2.0586077764994908 4.9756128629252778 11.07608266657568
v 1.8515828887878554 1.7721975965026155 8.5476006082496205
cstype bspline
deg 1
curv 11.108208701731117 15.29233274840723 95 96
parm u 11.108208701731117 11.108208701731117 15.29233274840723 15.29233274840723
end
usemtl diffuse_0
v 2.2667833666790971 2.1778417690134293 13.618618738295465
v 2.0586077764994908 4.9756128629252778 11.07608266657568
cstype bspline
deg 1
curv 7.3220034978004573 11.108208701731117 97 98
parm u 7.3220034978004573 7.3220034978004573 11.108208701731117 11.108208701731117
end
usemtl diffuse_0
v 2.4439933786960948 4.5990973432548694 15.782959175300515
v 2.2667833666790971 2.1778417690134293 13.618618738295465
cstype bspline
deg 1
curv 4.0695810972796522 7.3220034978004573 99 100
parm u 4.0695810972796522 4.0695810972796522 7.3220034978004573 7.3220034978004573
end
usemtl diffuse_0
v 2.6025524812985585 2.5058827803009374 17.719508208347403
v 2.4439933786960948 4.5990973432548694 15.782959175300515
cstype bspline
deg 1
curv 1.2135505734624861 4.0695810972796522 101 102
parm u 1.2135505734624861 1.2135505734624861 4.0695810972796522 4.0695810972796522
end
usemtl diffuse_0
v 2.6621541036022949 3.4750352184021196 18.447447898632543
v 2.6025524812985585 2.5058827803009374 17.719508208347403
cstype bspline
deg 1
curv 0 1.2135505734624861 103 104
parm u 0 0 1.2135505734624861 1.2135505734624861
end
usemtl diffuse_0
v 4.5755893214398782 4.5328043259473709 16.611698044100123
v 2.6621541036022949 4.3859578324855315 18.447447898632543
cstype bspline
deg 1
curv 18.187612738596076 20.843319001329025 105 106
parm u 18.187612738596076 18.187612738596076 20.843319001329025 20.843319001329025
end
usemtl diffuse_0
v 2.3262325909851187 4.7141477341596545 14.344697127713797
v 4.5755893214398782 4.5328043259473709 16.611698044100123
cstype bspline
deg 1
curv 14.988896701271004 18.187612738596076 107 108
parm u 14.988896701271004 14.988896701271004 18.187612738596076 18.187612738596076
end
usemtl diffuse_0
v 4.9680973358935141 4.9162783275563324 11.817832517760205
v 2.3262325909851187 4.7141477341596545 14.344697127713797
cstype bspline
deg 1
curv 11.327564858319219 14.988896701271004 109 110
parm u 11.327564858319219 11.327564858319219 14.988896701271004 14.988896701271004
end
usemtl diffuse_0
v 1.916321848173042 5.1146239207859434 9.3382847578198369
v 4.9680973358935141 4.9162783275563324 11.817832517760205
cstype bspline
deg 1
curv 7.3347194284803479 11.327564858319219 111 112
parm u 7.3347194284803479 7.3347194284803479 11.327564858319219 11.327564858319219
end
usemtl diffuse_0
v 5.3949150284463618 5.3332723314840589 6.6049284571662179
v 1.916321848173042 5.1146239207859434 9.3382847578198369
cstype bspline
deg 1
curv 2.9489771052770677 7.3347194284803479 113 114
parm u 2.9489771052770677 2.9489771052770677 7.3347194284803479 7.3347194284803479
end
usemtl diffuse_0
v 3.5437187356095499 5.8790770813829063 4.3752120115562807
v 5.3949150284463618 5.3332723314840589 6.6049284571662179
cstype bspline
deg 1
curv 0 2.9489771052770677 115 116
parm u 0 0 2.9489771052770677 2.9489771052770677
end
usemtl diffuse_0
v 2.5118481497792216 4.5328043259473709 16.611698044100123
v 4.4252833676168049 4.3859578324855315 18.447447898632543
cstype bspline
deg 1
curv 18.187612738596076 20.843319001329025 117 118
parm u 18.187612738596076 18.187612738596076 20.843319001329025 20.843319001329025
end
usemtl diffuse_0
v 4.761204880233981 4.7141477341596545 14.344697127713797
v 2.5118481497792216 4.5328043259473709 16.611698044100123
cstype bspline
deg 1
curv 14.988896701271004 18.187612738596076 119 120
parm u 14.988896701271004 14.988896701271004 18.187612738596076 18.187612738596076
end
usemtl diffuse_0
v 2.1193401353255852 4.9162783275563324 11.817832517760205
v 4.761204880233981 4.7141477341596545 14.344697127713797
cstype bspline
deg 1
curv 11.327564858319219 14.988896701271004 121 122
parm u 11.327564858319219 11.327564858319219 14.988896701271004 14.988896701271004
end
usemtl diffuse_0
v 5.1711156230460578 5.1146239207859434 9.3382847578198369
v 2.1193401353255852 4.9162783275563324 11.817832517760205
cstype bspline
deg 1
curv 7.3347194284803479 11.327564858319219 123 124
parm u 7.3347194284803479 7.3347194284803479 11.327564858319219 11.327564858319219
end
usemtl diffuse_0
v 1.6925224427727377 5.3332723314840589 6.6049284571662179
v 5.1711156230460578 5.1146239207859434 9.3382847578198369
cstype bspline
deg 1
curv 2.9489771052770677 7.3347194284803479 125 126
parm u 2.9489771052770677 2.9489771052770677 7.3347194284803479 7.3347194284803479
end
usemtl diffuse_0
v 3.5437187356095499 5.8790770813829063 4.3752120115562807
v 1.6925224427727377 5.3332723314840589 6.6049284571662179
cstype bspline
deg 1
curv 0 2.9489771052770677 127 128
parm u 0 0 2.9489771052770677 2.9489771052770677
end
usemtl diffuse_0
v 4.5755893214398782 2.4172661108568678 16.611698044100123
v 2.6621541036022949 2.5641126043187077 18.447447898632543
cstype bspline
deg 1
curv 18.187612738596076 20.843319001329025 129 130
parm u 18.187612738596076 18.187612738596076 20.843319001329025 20.843319001329025
end
usemtl diffuse_0
v 2.3262325909851187 2.2359227026445851 14.344697127713797
v 4.5755893214398782 2.4172661108568678 16.611698044100123
cstype bspline
deg 1
curv 14.988896701271004 18.187612738596076 131 132
parm u 14.988896701271004 14.988896701271004 18.187612738596076 18.187612738596076
end
usemtl diffuse_0
v 4.9680973358935141 2.0337921092479063 11.817832517760205
v 2.3262325909851187 2.2359227026445851 14.344697127713797
cstype bspline
deg 1
curv 11.327564858319219 14.988896701271004 133 134
parm u 11.327564858319219 11.327564858319219 14.988896701271004 14.988896701271004
end
usemtl diffuse_0
v 1.916321848173042 1.8354465160182962 9.3382847578198369
v 4.9680973358935141 2.0337921092479063 11.817832517760205
cstype bspline
deg 1
curv 7.3347194284803479 11.327564858319219 135 136
parm u 7.3347194284803479 7.3347194284803479 11.327564858319219 11.327564858319219
end
usemtl diffuse_0
v 5.3949150284463618 1.6167981053201803 6.6049284571662179
v 1.916321848173042 1.8354465160182962 9.3382847578198369
cstype bspline
deg 1
curv 2.9489771052770677 7.3347194284803479 137 138
parm u 2.9489771052770677 2.9489771052770677 7.3347194284803479 7.3347194284803479
end
usemtl diffuse_0
v 3.5437187356095499 1.0709933554213329 4.3752120115562807
v 5.3949150284463618 1.6167981053201803 6.6049284571662179
cstype bspline
deg 1
curv 0 2.9489771052770677 139 140
parm u 0 0 2.9489771052770677 2.9489771052770677
end
usemtl diffuse_0
v 2.5118481497792216 2.4172661108568678 16.611698044100123
v 4.4252833676168049 2.5641126043187077 18.447447898632543
cstype bspline
deg 1
curv 18.187612738596076 20.843319001329025 141 142
parm u 18.187612738596076 18.187612738596076 20.843319001329025 20.843319001329025
end
usemtl diffuse_0
v 4.761204880233981 2.2359227026445851 14.344697127713797
v 2.5118481497792216 2.4172661108568678 16.611698044100123
cstype bspline
deg 1
curv 14.988896701271004 18.187612738596076 143 144
parm u 14.988896701271004 14.988896701271004 18.187612738596076 18.187612738596076
end
usemtl diffuse_0
v 2.1193401353255852 2.0337921092479063 11.817832517760205
v 4.761204880233981 2.2359227026445851 14.344697127713797
cstype bspline
deg 1
curv 11.327564858319219 14.988896701271004 145 146
parm u 11.327564858319219 11.327564858319219 14.988896701271004 14.988896701271004
end
usemtl diffuse_0
v 5.1711156230460578 1.8354465160182962 9.3382847578198369
v 2.1193401353255852 2.0337921092479063 11.817832517760205
cstype bspline
deg 1
curv 7.3347194284803479 11.327564858319219 147 148
parm u 7.3347194284803479 7.3347194284803479 11.327564858319219 11.327564858319219
end
usemtl diffuse_0
v 1.6925224427727377 1.6167981053201803 6.6049284571662179
v 5.1711156230460578 1.8354465160182962 9.3382847578198369
cstype bspline
deg 1
curv 2.9489771052770677 7.3347194284803479 149 150
parm u 2.9489771052770677 2.9489771052770677 7.3347194284803479 7.3347194284803479
end
usemtl diffuse_0
v 3.5437187356095499 1.0709933554213329 4.3752120115562807
v 1.6925224427727377 1.6167981053201803 6.6049284571662179
cstype bspline
deg 1
curv 0 2.9489771052770677 151 152
parm u 0 0 2.9489771052770677 2.9489771052770677
end
usemtl diffuse_0
v 2.6621541036022949 4.3859578324855315 18.447447898632543
v 2.6621541036022949 2.5641126043187077 18.447447898632543
cstype bspline
deg 1
curv 5.3481037561958438 7.1699489843626676 153 154
parm u 5.3481037561958438 5.3481037561958438 7.1699489843626676 7.1699489843626676
end
usemtl diffuse_0
v 4.4252833676168049 4.3859578324855315 18.447447898632543
v 2.6621541036022949 4.3859578324855315 18.447447898632543
cstype bspline
deg 1
curv 3.5849744921813338 5.3481037561958438 155 156
parm u 3.5849744921813338 3.5849744921813338 5.3481037561958438 5.3481037561958438
end
usemtl diffuse_0
v 4.4252833676168049 2.5641126043187077 18.447447898632543
v 4.4252833676168049 4.3859578324855315 18.447447898632543
cstype bspline
deg 1
curv 1.76312926401451 3.5849744921813338 157 158
parm u 1.76312926401451 1.76312926401451 3.5849744921813338 3.5849744921813338
end
usemtl diffuse_0
v 2.6621541036022949 2.5641126043187077 18.447447898632543
v 4.4252833676168049 2.5641126043187077 18.447447898632543
cstype bspline
deg 1
curv 0 1.76312926401451 159 160
parm u 0 0 1.76312926401451 1.76312926401451
end
usemtl diffuse_0
v 1.121154387889459 3.4750352184021196 4.3752120115562807
v 0 6.9500704368042392 0
cstype bspline
deg 1
curv 5.6987136335040738 11.397427267008148 161 162
parm u 5.6987136335040738 5.6987136335040738 11.397427267008148 11.397427267008148
end
usemtl diffuse_0
v 0 0 0
v 1.121154387889459 3.4750352184021196 4.3752120115562807
cstype bspline
deg 1
curv 0 5.6987136335040738 163 164
parm u 0 0 5.6987136335040738 5.6987136335040738
end
usemtl diffuse_0
v 5.9662830833296407 3.4750352184021196 4.3752120115562807
v 7.0874374712190997 6.9500704368042392 0
cstype bspline
deg 1
curv 5.6987136335040738 11.397427267008148 165 166
parm u 5.6987136335040738 5.6987136335040738 11.397427267008148 11.397427267008148
end
usemtl diffuse_0
v 7.0874374712190997 0 0
v 5.9662830833296407 3.4750352184021196 4.3752120115562807
cstype bspline
deg 1
curv 0 5.6987136335040738 167 168
parm u 0 0 5.6987136335040738 5.6987136335040738
end
usemtl diffuse_0
v 3.5437187356095499 5.8790770813829063 4.3752120115562807
v 7.0874374712190997 6.9500704368042392 0
cstype bspline
deg 1
curv 5.7312694397081998 11.4625388794164 169 170
parm u 5.7312694397081998 5.7312694397081998 11.4625388794164 11.4625388794164
end
usemtl diffuse_0
v 0 6.9500704368042392 0
v 3.5437187356095499 5.8790770813829063 4.3752120115562807
cstype bspline
deg 1
curv 0 5.7312694397081998 171 172
parm u 0 0 5.7312694397081998 5.7312694397081998
end
usemtl diffuse_0
v 3.5437187356095499 1.0709933554213329 4.3752120115562807
v 7.0874374712190997 0 0
cstype bspline
deg 1
curv 5.7312694397081998 11.4625388794164 173 174
parm u 5.7312694397081998 5.7312694397081998 11.4625388794164 11.4625388794164
end
usemtl diffuse_0
v 0 0 0
v 3.5437187356095499 1.0709933554213329 4.3752120115562807
cstype bspline
deg 1
curv 0 5.7312694397081998 175 176
parm u 0 0 5.7312694397081998 5.7312694397081998
end
usemtl diffuse_0
v 1.121154387889459 5.8790770813829063 4.3752120115562807
v 1.121154387889459 1.0709933554213329 4.3752120115562807
cstype bspline
deg 1
curv 11.121259397511126 14.837733623675005 177 178
parm u 11.121259397511126 11.121259397511126 14.837733623675005 14.837733623675005
end
usemtl diffuse_0
v 5.9662830833296407 5.8790770813829063 4.3752120115562807
v 1.121154387889459 5.8790770813829063 4.3752120115562807
cstype bspline
deg 1
curv 7.4188668118375025 11.121259397511126 179 180
parm u 7.4188668118375025 7.4188668118375025 11.121259397511126 11.121259397511126
end
usemtl diffuse_0
v 5.9662830833296407 1.0709933554213329 4.3752120115562807
v 5.9662830833296407 5.8790770813829063 4.3752120115562807
cstype bspline
deg 1
curv 3.7023925856736239 7.4188668118375025 181 182
parm u 3.7023925856736239 3.7023925856736239 7.4188668118375025 7.4188668118375025
end
usemtl diffuse_0
v 1.121154387889459 1.0709933554213329 4.3752120115562807
v 5.9662830833296407 1.0709933554213329 4.3752120115562807
cstype bspline
deg 1
curv 0 3.7023925856736239 183 184
parm u 0 0 3.7023925856736239 3.7023925856736239
end
usemtl diffuse_0
v 1.121154387889459 3.4750352184021196 4.3752120115562807
v 5.9662830833296407 3.4750352184021192 4.3752120115562807
cstype bspline
deg 1
curv 0 4.8451286954401818 185 186
parm u 0 0 4.8451286954401818 4.8451286954401818
end
usemtl diffuse_0
v 2.8762092190227557 4.1768294359879157 21.06179308590022
v 3.5437187356095503 3.4750352184021196 21.928698327287396
cstype bspline
deg 1
curv 0 0.96854740646537074 187 188
parm u 0 0 0.96854740646537074 0.96854740646537074
end
usemtl diffuse_0
v 4.2112282521963449 4.1768294359879166 21.06179308590022
v 3.5437187356095503 3.4750352184021196 21.928698327287396
cstype bspline
deg 1
curv 0 0.96854740646537174 189 190
parm u 0 0 0.96854740646537174 0.96854740646537174
end
usemtl diffuse_0
v 3.5437187356095503 3.4750352184021196 21.928698327287396
v 4.2112282521963449 2.7732410008163226 21.06179308590022
cstype bspline
deg 1
curv 0.96854740646537074 1.9370948129307419 191 192
parm u 0.96854740646537074 0.96854740646537074 1.9370948129307419 1.9370948129307419
end
usemtl diffuse_0
v 3.5437187356095503 3.4750352184021196 21.928698327287396
v 2.8762092190227557 2.7732410008163226 21.06179308590022
cstype bspline
deg 1
curv 0.96854740646537174 1.9370948129307426 193 194
parm u 0.96854740646537174 0.96854740646537174 1.9370948129307426 1.9370948129307426
end
usemtl diffuse_0
v 14.664390223809185 3.8117333488301606 21.894469134145943
v 14.664390223809185 3.1383370879740786 21.894469134145943
cstype bspline
deg 1
curv 0 0.67339626085608195 195 196
parm u 0 0 0.67339626085608195 0.67339626085608195
end
usemtl diffuse_0
v 15.079657001406936 3.7884445645353577 19.661308532575148
v 15.079657001406936 3.1616258722688815 19.661308532575148
cstype bspline
deg 1
curv 0 0.62681869226647624 197 198
parm u 0 0 0.62681869226647624 0.62681869226647624
end
usemtl diffuse_0
v 15.079657001406936 3.7884445645353577 19.661308532575148
v 10.110968688406935 4.0670960642266003 20.36802183342003
cstype bspline
deg 1
curv 0 5.0073581181661764 199 200
parm u 0 0 5.0073581181661764 5.0073581181661764
end
usemtl diffuse_0
v 4.2112282521963449 4.1768294359879166 21.06179308590022
v 9.7640410155796094 4.0862402648099057 19.054378215603847
cstype bspline
deg 1
curv 0 5.9052223027261057 201 202
parm u 0 0 5.9052223027261057 5.9052223027261057
end
usemtl diffuse_0
v 8.0583727942684487 4.1826389381264555 19.669378791029253
v 4.3501706328968748 4.3125739017269762 19.36483133108095
cstype bspline
deg 1
curv 0 3.722955213231506 203 204
parm u 0 0 3.722955213231506 3.722955213231506
end
usemtl diffuse_0
v 4.4252833676168057 4.3859578324855315 18.447447898632543
v 15.079657001406936 3.7884445645353582 19.661308532575148
cstype bspline
deg 1
curv 0 10.739932833701259 205 206
parm u 0 0 10.739932833701259 10.739932833701259
end
usemtl diffuse_0
v 15.079657001406936 3.1616258722688815 19.661308532575148
v 10.110968688406935 2.8829743725776384 20.36802183342003
cstype bspline
deg 1
curv 0 5.0073581181661764 207 208
parm u 0 0 5.0073581181661764 5.0073581181661764
end
usemtl diffuse_0
v 4.2112282521963449 2.7732410008163226 21.06179308590022
v 9.7640410155796094 2.863830171994334 19.054378215603847
cstype bspline
deg 1
curv 0 5.9052223027261057 209 210
parm u 0 0 5.9052223027261057 5.9052223027261057
end
usemtl diffuse_0
v 8.0583727942684487 2.7674314986777833 19.669378791029253
v 4.3501706328968748 2.6374965350772634 19.36483133108095
cstype bspline
deg 1
curv 0 3.722955213231506 211 212
parm u 0 0 3.722955213231506 3.722955213231506
end
usemtl diffuse_0
v 4.4252833676168057 2.5641126043187077 18.447447898632543
v 15.079657001406936 3.161625872268881 19.661308532575148
cstype bspline
deg 1
curv 0 10.739932833701259 213 214
parm u 0 0 10.739932833701259 10.739932833701259
end
usemtl diffuse_0
v -7.5769527525900848 3.8117333488301606 21.894469134145943
v -7.5769527525900848 3.1383370879740786 21.894469134145943
cstype bspline
deg 1
curv 0 0.67339626085608195 215 216
parm u 0 0 0.67339626085608195 0.67339626085608195
end
usemtl diffuse_0
v -7.9922195301878363 3.7884445645353577 19.661308532575148
v -7.9922195301878363 3.1616258722688815 19.661308532575148
cstype bspline
deg 1
curv 0 0.62681869226647624 217 218
parm u 0 0 0.62681869226647624 0.62681869226647624
end
usemtl diffuse_0
v -7.9922195301878363 3.7884445645353577 19.661308532575148
v -3.0235312171878341 4.0670960642266003 20.36802183342003
cstype bspline
deg 1
curv 0 5.0073581181661764 219 220
parm u 0 0 5.0073581181661764 5.0073581181661764
end
usemtl diffuse_0
v 2.8762092190227557 4.1768294359879166 21.06179308590022
v -2.6766035443605087 4.0862402648099057 19.054378215603847
cstype bspline
deg 1
curv 0 5.9052223027261057 221 222
parm u 0 0 5.9052223027261057 5.9052223027261057
end
usemtl diffuse_0
v -0.97093532304934882 4.1826389381264555 19.669378791029253
v 2.7372668383222254 4.3125739017269762 19.36483133108095
cstype bspline
deg 1
curv 0 3.722955213231506 223 224
parm u 0 0 3.722955213231506 3.722955213231506
end
usemtl diffuse_0
v 2.6621541036022949 4.3859578324855315 18.447447898632543
v -7.9922195301878363 3.7884445645353582 19.661308532575148
cstype bspline
deg 1
curv 0 10.739932833701259 225 226
parm u 0 0 10.739932833701259 10.739932833701259
end
usemtl diffuse_0
v -7.9922195301878363 3.1616258722688815 19.661308532575148
v -3.0235312171878341 2.8829743725776384 20.36802183342003
cstype bspline
deg 1
curv 0 5.0073581181661764 227 228
parm u 0 0 5.0073581181661764 5.0073581181661764
end
usemtl diffuse_0
v 2.8762092190227557 2.7732410008163226 21.06179308590022
v -2.6766035443605087 2.863830171994334 19.054378215603847
cstype bspline
deg 1
curv 0 5.9052223027261057 229 230
parm u 0 0 5.9052223027261057 5.9052223027261057
end
usemtl diffuse_0
v -0.97093532304934882 2.7674314986777833 19.669378791029253
v 2.7372668383222254 2.6374965350772634 19.36483133108095
cstype bspline
deg 1
curv 0 3.722955213231506 231 232
parm u 0 0 3.722955213231506 3.722955213231506
end
usemtl diffuse_0
v 2.6621541036022949 2.5641126043187077 18.447447898632543
v -7.9922195301878363 3.161625872268881 19.661308532575148
cstype bspline
deg 1
curv 0 10.739932833701259 233 234
parm u 0 0 10.739932833701259 10.739932833701259
end
usemtl diffuse_0
v 5.3949150284463618 1.6167981053201803 6.6049284571662179
v 4.2112282521963449 2.7732410008163226 21.06179308590022
cstype bspline
deg 1
curv 0 14.496802717450867 235 236
parm u 0 0 14.496802717450867 14.496802717450867
end
usemtl diffuse_0
v 5.3949150284463618 5.3332723314840589 6.6049284571662179
v 4.2112282521963449 4.1768294359879157 21.061793085900216
cstype bspline
deg 1
curv 0 14.496802717450867 237 238
parm u 0 0 14.496802717450867 14.496802717450867
end
usemtl diffuse_0
v 1.6925224427727377 1.6167981053201803 6.6049284571662179
v 2.8762092190227553 2.7732410008163231 21.061793085900213
cstype bspline
deg 1
curv 0 14.496802717450867 239 240
parm u 0 0 14.496802717450867 14.496802717450867
end
usemtl diffuse_0
v 1.6925224427727377 5.3332723314840589 6.6049284571662179
v 2.8762092190227557 4.1768294359879157 21.06179308590022
cstype bspline
deg 1
curv 0 14.496802717450869 241 242
parm u 0 0 14.496802717450869 14.496802717450869
end
usemtl diffuse_0
v 7.0874374712190997 0 0
v 5.3949150284463618 1.6167981053201803 6.6049284571662179
cstype bspline
deg 1
curv 0 6.8612199767211708 243 244
parm u 0 0 6.8612199767211708 6.8612199767211708
end
usemtl diffuse_0
v 0 0 0
v 1.6925224427727377 1.6167981053201803 6.6049284571662179
cstype bspline
deg 1
curv 0 6.8612199767211708 245 246
parm u 0 0 6.8612199767211708 6.8612199767211708
end
usemtl diffuse_0
v 7.0874374712190997 6.9500704368042392 0
v 5.3949150284463618 5.3332723314840589 6.6049284571662179
cstype bspline
deg 1
curv 0 6.8612199767211708 247 248
parm u 0 0 6.8612199767211708 6.8612199767211708
end
usemtl diffuse_0
v 0 6.9500704368042392 0
v 1.6925224427727377 5.3332723314840589 6.6049284571662179
cstype bspline
deg 1
curv 0 6.8612199767211708 249 250
parm u 0 0 6.8612199767211708 6.8612199767211708
end
