# Rhino

mtllib pylon9_lines.mtl
usemtl diffuse_0
v 4.3419588569871035 4.3419588569871035 34.52779792100209
v 2.4361115773810322 4.3419588569871035 32.371971450256723
cstype bspline
deg 1
curv 7.8649593437522753 10.742430738075473 1 2
parm u 7.8649593437522753 7.8649593437522753 10.742430738075473 10.742430738075473
end
usemtl diffuse_0
v 6.1084780166847308 4.3000239989797429 32.371971450256723
v 4.3419588569871035 4.3419588569871035 34.52779792100209
cstype bspline
deg 1
curv 5.0774988066573847 7.8649593437522753 3 4
parm u 5.0774988066573847 5.0774988066573847 7.8649593437522753 7.8649593437522753
end
usemtl diffuse_0
v 7.8257126191558708 4.1660241225620958 34.52779792100209
v 6.1084780166847308 4.3000239989797429 32.371971450256723
cstype bspline
deg 1
curv 2.3180716163204873 5.0774988066573847 5 6
parm u 2.3180716163204873 2.3180716163204873 5.0774988066573847 5.0774988066573847
end
usemtl diffuse_0
v 9.762969355620676 4.1271030760459784 33.255407451236422
v 7.8257126191558708 4.1660241225620958 34.52779792100209
cstype bspline
deg 1
curv 0 2.3180716163204873 7 8
parm u 0 0 2.3180716163204873 2.3180716163204873
end
usemtl diffuse_0
v 2.4361115773810322 4.3419588569871035 34.52779792100209
v 4.3419588569871035 4.3419588569871035 32.371971450256723
cstype bspline
deg 1
curv 7.8649593437522753 10.742430738075473 9 10
parm u 7.8649593437522753 7.8649593437522753 10.742430738075473 10.742430738075473
end
usemtl diffuse_0
v 0.66959241768340505 4.3000239989797429 32.371971450256723
v 2.4361115773810322 4.3419588569871035 34.52779792100209
cstype bspline
deg 1
curv 5.0774988066573847 7.8649593437522753 11 12
parm u 5.0774988066573847 5.0774988066573847 7.8649593437522753 7.8649593437522753
end
usemtl diffuse_0
v -1.0476421847877349 4.1660241225620958 34.52779792100209
v 0.66959241768340505 4.3000239989797429 32.371971450256723
cstype bspline
deg 1
curv 2.3180716163204873 5.0774988066573847 13 14
parm u 2.3180716163204873 2.3180716163204873 5.0774988066573847 5.0774988066573847
end
usemtl diffuse_0
v -2.9848989212525403 4.1271030760459784 33.255407451236422
v -1.0476421847877349 4.1660241225620958 34.52779792100209
cstype bspline
deg 1
curv 0 2.3180716163204873 15 16
parm u 0 0 2.3180716163204873 2.3180716163204873
end
usemtl diffuse_0
v 4.3419588569871035 2.4361115773810318 34.52779792100209
v 2.4361115773810322 2.4361115773810318 32.371971450256723
cstype bspline
deg 1
curv 7.8649593437522753 10.742430738075473 17 18
parm u 7.8649593437522753 7.8649593437522753 10.742430738075473 10.742430738075473
end
usemtl diffuse_0
v 6.1084780166847308 2.4780464353883929 32.371971450256723
v 4.3419588569871035 2.4361115773810318 34.52779792100209
cstype bspline
deg 1
curv 5.0774988066573847 7.8649593437522753 19 20
parm u 5.0774988066573847 5.0774988066573847 7.8649593437522753 7.8649593437522753
end
usemtl diffuse_0
v 7.8257126191558708 2.6120463118060404 34.52779792100209
v 6.1084780166847308 2.4780464353883929 32.371971450256723
cstype bspline
deg 1
curv 2.3180716163204873 5.0774988066573847 21 22
parm u 2.3180716163204873 2.3180716163204873 5.0774988066573847 5.0774988066573847
end
usemtl diffuse_0
v 9.762969355620676 2.6509673583221574 33.255407451236422
v 7.8257126191558708 2.6120463118060404 34.52779792100209
cstype bspline
deg 1
curv 0 2.3180716163204873 23 24
parm u 0 0 2.3180716163204873 2.3180716163204873
end
usemtl diffuse_0
v 2.4361115773810322 2.4361115773810318 34.52779792100209
v 4.3419588569871035 2.4361115773810318 32.371971450256723
cstype bspline
deg 1
curv 7.8649593437522753 10.742430738075473 25 26
parm u 7.8649593437522753 7.8649593437522753 10.742430738075473 10.742430738075473
end
usemtl diffuse_0
v 0.66959241768340505 2.4780464353883929 32.371971450256723
v 2.4361115773810322 2.4361115773810318 34.52779792100209
cstype bspline
deg 1
curv 5.0774988066573847 7.8649593437522753 27 28
parm u 5.0774988066573847 5.0774988066573847 7.8649593437522753 7.8649593437522753
end
usemtl diffuse_0
v -1.0476421847877349 2.6120463118060404 34.52779792100209
v 0.66959241768340505 2.4780464353883929 32.371971450256723
cstype bspline
deg 1
curv 2.3180716163204873 5.0774988066573847 29 30
parm u 2.3180716163204873 2.3180716163204873 5.0774988066573847 5.0774988066573847
end
usemtl diffuse_0
v -2.9848989212525403 2.6509673583221574 33.255407451236422
v -1.0476421847877349 2.6120463118060404 34.52779792100209
cstype bspline
deg 1
curv 0 2.3180716163204873 31 32
parm u 0 0 2.3180716163204873 2.3180716163204873
end
usemtl diffuse_0
v 2.4279051354903318 2.4279051354903318 31.50797636249375
v 2.4361115773810322 3.3890352171840679 32.371971450256723
cstype bspline
deg 1
curv 4.1408016666603782 5.4332125499725166 33 34
parm u 4.1408016666603782 4.1408016666603782 5.4332125499725166 5.4332125499725166
end
usemtl diffuse_0
v 2.4098806436175337 4.3689308291830455 29.610311985540122
v 2.4279051354903318 2.4279051354903318 31.50797636249375
cstype bspline
deg 1
curv 1.4262048801299452 4.1408016666603782 35 36
parm u 1.4262048801299452 1.4262048801299452 4.1408016666603782 4.1408016666603782
end
usemtl diffuse_0
v 2.4000382921470731 3.3890352171840679 28.57408417380703
v 2.4098806436175337 4.3689308291830455 29.610311985540122
cstype bspline
deg 1
curv 0 1.4262048801299452 37 38
parm u 0 0 1.4262048801299452 1.4262048801299452
end
usemtl diffuse_0
v 2.4279051354903318 4.3501652988778039 31.50797636249375
v 2.4361115773810322 3.3890352171840679 32.371971450256723
cstype bspline
deg 1
curv 4.1408016666603782 5.4332125499725166 39 40
parm u 4.1408016666603782 4.1408016666603782 5.4332125499725166 5.4332125499725166
end
usemtl diffuse_0
v 2.4098806436175337 2.4091396051850902 29.610311985540122
v 2.4279051354903318 4.3501652988778039 31.50797636249375
cstype bspline
deg 1
curv 1.4262048801299452 4.1408016666603782 41 42
parm u 1.4262048801299452 1.4262048801299452 4.1408016666603782 4.1408016666603782
end
usemtl diffuse_0
v 2.4000382921470731 3.3890352171840679 28.57408417380703
v 2.4098806436175337 2.4091396051850902 29.610311985540122
cstype bspline
deg 1
curv 0 1.4262048801299452 43 44
parm u 0 0 1.4262048801299452 1.4262048801299452
end
usemtl diffuse_0
v 4.3501652988778039 2.4279051354903318 31.50797636249375
v 4.3419588569871035 3.3890352171840679 32.371971450256723
cstype bspline
deg 1
curv 4.1408016666603782 5.4332125499725166 45 46
parm u 4.1408016666603782 4.1408016666603782 5.4332125499725166 5.4332125499725166
end
usemtl diffuse_0
v 4.368189790750602 4.3689308291830455 29.610311985540122
v 4.3501652988778039 2.4279051354903318 31.50797636249375
cstype bspline
deg 1
curv 1.4262048801299452 4.1408016666603782 47 48
parm u 1.4262048801299452 1.4262048801299452 4.1408016666603782 4.1408016666603782
end
usemtl diffuse_0
v 4.3780321422210626 3.3890352171840679 28.57408417380703
v 4.368189790750602 4.3689308291830455 29.610311985540122
cstype bspline
deg 1
curv 0 1.4262048801299452 49 50
parm u 0 0 1.4262048801299452 1.4262048801299452
end
usemtl diffuse_0
v 4.3501652988778039 4.3501652988778039 31.50797636249375
v 4.3419588569871035 3.3890352171840679 32.371971450256723
cstype bspline
deg 1
curv 4.1408016666603782 5.4332125499725166 51 52
parm u 4.1408016666603782 4.1408016666603782 5.4332125499725166 5.4332125499725166
end
usemtl diffuse_0
v 4.368189790750602 2.4091396051850902 29.610311985540122
v 4.3501652988778039 4.3501652988778039 31.50797636249375
cstype bspline
deg 1
curv 1.4262048801299452 4.1408016666603782 53 54
parm u 1.4262048801299452 1.4262048801299452 4.1408016666603782 4.1408016666603782
end
usemtl diffuse_0
v 4.3780321422210626 3.3890352171840679 28.57408417380703
v 4.368189790750602 2.4091396051850902 29.610311985540122
cstype bspline
deg 1
curv 0 1.4262048801299452 55 56
parm u 0 0 1.4262048801299452 1.4262048801299452
end
usemtl diffuse_0
v 2.4180749347640527 4.3599954996040831 30.627641790376678
v 4.3419588569871035 4.3419588569871035 32.371971450256723
cstype bspline
deg 1
curv 2.8388125087984917 5.4357993453077711 57 58
parm u 2.8388125087984917 2.8388125087984917 5.4357993453077711 5.4357993453077711
end
usemtl diffuse_0
v 4.3780321422210626 4.3780321422210626 28.57408417380703
v 2.4180749347640527 4.3599954996040831 30.627641790376678
cstype bspline
deg 1
curv 0 2.8388125087984917 59 60
parm u 0 0 2.8388125087984917 2.8388125087984917
end
usemtl diffuse_0
v 4.3599954996040831 4.3599954996040831 30.627641790376678
v 2.4361115773810318 4.3419588569871035 32.371971450256723
cstype bspline
deg 1
curv 2.8388125087984917 5.4357993453077711 61 62
parm u 2.8388125087984917 2.8388125087984917 5.4357993453077711 5.4357993453077711
end
usemtl diffuse_0
v 2.4000382921470731 4.3780321422210626 28.57408417380703
v 4.3599954996040831 4.3599954996040831 30.627641790376678
cstype bspline
deg 1
curv 0 2.8388125087984917 63 64
parm u 0 0 2.8388125087984917 2.8388125087984917
end
usemtl diffuse_0
v 2.4180749347640527 2.4180749347640527 30.627641790376678
v 4.3419588569871035 2.4361115773810318 32.371971450256723
cstype bspline
deg 1
curv 2.8388125087984917 5.4357993453077711 65 66
parm u 2.8388125087984917 2.8388125087984917 5.4357993453077711 5.4357993453077711
end
usemtl diffuse_0
v 4.3780321422210626 2.4000382921470731 28.57408417380703
v 2.4180749347640527 2.4180749347640527 30.627641790376678
cstype bspline
deg 1
curv 0 2.8388125087984917 67 68
parm u 0 0 2.8388125087984917 2.8388125087984917
end
usemtl diffuse_0
v 4.3599954996040831 2.4180749347640527 30.627641790376678
v 2.4361115773810318 2.4361115773810318 32.371971450256723
cstype bspline
deg 1
curv 2.8388125087984917 5.4357993453077711 69 70
parm u 2.8388125087984917 2.8388125087984917 5.4357993453077711 5.4357993453077711
end
usemtl diffuse_0
v 2.4000382921470731 2.4000382921470731 28.57408417380703
v 4.3599954996040831 2.4180749347640527 30.627641790376678
cstype bspline
deg 1
curv 0 2.8388125087984917 71 72
parm u 0 0 2.8388125087984917 2.8388125087984917
end
usemtl diffuse_0
v 4.5109785137215868 2.267091920646549 26.569177084229629
v 2.4000382921470731 2.4000382921470731 28.57408417380703
cstype bspline
deg 1
curv 8.7430293463619009 11.657372461815868 73 74
parm u 8.7430293463619009 8.7430293463619009 11.657372461815868 11.657372461815868
end
usemtl diffuse_0
v 4.3780321422210626 4.3780321422210626 28.57408417380703
v 4.5109785137215868 2.267091920646549 26.569177084229629
cstype bspline
deg 1
curv 5.8286862309079339 8.7430293463619009 75 76
parm u 5.8286862309079339 5.8286862309079339 8.7430293463619009 8.7430293463619009
end
usemtl diffuse_0
v 2.267091920646549 4.5109785137215868 26.569177084229629
v 4.3780321422210626 4.3780321422210626 28.57408417380703
cstype bspline
deg 1
curv 2.914343115453967 5.8286862309079339 77 78
parm u 2.914343115453967 2.914343115453967 5.8286862309079339 5.8286862309079339
end
usemtl diffuse_0
v 2.4000382921470731 2.4000382921470731 28.57408417380703
v 2.267091920646549 4.5109785137215868 26.569177084229629
cstype bspline
deg 1
curv 0 2.914343115453967 79 80
parm u 0 0 2.914343115453967 2.914343115453967
end
usemtl diffuse_0
v 2.267091920646549 2.267091920646549 26.569177084229629
v 4.3780321422210626 2.4000382921470731 28.57408417380703
cstype bspline
deg 1
curv 8.7430293463619009 11.657372461815868 81 82
parm u 8.7430293463619009 8.7430293463619009 11.657372461815868 11.657372461815868
end
usemtl diffuse_0
v 2.4000382921470731 4.3780321422210626 28.57408417380703
v 2.267091920646549 2.267091920646549 26.569177084229629
cstype bspline
deg 1
curv 5.8286862309079339 8.7430293463619009 83 84
parm u 5.8286862309079339 5.8286862309079339 8.7430293463619009 8.7430293463619009
end
usemtl diffuse_0
v 4.5109785137215868 4.5109785137215868 26.569177084229629
v 2.4000382921470731 4.3780321422210626 28.57408417380703
cstype bspline
deg 1
curv 2.914343115453967 5.8286862309079339 85 86
parm u 2.914343115453967 2.914343115453967 5.8286862309079339 5.8286862309079339
end
usemtl diffuse_0
v 4.3780321422210626 2.4000382921470731 28.57408417380703
v 4.5109785137215868 4.5109785137215868 26.569177084229629
cstype bspline
deg 1
curv 0 2.914343115453967 87 88
parm u 0 0 2.914343115453967 2.914343115453967
end
usemtl diffuse_0
v 2.2017290695823926 2.2017290695823926 25.484126093534343
v 2.267091920646549 3.3890352171840679 26.569177084229629
cstype bspline
deg 1
curv 31.161964323959666 32.771717051194749 89 90
parm u 31.161964323959666 31.161964323959666 32.771717051194749 32.771717051194749
end
usemtl diffuse_0
v 2.0647453815895727 4.7133250527785631 23.210138898272437
v 2.2017290695823926 2.2017290695823926 25.484126093534343
cstype bspline
deg 1
curv 27.771109464518119 31.161964323959666 91 92
parm u 27.771109464518119 27.771109464518119 31.161964323959666 31.161964323959666
end
usemtl diffuse_0
v 1.9265074787560366 1.9265074787560366 20.915331205842676
v 2.0647453815895727 4.7133250527785631 23.210138898272437
cstype bspline
deg 1
curv 24.158409054313115 27.771109464518119 93 94
parm u 24.158409054313115 24.158409054313115 27.771109464518119 27.771109464518119
end
usemtl diffuse_0
v 1.7870617286061519 4.9910087057619847 18.600472736773334
v 1.9265074787560366 1.9265074787560366 20.915331205842676
cstype bspline
deg 1
curv 20.315339627490605 24.158409054313115 95 96
parm u 20.315339627490605 20.315339627490605 24.158409054313115 24.158409054313115
end
usemtl diffuse_0
v 1.6497267132746591 1.6497267132746583 16.320653358999806
v 1.7870617286061519 4.9910087057619847 18.600472736773334
cstype bspline
deg 1
curv 16.26804390626787 20.315339627490605 97 98
parm u 16.26804390626787 16.26804390626787 20.315339627490605 20.315339627490605
end
usemtl diffuse_0
v 1.505951101409849 5.2721193329582867 13.933917352967757
v 1.6497267132746591 1.6497267132746583 16.320653358999806
cstype bspline
deg 1
curv 11.927662761691355 16.26804390626787 99 100
parm u 11.927662761691355 11.927662761691355 16.26804390626787 16.26804390626787
end
usemtl diffuse_0
v 1.3614511797154218 1.3614511797154218 11.535157497219833
v 1.505951101409849 5.2721193329582867 13.933917352967757
cstype bspline
deg 1
curv 7.3376459340854403 11.927662761691355 101 102
parm u 7.3376459340854403 7.3376459340854403 11.927662761691355 11.927662761691355
end
usemtl diffuse_0
v 1.2181146170390527 5.5599558173290848 9.1557098935313697
v 1.3614511797154218 1.3614511797154218 11.535157497219833
cstype bspline
deg 1
curv 2.5096279700589936 7.3376459340854403 103 104
parm u 2.5096279700589936 2.5096279700589936 7.3376459340854403 7.3376459340854403
end
usemtl diffuse_0
v 1.1424043137665336 3.3890352171840679 7.8988868169025199
v 1.2181146170390527 5.5599558173290848 9.1557098935313697
cstype bspline
deg 1
curv 0 2.5096279700589936 105 106
parm u 0 0 2.5096279700589936 2.5096279700589936
end
usemtl diffuse_0
v 2.2017290695823926 4.5763413647857432 25.484126093534343
v 2.267091920646549 3.3890352171840679 26.569177084229629
cstype bspline
deg 1
curv 31.161964323959666 32.771717051194749 107 108
parm u 31.161964323959666 31.161964323959666 32.771717051194749 32.771717051194749
end
usemtl diffuse_0
v 2.0647453815895727 2.0647453815895731 23.210138898272437
v 2.2017290695823926 4.5763413647857432 25.484126093534343
cstype bspline
deg 1
curv 27.771109464518119 31.161964323959666 109 110
parm u 27.771109464518119 27.771109464518119 31.161964323959666 31.161964323959666
end
usemtl diffuse_0
v 1.9265074787560366 4.8515629556120992 20.915331205842676
v 2.0647453815895727 2.0647453815895731 23.210138898272437
cstype bspline
deg 1
curv 24.158409054313115 27.771109464518119 111 112
parm u 24.158409054313115 24.158409054313115 27.771109464518119 27.771109464518119
end
usemtl diffuse_0
v 1.7870617286061519 1.787061728606151 18.600472736773334
v 1.9265074787560366 4.8515629556120992 20.915331205842676
cstype bspline
deg 1
curv 20.315339627490605 24.158409054313115 113 114
parm u 20.315339627490605 20.315339627490605 24.158409054313115 24.158409054313115
end
usemtl diffuse_0
v 1.6497267132746591 5.1283437210934775 16.320653358999806
v 1.7870617286061519 1.787061728606151 18.600472736773334
cstype bspline
deg 1
curv 16.26804390626787 20.315339627490605 115 116
parm u 16.26804390626787 16.26804390626787 20.315339627490605 20.315339627490605
end
usemtl diffuse_0
v 1.505951101409849 1.5059511014098488 13.933917352967757
v 1.6497267132746591 5.1283437210934775 16.320653358999806
cstype bspline
deg 1
curv 11.927662761691355 16.26804390626787 117 118
parm u 11.927662761691355 11.927662761691355 16.26804390626787 16.26804390626787
end
usemtl diffuse_0
v 1.3614511797154218 5.4166192546527139 11.535157497219833
v 1.505951101409849 1.5059511014098488 13.933917352967757
cstype bspline
deg 1
curv 7.3376459340854403 11.927662761691355 119 120
parm u 7.3376459340854403 7.3376459340854403 11.927662761691355 11.927662761691355
end
usemtl diffuse_0
v 1.2181146170390527 1.2181146170390513 9.1557098935313697
v 1.3614511797154218 5.4166192546527139 11.535157497219833
cstype bspline
deg 1
curv 2.5096279700589936 7.3376459340854403 121 122
parm u 2.5096279700589936 2.5096279700589936 7.3376459340854403 7.3376459340854403
end
usemtl diffuse_0
v 1.1424043137665336 3.3890352171840679 7.8988868169025199
v 1.2181146170390527 1.2181146170390513 9.1557098935313697
cstype bspline
deg 1
curv 0 2.5096279700589936 123 124
parm u 0 0 2.5096279700589936 2.5096279700589936
end
usemtl diffuse_0
v 4.5763413647857432 2.2017290695823926 25.484126093534343
v 4.5109785137215868 3.3890352171840679 26.569177084229629
cstype bspline
deg 1
curv 31.161964323959666 32.771717051194749 125 126
parm u 31.161964323959666 31.161964323959666 32.771717051194749 32.771717051194749
end
usemtl diffuse_0
v 4.7133250527785631 4.7133250527785631 23.210138898272437
v 4.5763413647857432 2.2017290695823926 25.484126093534343
cstype bspline
deg 1
curv 27.771109464518119 31.161964323959666 127 128
parm u 27.771109464518119 27.771109464518119 31.161964323959666 31.161964323959666
end
usemtl diffuse_0
v 4.8515629556120992 1.9265074787560366 20.915331205842676
v 4.7133250527785631 4.7133250527785631 23.210138898272437
cstype bspline
deg 1
curv 24.158409054313115 27.771109464518119 129 130
parm u 24.158409054313115 24.158409054313115 27.771109464518119 27.771109464518119
end
usemtl diffuse_0
v 4.9910087057619839 4.9910087057619847 18.600472736773334
v 4.8515629556120992 1.9265074787560366 20.915331205842676
cstype bspline
deg 1
curv 20.315339627490605 24.158409054313115 131 132
parm u 20.315339627490605 20.315339627490605 24.158409054313115 24.158409054313115
end
usemtl diffuse_0
v 5.1283437210934766 1.6497267132746583 16.320653358999806
v 4.9910087057619839 4.9910087057619847 18.600472736773334
cstype bspline
deg 1
curv 16.26804390626787 20.315339627490605 133 134
parm u 16.26804390626787 16.26804390626787 20.315339627490605 20.315339627490605
end
usemtl diffuse_0
v 5.2721193329582867 5.2721193329582867 13.933917352967757
v 5.1283437210934766 1.6497267132746583 16.320653358999806
cstype bspline
deg 1
curv 11.927662761691355 16.26804390626787 135 136
parm u 11.927662761691355 11.927662761691355 16.26804390626787 16.26804390626787
end
usemtl diffuse_0
v 5.4166192546527139 1.3614511797154218 11.535157497219833
v 5.2721193329582867 5.2721193329582867 13.933917352967757
cstype bspline
deg 1
curv 7.3376459340854403 11.927662761691355 137 138
parm u 7.3376459340854403 7.3376459340854403 11.927662761691355 11.927662761691355
end
usemtl diffuse_0
v 5.5599558173290831 5.5599558173290848 9.1557098935313697
v 5.4166192546527139 1.3614511797154218 11.535157497219833
cstype bspline
deg 1
curv 2.5096279700589936 7.3376459340854403 139 140
parm u 2.5096279700589936 2.5096279700589936 7.3376459340854403 7.3376459340854403
end
usemtl diffuse_0
v 5.6356661206016021 3.3890352171840679 7.8988868169025199
v 5.5599558173290831 5.5599558173290848 9.1557098935313697
cstype bspline
deg 1
curv 0 2.5096279700589936 141 142
parm u 0 0 2.5096279700589936 2.5096279700589936
end
usemtl diffuse_0
v 4.5763413647857432 4.5763413647857432 25.484126093534343
v 4.5109785137215868 3.3890352171840679 26.569177084229629
cstype bspline
deg 1
curv 31.161964323959666 32.771717051194749 143 144
parm u 31.161964323959666 31.161964323959666 32.771717051194749 32.771717051194749
end
usemtl diffuse_0
v 4.7133250527785631 2.0647453815895731 23.210138898272437
v 4.5763413647857432 4.5763413647857432 25.484126093534343
cstype bspline
deg 1
curv 27.771109464518119 31.161964323959666 145 146
parm u 27.771109464518119 27.771109464518119 31.161964323959666 31.161964323959666
end
usemtl diffuse_0
v 4.8515629556120992 4.8515629556120992 20.915331205842676
v 4.7133250527785631 2.0647453815895731 23.210138898272437
cstype bspline
deg 1
curv 24.158409054313115 27.771109464518119 147 148
parm u 24.158409054313115 24.158409054313115 27.771109464518119 27.771109464518119
end
usemtl diffuse_0
v 4.9910087057619839 1.787061728606151 18.600472736773334
v 4.8515629556120992 4.8515629556120992 20.915331205842676
cstype bspline
deg 1
curv 20.315339627490605 24.158409054313115 149 150
parm u 20.315339627490605 20.315339627490605 24.158409054313115 24.158409054313115
end
usemtl diffuse_0
v 5.1283437210934766 5.1283437210934775 16.320653358999806
v 4.9910087057619839 1.787061728606151 18.600472736773334
cstype bspline
deg 1
curv 16.26804390626787 20.315339627490605 151 152
parm u 16.26804390626787 16.26804390626787 20.315339627490605 20.315339627490605
end
usemtl diffuse_0
v 5.2721193329582867 1.5059511014098488 13.933917352967757
v 5.1283437210934766 5.1283437210934775 16.320653358999806
cstype bspline
deg 1
curv 11.927662761691355 16.26804390626787 153 154
parm u 11.927662761691355 11.927662761691355 16.26804390626787 16.26804390626787
end
usemtl diffuse_0
v 5.4166192546527139 5.4166192546527139 11.535157497219833
v 5.2721193329582867 1.5059511014098488 13.933917352967757
cstype bspline
deg 1
curv 7.3376459340854403 11.927662761691355 155 156
parm u 7.3376459340854403 7.3376459340854403 11.927662761691355 11.927662761691355
end
usemtl diffuse_0
v 5.5599558173290831 1.2181146170390513 9.1557098935313697
v 5.4166192546527139 5.4166192546527139 11.535157497219833
cstype bspline
deg 1
curv 2.5096279700589936 7.3376459340854403 157 158
parm u 2.5096279700589936 2.5096279700589936 7.3376459340854403 7.3376459340854403
end
usemtl diffuse_0
v 5.6356661206016021 3.3890352171840679 7.8988868169025199
v 5.5599558173290831 1.2181146170390513 9.1557098935313697
cstype bspline
deg 1
curv 0 2.5096279700589936 159 160
parm u 0 0 2.5096279700589936 2.5096279700589936
end
usemtl diffuse_0
v 2.1282791820459286 4.649791252322208 24.26482687478282
v 4.5109785137215868 4.5109785137215868 26.569177084229629
cstype bspline
deg 1
curv 29.509946893213439 32.827559735204346 161 162
parm u 29.509946893213439 29.509946893213439 32.827559735204346 32.827559735204346
end
usemtl diffuse_0
v 4.783602035383554 4.783602035383554 22.043511244228181
v 2.1282791820459286 4.649791252322208 24.26482687478282
cstype bspline
deg 1
curv 26.04542846900685 29.509946893213439 163 164
parm u 26.04542846900685 26.04542846900685 29.509946893213439 29.509946893213439
end
usemtl diffuse_0
v 1.8515833953373164 4.9264870390308202 19.671559711532804
v 4.783602035383554 4.783602035383554 22.043511244228181
cstype bspline
deg 1
curv 22.271398328255216 26.04542846900685 165 166
parm u 22.271398328255216 22.271398328255216 26.04542846900685 26.04542846900685
end
usemtl diffuse_0
v 5.0611831123237634 5.0611831123237634 17.435547888458885
v 1.8515833953373164 4.9264870390308202 19.671559711532804
cstype bspline
deg 1
curv 18.357394975118382 22.271398328255216 167 168
parm u 18.357394975118382 18.357394975118382 22.271398328255216 22.271398328255216
end
usemtl diffuse_0
v 1.5769454402060763 5.2011249941620594 15.11245342338783
v 5.0611831123237634 5.0611831123237634 17.435547888458885
cstype bspline
deg 1
curv 14.16737543104221 18.357394975118382 169 170
parm u 14.16737543104221 14.16737543104221 18.357394975118382 18.357394975118382
end
usemtl diffuse_0
v 5.3489033556863461 5.3489033556863461 12.65927007895467
v 1.5769454402060763 5.2011249941620594 15.11245342338783
cstype bspline
deg 1
curv 9.6654188028978059 14.16737543104221 171 172
parm u 9.6654188028978059 9.6654188028978059 14.16737543104221 14.16737543104221
end
usemtl diffuse_0
v 1.2888884794431013 5.4891819549250345 10.330585962530716
v 5.3489033556863461 5.3489033556863461 12.65927007895467
cstype bspline
deg 1
curv 4.9828801116742047 9.6654188028978059 173 174
parm u 4.9828801116742047 4.9828801116742047 9.6654188028978059 9.6654188028978059
end
usemtl diffuse_0
v 5.6356661206016021 5.6356661206016021 7.8988868169025199
v 1.2888884794431013 5.4891819549250345 10.330585962530716
cstype bspline
deg 1
curv 0 4.9828801116742047 175 176
parm u 0 0 4.9828801116742047 4.9828801116742047
end
usemtl diffuse_0
v 4.6497912523222071 4.649791252322208 24.26482687478282
v 2.267091920646549 4.5109785137215868 26.569177084229629
cstype bspline
deg 1
curv 29.509946893213439 32.827559735204346 177 178
parm u 29.509946893213439 29.509946893213439 32.827559735204346 32.827559735204346
end
usemtl diffuse_0
v 1.9944683989845817 4.783602035383554 22.043511244228181
v 4.6497912523222071 4.649791252322208 24.26482687478282
cstype bspline
deg 1
curv 26.04542846900685 29.509946893213439 179 180
parm u 26.04542846900685 26.04542846900685 29.509946893213439 29.509946893213439
end
usemtl diffuse_0
v 4.9264870390308193 4.9264870390308202 19.671559711532804
v 1.9944683989845817 4.783602035383554 22.043511244228181
cstype bspline
deg 1
curv 22.271398328255216 26.04542846900685 181 182
parm u 22.271398328255216 22.271398328255216 26.04542846900685 26.04542846900685
end
usemtl diffuse_0
v 1.7168873220443721 5.0611831123237634 17.435547888458885
v 4.9264870390308193 4.9264870390308202 19.671559711532804
cstype bspline
deg 1
curv 18.357394975118382 22.271398328255216 183 184
parm u 18.357394975118382 18.357394975118382 22.271398328255216 22.271398328255216
end
usemtl diffuse_0
v 5.2011249941620594 5.2011249941620594 15.11245342338783
v 1.7168873220443721 5.0611831123237634 17.435547888458885
cstype bspline
deg 1
curv 14.16737543104221 18.357394975118382 185 186
parm u 14.16737543104221 14.16737543104221 18.357394975118382 18.357394975118382
end
usemtl diffuse_0
v 1.4291670786817892 5.3489033556863461 12.65927007895467
v 5.2011249941620594 5.2011249941620594 15.11245342338783
cstype bspline
deg 1
curv 9.6654188028978059 14.16737543104221 187 188
parm u 9.6654188028978059 9.6654188028978059 14.16737543104221 14.16737543104221
end
usemtl diffuse_0
v 5.4891819549250345 5.4891819549250345 10.330585962530716
v 1.4291670786817892 5.3489033556863461 12.65927007895467
cstype bspline
deg 1
curv 4.9828801116742047 9.6654188028978059 189 190
parm u 4.9828801116742047 4.9828801116742047 9.6654188028978059 9.6654188028978059
end
usemtl diffuse_0
v 1.1424043137665332 5.6356661206016021 7.8988868169025199
v 5.4891819549250345 5.4891819549250345 10.330585962530716
cstype bspline
deg 1
curv 0 4.9828801116742047 191 192
parm u 0 0 4.9828801116742047 4.9828801116742047
end
usemtl diffuse_0
v 2.1282791820459286 2.1282791820459281 24.26482687478282
v 4.5109785137215868 2.267091920646549 26.569177084229629
cstype bspline
deg 1
curv 29.509946893213439 32.827559735204346 193 194
parm u 29.509946893213439 29.509946893213439 32.827559735204346 32.827559735204346
end
usemtl diffuse_0
v 4.783602035383554 1.9944683989845817 22.043511244228181
v 2.1282791820459286 2.1282791820459281 24.26482687478282
cstype bspline
deg 1
curv 26.04542846900685 29.509946893213439 195 196
parm u 26.04542846900685 26.04542846900685 29.509946893213439 29.509946893213439
end
usemtl diffuse_0
v 1.8515833953373164 1.8515833953373158 19.671559711532804
v 4.783602035383554 1.9944683989845817 22.043511244228181
cstype bspline
deg 1
curv 22.271398328255216 26.04542846900685 197 198
parm u 22.271398328255216 22.271398328255216 26.04542846900685 26.04542846900685
end
usemtl diffuse_0
v 5.0611831123237634 1.7168873220443721 17.435547888458885
v 1.8515833953373164 1.8515833953373158 19.671559711532804
cstype bspline
deg 1
curv 18.357394975118382 22.271398328255216 199 200
parm u 18.357394975118382 18.357394975118382 22.271398328255216 22.271398328255216
end
usemtl diffuse_0
v 1.5769454402060763 1.5769454402060763 15.11245342338783
v 5.0611831123237634 1.7168873220443721 17.435547888458885
cstype bspline
deg 1
curv 14.16737543104221 18.357394975118382 201 202
parm u 14.16737543104221 14.16737543104221 18.357394975118382 18.357394975118382
end
usemtl diffuse_0
v 5.3489033556863461 1.4291670786817892 12.65927007895467
v 1.5769454402060763 1.5769454402060763 15.11245342338783
cstype bspline
deg 1
curv 9.6654188028978059 14.16737543104221 203 204
parm u 9.6654188028978059 9.6654188028978059 14.16737543104221 14.16737543104221
end
usemtl diffuse_0
v 1.2888884794431013 1.288888479443101 10.330585962530716
v 5.3489033556863461 1.4291670786817892 12.65927007895467
cstype bspline
deg 1
curv 4.9828801116742047 9.6654188028978059 205 206
parm u 4.9828801116742047 4.9828801116742047 9.6654188028978059 9.6654188028978059
end
usemtl diffuse_0
v 5.6356661206016021 1.1424043137665332 7.8988868169025199
v 1.2888884794431013 1.288888479443101 10.330585962530716
cstype bspline
deg 1
curv 0 4.9828801116742047 207 208
parm u 0 0 4.9828801116742047 4.9828801116742047
end
usemtl diffuse_0
v 4.6497912523222071 2.1282791820459281 24.26482687478282
v 2.267091920646549 2.267091920646549 26.569177084229629
cstype bspline
deg 1
curv 29.509946893213439 32.827559735204346 209 210
parm u 29.509946893213439 29.509946893213439 32.827559735204346 32.827559735204346
end
usemtl diffuse_0
v 1.9944683989845817 1.9944683989845817 22.043511244228181
v 4.6497912523222071 2.1282791820459281 24.26482687478282
cstype bspline
deg 1
curv 26.04542846900685 29.509946893213439 211 212
parm u 26.04542846900685 26.04542846900685 29.509946893213439 29.509946893213439
end
usemtl diffuse_0
v 4.9264870390308193 1.8515833953373158 19.671559711532804
v 1.9944683989845817 1.9944683989845817 22.043511244228181
cstype bspline
deg 1
curv 22.271398328255216 26.04542846900685 213 214
parm u 22.271398328255216 22.271398328255216 26.04542846900685 26.04542846900685
end
usemtl diffuse_0
v 1.7168873220443721 1.7168873220443721 17.435547888458885
v 4.9264870390308193 1.8515833953373158 19.671559711532804
cstype bspline
deg 1
curv 18.357394975118382 22.271398328255216 215 216
parm u 18.357394975118382 18.357394975118382 22.271398328255216 22.271398328255216
end
usemtl diffuse_0
v 5.2011249941620594 1.5769454402060763 15.11245342338783
v 1.7168873220443721 1.7168873220443721 17.435547888458885
cstype bspline
deg 1
curv 14.16737543104221 18.357394975118382 217 218
parm u 14.16737543104221 14.16737543104221 18.357394975118382 18.357394975118382
end
usemtl diffuse_0
v 1.4291670786817892 1.4291670786817892 12.65927007895467
v 5.2011249941620594 1.5769454402060763 15.11245342338783
cstype bspline
deg 1
curv 9.6654188028978059 14.16737543104221 219 220
parm u 9.6654188028978059 9.6654188028978059 14.16737543104221 14.16737543104221
end
usemtl diffuse_0
v 5.4891819549250345 1.288888479443101 10.330585962530716
v 1.4291670786817892 1.4291670786817892 12.65927007895467
cstype bspline
deg 1
curv 4.9828801116742047 9.6654188028978059 221 222
parm u 4.9828801116742047 4.9828801116742047 9.6654188028978059 9.6654188028978059
end
usemtl diffuse_0
v 1.1424043137665332 1.1424043137665332 7.8988868169025199
v 5.4891819549250345 1.288888479443101 10.330585962530716
cstype bspline
deg 1
curv 0 4.9828801116742047 223 224
parm u 0 0 4.9828801116742047 4.9828801116742047
end
usemtl diffuse_0
v 5.9510607413770247 5.9510607413770247 5.7181646486263942
v 1.1424043137665336 5.6356661206016021 7.8988868169025199
cstype bspline
deg 1
curv 2.8430994737454762 8.1325417487707625 225 226
parm u 2.8430994737454762 2.8430994737454762 8.1325417487707625 8.1325417487707625
end
usemtl diffuse_0
v 3.3890352171840683 6.1274904869116842 4.4982825330569494
v 5.9510607413770247 5.9510607413770247 5.7181646486263942
cstype bspline
deg 1
curv 0 2.8430994737454762 227 228
parm u 0 0 2.8430994737454762 2.8430994737454762
end
usemtl diffuse_0
v 0.82700969299111071 5.9510607413770247 5.7181646486263942
v 5.6356661206016021 5.6356661206016021 7.8988868169025199
cstype bspline
deg 1
curv 2.8430994737454762 8.1325417487707625 229 230
parm u 2.8430994737454762 2.8430994737454762 8.1325417487707625 8.1325417487707625
end
usemtl diffuse_0
v 3.3890352171840674 6.1274904869116842 4.4982825330569494
v 0.82700969299111071 5.9510607413770247 5.7181646486263942
cstype bspline
deg 1
curv 0 2.8430994737454762 231 232
parm u 0 0 2.8430994737454762 2.8430994737454762
end
usemtl diffuse_0
v 0.99505020093426833 5.7830202334338683 6.8800413475348163
v 1.1424043137665336 3.3890352171840679 7.8988868169025199
cstype bspline
deg 1
curv 3.3944954063752451 6.0004354638301827 233 234
parm u 3.3944954063752451 3.3944954063752451 6.0004354638301827 6.0004354638301827
end
usemtl diffuse_0
v 0.65057994745645242 3.3890352171840683 4.4982825330569494
v 0.99505020093426833 5.7830202334338683 6.8800413475348163
cstype bspline
deg 1
curv 0 3.3944954063752451 235 236
parm u 0 0 3.3944954063752451 3.3944954063752451
end
usemtl diffuse_0
v 0.99505020093426833 0.9950502009342671 6.8800413475348163
v 1.1424043137665336 3.3890352171840679 7.8988868169025199
cstype bspline
deg 1
curv 3.3944954063752451 6.0004354638301827 237 238
parm u 3.3944954063752451 3.3944954063752451 6.0004354638301827 6.0004354638301827
end
usemtl diffuse_0
v 0.65057994745645242 3.3890352171840674 4.4982825330569494
v 0.99505020093426833 0.9950502009342671 6.8800413475348163
cstype bspline
deg 1
curv 0 3.3944954063752451 239 240
parm u 0 0 3.3944954063752451 3.3944954063752451
end
usemtl diffuse_0
v 5.7830202334338674 5.7830202334338683 6.8800413475348163
v 5.6356661206016021 3.3890352171840679 7.8988868169025199
cstype bspline
deg 1
curv 3.3944954063752451 6.0004354638301827 241 242
parm u 3.3944954063752451 3.3944954063752451 6.0004354638301827 6.0004354638301827
end
usemtl diffuse_0
v 6.1274904869116833 3.3890352171840683 4.4982825330569494
v 5.7830202334338674 5.7830202334338683 6.8800413475348163
cstype bspline
deg 1
curv 0 3.3944954063752451 243 244
parm u 0 0 3.3944954063752451 3.3944954063752451
end
usemtl diffuse_0
v 5.7830202334338674 0.9950502009342671 6.8800413475348163
v 5.6356661206016021 3.3890352171840679 7.8988868169025199
cstype bspline
deg 1
curv 3.3944954063752451 6.0004354638301827 245 246
parm u 3.3944954063752451 3.3944954063752451 6.0004354638301827 6.0004354638301827
end
usemtl diffuse_0
v 6.1274904869116833 3.3890352171840674 4.4982825330569494
v 5.7830202334338674 0.9950502009342671 6.8800413475348163
cstype bspline
deg 1
curv 0 3.3944954063752451 247 248
parm u 0 0 3.3944954063752451 3.3944954063752451
end
usemtl diffuse_0
v 5.9510607413770247 0.82700969299111071 5.7181646486263942
v 1.1424043137665336 1.1424043137665332 7.8988868169025199
cstype bspline
deg 1
curv 2.8430994737454762 8.1325417487707625 249 250
parm u 2.8430994737454762 2.8430994737454762 8.1325417487707625 8.1325417487707625
end
usemtl diffuse_0
v 3.3890352171840683 0.65057994745645154 4.4982825330569494
v 5.9510607413770247 0.82700969299111071 5.7181646486263942
cstype bspline
deg 1
curv 0 2.8430994737454762 251 252
parm u 0 0 2.8430994737454762 2.8430994737454762
end
usemtl diffuse_0
v 0.82700969299111071 0.82700969299111071 5.7181646486263942
v 5.6356661206016021 1.1424043137665332 7.8988868169025199
cstype bspline
deg 1
curv 2.8430994737454762 8.1325417487707625 253 254
parm u 2.8430994737454762 2.8430994737454762 8.1325417487707625 8.1325417487707625
end
usemtl diffuse_0
v 3.3890352171840674 0.65057994745645154 4.4982825330569494
v 0.82700969299111071 0.82700969299111071 5.7181646486263942
cstype bspline
deg 1
curv 0 2.8430994737454762 255 256
parm u 0 0 2.8430994737454762 2.8430994737454762
end
usemtl diffuse_0
v 0.65057994745645154 3.3890352171840674 4.4982825330569494
v 0 6.7780704343681348 0
cstype bspline
deg 1
curv 5.6695114179752331 11.339022835950466 257 258
parm u 5.6695114179752331 5.6695114179752331 11.339022835950466 11.339022835950466
end
usemtl diffuse_0
v 0 0 0
v 0.65057994745645154 3.3890352171840674 4.4982825330569494
cstype bspline
deg 1
curv 0 5.6695114179752331 259 260
parm u 0 0 5.6695114179752331 5.6695114179752331
end
usemtl diffuse_0
v 6.1274904869116833 3.3890352171840674 4.4982825330569494
v 6.7780704343681348 6.7780704343681348 0
cstype bspline
deg 1
curv 5.6695114179752331 11.339022835950466 261 262
parm u 5.6695114179752331 5.6695114179752331 11.339022835950466 11.339022835950466
end
usemtl diffuse_0
v 6.7780704343681348 0 0
v 6.1274904869116833 3.3890352171840674 4.4982825330569494
cstype bspline
deg 1
curv 0 5.6695114179752331 263 264
parm u 0 0 5.6695114179752331 5.6695114179752331
end
usemtl diffuse_0
v 3.3890352171840674 6.1274904869116833 4.4982825330569494
v 6.7780704343681348 6.7780704343681348 0
cstype bspline
deg 1
curv 5.6695114179752331 11.339022835950466 265 266
parm u 5.6695114179752331 5.6695114179752331 11.339022835950466 11.339022835950466
end
usemtl diffuse_0
v 0 6.7780704343681348 0
v 3.3890352171840674 6.1274904869116833 4.4982825330569494
cstype bspline
deg 1
curv 0 5.6695114179752331 267 268
parm u 0 0 5.6695114179752331 5.6695114179752331
end
usemtl diffuse_0
v 3.3890352171840674 0.65057994745645154 4.4982825330569494
v 6.7780704343681348 0 0
cstype bspline
deg 1
curv 5.6695114179752331 11.339022835950466 269 270
parm u 5.6695114179752331 5.6695114179752331 11.339022835950466 11.339022835950466
end
usemtl diffuse_0
v 0 0 0
v 3.3890352171840674 0.65057994745645154 4.4982825330569494
cstype bspline
deg 1
curv 0 5.6695114179752331 271 272
parm u 0 0 5.6695114179752331 5.6695114179752331
end
usemtl diffuse_0
v 0.65057994745645154 6.1274904869116833 4.4982825330569494
v 0.65057994745645154 0.65057994745645154 4.4982825330569494
cstype bspline
deg 1
curv 20.334211303104404 27.112281737472539 273 274
parm u 20.334211303104404 20.334211303104404 27.112281737472539 27.112281737472539
end
usemtl diffuse_0
v 6.1274904869116833 6.1274904869116833 4.4982825330569494
v 0.65057994745645154 6.1274904869116833 4.4982825330569494
cstype bspline
deg 1
curv 13.55614086873627 20.334211303104404 275 276
parm u 13.55614086873627 13.55614086873627 20.334211303104404 20.334211303104404
end
usemtl diffuse_0
v 6.1274904869116833 0.65057994745645154 4.4982825330569494
v 6.1274904869116833 6.1274904869116833 4.4982825330569494
cstype bspline
deg 1
curv 6.7780704343681348 13.55614086873627 277 278
parm u 6.7780704343681348 6.7780704343681348 13.55614086873627 13.55614086873627
end
usemtl diffuse_0
v 0.65057994745645154 0.65057994745645154 4.4982825330569494
v 6.1274904869116833 0.65057994745645154 4.4982825330569494
cstype bspline
deg 1
curv 0 6.7780704343681348 279 280
parm u 0 0 6.7780704343681348 6.7780704343681348
end
usemtl diffuse_0
v 2.4361115773810318 4.3419588569871035 32.371971450256723
v 2.4361115773810318 2.4361115773810318 32.371971450256723
cstype bspline
deg 1
curv 20.334211303104404 27.112281737472539 281 282
parm u 20.334211303104404 20.334211303104404 27.112281737472539 27.112281737472539
end
usemtl diffuse_0
v 4.3419588569871035 4.3419588569871035 32.371971450256723
v 2.4361115773810318 4.3419588569871035 32.371971450256723
cstype bspline
deg 1
curv 13.55614086873627 20.334211303104404 283 284
parm u 13.55614086873627 13.55614086873627 20.334211303104404 20.334211303104404
end
usemtl diffuse_0
v 4.3419588569871035 2.4361115773810318 32.371971450256723
v 4.3419588569871035 4.3419588569871035 32.371971450256723
cstype bspline
deg 1
curv 6.7780704343681348 13.55614086873627 285 286
parm u 6.7780704343681348 6.7780704343681348 13.55614086873627 13.55614086873627
end
usemtl diffuse_0
v 2.4361115773810318 2.4361115773810318 32.371971450256723
v 4.3419588569871035 2.4361115773810318 32.371971450256723
cstype bspline
deg 1
curv 0 6.7780704343681348 287 288
parm u 0 0 6.7780704343681348 6.7780704343681348
end
usemtl diffuse_0
v 2.4000382921470731 4.3780321422210626 28.57408417380703
v 2.4000382921470731 2.4000382921470731 28.57408417380703
cstype bspline
deg 1
curv 20.334211303104404 27.112281737472539 289 290
parm u 20.334211303104404 20.334211303104404 27.112281737472539 27.112281737472539
end
usemtl diffuse_0
v 4.3780321422210626 4.3780321422210626 28.57408417380703
v 2.4000382921470731 4.3780321422210626 28.57408417380703
cstype bspline
deg 1
curv 13.55614086873627 20.334211303104404 291 292
parm u 13.55614086873627 13.55614086873627 20.334211303104404 20.334211303104404
end
usemtl diffuse_0
v 4.3780321422210626 2.4000382921470731 28.57408417380703
v 4.3780321422210626 4.3780321422210626 28.57408417380703
cstype bspline
deg 1
curv 6.7780704343681348 13.55614086873627 293 294
parm u 6.7780704343681348 6.7780704343681348 13.55614086873627 13.55614086873627
end
usemtl diffuse_0
v 2.4000382921470731 2.4000382921470731 28.57408417380703
v 4.3780321422210626 2.4000382921470731 28.57408417380703
cstype bspline
deg 1
curv 0 6.7780704343681348 295 296
parm u 0 0 6.7780704343681348 6.7780704343681348
end
usemtl diffuse_0
v 2.267091920646549 4.5109785137215868 26.569177084229629
v 2.267091920646549 2.267091920646549 26.569177084229629
cstype bspline
deg 1
curv 20.334211303104404 27.112281737472539 297 298
parm u 20.334211303104404 20.334211303104404 27.112281737472539 27.112281737472539
end
usemtl diffuse_0
v 4.5109785137215868 4.5109785137215868 26.569177084229629
v 2.267091920646549 4.5109785137215868 26.569177084229629
cstype bspline
deg 1
curv 13.55614086873627 20.334211303104404 299 300
parm u 13.55614086873627 13.55614086873627 20.334211303104404 20.334211303104404
end
usemtl diffuse_0
v 4.5109785137215868 2.267091920646549 26.569177084229629
v 4.5109785137215868 4.5109785137215868 26.569177084229629
cstype bspline
deg 1
curv 6.7780704343681348 13.55614086873627 301 302
parm u 6.7780704343681348 6.7780704343681348 13.55614086873627 13.55614086873627
end
usemtl diffuse_0
v 2.267091920646549 2.267091920646549 26.569177084229629
v 4.5109785137215868 2.267091920646549 26.569177084229629
cstype bspline
deg 1
curv 0 6.7780704343681348 303 304
parm u 0 0 6.7780704343681348 6.7780704343681348
end
usemtl diffuse_0
v 1.1424043137665332 5.6356661206016021 7.8988868169025199
v 1.1424043137665332 1.1424043137665332 7.8988868169025199
cstype bspline
deg 1
curv 20.334211303104404 27.112281737472539 305 306
parm u 20.334211303104404 20.334211303104404 27.112281737472539 27.112281737472539
end
usemtl diffuse_0
v 5.6356661206016021 5.6356661206016021 7.8988868169025199
v 1.1424043137665332 5.6356661206016021 7.8988868169025199
cstype bspline
deg 1
curv 13.55614086873627 20.334211303104404 307 308
parm u 13.55614086873627 13.55614086873627 20.334211303104404 20.334211303104404
end
usemtl diffuse_0
v 5.6356661206016021 1.1424043137665332 7.8988868169025199
v 5.6356661206016021 5.6356661206016021 7.8988868169025199
cstype bspline
deg 1
curv 6.7780704343681348 13.55614086873627 309 310
parm u 6.7780704343681348 6.7780704343681348 13.55614086873627 13.55614086873627
end
usemtl diffuse_0
v 1.1424043137665332 1.1424043137665332 7.8988868169025199
v 5.6356661206016021 1.1424043137665332 7.8988868169025199
cstype bspline
deg 1
curv 0 6.7780704343681348 311 312
parm u 0 0 6.7780704343681348 6.7780704343681348
end
usemtl diffuse_0
v 2.4361115773810322 2.4361115773810318 34.52779792100209
v 4.3419588569871035 2.4361115773810318 34.52779792100209
cstype bspline
deg 1
curv 0 1.9058472796060713 313 314
parm u 0 0 1.9058472796060713 1.9058472796060713
end
usemtl diffuse_0
v 2.4361115773810322 4.3419588569871035 34.52779792100209
v 4.3419588569871035 4.3419588569871035 34.52779792100209
cstype bspline
deg 1
curv 0 1.9058472796060713 315 316
parm u 0 0 1.9058472796060713 1.9058472796060713
end
usemtl diffuse_0
v 12.198903526684644 3.9451714924878738 34.52779792100209
v 12.198903526684644 2.8328989418802619 34.52779792100209
cstype bspline
deg 1
curv 0 1.1122725506076119 317 318
parm u 0 0 1.1122725506076119 1.1122725506076119
end
usemtl diffuse_0
v 4.3419588569871035 4.3419588569871035 32.371971450256723
v 8.07167097366181 4.2534203618553228 32.371971450256723
cstype bspline
deg 1
curv 0 3.7297121166747051 319 320
parm u 0 0 3.7297121166747051 3.7297121166747051
end
usemtl diffuse_0
v 12.198903526684644 3.9451714924878738 34.52779792100209
v 8.07167097366181 4.2534203618553228 32.371971450256723
cstype bspline
deg 1
curv 0 4.6732297751473828 321 322
parm u 0 0 4.6732297751473828 4.6732297751473828
end
usemtl diffuse_0
v 4.3419588569871035 4.3419588569871035 34.52779792100209
v 12.198903526684644 3.9451714924878738 34.52779792100209
cstype bspline
deg 1
curv 0 3.7297121166747051 323 324
parm u 0 0 3.7297121166747051 3.7297121166747051
end
usemtl diffuse_0
v 4.3419588569871035 2.4361115773810322 32.371971450256723
v 8.07167097366181 2.5246500725128129 32.371971450256723
cstype bspline
deg 1
curv 0 3.7297121166747051 325 326
parm u 0 0 3.7297121166747051 3.7297121166747051
end
usemtl diffuse_0
v 12.198903526684644 2.8328989418802619 34.52779792100209
v 8.07167097366181 2.5246500725128129 32.371971450256723
cstype bspline
deg 1
curv 0 4.6732297751473828 327 328
parm u 0 0 4.6732297751473828 4.6732297751473828
end
usemtl diffuse_0
v 4.3419588569871035 2.4361115773810318 34.52779792100209
v 12.198903526684644 2.8328989418802619 34.52779792100209
cstype bspline
deg 1
curv 0 3.7297121166747051 329 330
parm u 0 0 3.7297121166747051 3.7297121166747051
end
usemtl diffuse_0
v -5.4208330923165082 3.9451714924878738 34.52779792100209
v -5.4208330923165082 2.8328989418802619 34.52779792100209
cstype bspline
deg 1
curv 0 1.1122725506076119 331 332
parm u 0 0 1.1122725506076119 1.1122725506076119
end
usemtl diffuse_0
v 2.4361115773810318 4.3419588569871035 32.371971450256723
v -1.2936005392936734 4.2534203618553228 32.371971450256723
cstype bspline
deg 1
curv 0 3.7297121166747051 333 334
parm u 0 0 3.7297121166747051 3.7297121166747051
end
usemtl diffuse_0
v -5.4208330923165082 3.9451714924878738 34.52779792100209
v -1.2936005392936734 4.2534203618553228 32.371971450256723
cstype bspline
deg 1
curv 0 4.6732297751473828 335 336
parm u 0 0 4.6732297751473828 4.6732297751473828
end
usemtl diffuse_0
v 2.4361115773810322 4.3419588569871035 34.52779792100209
v -5.4208330923165082 3.9451714924878738 34.52779792100209
cstype bspline
deg 1
curv 0 3.7297121166747051 337 338
parm u 0 0 3.7297121166747051 3.7297121166747051
end
usemtl diffuse_0
v 2.4361115773810318 2.4361115773810322 32.371971450256723
v -1.2936005392936734 2.5246500725128129 32.371971450256723
cstype bspline
deg 1
curv 0 3.7297121166747051 339 340
parm u 0 0 3.7297121166747051 3.7297121166747051
end
usemtl diffuse_0
v -5.4208330923165082 2.8328989418802619 34.52779792100209
v -1.2936005392936734 2.5246500725128129 32.371971450256723
cstype bspline
deg 1
curv 0 4.6732297751473828 341 342
parm u 0 0 4.6732297751473828 4.6732297751473828
end
usemtl diffuse_0
v 2.4361115773810322 2.4361115773810318 34.52779792100209
v -5.4208330923165082 2.8328989418802619 34.52779792100209
cstype bspline
deg 1
curv 0 3.7297121166747051 343 344
parm u 0 0 3.7297121166747051 3.7297121166747051
end
usemtl diffuse_0
v 4.3780321422210617 2.4000382921470731 28.574084173807034
v 12.739661878672722 2.7944852090696557 26.569177084229636
cstype bspline
deg 1
curv 0 8.6076763796985354 345 346
parm u 0 0 8.6076763796985354 8.6076763796985354
end
usemtl diffuse_0
v 12.739661878672722 3.98358522529848 26.569177084229636
v 4.3780321422210617 4.3780321422210626 28.574084173807034
cstype bspline
deg 1
curv 0 8.6076763796985354 347 348
parm u 0 0 8.6076763796985354 8.6076763796985354
end
usemtl diffuse_0
v 12.739661878672722 3.98358522529848 26.569177084229636
v 12.739661878672722 2.7944852090696557 26.569177084229636
cstype bspline
deg 1
curv 0 1.1891000162288243 349 350
parm u 0 0 1.1891000162288243 1.1891000162288243
end
usemtl diffuse_0
v 4.5109785137215876 4.5109785137215868 26.569177084229633
v 12.739661878672722 3.98358522529848 26.569177084229636
cstype bspline
deg 1
curv 0 8.2455669059984764 351 352
parm u 0 0 8.2455669059984764 8.2455669059984764
end
usemtl diffuse_0
v 4.5109785137215876 2.267091920646549 26.569177084229633
v 12.739661878672722 2.7944852090696557 26.569177084229636
cstype bspline
deg 1
curv 0 8.2455669059984764 353 354
parm u 0 0 8.2455669059984764 8.2455669059984764
end
usemtl diffuse_0
v 2.4000382921470731 2.4000382921470731 28.57408417380703
v -5.9615914443045863 2.7944852090696557 26.569177084229629
cstype bspline
deg 1
curv 0 8.6076763796985354 355 356
parm u 0 0 8.6076763796985354 8.6076763796985354
end
usemtl diffuse_0
v -5.9615914443045863 3.98358522529848 26.569177084229629
v 2.4000382921470731 4.3780321422210626 28.57408417380703
cstype bspline
deg 1
curv 0 8.6076763796985354 357 358
parm u 0 0 8.6076763796985354 8.6076763796985354
end
usemtl diffuse_0
v -5.9615914443045863 3.98358522529848 26.569177084229629
v -5.9615914443045863 2.7944852090696557 26.569177084229629
cstype bspline
deg 1
curv 0 1.1891000162288243 359 360
parm u 0 0 1.1891000162288243 1.1891000162288243
end
usemtl diffuse_0
v 2.267091920646549 4.5109785137215868 26.569177084229629
v -5.9615914443045863 3.98358522529848 26.569177084229629
cstype bspline
deg 1
curv 0 8.2455669059984764 361 362
parm u 0 0 8.2455669059984764 8.2455669059984764
end
usemtl diffuse_0
v 2.267091920646549 2.267091920646549 26.569177084229629
v -5.9615914443045863 2.7944852090696557 26.569177084229629
cstype bspline
deg 1
curv 0 8.2455669059984764 363 364
parm u 0 0 8.2455669059984764 8.2455669059984764
end
usemtl diffuse_0
v 4.3780321422210626 4.3780321422210626 28.57408417380703
v 4.3419588569871035 4.3419588569871035 32.371971450256723
cstype bspline
deg 1
curv 0 3.7982298940998303 365 366
parm u 0 0 3.7982298940998303 3.7982298940998303
end
usemtl diffuse_0
v 4.3419588569871035 2.4361115773810318 32.371971450256723
v 4.3780321422210626 2.4000382921470731 28.57408417380703
cstype bspline
deg 1
curv 0 3.7982298940998303 367 368
parm u 0 0 3.7982298940998303 3.7982298940998303
end
usemtl diffuse_0
v 2.4361115773810318 2.4361115773810318 32.371971450256723
v 2.4000382921470731 2.4000382921470731 28.57408417380703
cstype bspline
deg 1
curv 0 3.7982298940998303 369 370
parm u 0 0 3.7982298940998303 3.7982298940998303
end
usemtl diffuse_0
v 2.4000382921470731 4.3780321422210626 28.57408417380703
v 2.4361115773810318 4.3419588569871035 32.371971450256723
cstype bspline
deg 1
curv 0 3.7982298940998303 371 372
parm u 0 0 3.7982298940998303 3.7982298940998303
end
usemtl diffuse_0
v 4.3780321422210626 4.3780321422210626 28.57408417380703
v 4.5109785137215868 4.5109785137215868 26.569177084229629
cstype bspline
deg 1
curv 0 2.0137035316123462 373 374
parm u 0 0 2.0137035316123462 2.0137035316123462
end
usemtl diffuse_0
v 4.3780321422210626 2.4000382921470731 28.57408417380703
v 4.5109785137215868 2.267091920646549 26.569177084229629
cstype bspline
deg 1
curv 0 2.0137035316123462 375 376
parm u 0 0 2.0137035316123462 2.0137035316123462
end
usemtl diffuse_0
v 2.4000382921470731 2.4000382921470731 28.57408417380703
v 2.267091920646549 2.267091920646549 26.569177084229629
cstype bspline
deg 1
curv 0 2.0137035316123462 377 378
parm u 0 0 2.0137035316123462 2.0137035316123462
end
usemtl diffuse_0
v 2.267091920646549 4.5109785137215868 26.569177084229629
v 2.4000382921470731 4.3780321422210626 28.57408417380703
cstype bspline
deg 1
curv 0 2.0137035316123462 379 380
parm u 0 0 2.0137035316123462 2.0137035316123462
end
usemtl diffuse_0
v 4.5109785137215868 4.5109785137215868 26.569177084229629
v 5.6356661206016021 5.6356661206016021 7.8988868169025199
cstype bspline
deg 1
curv 0 18.737918323346072 381 382
parm u 0 0 18.737918323346072 18.737918323346072
end
usemtl diffuse_0
v 4.5109785137215868 2.267091920646549 26.569177084229629
v 5.6356661206016021 1.1424043137665332 7.8988868169025199
cstype bspline
deg 1
curv 0 18.737918323346072 383 384
parm u 0 0 18.737918323346072 18.737918323346072
end
usemtl diffuse_0
v 2.267091920646549 2.267091920646549 26.569177084229629
v 1.1424043137665332 1.1424043137665332 7.8988868169025199
cstype bspline
deg 1
curv 0 18.737918323346072 385 386
parm u 0 0 18.737918323346072 18.737918323346072
end
usemtl diffuse_0
v 1.1424043137665332 5.6356661206016021 7.8988868169025199
v 2.267091920646549 4.5109785137215868 26.569177084229629
cstype bspline
deg 1
curv 0 18.737918323346072 387 388
parm u 0 0 18.737918323346072 18.737918323346072
end
usemtl diffuse_0
v 5.6356661206016021 5.6356661206016021 7.8988868169025199
v 6.7780704343681348 6.7780704343681348 0
cstype bspline
deg 1
curv 0 8.0624182587150113 389 390
parm u 0 0 8.0624182587150113 8.0624182587150113
end
usemtl diffuse_0
v 5.6356661206016021 1.1424043137665332 7.8988868169025199
v 6.7780704343681348 0 0
cstype bspline
deg 1
curv 0 8.0624182587150113 391 392
parm u 0 0 8.0624182587150113 8.0624182587150113
end
usemtl diffuse_0
v 1.1424043137665332 1.1424043137665332 7.8988868169025199
v 0 0 0
cstype bspline
deg 1
curv 0 8.0624182587150113 393 394
parm u 0 0 8.0624182587150113 8.0624182587150113
end
usemtl diffuse_0
v 0 6.7780704343681348 0
v 1.1424043137665332 5.6356661206016021 7.8988868169025199
cstype bspline
deg 1
curv 0 8.0624182587150113 395 396
parm u 0 0 8.0624182587150113 8.0624182587150113
end
