# Rhino

mtllib pylon3_lines.mtl
usemtl diffuse_0
v 8.0904234141669686 2.1584555879320821 27.709875609843497
v 3.551232632788266 2.3646694620083819 28.432366019786233
cstype bspline
deg 1
curv 2.4270827296082933 7.0280358378320864 1 2
parm u 2.4270827296082933 2.4270827296082933 7.0280358378320864 7.0280358378320864
end
usemtl diffuse_0
v 10.506725713966098 2.0101546626599482 27.536034855382074
v 8.0904234141669686 2.1584555879320821 27.709875609843497
cstype bspline
deg 1
curv 0 2.4270827296082933 3 4
parm u 0 0 2.4270827296082933 2.4270827296082933
end
usemtl diffuse_0
v 8.0904234141669686 1.3943070746493396 27.709875609843497
v 3.551232632788266 1.1880932005730398 28.432366019786233
cstype bspline
deg 1
curv 2.4270827296082933 7.0280358378320864 5 6
parm u 2.4270827296082933 2.4270827296082933 7.0280358378320864 7.0280358378320864
end
usemtl diffuse_0
v 10.506725713966098 1.5426079999214737 27.536034855382074
v 8.0904234141669686 1.3943070746493396 27.709875609843497
cstype bspline
deg 1
curv 0 2.4270827296082933 7 8
parm u 0 0 2.4270827296082933 2.4270827296082933
end
usemtl diffuse_0
v -2.1912406810129479 2.1584555879320821 27.709875609843497
v 2.3479501003657548 2.3646694620083819 28.432366019786233
cstype bspline
deg 1
curv 2.4270827296082933 7.0280358378320864 9 10
parm u 2.4270827296082933 2.4270827296082933 7.0280358378320864 7.0280358378320864
end
usemtl diffuse_0
v -4.6075429808120765 2.0101546626599482 27.536034855382074
v -2.1912406810129479 2.1584555879320821 27.709875609843497
cstype bspline
deg 1
curv 0 2.4270827296082933 11 12
parm u 0 0 2.4270827296082933 2.4270827296082933
end
usemtl diffuse_0
v -2.1912406810129479 1.3943070746493396 27.709875609843497
v 2.3479501003657548 1.1880932005730398 28.432366019786233
cstype bspline
deg 1
curv 2.4270827296082933 7.0280358378320864 13 14
parm u 2.4270827296082933 2.4270827296082933 7.0280358378320864 7.0280358378320864
end
usemtl diffuse_0
v -4.6075429808120765 1.5426079999214737 27.536034855382074
v -2.1912406810129479 1.3943070746493396 27.709875609843497
cstype bspline
deg 1
curv 0 2.4270827296082933 15 16
parm u 0 0 2.4270827296082933 2.4270827296082933
end
usemtl diffuse_0
v 5.1739976631919387 1.7763813312907115 8.0441079404115836
v 2.9495913665770104 3.2739760695868769 8.0441079404115836
cstype bspline
deg 1
curv 8.0446852240055051 10.726246965340675 17 18
parm u 8.0446852240055051 8.0446852240055051 10.726246965340675 10.726246965340675
end
usemtl diffuse_0
v 2.9495913665770104 0.27878659299454511 8.0441079404115836
v 5.1739976631919387 1.7763813312907115 8.0441079404115836
cstype bspline
deg 1
curv 5.3631234826703365 8.0446852240055051 19 20
parm u 5.3631234826703365 5.3631234826703365 8.0446852240055051 8.0446852240055051
end
usemtl diffuse_0
v 0.72518506996208254 1.7763813312907115 8.0441079404115836
v 2.9495913665770104 0.27878659299454511 8.0441079404115836
cstype bspline
deg 1
curv 2.6815617413351678 5.3631234826703365 21 22
parm u 2.6815617413351678 2.6815617413351678 5.3631234826703365 5.3631234826703365
end
usemtl diffuse_0
v 2.9495913665770104 3.2739760695868769 8.0441079404115836
v 0.72518506996208254 1.7763813312907115 8.0441079404115836
cstype bspline
deg 1
curv 0 2.6815617413351678 23 24
parm u 0 0 2.6815617413351678 2.6815617413351678
end
usemtl diffuse_0
v 3.5512326327882664 1.1880932005730398 28.432366019786233
v 3.6676512129786678 2.42990391199262 26.969694583265422
cstype bspline
deg 1
curv 5.8644723755580817 7.786724924008416 25 26
parm u 5.8644723755580817 5.8644723755580817 7.786724924008416 7.786724924008416
end
usemtl diffuse_0
v 2.2315315201753538 1.1228587505888017 26.969694583265422
v 3.5512326327882664 1.1880932005730398 28.432366019786233
cstype bspline
deg 1
curv 3.893362462004208 5.8644723755580817 27 28
parm u 3.893362462004208 3.893362462004208 5.8644723755580817 5.8644723755580817
end
usemtl diffuse_0
v 2.3479501003657548 2.3646694620083819 28.432366019786233
v 2.2315315201753538 1.1228587505888017 26.969694583265422
cstype bspline
deg 1
curv 1.9711099135538737 3.893362462004208 29 30
parm u 1.9711099135538737 1.9711099135538737 3.893362462004208 3.893362462004208
end
usemtl diffuse_0
v 3.6676512129786678 2.42990391199262 26.969694583265422
v 2.3479501003657548 2.3646694620083819 28.432366019786233
cstype bspline
deg 1
curv 0 1.9711099135538737 31 32
parm u 0 0 1.9711099135538737 1.9711099135538737
end
usemtl diffuse_0
v 3.6676512129786678 1.1228587505888017 26.969694583265422
v 3.5512326327882664 2.3646694620083819 28.432366019786233
cstype bspline
deg 1
curv 5.8644723755580817 7.786724924008416 33 34
parm u 5.8644723755580817 5.8644723755580817 7.786724924008416 7.786724924008416
end
usemtl diffuse_0
v 2.3479501003657548 1.1880932005730398 28.432366019786233
v 3.6676512129786678 1.1228587505888017 26.969694583265422
cstype bspline
deg 1
curv 3.893362462004208 5.8644723755580817 35 36
parm u 3.893362462004208 3.893362462004208 5.8644723755580817 5.8644723755580817
end
usemtl diffuse_0
v 2.2315315201753538 2.42990391199262 26.969694583265422
v 2.3479501003657548 1.1880932005730398 28.432366019786233
cstype bspline
deg 1
curv 1.9711099135538732 3.893362462004208 37 38
parm u 1.9711099135538732 1.9711099135538732 3.893362462004208 3.893362462004208
end
usemtl diffuse_0
v 3.5512326327882664 2.3646694620083819 28.432366019786233
v 2.2315315201753538 2.42990391199262 26.969694583265422
cstype bspline
deg 1
curv 0 1.9711099135538732 39 40
parm u 0 0 1.9711099135538732 1.9711099135538732
end
usemtl diffuse_0
v 3.754901262334144 1.7763813312907109 25.873493660538415
v 3.6676512129786678 1.1228587505888017 26.969694583265422
cstype bspline
deg 1
curv 6.4603231542429036 7.7395263427893362 41 42
parm u 6.4603231542429036 6.4603231542429036 7.7395263427893362 7.7395263427893362
end
usemtl diffuse_0
v 3.6676512129786678 2.42990391199262 26.969694583265422
v 3.754901262334144 1.7763813312907109 25.873493660538415
cstype bspline
deg 1
curv 5.1811199656964719 6.4603231542429036 43 44
parm u 5.1811199656964719 5.1811199656964719 6.4603231542429036 6.4603231542429036
end
usemtl diffuse_0
v 2.9495913665770108 2.4787939514647848 25.873493660538415
v 3.6676512129786678 2.42990391199262 26.969694583265422
cstype bspline
deg 1
curv 3.8697631713946681 5.1811199656964719 45 46
parm u 3.8697631713946681 3.8697631713946681 5.1811199656964719 5.1811199656964719
end
usemtl diffuse_0
v 2.2315315201753538 2.42990391199262 26.969694583265422
v 2.9495913665770108 2.4787939514647848 25.873493660538415
cstype bspline
deg 1
curv 2.5584063770928642 3.8697631713946681 47 48
parm u 2.5584063770928642 2.5584063770928642 3.8697631713946681 3.8697631713946681
end
usemtl diffuse_0
v 2.1442814708198776 1.7763813312907109 25.873493660538415
v 2.2315315201753538 2.42990391199262 26.969694583265422
cstype bspline
deg 1
curv 1.2792031885464321 2.5584063770928642 49 50
parm u 1.2792031885464321 1.2792031885464321 2.5584063770928642 2.5584063770928642
end
usemtl diffuse_0
v 2.2315315201753538 1.1228587505888017 26.969694583265422
v 2.1442814708198776 1.7763813312907109 25.873493660538415
cstype bspline
deg 1
curv 0 1.2792031885464321 51 52
parm u 0 0 1.2792031885464321 1.2792031885464321
end
usemtl diffuse_0
v 2.9495913665770108 1.0739687111166369 25.873493660538415
v 3.6676512129786678 1.1228587505888017 26.969694583265422
cstype bspline
deg 1
curv 1.3113567943018039 2.6227135886036077 53 54
parm u 1.3113567943018039 1.3113567943018039 2.6227135886036077 2.6227135886036077
end
usemtl diffuse_0
v 2.2315315201753538 1.1228587505888017 26.969694583265422
v 2.9495913665770108 1.0739687111166369 25.873493660538415
cstype bspline
deg 1
curv 0 1.3113567943018039 55 56
parm u 0 0 1.3113567943018039 1.3113567943018039
end
usemtl diffuse_0
v 3.848124336473087 1.0217317231947107 24.702248249842913
v 3.754901262334144 1.7763813312907109 25.873493660538415
cstype bspline
deg 1
curv 4.2505309793891159 5.6469558375990498 57 58
parm u 4.2505309793891159 4.2505309793891159 5.6469558375990498 5.6469558375990498
end
usemtl diffuse_0
v 3.94422291508321 1.7763813312907109 23.494875287611364
v 3.848124336473087 1.0217317231947107 24.702248249842913
cstype bspline
deg 1
curv 2.8234779187995249 4.2505309793891159 59 60
parm u 2.8234779187995249 2.8234779187995249 4.2505309793891159 4.2505309793891159
end
usemtl diffuse_0
v 3.848124336473087 2.531030939386711 24.702248249842913
v 3.94422291508321 1.7763813312907109 23.494875287611364
cstype bspline
deg 1
curv 1.3964248582099341 2.8234779187995249 61 62
parm u 1.3964248582099341 1.3964248582099341 2.8234779187995249 2.8234779187995249
end
usemtl diffuse_0
v 3.754901262334144 1.7763813312907109 25.873493660538415
v 3.848124336473087 2.531030939386711 24.702248249842913
cstype bspline
deg 1
curv 0 1.3964248582099341 63 64
parm u 0 0 1.3964248582099341 1.3964248582099341
end
usemtl diffuse_0
v 2.0510583966809346 1.0217317231947107 24.702248249842913
v 1.9549598180708119 1.7763813312907109 23.494875287611364
cstype bspline
deg 1
curv 4.2199027770094588 5.6469558375990498 65 66
parm u 4.2199027770094588 4.2199027770094588 5.6469558375990498 5.6469558375990498
end
usemtl diffuse_0
v 2.1442814708198776 1.7763813312907109 25.873493660538415
v 2.0510583966809346 1.0217317231947107 24.702248249842913
cstype bspline
deg 1
curv 2.8234779187995249 4.2199027770094588 67 68
parm u 2.8234779187995249 2.8234779187995249 4.2199027770094588 4.2199027770094588
end
usemtl diffuse_0
v 2.0510583966809346 2.531030939386711 24.702248249842913
v 2.1442814708198776 1.7763813312907109 25.873493660538415
cstype bspline
deg 1
curv 1.4270530605895908 2.8234779187995249 69 70
parm u 1.4270530605895908 1.4270530605895908 2.8234779187995249 2.8234779187995249
end
usemtl diffuse_0
v 1.9549598180708119 1.7763813312907109 23.494875287611364
v 2.0510583966809346 2.531030939386711 24.702248249842913
cstype bspline
deg 1
curv 0 1.4270530605895908 71 72
parm u 0 0 1.4270530605895908 1.4270530605895908
end
usemtl diffuse_0
v 3.848124336473087 2.531030939386711 24.702248249842913
v 2.9495913665770108 2.4787939514647848 25.873493660538415
cstype bspline
deg 1
curv 1.5059915680282454 2.9831191904673804 73 74
parm u 1.5059915680282454 1.5059915680282454 2.9831191904673804 2.9831191904673804
end
usemtl diffuse_0
v 2.9495913665770108 2.5848791989140616 23.494875287611364
v 3.848124336473087 2.531030939386711 24.702248249842913
cstype bspline
deg 1
curv 0 1.5059915680282454 75 76
parm u 0 0 1.5059915680282454 1.5059915680282454
end
usemtl diffuse_0
v 2.0510583966809346 2.531030939386711 24.702248249842913
v 2.9495913665770108 2.4787939514647848 25.873493660538415
cstype bspline
deg 1
curv 1.5059915680282454 2.9831191904673804 77 78
parm u 1.5059915680282454 1.5059915680282454 2.9831191904673804 2.9831191904673804
end
usemtl diffuse_0
v 2.9495913665770108 2.5848791989140616 23.494875287611364
v 2.0510583966809346 2.531030939386711 24.702248249842913
cstype bspline
deg 1
curv 0 1.5059915680282454 79 80
parm u 0 0 1.5059915680282454 1.5059915680282454
end
usemtl diffuse_0
v 3.848124336473087 1.0217317231947107 24.702248249842913
v 2.9495913665770108 1.0739687111166369 25.873493660538415
cstype bspline
deg 1
curv 1.5059915680282454 2.9831191904673804 81 82
parm u 1.5059915680282454 1.5059915680282454 2.9831191904673804 2.9831191904673804
end
usemtl diffuse_0
v 2.9495913665770108 0.96788346366736011 23.494875287611364
v 3.848124336473087 1.0217317231947107 24.702248249842913
cstype bspline
deg 1
curv 0 1.5059915680282454 83 84
parm u 0 0 1.5059915680282454 1.5059915680282454
end
usemtl diffuse_0
v 2.0510583966809346 1.0217317231947107 24.702248249842913
v 2.9495913665770108 1.0739687111166369 25.873493660538415
cstype bspline
deg 1
curv 1.5059915680282454 2.9831191904673804 85 86
parm u 1.5059915680282454 1.5059915680282454 2.9831191904673804 2.9831191904673804
end
usemtl diffuse_0
v 2.9495913665770108 0.96788346366736011 23.494875287611364
v 2.0510583966809346 1.0217317231947107 24.702248249842913
cstype bspline
deg 1
curv 0 1.5059915680282454 87 88
parm u 0 0 1.5059915680282454 1.5059915680282454
end
usemtl diffuse_0
v 2.1442814708198776 2.4787939514647848 25.873493660538415
v 2.1442814708198776 1.0739687111166369 25.873493660538415
cstype bspline
deg 1
curv 5.5955219292714977 7.2125176645181988 89 90
parm u 5.5955219292714977 5.5955219292714977 7.2125176645181988 7.2125176645181988
end
usemtl diffuse_0
v 3.754901262334144 2.4787939514647848 25.873493660538415
v 2.1442814708198776 2.4787939514647848 25.873493660538415
cstype bspline
deg 1
curv 3.6062588322590994 5.5955219292714977 91 92
parm u 3.6062588322590994 3.6062588322590994 5.5955219292714977 5.5955219292714977
end
usemtl diffuse_0
v 3.754901262334144 1.0739687111166369 25.873493660538415
v 3.754901262334144 2.4787939514647848 25.873493660538415
cstype bspline
deg 1
curv 1.9892630970123981 3.6062588322590994 93 94
parm u 1.9892630970123981 1.9892630970123981 3.6062588322590994 3.6062588322590994
end
usemtl diffuse_0
v 2.1442814708198776 1.0739687111166369 25.873493660538415
v 3.754901262334144 1.0739687111166369 25.873493660538415
cstype bspline
deg 1
curv 0 1.9892630970123981 95 96
parm u 0 0 1.9892630970123981 1.9892630970123981
end
usemtl diffuse_0
v 1.9549598180708119 1.7763813312907109 23.494875287611364
v 1.8358439388285808 0.90113759841073726 21.998315254679106
cstype bspline
deg 1
curv 1.7377951883934772 3.4755903767869549 97 98
parm u 1.7377951883934772 1.7377951883934772 3.4755903767869549 3.4755903767869549
end
usemtl diffuse_0
v 1.8358439388285805 2.651625064170684 21.998315254679106
v 1.9549598180708119 1.7763813312907109 23.494875287611364
cstype bspline
deg 1
curv 0 1.7377951883934772 99 100
parm u 0 0 1.7377951883934772 1.7377951883934772
end
usemtl diffuse_0
v 2.9495913665770108 2.5848791989140616 23.494875287611364
v 1.8358439388285805 2.651625064170684 21.998315254679106
cstype bspline
deg 1
curv 1.8667030496346497 3.7334060992692999 101 102
parm u 1.8667030496346497 1.8667030496346497 3.7334060992692999 3.7334060992692999
end
usemtl diffuse_0
v 4.0633387943254409 2.651625064170684 21.998315254679106
v 2.9495913665770108 2.5848791989140616 23.494875287611364
cstype bspline
deg 1
curv 0 1.8667030496346497 103 104
parm u 0 0 1.8667030496346497 1.8667030496346497
end
usemtl diffuse_0
v 3.94422291508321 1.7763813312907109 23.494875287611364
v 4.0633387943254409 2.651625064170684 21.998315254679106
cstype bspline
deg 1
curv 1.7377951883934777 3.4755903767869549 105 106
parm u 1.7377951883934777 1.7377951883934777 3.4755903767869549 3.4755903767869549
end
usemtl diffuse_0
v 4.0633387943254409 0.90113759841073726 21.998315254679106
v 3.94422291508321 1.7763813312907109 23.494875287611364
cstype bspline
deg 1
curv 0 1.7377951883934777 107 108
parm u 0 0 1.7377951883934777 1.7377951883934777
end
usemtl diffuse_0
v 2.9495913665770108 0.96788346366736011 23.494875287611364
v 4.0633387943254409 0.90113759841073726 21.998315254679106
cstype bspline
deg 1
curv 1.8667030496346382 3.7334060992692879 109 110
parm u 1.8667030496346382 1.8667030496346382 3.7334060992692879 3.7334060992692879
end
usemtl diffuse_0
v 1.8358439388285905 0.90113759841073726 21.998315254679113
v 2.9495913665770108 0.96788346366736011 23.494875287611364
cstype bspline
deg 1
curv 0 1.8667030496346382 111 112
parm u 0 0 1.8667030496346382 1.8667030496346382
end
usemtl diffuse_0
v 1.6481096596520572 0.79594182617886311 19.639640485082829
v 1.7479065804090776 1.7763813312907106 20.893479049384872
cstype bspline
deg 1
curv 1.5765191392339681 4.5428662633342327 113 114
parm u 1.5765191392339681 1.5765191392339681 4.5428662633342327 4.5428662633342327
end
usemtl diffuse_0
v 1.5501565542030997 1.7763813312907109 18.408967432513645
v 1.6481096596520572 0.79594182617886311 19.639640485082829
cstype bspline
deg 1
curv 0 1.5765191392339681 115 116
parm u 0 0 1.5765191392339681 1.5765191392339681
end
usemtl diffuse_0
v 1.6481096596520572 2.7568208364025582 19.639640485082829
v 1.7479065804090776 1.7763813312907106 20.893479049384872
cstype bspline
deg 1
curv 1.5765191392339681 4.5428662633342327 117 118
parm u 1.5765191392339681 1.5765191392339681 4.5428662633342327 4.5428662633342327
end
usemtl diffuse_0
v 1.5501565542030997 1.7763813312907104 18.408967432513645
v 1.6481096596520572 2.7568208364025582 19.639640485082829
cstype bspline
deg 1
curv 0 1.5765191392339681 119 120
parm u 0 0 1.5765191392339681 1.5765191392339681
end
usemtl diffuse_0
v 1.7479065804090776 1.7763813312907106 20.893479049384872
v 1.8358439388285905 2.651625064170684 21.998315254679113
cstype bspline
deg 1
curv 2.7107085733653267 5.4214171467306533 121 122
parm u 2.7107085733653267 2.7107085733653267 5.4214171467306533 5.4214171467306533
end
usemtl diffuse_0
v 1.8358439388285905 0.90113759841073726 21.998315254679113
v 1.7479065804090776 1.7763813312907106 20.893479049384872
cstype bspline
deg 1
curv 0 2.7107085733653267 123 124
parm u 0 0 2.7107085733653267 2.7107085733653267
end
usemtl diffuse_0
v 4.2542903352998618 2.7586236096669121 19.599219128561366
v 1.8358439388285808 2.651625064170684 21.998315254679106
cstype bspline
deg 1
curv 1.7668493087905717 5.1750737561672961 125 126
parm u 1.7668493087905717 1.7668493087905717 5.1750737561672961 5.1750737561672961
end
usemtl diffuse_0
v 2.9495913665770113 2.8117082688704671 18.408967432513638
v 4.2542903352998618 2.7586236096669121 19.599219128561366
cstype bspline
deg 1
curv 0 1.7668493087905717 127 128
parm u 0 0 1.7668493087905717 1.7668493087905717
end
usemtl diffuse_0
v 1.6448923978541596 2.7586236096669121 19.599219128561366
v 4.0633387943254409 2.651625064170684 21.998315254679106
cstype bspline
deg 1
curv 1.7668493087905717 5.1750737561672961 129 130
parm u 1.7668493087905717 1.7668493087905717 5.1750737561672961 5.1750737561672961
end
usemtl diffuse_0
v 2.9495913665770104 2.8117082688704671 18.408967432513638
v 1.6448923978541596 2.7586236096669121 19.599219128561366
cstype bspline
deg 1
curv 0 1.7668493087905717 131 132
parm u 0 0 1.7668493087905717 1.7668493087905717
end
usemtl diffuse_0
v 4.2510730735019617 0.79594182617886311 19.639640485082822
v 4.1512761527449484 1.7763813312907106 20.893479049384865
cstype bspline
deg 1
curv 1.5765191392339681 4.5428662633342327 133 134
parm u 1.5765191392339681 1.5765191392339681 4.5428662633342327 4.5428662633342327
end
usemtl diffuse_0
v 4.349026178950913 1.7763813312907109 18.408967432513638
v 4.2510730735019617 0.79594182617886311 19.639640485082822
cstype bspline
deg 1
curv 0 1.5765191392339681 135 136
parm u 0 0 1.5765191392339681 1.5765191392339681
end
usemtl diffuse_0
v 4.2510730735019617 2.7568208364025582 19.639640485082822
v 4.1512761527449484 1.7763813312907106 20.893479049384865
cstype bspline
deg 1
curv 1.5765191392339681 4.5428662633342327 137 138
parm u 1.5765191392339681 1.5765191392339681 4.5428662633342327 4.5428662633342327
end
usemtl diffuse_0
v 4.349026178950913 1.7763813312907104 18.408967432513638
v 4.2510730735019617 2.7568208364025582 19.639640485082822
cstype bspline
deg 1
curv 0 1.5765191392339681 139 140
parm u 0 0 1.5765191392339681 1.5765191392339681
end
usemtl diffuse_0
v 4.1512761527449484 1.7763813312907106 20.893479049384865
v 4.0633387943254409 2.651625064170684 21.998315254679106
cstype bspline
deg 1
curv 2.7107085733653267 5.4214171467306533 141 142
parm u 2.7107085733653267 2.7107085733653267 5.4214171467306533 5.4214171467306533
end
usemtl diffuse_0
v 4.0633387943254409 0.90113759841073726 21.998315254679106
v 4.1512761527449484 1.7763813312907106 20.893479049384865
cstype bspline
deg 1
curv 0 2.7107085733653267 143 144
parm u 0 0 2.7107085733653267 2.7107085733653267
end
usemtl diffuse_0
v 1.7479065804090763 2.7009002331358207 20.893479049384865
v 1.7479065804090763 0.85186242944560076 20.893479049384865
cstype bspline
deg 1
curv 7.6683931246551236 9.7390469998146365 145 146
parm u 7.6683931246551236 7.6683931246551236 9.7390469998146365 9.7390469998146365
end
usemtl diffuse_0
v 4.1512761527449484 2.7009002331358207 20.893479049384865
v 1.7479065804090763 2.7009002331358207 20.893479049384865
cstype bspline
deg 1
curv 4.8695234999073183 7.6683931246551236 147 148
parm u 4.8695234999073183 4.8695234999073183 7.6683931246551236 7.6683931246551236
end
usemtl diffuse_0
v 4.1512761527449484 0.85186242944560076 20.893479049384865
v 4.1512761527449484 2.7009002331358207 20.893479049384865
cstype bspline
deg 1
curv 2.7988696247478049 4.8695234999073183 149 150
parm u 2.7988696247478049 2.7988696247478049 4.8695234999073183 4.8695234999073183
end
usemtl diffuse_0
v 1.7479065804090763 0.85186242944560076 20.893479049384865
v 4.1512761527449484 0.85186242944560076 20.893479049384865
cstype bspline
deg 1
curv 0 2.7988696247478049 151 152
parm u 0 0 2.7988696247478049 2.7988696247478049
end
usemtl diffuse_0
v 4.2542903352998618 0.79413905291450904 19.599219128561366
v 1.8358439388285808 0.90113759841073726 21.998315254679106
cstype bspline
deg 1
curv 1.7668493087905717 5.1750737561672961 153 154
parm u 1.7668493087905717 1.7668493087905717 5.1750737561672961 5.1750737561672961
end
usemtl diffuse_0
v 2.9495913665770113 0.74105439371095416 18.408967432513638
v 4.2542903352998618 0.79413905291450904 19.599219128561366
cstype bspline
deg 1
curv 0 1.7668493087905717 155 156
parm u 0 0 1.7668493087905717 1.7668493087905717
end
usemtl diffuse_0
v 1.6448923978541596 0.79413905291450904 19.599219128561366
v 4.0633387943254409 0.90113759841073726 21.998315254679106
cstype bspline
deg 1
curv 1.7668493087905717 5.1750737561672961 157 158
parm u 1.7668493087905717 1.7668493087905717 5.1750737561672961 5.1750737561672961
end
usemtl diffuse_0
v 2.9495913665770104 0.74105439371095416 18.408967432513638
v 1.6448923978541596 0.79413905291450904 19.599219128561366
cstype bspline
deg 1
curv 0 1.7668493087905717 159 160
parm u 0 0 1.7668493087905717 1.7668493087905717
end
usemtl diffuse_0
v 4.349026178950913 1.7763813312907109 18.408967432513638
v 4.4585969872158548 0.67965705146711464 17.032330719855604
cstype bspline
deg 1
curv 1.7635017852603196 3.5270035705206393 161 162
parm u 1.7635017852603196 1.7635017852603196 3.5270035705206393 3.5270035705206393
end
usemtl diffuse_0
v 4.4585969872158548 2.8731056111143065 17.032330719855604
v 4.349026178950913 1.7763813312907109 18.408967432513638
cstype bspline
deg 1
curv 0 1.7635017852603196 163 164
parm u 0 0 1.7635017852603196 1.7635017852603196
end
usemtl diffuse_0
v 1.5501565542031082 1.7763813312907109 18.408967432513638
v 1.4405857459381657 0.67965705146711464 17.032330719855604
cstype bspline
deg 1
curv 1.7635017852603196 3.5270035705206393 165 166
parm u 1.7635017852603196 1.7635017852603196 3.5270035705206393 3.5270035705206393
end
usemtl diffuse_0
v 1.4405857459381657 2.8731056111143065 17.032330719855604
v 1.5501565542031082 1.7763813312907109 18.408967432513638
cstype bspline
deg 1
curv 0 1.7635017852603196 167 168
parm u 0 0 1.7635017852603196 1.7635017852603196
end
usemtl diffuse_0
v 2.9495913665770104 2.8117082688704675 18.408967432513638
v 4.4585969872158548 2.8731056111143065 17.032330719855604
cstype bspline
deg 1
curv 2.0435254428051901 4.0870508856103802 169 170
parm u 2.0435254428051901 2.0435254428051901 4.0870508856103802 4.0870508856103802
end
usemtl diffuse_0
v 1.4405857459381657 2.8731056111143074 17.032330719855604
v 2.9495913665770104 2.8117082688704675 18.408967432513638
cstype bspline
deg 1
curv 0 2.0435254428051901 171 172
parm u 0 0 2.0435254428051901 2.0435254428051901
end
usemtl diffuse_0
v 2.9495913665770104 0.74105439371095416 18.408967432513638
v 4.4585969872158548 0.67965705146711464 17.032330719855604
cstype bspline
deg 1
curv 2.0435254428051901 4.0870508856103802 173 174
parm u 2.0435254428051901 2.0435254428051901 4.0870508856103802 4.0870508856103802
end
usemtl diffuse_0
v 1.4405857459381657 0.67965705146711464 17.032330719855604
v 2.9495913665770104 0.74105439371095416 18.408967432513638
cstype bspline
deg 1
curv 0 2.0435254428051901 175 176
parm u 0 0 2.0435254428051901 2.0435254428051901
end
usemtl diffuse_0
v 5.4942277895806297 1.7763813312907111 4.0207685540684315
v 5.8160839180236508 -0.081002571311373117 -0.02299975999999937
cstype bspline
deg 1
curv 16.230956907039992 20.692518125596287 177 178
parm u 16.230956907039992 16.230956907039992 20.692518125596287 20.692518125596287
end
usemtl diffuse_0
v 5.3333319553119081 0.18950458239903023 6.0422477771886092
v 5.4942277895806297 1.7763813312907111 4.0207685540684315
cstype bspline
deg 1
curv 13.655992143171442 16.230956907039992 179 180
parm u 13.655992143171442 13.655992143171442 16.230956907039992 16.230956907039992
end
usemtl diffuse_0
v 5.1739976631919387 1.7763813312907115 8.0441079404115836
v 5.3333319553119081 0.18950458239903023 6.0422477771886092
cstype bspline
deg 1
curv 11.096498180311301 13.655992143171442 181 182
parm u 11.096498180311301 11.096498180311301 13.655992143171442 13.655992143171442
end
usemtl diffuse_0
v 5.0364478030130417 0.3558618284037367 9.7722706722715404
v 5.1739976631919387 1.7763813312907115 8.0441079404115836
cstype bspline
deg 1
curv 8.8552168392237611 11.096498180311301 183 184
parm u 8.8552168392237611 8.8552168392237611 11.096498180311301 11.096498180311301
end
usemtl diffuse_0
v 4.8813238709540574 1.7763813312907115 11.721232291390983
v 5.0364478030130417 0.3558618284037367 9.7722706722715404
cstype bspline
deg 1
curv 6.4385268538966445 8.8552168392237611 185 186
parm u 6.4385268538966445 6.4385268538966445 8.8552168392237611 8.8552168392237611
end
usemtl diffuse_0
v 4.7450381732564892 0.51915145868602153 13.433512211851472
v 4.8813238709540574 1.7763813312907115 11.721232291390983
cstype bspline
deg 1
curv 4.3098880235689876 6.4385268538966445 187 188
parm u 4.3098880235689876 4.3098880235689876 6.4385268538966445 6.4385268538966445
end
usemtl diffuse_0
v 4.5936592111856687 1.7763813312907115 15.335422401350694
v 4.7450381732564892 0.51915145868602153 13.433512211851472
cstype bspline
deg 1
curv 2.0249799484709516 4.3098880235689876 189 190
parm u 2.0249799484709516 2.0249799484709516 4.3098880235689876 4.3098880235689876
end
usemtl diffuse_0
v 4.4585969872158548 0.67965705146711564 17.032330719855604
v 4.5936592111856687 1.7763813312907115 15.335422401350694
cstype bspline
deg 1
curv 0 2.0249799484709516 191 192
parm u 0 0 2.0249799484709516 2.0249799484709516
end
usemtl diffuse_0
v 5.4942277895806297 1.7763813312907111 4.0207685540684315
v 5.8160839180236508 3.6337652338927953 -0.02299975999999937
cstype bspline
deg 1
curv 16.230956907039992 20.692518125596287 193 194
parm u 16.230956907039992 16.230956907039992 20.692518125596287 20.692518125596287
end
usemtl diffuse_0
v 5.3333319553119081 3.3632580801823919 6.0422477771886092
v 5.4942277895806297 1.7763813312907111 4.0207685540684315
cstype bspline
deg 1
curv 13.655992143171442 16.230956907039992 195 196
parm u 13.655992143171442 13.655992143171442 16.230956907039992 16.230956907039992
end
usemtl diffuse_0
v 5.1739976631919387 1.7763813312907106 8.0441079404115836
v 5.3333319553119081 3.3632580801823919 6.0422477771886092
cstype bspline
deg 1
curv 11.096498180311301 13.655992143171442 197 198
parm u 11.096498180311301 11.096498180311301 13.655992143171442 13.655992143171442
end
usemtl diffuse_0
v 5.0364478030130417 3.1969008341776854 9.7722706722715404
v 5.1739976631919387 1.7763813312907106 8.0441079404115836
cstype bspline
deg 1
curv 8.8552168392237611 11.096498180311301 199 200
parm u 8.8552168392237611 8.8552168392237611 11.096498180311301 11.096498180311301
end
usemtl diffuse_0
v 4.8813238709540574 1.7763813312907106 11.721232291390983
v 5.0364478030130417 3.1969008341776854 9.7722706722715404
cstype bspline
deg 1
curv 6.4385268538966445 8.8552168392237611 201 202
parm u 6.4385268538966445 6.4385268538966445 8.8552168392237611 8.8552168392237611
end
usemtl diffuse_0
v 4.7450381732564892 3.0336112038954006 13.433512211851472
v 4.8813238709540574 1.7763813312907106 11.721232291390983
cstype bspline
deg 1
curv 4.3098880235689876 6.4385268538966445 203 204
parm u 4.3098880235689876 4.3098880235689876 6.4385268538966445 6.4385268538966445
end
usemtl diffuse_0
v 4.5936592111856687 1.7763813312907106 15.335422401350694
v 4.7450381732564892 3.0336112038954006 13.433512211851472
cstype bspline
deg 1
curv 2.0249799484709516 4.3098880235689876 205 206
parm u 2.0249799484709516 2.0249799484709516 4.3098880235689876 4.3098880235689876
end
usemtl diffuse_0
v 4.4585969872158548 2.8731056111143065 17.032330719855604
v 4.5936592111856687 1.7763813312907106 15.335422401350694
cstype bspline
deg 1
curv 0 2.0249799484709516 207 208
parm u 0 0 2.0249799484709516 2.0249799484709516
end
usemtl diffuse_0
v 0.40495494357339062 1.7763813312907111 4.0207685540684315
v 0.083098815130370068 -0.081002571311373117 -0.02299975999999937
cstype bspline
deg 1
curv 16.230956907039992 20.692518125596287 209 210
parm u 16.230956907039992 16.230956907039992 20.692518125596287 20.692518125596287
end
usemtl diffuse_0
v 0.56585077784211302 0.18950458239903023 6.0422477771886092
v 0.40495494357339062 1.7763813312907111 4.0207685540684315
cstype bspline
deg 1
curv 13.655992143171442 16.230956907039992 211 212
parm u 13.655992143171442 13.655992143171442 16.230956907039992 16.230956907039992
end
usemtl diffuse_0
v 0.72518506996208254 1.7763813312907115 8.0441079404115836
v 0.56585077784211302 0.18950458239903023 6.0422477771886092
cstype bspline
deg 1
curv 11.096498180311301 13.655992143171442 213 214
parm u 11.096498180311301 11.096498180311301 13.655992143171442 13.655992143171442
end
usemtl diffuse_0
v 0.86273493014097857 0.3558618284037367 9.7722706722715404
v 0.72518506996208254 1.7763813312907115 8.0441079404115836
cstype bspline
deg 1
curv 8.8552168392237611 11.096498180311301 215 216
parm u 8.8552168392237611 8.8552168392237611 11.096498180311301 11.096498180311301
end
usemtl diffuse_0
v 1.0178588621999631 1.7763813312907115 11.721232291390983
v 0.86273493014097857 0.3558618284037367 9.7722706722715404
cstype bspline
deg 1
curv 6.4385268538966445 8.8552168392237611 217 218
parm u 6.4385268538966445 6.4385268538966445 8.8552168392237611 8.8552168392237611
end
usemtl diffuse_0
v 1.1541445598975315 0.51915145868602153 13.433512211851472
v 1.0178588621999631 1.7763813312907115 11.721232291390983
cstype bspline
deg 1
curv 4.3098880235689876 6.4385268538966445 219 220
parm u 4.3098880235689876 4.3098880235689876 6.4385268538966445 6.4385268538966445
end
usemtl diffuse_0
v 1.3055235219683519 1.7763813312907115 15.335422401350694
v 1.1541445598975315 0.51915145868602153 13.433512211851472
cstype bspline
deg 1
curv 2.0249799484709516 4.3098880235689876 221 222
parm u 2.0249799484709516 2.0249799484709516 4.3098880235689876 4.3098880235689876
end
usemtl diffuse_0
v 1.4405857459381657 0.67965705146711564 17.032330719855604
v 1.3055235219683519 1.7763813312907115 15.335422401350694
cstype bspline
deg 1
curv 0 2.0249799484709516 223 224
parm u 0 0 2.0249799484709516 2.0249799484709516
end
usemtl diffuse_0
v 0.40495494357339062 1.7763813312907111 4.0207685540684315
v 0.083098815130370068 3.6337652338927953 -0.02299975999999937
cstype bspline
deg 1
curv 16.230956907039992 20.692518125596287 225 226
parm u 16.230956907039992 16.230956907039992 20.692518125596287 20.692518125596287
end
usemtl diffuse_0
v 0.56585077784211302 3.3632580801823919 6.0422477771886092
v 0.40495494357339062 1.7763813312907111 4.0207685540684315
cstype bspline
deg 1
curv 13.655992143171442 16.230956907039992 227 228
parm u 13.655992143171442 13.655992143171442 16.230956907039992 16.230956907039992
end
usemtl diffuse_0
v 0.72518506996208254 1.7763813312907106 8.0441079404115836
v 0.56585077784211302 3.3632580801823919 6.0422477771886092
cstype bspline
deg 1
curv 11.096498180311301 13.655992143171442 229 230
parm u 11.096498180311301 11.096498180311301 13.655992143171442 13.655992143171442
end
usemtl diffuse_0
v 0.86273493014097857 3.1969008341776854 9.7722706722715404
v 0.72518506996208254 1.7763813312907106 8.0441079404115836
cstype bspline
deg 1
curv 8.8552168392237611 11.096498180311301 231 232
parm u 8.8552168392237611 8.8552168392237611 11.096498180311301 11.096498180311301
end
usemtl diffuse_0
v 1.0178588621999631 1.7763813312907106 11.721232291390983
v 0.86273493014097857 3.1969008341776854 9.7722706722715404
cstype bspline
deg 1
curv 6.4385268538966445 8.8552168392237611 233 234
parm u 6.4385268538966445 6.4385268538966445 8.8552168392237611 8.8552168392237611
end
usemtl diffuse_0
v 1.1541445598975315 3.0336112038954006 13.433512211851472
v 1.0178588621999631 1.7763813312907106 11.721232291390983
cstype bspline
deg 1
curv 4.3098880235689876 6.4385268538966445 235 236
parm u 4.3098880235689876 4.3098880235689876 6.4385268538966445 6.4385268538966445
end
usemtl diffuse_0
v 1.3055235219683519 1.7763813312907106 15.335422401350694
v 1.1541445598975315 3.0336112038954006 13.433512211851472
cstype bspline
deg 1
curv 2.0249799484709516 4.3098880235689876 237 238
parm u 2.0249799484709516 2.0249799484709516 4.3098880235689876 4.3098880235689876
end
usemtl diffuse_0
v 1.4405857459381657 2.8731056111143065 17.032330719855604
v 1.3055235219683519 1.7763813312907106 15.335422401350694
cstype bspline
deg 1
curv 0 2.0249799484709516 239 240
parm u 0 0 2.0249799484709516 2.0249799484709516
end
usemtl diffuse_0
v 3.6609141181777658 3.3632580801823919 6.0422477771886092
v 5.3333319553119081 3.3632580801823919 6.0422477771886092
cstype bspline
deg 1
curv 2.5109434889514635 4.1833613260856053 241 242
parm u 2.5109434889514635 2.5109434889514635 4.1833613260856053 4.1833613260856053
end
usemtl diffuse_0
v 5.1739976631919387 3.2739760695868769 8.0441079404115836
v 3.6609141181777658 3.3632580801823919 6.0422477771886092
cstype bspline
deg 1
curv 0 2.5109434889514635 243 244
parm u 0 0 2.5109434889514635 2.5109434889514635
end
usemtl diffuse_0
v 2.238268614976255 3.3632580801823919 6.0422477771886092
v 0.56585077784211302 3.3632580801823919 6.0422477771886092
cstype bspline
deg 1
curv 2.5109434889514635 4.1833613260856053 245 246
parm u 2.5109434889514635 2.5109434889514635 4.1833613260856053 4.1833613260856053
end
usemtl diffuse_0
v 0.72518506996208254 3.2739760695868769 8.0441079404115836
v 2.238268614976255 3.3632580801823919 6.0422477771886092
cstype bspline
deg 1
curv 0 2.5109434889514635 247 248
parm u 0 0 2.5109434889514635 2.5109434889514635
end
usemtl diffuse_0
v 2.9495913665770104 2.948926527421154 15.335422401350694
v 4.4585969872158548 2.8731056111143074 17.032330719855604
cstype bspline
deg 1
curv 10.666451441881454 12.938530801384637 249 250
parm u 10.666451441881454 10.666451441881454 12.938530801384637 12.938530801384637
end
usemtl diffuse_0
v 4.7450381732564892 3.0336112038954006 13.433512211851472
v 2.9495913665770104 2.948926527421154 15.335422401350694
cstype bspline
deg 1
curv 8.0495710283038573 10.666451441881454 251 252
parm u 8.0495710283038573 8.0495710283038573 10.666451441881454 10.666451441881454
end
usemtl diffuse_0
v 2.9495913665770104 3.1099780734747982 11.721232291390983
v 4.7450381732564892 3.0336112038954006 13.433512211851472
cstype bspline
deg 1
curv 5.5673615970920043 8.0495710283038573 253 254
parm u 5.5673615970920043 5.5673615970920043 8.0495710283038573 8.0495710283038573
end
usemtl diffuse_0
v 5.0364478030130417 3.1969008341776854 9.7722706722715404
v 2.9495913665770104 3.1099780734747982 11.721232291390983
cstype bspline
deg 1
curv 2.7106192661452 5.5673615970920043 255 256
parm u 2.7106192661452 2.7106192661452 5.5673615970920043 5.5673615970920043
end
usemtl diffuse_0
v 2.9495913665770104 3.2739760695868769 8.0441079404115836
v 5.0364478030130417 3.1969008341776854 9.7722706722715404
cstype bspline
deg 1
curv 0 2.7106192661452 257 258
parm u 0 0 2.7106192661452 2.7106192661452
end
usemtl diffuse_0
v 2.9495913665770104 2.948926527421154 15.335422401350694
v 1.4405857459381657 2.8731056111143074 17.032330719855604
cstype bspline
deg 1
curv 10.666451441881454 12.938530801384637 259 260
parm u 10.666451441881454 10.666451441881454 12.938530801384637 12.938530801384637
end
usemtl diffuse_0
v 1.1541445598975315 3.0336112038954006 13.433512211851472
v 2.9495913665770104 2.948926527421154 15.335422401350694
cstype bspline
deg 1
curv 8.0495710283038573 10.666451441881454 261 262
parm u 8.0495710283038573 8.0495710283038573 10.666451441881454 10.666451441881454
end
usemtl diffuse_0
v 2.9495913665770104 3.1099780734747982 11.721232291390983
v 1.1541445598975315 3.0336112038954006 13.433512211851472
cstype bspline
deg 1
curv 5.5673615970920043 8.0495710283038573 263 264
parm u 5.5673615970920043 5.5673615970920043 8.0495710283038573 8.0495710283038573
end
usemtl diffuse_0
v 0.86273493014097857 3.1969008341776854 9.7722706722715404
v 2.9495913665770104 3.1099780734747982 11.721232291390983
cstype bspline
deg 1
curv 2.7106192661452 5.5673615970920043 265 266
parm u 2.7106192661452 2.7106192661452 5.5673615970920043 5.5673615970920043
end
usemtl diffuse_0
v 2.9495913665770104 3.2739760695868769 8.0441079404115836
v 0.86273493014097857 3.1969008341776854 9.7722706722715404
cstype bspline
deg 1
curv 0 2.7106192661452 267 268
parm u 0 0 2.7106192661452 2.7106192661452
end
usemtl diffuse_0
v 3.6609141181777658 0.1895045823990304 6.0422477771886092
v 5.3333319553119081 0.1895045823990304 6.0422477771886092
cstype bspline
deg 1
curv 2.5109434889514635 4.1833613260856053 269 270
parm u 2.5109434889514635 2.5109434889514635 4.1833613260856053 4.1833613260856053
end
usemtl diffuse_0
v 5.1739976631919387 0.27878659299454511 8.0441079404115836
v 3.6609141181777658 0.1895045823990304 6.0422477771886092
cstype bspline
deg 1
curv 0 2.5109434889514635 271 272
parm u 0 0 2.5109434889514635 2.5109434889514635
end
usemtl diffuse_0
v 2.238268614976255 0.1895045823990304 6.0422477771886092
v 0.56585077784211302 0.1895045823990304 6.0422477771886092
cstype bspline
deg 1
curv 2.5109434889514635 4.1833613260856053 273 274
parm u 2.5109434889514635 2.5109434889514635 4.1833613260856053 4.1833613260856053
end
usemtl diffuse_0
v 0.72518506996208254 0.27878659299454511 8.0441079404115836
v 2.238268614976255 0.1895045823990304 6.0422477771886092
cstype bspline
deg 1
curv 0 2.5109434889514635 275 276
parm u 0 0 2.5109434889514635 2.5109434889514635
end
usemtl diffuse_0
v 2.9495913665770104 0.60383613516026802 15.335422401350694
v 4.4585969872158548 0.67965705146711464 17.032330719855604
cstype bspline
deg 1
curv 10.666451441881454 12.938530801384637 277 278
parm u 10.666451441881454 10.666451441881454 12.938530801384637 12.938530801384637
end
usemtl diffuse_0
v 4.7450381732564892 0.51915145868602164 13.433512211851472
v 2.9495913665770104 0.60383613516026802 15.335422401350694
cstype bspline
deg 1
curv 8.0495710283038573 10.666451441881454 279 280
parm u 8.0495710283038573 8.0495710283038573 10.666451441881454 10.666451441881454
end
usemtl diffuse_0
v 2.9495913665770104 0.44278458910662388 11.721232291390983
v 4.7450381732564892 0.51915145868602164 13.433512211851472
cstype bspline
deg 1
curv 5.5673615970920043 8.0495710283038573 281 282
parm u 5.5673615970920043 5.5673615970920043 8.0495710283038573 8.0495710283038573
end
usemtl diffuse_0
v 5.0364478030130417 0.3558618284037367 9.7722706722715404
v 2.9495913665770104 0.44278458910662388 11.721232291390983
cstype bspline
deg 1
curv 2.7106192661452 5.5673615970920043 283 284
parm u 2.7106192661452 2.7106192661452 5.5673615970920043 5.5673615970920043
end
usemtl diffuse_0
v 2.9495913665770104 0.27878659299454511 8.0441079404115836
v 5.0364478030130417 0.3558618284037367 9.7722706722715404
cstype bspline
deg 1
curv 0 2.7106192661452 285 286
parm u 0 0 2.7106192661452 2.7106192661452
end
usemtl diffuse_0
v 2.9495913665770104 0.60383613516026802 15.335422401350694
v 1.4405857459381657 0.67965705146711464 17.032330719855604
cstype bspline
deg 1
curv 10.666451441881454 12.938530801384637 287 288
parm u 10.666451441881454 10.666451441881454 12.938530801384637 12.938530801384637
end
usemtl diffuse_0
v 1.1541445598975315 0.51915145868602164 13.433512211851472
v 2.9495913665770104 0.60383613516026802 15.335422401350694
cstype bspline
deg 1
curv 8.0495710283038573 10.666451441881454 289 290
parm u 8.0495710283038573 8.0495710283038573 10.666451441881454 10.666451441881454
end
usemtl diffuse_0
v 2.9495913665770104 0.44278458910662388 11.721232291390983
v 1.1541445598975315 0.51915145868602164 13.433512211851472
cstype bspline
deg 1
curv 5.5673615970920043 8.0495710283038573 291 292
parm u 5.5673615970920043 5.5673615970920043 8.0495710283038573 8.0495710283038573
end
usemtl diffuse_0
v 0.86273493014097857 0.3558618284037367 9.7722706722715404
v 2.9495913665770104 0.44278458910662388 11.721232291390983
cstype bspline
deg 1
curv 2.7106192661452 5.5673615970920043 293 294
parm u 2.7106192661452 2.7106192661452 5.5673615970920043 5.5673615970920043
end
usemtl diffuse_0
v 2.9495913665770104 0.27878659299454511 8.0441079404115836
v 0.86273493014097857 0.3558618284037367 9.7722706722715404
cstype bspline
deg 1
curv 0 2.7106192661452 295 296
parm u 0 0 2.7106192661452 2.7106192661452
end
usemtl diffuse_0
v 4.3792081277746 3.4534150915126212 4.0207685540684315
v 4.3792081277746 0.099347571068800877 4.0207685540684315
cstype bspline
deg 1
curv 8.2294710422025688 10.42291960184976 297 298
parm u 8.2294710422025688 8.2294710422025688 10.42291960184976 10.42291960184976
end
usemtl diffuse_0
v 5.4942277895806306 3.4534150915126212 4.0207685540684315
v 4.3792081277746 3.4534150915126212 4.0207685540684315
cstype bspline
deg 1
curv 5.2114598009248807 8.2294710422025688 299 300
parm u 5.2114598009248807 5.2114598009248807 8.2294710422025688 8.2294710422025688
end
usemtl diffuse_0
v 5.4942277895806306 0.099347571068800877 4.0207685540684315
v 5.4942277895806306 3.4534150915126212 4.0207685540684315
cstype bspline
deg 1
curv 3.0180112412776889 5.2114598009248807 301 302
parm u 3.0180112412776889 3.0180112412776889 5.2114598009248807 5.2114598009248807
end
usemtl diffuse_0
v 4.3792081277746 0.099347571068800877 4.0207685540684315
v 5.4942277895806306 0.099347571068800877 4.0207685540684315
cstype bspline
deg 1
curv 0 3.0180112412776889 303 304
parm u 0 0 3.0180112412776889 3.0180112412776889
end
usemtl diffuse_0
v 0.40495494357339062 3.4534150915126212 4.0207685540684315
v 0.40495494357339062 0.099347571068800877 4.0207685540684315
cstype bspline
deg 1
curv 8.2294710422025688 10.42291960184976 305 306
parm u 8.2294710422025688 8.2294710422025688 10.42291960184976 10.42291960184976
end
usemtl diffuse_0
v 1.5199746053794219 3.4534150915126212 4.0207685540684315
v 0.40495494357339062 3.4534150915126212 4.0207685540684315
cstype bspline
deg 1
curv 5.2114598009248807 8.2294710422025688 307 308
parm u 5.2114598009248807 5.2114598009248807 8.2294710422025688 8.2294710422025688
end
usemtl diffuse_0
v 1.5199746053794219 0.099347571068800877 4.0207685540684315
v 1.5199746053794219 3.4534150915126212 4.0207685540684315
cstype bspline
deg 1
curv 3.0180112412776889 5.2114598009248807 309 310
parm u 3.0180112412776889 3.0180112412776889 5.2114598009248807 5.2114598009248807
end
usemtl diffuse_0
v 0.40495494357339062 0.099347571068800877 4.0207685540684315
v 1.5199746053794219 0.099347571068800877 4.0207685540684315
cstype bspline
deg 1
curv 0 3.0180112412776889 311 312
parm u 0 0 3.0180112412776889 3.0180112412776889
end
usemtl diffuse_0
v 0.72518506996208254 3.273976069586876 8.0441079404115836
v 0.72518506996208254 0.27878659299454511 8.0441079404115836
cstype bspline
deg 1
curv 8.2294710422025688 10.42291960184976 313 314
parm u 8.2294710422025688 8.2294710422025688 10.42291960184976 10.42291960184976
end
usemtl diffuse_0
v 5.1739976631919378 3.273976069586876 8.0441079404115836
v 0.72518506996208254 3.273976069586876 8.0441079404115836
cstype bspline
deg 1
curv 5.2114598009248807 8.2294710422025688 315 316
parm u 5.2114598009248807 5.2114598009248807 8.2294710422025688 8.2294710422025688
end
usemtl diffuse_0
v 5.1739976631919378 0.27878659299454511 8.0441079404115836
v 5.1739976631919378 3.273976069586876 8.0441079404115836
cstype bspline
deg 1
curv 3.0180112412776889 5.2114598009248807 317 318
parm u 3.0180112412776889 3.0180112412776889 5.2114598009248807 5.2114598009248807
end
usemtl diffuse_0
v 0.72518506996208254 0.27878659299454511 8.0441079404115836
v 5.1739976631919378 0.27878659299454511 8.0441079404115836
cstype bspline
deg 1
curv 0 3.0180112412776889 319 320
parm u 0 0 3.0180112412776889 3.0180112412776889
end
usemtl diffuse_0
v 1.3055235219683519 2.9489265274211531 15.335422401350694
v 1.3055235219683519 0.60383613516026802 15.335422401350694
cstype bspline
deg 1
curv 8.2294710422025688 10.42291960184976 321 322
parm u 8.2294710422025688 8.2294710422025688 10.42291960184976 10.42291960184976
end
usemtl diffuse_0
v 4.5936592111856687 2.9489265274211531 15.335422401350694
v 1.3055235219683519 2.9489265274211531 15.335422401350694
cstype bspline
deg 1
curv 5.2114598009248807 8.2294710422025688 323 324
parm u 5.2114598009248807 5.2114598009248807 8.2294710422025688 8.2294710422025688
end
usemtl diffuse_0
v 4.5936592111856687 0.60383613516026802 15.335422401350694
v 4.5936592111856687 2.9489265274211531 15.335422401350694
cstype bspline
deg 1
curv 3.0180112412776889 5.2114598009248807 325 326
parm u 3.0180112412776889 3.0180112412776889 5.2114598009248807 5.2114598009248807
end
usemtl diffuse_0
v 1.3055235219683519 0.60383613516026802 15.335422401350694
v 4.5936592111856687 0.60383613516026802 15.335422401350694
cstype bspline
deg 1
curv 0 3.0180112412776889 327 328
parm u 0 0 3.0180112412776889 3.0180112412776889
end
usemtl diffuse_0
v 1.0178588621999631 3.1099780734747973 11.721232291390983
v 1.0178588621999631 0.44278458910662388 11.721232291390983
cstype bspline
deg 1
curv 8.2294710422025688 10.42291960184976 329 330
parm u 8.2294710422025688 8.2294710422025688 10.42291960184976 10.42291960184976
end
usemtl diffuse_0
v 4.8813238709540574 3.1099780734747973 11.721232291390983
v 1.0178588621999631 3.1099780734747973 11.721232291390983
cstype bspline
deg 1
curv 5.2114598009248807 8.2294710422025688 331 332
parm u 5.2114598009248807 5.2114598009248807 8.2294710422025688 8.2294710422025688
end
usemtl diffuse_0
v 4.8813238709540574 0.44278458910662388 11.721232291390983
v 4.8813238709540574 3.1099780734747973 11.721232291390983
cstype bspline
deg 1
curv 3.0180112412776889 5.2114598009248807 333 334
parm u 3.0180112412776889 3.0180112412776889 5.2114598009248807 5.2114598009248807
end
usemtl diffuse_0
v 1.0178588621999631 0.44278458910662388 11.721232291390983
v 4.8813238709540574 0.44278458910662388 11.721232291390983
cstype bspline
deg 1
curv 0 3.0180112412776889 335 336
parm u 0 0 3.0180112412776889 3.0180112412776889
end
usemtl diffuse_0
v 2.3479501003657548 2.3646694620083819 28.432366019786233
v 2.3479501003657548 1.1880932005730398 28.432366019786233
cstype bspline
deg 1
curv 3.5831413262803653 4.7597175877157074 337 338
parm u 3.5831413262803653 3.5831413262803653 4.7597175877157074 4.7597175877157074
end
usemtl diffuse_0
v 3.5512326327882664 2.3646694620083819 28.432366019786233
v 2.3479501003657548 2.3646694620083819 28.432366019786233
cstype bspline
deg 1
curv 2.3798587938578537 3.5831413262803653 339 340
parm u 2.3798587938578537 2.3798587938578537 3.5831413262803653 3.5831413262803653
end
usemtl diffuse_0
v 3.5512326327882664 1.1880932005730398 28.432366019786233
v 3.5512326327882664 2.3646694620083819 28.432366019786233
cstype bspline
deg 1
curv 1.2032825324225116 2.3798587938578537 341 342
parm u 1.2032825324225116 1.2032825324225116 2.3798587938578537 2.3798587938578537
end
usemtl diffuse_0
v 2.3479501003657548 1.1880932005730398 28.432366019786233
v 3.5512326327882664 1.1880932005730398 28.432366019786233
cstype bspline
deg 1
curv 0 1.2032825324225116 343 344
parm u 0 0 1.2032825324225116 1.2032825324225116
end
usemtl diffuse_0
v 2.2315315201753538 2.42990391199262 26.969694583265422
v 2.2315315201753538 1.1228587505888017 26.969694583265422
cstype bspline
deg 1
curv 4.1792845470104467 5.4863297084142655 345 346
parm u 4.1792845470104467 4.1792845470104467 5.4863297084142655 5.4863297084142655
end
usemtl diffuse_0
v 3.6676512129786678 2.42990391199262 26.969694583265422
v 2.2315315201753538 2.42990391199262 26.969694583265422
cstype bspline
deg 1
curv 2.7431648542071323 4.1792845470104467 347 348
parm u 2.7431648542071323 2.7431648542071323 4.1792845470104467 4.1792845470104467
end
usemtl diffuse_0
v 3.6676512129786678 1.1228587505888017 26.969694583265422
v 3.6676512129786678 2.42990391199262 26.969694583265422
cstype bspline
deg 1
curv 1.436119692803314 2.7431648542071323 349 350
parm u 1.436119692803314 1.436119692803314 2.7431648542071323 2.7431648542071323
end
usemtl diffuse_0
v 2.2315315201753538 1.1228587505888017 26.969694583265422
v 3.6676512129786678 1.1228587505888017 26.969694583265422
cstype bspline
deg 1
curv 0 1.436119692803314 351 352
parm u 0 0 1.436119692803314 1.436119692803314
end
usemtl diffuse_0
v 1.9549598180708119 2.5848791989140616 23.494875287611364
v 1.9549598180708119 0.96788346366736011 23.494875287611364
cstype bspline
deg 1
curv 5.5955219292714977 7.2125176645181988 353 354
parm u 5.5955219292714977 5.5955219292714977 7.2125176645181988 7.2125176645181988
end
usemtl diffuse_0
v 3.94422291508321 2.5848791989140616 23.494875287611364
v 1.9549598180708119 2.5848791989140616 23.494875287611364
cstype bspline
deg 1
curv 3.6062588322590994 5.5955219292714977 355 356
parm u 3.6062588322590994 3.6062588322590994 5.5955219292714977 5.5955219292714977
end
usemtl diffuse_0
v 3.94422291508321 0.96788346366736011 23.494875287611364
v 3.94422291508321 2.5848791989140616 23.494875287611364
cstype bspline
deg 1
curv 1.9892630970123981 3.6062588322590994 357 358
parm u 1.9892630970123981 1.9892630970123981 3.6062588322590994 3.6062588322590994
end
usemtl diffuse_0
v 1.9549598180708119 0.96788346366736011 23.494875287611364
v 3.94422291508321 0.96788346366736011 23.494875287611364
cstype bspline
deg 1
curv 0 1.9892630970123981 359 360
parm u 0 0 1.9892630970123981 1.9892630970123981
end
usemtl diffuse_0
v 1.8358439388285805 2.651625064170684 21.998315254679106
v 1.8358439388285805 0.90113759841073726 21.998315254679106
cstype bspline
deg 1
curv 6.2054771767536669 7.9559646425136137 361 362
parm u 6.2054771767536669 6.2054771767536669 7.9559646425136137 7.9559646425136137
end
usemtl diffuse_0
v 4.0633387943254409 2.651625064170684 21.998315254679106
v 1.8358439388285805 2.651625064170684 21.998315254679106
cstype bspline
deg 1
curv 3.9779823212568068 6.2054771767536669 363 364
parm u 3.9779823212568068 3.9779823212568068 6.2054771767536669 6.2054771767536669
end
usemtl diffuse_0
v 4.0633387943254409 0.90113759841073726 21.998315254679106
v 4.0633387943254409 2.651625064170684 21.998315254679106
cstype bspline
deg 1
curv 2.2274948554968601 3.9779823212568068 365 366
parm u 2.2274948554968601 2.2274948554968601 3.9779823212568068 3.9779823212568068
end
usemtl diffuse_0
v 1.8358439388285805 0.90113759841073726 21.998315254679106
v 4.0633387943254409 0.90113759841073726 21.998315254679106
cstype bspline
deg 1
curv 0 2.2274948554968601 367 368
parm u 0 0 2.2274948554968601 2.2274948554968601
end
usemtl diffuse_0
v 1.5501565542031082 2.8117082688704675 18.408967432513638
v 1.5501565542031082 0.74105439371095416 18.408967432513638
cstype bspline
deg 1
curv 7.6683931246551236 9.7390469998146365 369 370
parm u 7.6683931246551236 7.6683931246551236 9.7390469998146365 9.7390469998146365
end
usemtl diffuse_0
v 4.349026178950913 2.8117082688704675 18.408967432513638
v 1.5501565542031082 2.8117082688704675 18.408967432513638
cstype bspline
deg 1
curv 4.8695234999073183 7.6683931246551236 371 372
parm u 4.8695234999073183 4.8695234999073183 7.6683931246551236 7.6683931246551236
end
usemtl diffuse_0
v 4.349026178950913 0.74105439371095416 18.408967432513638
v 4.349026178950913 2.8117082688704675 18.408967432513638
cstype bspline
deg 1
curv 2.7988696247478049 4.8695234999073183 373 374
parm u 2.7988696247478049 2.7988696247478049 4.8695234999073183 4.8695234999073183
end
usemtl diffuse_0
v 1.5501565542031082 0.74105439371095416 18.408967432513638
v 4.349026178950913 0.74105439371095416 18.408967432513638
cstype bspline
deg 1
curv 0 2.7988696247478049 375 376
parm u 0 0 2.7988696247478049 2.7988696247478049
end
usemtl diffuse_0
v 1.4405857459381657 2.8731056111143065 17.032330719855604
v 1.4405857459381657 0.67965705146711464 17.032330719855604
cstype bspline
deg 1
curv 8.2294710422025688 10.42291960184976 377 378
parm u 8.2294710422025688 8.2294710422025688 10.42291960184976 10.42291960184976
end
usemtl diffuse_0
v 4.4585969872158548 2.8731056111143065 17.032330719855604
v 1.4405857459381657 2.8731056111143065 17.032330719855604
cstype bspline
deg 1
curv 5.2114598009248807 8.2294710422025688 379 380
parm u 5.2114598009248807 5.2114598009248807 8.2294710422025688 8.2294710422025688
end
usemtl diffuse_0
v 4.4585969872158548 0.67965705146711464 17.032330719855604
v 4.4585969872158548 2.8731056111143065 17.032330719855604
cstype bspline
deg 1
curv 3.0180112412776889 5.2114598009248807 381 382
parm u 3.0180112412776889 3.0180112412776889 5.2114598009248807 5.2114598009248807
end
usemtl diffuse_0
v 1.4405857459381657 0.67965705146711464 17.032330719855604
v 4.4585969872158548 0.67965705146711464 17.032330719855604
cstype bspline
deg 1
curv 0 3.0180112412776889 383 384
parm u 0 0 3.0180112412776889 3.0180112412776889
end
usemtl diffuse_0
v 3.551232632788266 2.3646694620083819 28.432366019786233
v 5.4561036188259529 2.3201373705237089 26.969694583265422
cstype bspline
deg 1
curv 0 2.4020666751433115 385 386
parm u 0 0 2.4020666751433115 2.4020666751433115
end
usemtl diffuse_0
v 2.3479501003657548 2.3646694620083819 28.432366019786233
v 0.44307911432806757 2.3201373705237089 26.969694583265422
cstype bspline
deg 1
curv 0 2.4020666751433115 387 388
parm u 0 0 2.4020666751433115 2.4020666751433115
end
usemtl diffuse_0
v 3.551232632788266 1.1880932005730398 28.432366019786233
v 5.4561036188259529 1.2326252920577128 26.969694583265422
cstype bspline
deg 1
curv 0 2.4020666751433115 389 390
parm u 0 0 2.4020666751433115 2.4020666751433115
end
usemtl diffuse_0
v 10.506725713966098 2.0101546626599482 27.536034855382074
v 10.506725713966098 1.5426079999214737 27.536034855382074
cstype bspline
deg 1
curv 0 0.46754666273847456 391 392
parm u 0 0 0.46754666273847456 0.46754666273847456
end
usemtl diffuse_0
v 8.0904234141669686 2.1584555879320821 26.969694583265422
v 10.506725713966098 2.0101546626599482 27.536034855382074
cstype bspline
deg 1
curv 0 2.4862122339559614 393 394
parm u 0 0 2.4862122339559614 2.4862122339559614
end
usemtl diffuse_0
v 8.0904234141669686 1.3943070746493396 26.969694583265422
v 10.506725713966098 1.5426079999214737 27.536034855382074
cstype bspline
deg 1
curv 0 2.4862122339559614 395 396
parm u 0 0 2.4862122339559614 2.4862122339559614
end
usemtl diffuse_0
v 3.6676512129786669 2.42990391199262 26.969694583265422
v 8.0904234141669686 2.1584555879320821 26.969694583265422
cstype bspline
deg 1
curv 0 4.4310944625723439 397 398
parm u 0 0 4.4310944625723439 4.4310944625723439
end
usemtl diffuse_0
v 3.6676512129786669 1.1228587505888017 26.969694583265422
v 8.0904234141669686 1.3943070746493396 26.969694583265422
cstype bspline
deg 1
curv 0 4.4310944625723439 399 400
parm u 0 0 4.4310944625723439 4.4310944625723439
end
usemtl diffuse_0
v 2.3479501003657548 1.1880932005730398 28.432366019786233
v 0.44307911432806757 1.2326252920577128 26.969694583265422
cstype bspline
deg 1
curv 0 2.4020666751433115 401 402
parm u 0 0 2.4020666751433115 2.4020666751433115
end
usemtl diffuse_0
v -4.6075429808120765 2.0101546626599482 27.536034855382074
v -4.6075429808120765 1.5426079999214737 27.536034855382074
cstype bspline
deg 1
curv 0 0.46754666273847456 403 404
parm u 0 0 0.46754666273847456 0.46754666273847456
end
usemtl diffuse_0
v -2.1912406810129479 2.1584555879320821 26.969694583265422
v -4.6075429808120765 2.0101546626599482 27.536034855382074
cstype bspline
deg 1
curv 0 2.4862122339559614 405 406
parm u 0 0 2.4862122339559614 2.4862122339559614
end
usemtl diffuse_0
v -2.1912406810129479 1.3943070746493396 26.969694583265422
v -4.6075429808120765 1.5426079999214737 27.536034855382074
cstype bspline
deg 1
curv 0 2.4862122339559614 407 408
parm u 0 0 2.4862122339559614 2.4862122339559614
end
usemtl diffuse_0
v 2.2315315201753538 2.42990391199262 26.969694583265422
v -2.1912406810129479 2.1584555879320821 26.969694583265422
cstype bspline
deg 1
curv 0 4.4310944625723439 409 410
parm u 0 0 4.4310944625723439 4.4310944625723439
end
usemtl diffuse_0
v 2.2315315201753538 1.1228587505888017 26.969694583265422
v -2.1912406810129479 1.3943070746493396 26.969694583265422
cstype bspline
deg 1
curv 0 4.4310944625723439 411 412
parm u 0 0 4.4310944625723439 4.4310944625723439
end
usemtl diffuse_0
v 10.262284234539727 1.9912680387357908 21.998315254679113
v 3.94422291508321 2.5848791989140616 23.494875287611364
cstype bspline
deg 1
curv 0 6.5199666393372739 413 414
parm u 0 0 6.5199666393372739 6.5199666393372739
end
usemtl diffuse_0
v 3.94422291508321 0.96788346366736011 23.494875287611364
v 10.262284234539727 1.5614946238456304 21.998315254679113
cstype bspline
deg 1
curv 0 6.5199666393372739 415 416
parm u 0 0 6.5199666393372739 6.5199666393372739
end
usemtl diffuse_0
v 10.262284234539727 1.9912680387357908 21.998315254679113
v 10.262284234539727 1.5614946238456304 21.998315254679113
cstype bspline
deg 1
curv 0 0.42977341489016041 417 418
parm u 0 0 0.42977341489016041 0.42977341489016041
end
usemtl diffuse_0
v 4.0633387943254311 2.651625064170684 21.998315254679113
v 10.262284234539727 1.9912680387357908 21.998315254679113
cstype bspline
deg 1
curv 0 6.4608647334586848 419 420
parm u 0 0 6.4608647334586848 6.4608647334586848
end
usemtl diffuse_0
v 4.0633387943254311 0.90113759841073737 21.998315254679113
v 10.262284234539727 1.5614946238456304 21.998315254679113
cstype bspline
deg 1
curv 0 6.4608647334586848 421 422
parm u 0 0 6.4608647334586848 6.4608647334586848
end
usemtl diffuse_0
v -4.3631015013857049 1.9912680387357908 21.998315254679113
v 1.9549598180708119 2.5848791989140616 23.494875287611364
cstype bspline
deg 1
curv 0 6.5199666393372739 423 424
parm u 0 0 6.5199666393372739 6.5199666393372739
end
usemtl diffuse_0
v 1.9549598180708119 0.96788346366736011 23.494875287611364
v -4.3631015013857049 1.5614946238456304 21.998315254679113
cstype bspline
deg 1
curv 0 6.5199666393372739 425 426
parm u 0 0 6.5199666393372739 6.5199666393372739
end
usemtl diffuse_0
v -4.3631015013857049 1.9912680387357908 21.998315254679113
v -4.3631015013857049 1.5614946238456304 21.998315254679113
cstype bspline
deg 1
curv 0 0.42977341489016041 427 428
parm u 0 0 0.42977341489016041 0.42977341489016041
end
usemtl diffuse_0
v 1.8358439388285903 2.651625064170684 21.998315254679113
v -4.3631015013857049 1.9912680387357908 21.998315254679113
cstype bspline
deg 1
curv 0 6.4608647334586848 429 430
parm u 0 0 6.4608647334586848 6.4608647334586848
end
usemtl diffuse_0
v 1.8358439388285903 0.90113759841073737 21.998315254679113
v -4.3631015013857049 1.5614946238456304 21.998315254679113
cstype bspline
deg 1
curv 0 6.4608647334586848 431 432
parm u 0 0 6.4608647334586848 6.4608647334586848
end
usemtl diffuse_0
v 8.7361482199190021 2.0062587405663566 17.032330719855604
v 4.349026178950913 2.8117082688704675 18.408967432513638
cstype bspline
deg 1
curv 0 4.6680528471335068 433 434
parm u 0 0 4.6680528471335068 4.6680528471335068
end
usemtl diffuse_0
v 4.3490261789509121 0.74105439371095416 18.408967432513641
v 8.7361482199190021 1.5465039220150647 17.032330719855604
cstype bspline
deg 1
curv 0 4.6680528471335085 435 436
parm u 0 0 4.6680528471335085 4.6680528471335085
end
usemtl diffuse_0
v 8.7361482199190021 2.0062587405663566 17.032330719855604
v 8.7361482199190021 1.5465039220150647 17.032330719855604
cstype bspline
deg 1
curv 0 0.45975481855129186 437 438
parm u 0 0 0.45975481855129186 0.45975481855129186
end
usemtl diffuse_0
v 4.4585969872158548 2.8731056111143065 17.032330719855604
v 8.7361482199190021 2.0062587405663566 17.032330719855604
cstype bspline
deg 1
curv 0 4.8205339462974157 439 440
parm u 0 0 4.8205339462974157 4.8205339462974157
end
usemtl diffuse_0
v 4.4585969872158548 0.67965705146711475 17.032330719855604
v 8.7361482199190021 1.5465039220150647 17.032330719855604
cstype bspline
deg 1
curv 0 4.8205339462974157 441 442
parm u 0 0 4.8205339462974157 4.8205339462974157
end
usemtl diffuse_0
v -2.8369654867649814 2.0062587405663566 17.032330719855604
v 1.5501565542031082 2.8117082688704675 18.408967432513638
cstype bspline
deg 1
curv 0 4.6680528471335068 443 444
parm u 0 0 4.6680528471335068 4.6680528471335068
end
usemtl diffuse_0
v 1.5501565542031086 0.74105439371095416 18.408967432513641
v -2.8369654867649814 1.5465039220150647 17.032330719855604
cstype bspline
deg 1
curv 0 4.6680528471335085 445 446
parm u 0 0 4.6680528471335085 4.6680528471335085
end
usemtl diffuse_0
v -2.8369654867649814 2.0062587405663566 17.032330719855604
v -2.8369654867649814 1.5465039220150647 17.032330719855604
cstype bspline
deg 1
curv 0 0.45975481855129186 447 448
parm u 0 0 0.45975481855129186 0.45975481855129186
end
usemtl diffuse_0
v 1.4405857459381657 2.8731056111143065 17.032330719855604
v -2.8369654867649814 2.0062587405663566 17.032330719855604
cstype bspline
deg 1
curv 0 4.8205339462974157 449 450
parm u 0 0 4.8205339462974157 4.8205339462974157
end
usemtl diffuse_0
v 1.4405857459381657 0.67965705146711475 17.032330719855604
v -2.8369654867649814 1.5465039220150647 17.032330719855604
cstype bspline
deg 1
curv 0 4.8205339462974157 451 452
parm u 0 0 4.8205339462974157 4.8205339462974157
end
usemtl diffuse_0
v 3.5512326327882664 2.3646694620083819 28.432366019786233
v 2.9495913665770104 1.7763813312907106 29.681928256427913
cstype bspline
deg 1
curv 0 0.84146012261519276 453 454
parm u 0 0 0.84146012261519276 0.84146012261519276
end
usemtl diffuse_0
v 2.9495913665770104 1.7763813312907106 29.681928256427913
v 3.5512326327882664 1.1880932005730398 28.432366019786233
cstype bspline
deg 1
curv 0.84146012261519276 1.6829202452303851 455 456
parm u 0.84146012261519276 0.84146012261519276 1.6829202452303851 1.6829202452303851
end
usemtl diffuse_0
v 2.9495913665770104 1.7763813312907106 29.681928256427913
v 2.3479501003657548 1.1880932005730398 28.432366019786233
cstype bspline
deg 1
curv 0.84146012261519276 1.6829202452303851 457 458
parm u 0.84146012261519276 0.84146012261519276 1.6829202452303851 1.6829202452303851
end
usemtl diffuse_0
v 2.3479501003657548 2.3646694620083819 28.432366019786233
v 2.9495913665770108 1.7763813312907106 29.681928256427913
cstype bspline
deg 1
curv 0 0.84146012261519276 459 460
parm u 0 0 0.84146012261519276 0.84146012261519276
end
usemtl diffuse_0
v 2.9495913665770104 3.273976069586876 8.0441079404115836
v 5.8160839180236508 3.6337652338927953 -0.02299975999999937
cstype bspline
deg 1
curv 0 8.5688070605126168 461 462
parm u 0 0 8.5688070605126168 8.5688070605126168
end
usemtl diffuse_0
v 0.083098815130370068 3.6337652338927953 -0.02299975999999937
v 2.9495913665770104 3.273976069586876 8.0441079404115836
cstype bspline
deg 1
curv 0 8.5688070605126168 463 464
parm u 0 0 8.5688070605126168 8.5688070605126168
end
usemtl diffuse_0
v 2.9495913665770104 0.27878659299454511 8.0441079404115836
v 5.8160839180236508 -0.081002571311374227 -0.02299975999999937
cstype bspline
deg 1
curv 0 8.5688070605126168 465 466
parm u 0 0 8.5688070605126168 8.5688070605126168
end
usemtl diffuse_0
v 0.083098815130370068 -0.081002571311374227 -0.02299975999999937
v 2.9495913665770104 0.27878659299454511 8.0441079404115836
cstype bspline
deg 1
curv 0 8.5688070605126168 467 468
parm u 0 0 8.5688070605126168 8.5688070605126168
end
usemtl diffuse_0
v 3.6676512129786678 1.1228587505888017 26.969694583265422
v 3.5512326327882664 1.1880932005730398 28.432366019786233
cstype bspline
deg 1
curv 27.073684974835757 28.540745105642408 469 470
parm u 27.073684974835757 27.073684974835757 28.540745105642408 28.540745105642408
end
usemtl diffuse_0
v 3.94422291508321 0.96788346366736011 23.494875287611364
v 3.6676512129786678 1.1228587505888017 26.969694583265422
cstype bspline
deg 1
curv 23.588439605897982 27.073684974835757 471 472
parm u 23.588439605897982 23.588439605897982 27.073684974835757 27.073684974835757
end
usemtl diffuse_0
v 4.0633387943254409 0.90113759841073726 21.998315254679106
v 3.94422291508321 0.96788346366736011 23.494875287611364
cstype bspline
deg 1
curv 22.087389197136297 23.588439605897982 473 474
parm u 22.087389197136297 22.087389197136297 23.588439605897982 23.588439605897982
end
usemtl diffuse_0
v 4.349026178950913 0.74105439371095416 18.408967432513641
v 4.0633387943254409 0.90113759841073726 21.998315254679106
cstype bspline
deg 1
curv 18.48727166286481 22.087389197136297 475 476
parm u 18.48727166286481 18.48727166286481 22.087389197136297 22.087389197136297
end
usemtl diffuse_0
v 4.4585969872158548 0.67965705146711464 17.032330719855604
v 4.349026178950913 0.74105439371095416 18.408967432513641
cstype bspline
deg 1
curv 17.106504400088909 18.48727166286481 477 478
parm u 17.106504400088909 17.106504400088909 18.48727166286481 18.48727166286481
end
usemtl diffuse_0
v 5.8160839180236508 -0.081002571311374227 -0.02299975999999937
v 4.4585969872158548 0.67965705146711464 17.032330719855604
cstype bspline
deg 1
curv 0 17.106504400088909 479 480
parm u 0 0 17.106504400088909 17.106504400088909
end
usemtl diffuse_0
v 3.6676512129786678 2.42990391199262 26.969694583265422
v 3.5512326327882664 2.3646694620083819 28.432366019786233
cstype bspline
deg 1
curv 27.073684974835757 28.540745105642408 481 482
parm u 27.073684974835757 27.073684974835757 28.540745105642408 28.540745105642408
end
usemtl diffuse_0
v 3.94422291508321 2.5848791989140616 23.494875287611364
v 3.6676512129786678 2.42990391199262 26.969694583265422
cstype bspline
deg 1
curv 23.588439605897982 27.073684974835757 483 484
parm u 23.588439605897982 23.588439605897982 27.073684974835757 27.073684974835757
end
usemtl diffuse_0
v 4.0633387943254409 2.651625064170684 21.998315254679106
v 3.94422291508321 2.5848791989140616 23.494875287611364
cstype bspline
deg 1
curv 22.087389197136297 23.588439605897982 485 486
parm u 22.087389197136297 22.087389197136297 23.588439605897982 23.588439605897982
end
usemtl diffuse_0
v 4.349026178950913 2.8117082688704675 18.408967432513638
v 4.0633387943254409 2.651625064170684 21.998315254679106
cstype bspline
deg 1
curv 18.487271662864806 22.087389197136297 487 488
parm u 18.487271662864806 18.487271662864806 22.087389197136297 22.087389197136297
end
usemtl diffuse_0
v 4.4585969872158548 2.8731056111143065 17.032330719855604
v 4.349026178950913 2.8117082688704675 18.408967432513638
cstype bspline
deg 1
curv 17.106504400088909 18.487271662864806 489 490
parm u 17.106504400088909 17.106504400088909 18.487271662864806 18.487271662864806
end
usemtl diffuse_0
v 5.8160839180236508 3.6337652338927957 -0.02299975999999937
v 4.4585969872158548 2.8731056111143065 17.032330719855604
cstype bspline
deg 1
curv 0 17.106504400088909 491 492
parm u 0 0 17.106504400088909 17.106504400088909
end
usemtl diffuse_0
v 2.2315315201753538 1.1228587505888017 26.969694583265422
v 2.3479501003657548 1.1880932005730398 28.432366019786233
cstype bspline
deg 1
curv 27.073684974835757 28.540745105642408 493 494
parm u 27.073684974835757 27.073684974835757 28.540745105642408 28.540745105642408
end
usemtl diffuse_0
v 1.9549598180708119 0.96788346366736011 23.494875287611364
v 2.2315315201753538 1.1228587505888017 26.969694583265422
cstype bspline
deg 1
curv 23.588439605897982 27.073684974835757 495 496
parm u 23.588439605897982 23.588439605897982 27.073684974835757 27.073684974835757
end
usemtl diffuse_0
v 1.8358439388285808 0.90113759841073726 21.998315254679106
v 1.9549598180708119 0.96788346366736011 23.494875287611364
cstype bspline
deg 1
curv 22.087389197136297 23.588439605897982 497 498
parm u 22.087389197136297 22.087389197136297 23.588439605897982 23.588439605897982
end
usemtl diffuse_0
v 1.5501565542031086 0.74105439371095416 18.408967432513641
v 1.8358439388285808 0.90113759841073726 21.998315254679106
cstype bspline
deg 1
curv 18.48727166286481 22.087389197136297 499 500
parm u 18.48727166286481 18.48727166286481 22.087389197136297 22.087389197136297
end
usemtl diffuse_0
v 1.4405857459381657 0.67965705146711464 17.032330719855604
v 1.5501565542031086 0.74105439371095416 18.408967432513641
cstype bspline
deg 1
curv 17.106504400088909 18.48727166286481 501 502
parm u 17.106504400088909 17.106504400088909 18.48727166286481 18.48727166286481
end
usemtl diffuse_0
v 0.083098815130370068 -0.081002571311374227 -0.02299975999999937
v 1.4405857459381657 0.67965705146711464 17.032330719855604
cstype bspline
deg 1
curv 0 17.106504400088909 503 504
parm u 0 0 17.106504400088909 17.106504400088909
end
usemtl diffuse_0
v 2.2315315201753538 2.42990391199262 26.969694583265422
v 2.3479501003657548 2.3646694620083819 28.432366019786233
cstype bspline
deg 1
curv 27.073684974835757 28.540745105642408 505 506
parm u 27.073684974835757 27.073684974835757 28.540745105642408 28.540745105642408
end
usemtl diffuse_0
v 1.9549598180708119 2.5848791989140616 23.494875287611364
v 2.2315315201753538 2.42990391199262 26.969694583265422
cstype bspline
deg 1
curv 23.588439605897982 27.073684974835757 507 508
parm u 23.588439605897982 23.588439605897982 27.073684974835757 27.073684974835757
end
usemtl diffuse_0
v 1.8358439388285805 2.651625064170684 21.998315254679106
v 1.9549598180708119 2.5848791989140616 23.494875287611364
cstype bspline
deg 1
curv 22.087389197136297 23.588439605897982 509 510
parm u 22.087389197136297 22.087389197136297 23.588439605897982 23.588439605897982
end
usemtl diffuse_0
v 1.5501565542031082 2.8117082688704675 18.408967432513638
v 1.8358439388285805 2.651625064170684 21.998315254679106
cstype bspline
deg 1
curv 18.487271662864806 22.087389197136297 511 512
parm u 18.487271662864806 18.487271662864806 22.087389197136297 22.087389197136297
end
usemtl diffuse_0
v 1.4405857459381657 2.8731056111143065 17.032330719855604
v 1.5501565542031082 2.8117082688704675 18.408967432513638
cstype bspline
deg 1
curv 17.106504400088909 18.487271662864806 513 514
parm u 17.106504400088909 17.106504400088909 18.487271662864806 18.487271662864806
end
usemtl diffuse_0
v 0.083098815130370068 3.6337652338927957 -0.02299975999999937
v 1.4405857459381657 2.8731056111143065 17.032330719855604
cstype bspline
deg 1
curv 0 17.106504400088909 515 516
parm u 0 0 17.106504400088909 17.106504400088909
end
