# Rhino

mtllib pylon5_lines.mtl
usemtl diffuse_0
v 3.7210355645463369 3.8240822069216716 37.951166052500753
v 6.0396585034714843 3.6771014885751074 38.649044386001016
cstype bspline
deg 1
curv 0 2.4258297204966106 1 2
parm u 0 0 2.4258297204966106 2.4258297204966106
end
usemtl diffuse_0
v 3.7210355645463369 2.5958854058408001 37.951166052500753
v 6.0396585034714843 2.7428661241873642 38.649044386001016
cstype bspline
deg 1
curv 0 2.4258297204966106 3 4
parm u 0 0 2.4258297204966106 2.4258297204966106
end
usemtl diffuse_0
v 8.3973000116236207 3.5640596064723677 37.95116605250076
v 3.6820169953193487 3.7901433706778471 39.346922719501265
cstype bspline
deg 1
curv 0 4.9227171831988468 5 6
parm u 0 0 4.9227171831988468 4.9227171831988468
end
usemtl diffuse_0
v 3.6820169953193482 2.6298242420846245 39.346922719501272
v 8.3973000116236207 2.8559080062901039 37.95116605250076
cstype bspline
deg 1
curv 0 4.9227171831988494 7 8
parm u 0 0 4.9227171831988494 4.9227171831988494
end
usemtl diffuse_0
v 8.3973000116236207 3.5640596064723677 37.95116605250076
v 8.3973000116236207 2.8559080062901039 37.95116605250076
cstype bspline
deg 1
curv 0 0.70815160018226386 9 10
parm u 0 0 0.70815160018226386 0.70815160018226386
end
usemtl diffuse_0
v 3.721035564546336 3.8240822069216707 37.95116605250076
v 8.3973000116236207 3.5640596064723677 37.95116605250076
cstype bspline
deg 1
curv 0 4.6834881158964663 11 12
parm u 0 0 4.6834881158964663 4.6834881158964663
end
usemtl diffuse_0
v 3.721035564546336 2.595885405840801 37.95116605250076
v 8.3973000116236207 2.8559080062901039 37.95116605250076
cstype bspline
deg 1
curv 0 4.6834881158964663 13 14
parm u 0 0 4.6834881158964663 4.6834881158964663
end
usemtl diffuse_0
v 2.4791817866502197 3.8240822069216716 37.951166052500753
v 0.16055884772507234 3.6771014885751074 38.649044386001016
cstype bspline
deg 1
curv 0 2.4258297204966106 15 16
parm u 0 0 2.4258297204966106 2.4258297204966106
end
usemtl diffuse_0
v 2.4791817866502197 2.5958854058408001 37.951166052500753
v 0.16055884772507234 2.7428661241873642 38.649044386001016
cstype bspline
deg 1
curv 0 2.4258297204966106 17 18
parm u 0 0 2.4258297204966106 2.4258297204966106
end
usemtl diffuse_0
v -2.1970826604270637 3.5640596064723677 37.95116605250076
v 2.5182003558772079 3.7901433706778471 39.346922719501265
cstype bspline
deg 1
curv 0 4.9227171831988468 19 20
parm u 0 0 4.9227171831988468 4.9227171831988468
end
usemtl diffuse_0
v 2.5182003558772084 2.6298242420846245 39.346922719501272
v -2.1970826604270637 2.8559080062901039 37.95116605250076
cstype bspline
deg 1
curv 0 4.9227171831988494 21 22
parm u 0 0 4.9227171831988494 4.9227171831988494
end
usemtl diffuse_0
v -2.1970826604270637 3.5640596064723677 37.95116605250076
v -2.1970826604270637 2.8559080062901039 37.95116605250076
cstype bspline
deg 1
curv 0 0.70815160018226386 23 24
parm u 0 0 0.70815160018226386 0.70815160018226386
end
usemtl diffuse_0
v 2.4791817866502206 3.8240822069216707 37.95116605250076
v -2.1970826604270637 3.5640596064723677 37.95116605250076
cstype bspline
deg 1
curv 0 4.6834881158964663 25 26
parm u 0 0 4.6834881158964663 4.6834881158964663
end
usemtl diffuse_0
v 2.4791817866502206 2.595885405840801 37.95116605250076
v -2.1970826604270637 2.8559080062901039 37.95116605250076
cstype bspline
deg 1
curv 0 4.6834881158964663 27 28
parm u 0 0 4.6834881158964663 4.6834881158964663
end
usemtl diffuse_0
v 3.897955378438569 3.9779692589313393 31.622461165142294
v 6.639042756247421 3.8034196473403679 32.406379293183669
cstype bspline
deg 1
curv 0 2.8563184715926657 29 30
parm u 0 0 2.8563184715926657 2.8563184715926657
end
usemtl diffuse_0
v 3.897955378438569 2.4419983538311323 31.622461165142294
v 6.639042756247421 2.6165479654221038 32.406379293183669
cstype bspline
deg 1
curv 0 2.8563184715926657 31 32
parm u 0 0 2.8563184715926657 2.8563184715926657
end
usemtl diffuse_0
v 9.4239592118180937 3.6669931120780754 31.622461165142294
v 3.8541263006767474 3.9398461826026603 33.190297421225047
cstype bspline
deg 1
curv 0 5.7927193943790831 33 34
parm u 0 0 5.7927193943790831 5.7927193943790831
end
usemtl diffuse_0
v 3.854126300676747 2.4801214301598109 33.190297421225047
v 9.4239592118180937 2.7529745006843962 31.622461165142294
cstype bspline
deg 1
curv 0 5.7927193943790831 35 36
parm u 0 0 5.7927193943790831 5.7927193943790831
end
usemtl diffuse_0
v 9.4239592118180937 3.6669931120780754 31.622461165142294
v 9.4239592118180937 2.7529745006843962 31.622461165142294
cstype bspline
deg 1
curv 0 0.91401861139367924 37 38
parm u 0 0 0.91401861139367924 0.91401861139367924
end
usemtl diffuse_0
v 3.897955378438569 3.9779692589313393 31.622461165142294
v 9.4239592118180937 3.6669931120780754 31.622461165142294
cstype bspline
deg 1
curv 0 5.5347470159382093 39 40
parm u 0 0 5.5347470159382093 5.5347470159382093
end
usemtl diffuse_0
v 3.897955378438569 2.4419983538311323 31.622461165142294
v 9.4239592118180937 2.7529745006843962 31.622461165142294
cstype bspline
deg 1
curv 0 5.5347470159382093 41 42
parm u 0 0 5.5347470159382093 5.5347470159382093
end
usemtl diffuse_0
v 2.3022619727579876 3.9779692589313393 31.622461165142294
v -0.4388254050508642 3.8034196473403679 32.406379293183669
cstype bspline
deg 1
curv 0 2.8563184715926657 43 44
parm u 0 0 2.8563184715926657 2.8563184715926657
end
usemtl diffuse_0
v 2.3022619727579876 2.4419983538311323 31.622461165142294
v -0.4388254050508642 2.6165479654221038 32.406379293183669
cstype bspline
deg 1
curv 0 2.8563184715926657 45 46
parm u 0 0 2.8563184715926657 2.8563184715926657
end
usemtl diffuse_0
v -3.223741860621538 3.6669931120780754 31.622461165142294
v 2.3460910505198092 3.9398461826026603 33.190297421225047
cstype bspline
deg 1
curv 0 5.7927193943790831 47 48
parm u 0 0 5.7927193943790831 5.7927193943790831
end
usemtl diffuse_0
v 2.3460910505198096 2.4801214301598109 33.190297421225047
v -3.223741860621538 2.7529745006843962 31.622461165142294
cstype bspline
deg 1
curv 0 5.7927193943790831 49 50
parm u 0 0 5.7927193943790831 5.7927193943790831
end
usemtl diffuse_0
v -3.223741860621538 3.6669931120780754 31.622461165142294
v -3.223741860621538 2.7529745006843962 31.622461165142294
cstype bspline
deg 1
curv 0 0.91401861139367924 51 52
parm u 0 0 0.91401861139367924 0.91401861139367924
end
usemtl diffuse_0
v 2.3022619727579876 3.9779692589313393 31.622461165142294
v -3.223741860621538 3.6669931120780754 31.622461165142294
cstype bspline
deg 1
curv 0 5.5347470159382093 53 54
parm u 0 0 5.5347470159382093 5.5347470159382093
end
usemtl diffuse_0
v 2.3022619727579876 2.4419983538311323 31.622461165142294
v -3.223741860621538 2.7529745006843962 31.622461165142294
cstype bspline
deg 1
curv 0 5.5347470159382093 55 56
parm u 0 0 5.5347470159382093 5.5347470159382093
end
usemtl diffuse_0
v 4.0588495891766758 4.1179170422304523 25.867017750160016
v 6.319589800245363 3.8706083608428603 26.622424525636681
cstype bspline
deg 1
curv 0 2.396402988286531 57 58
parm u 0 0 2.396402988286531 2.396402988286531
end
usemtl diffuse_0
v 4.0588495891766758 2.3020505705320193 25.867017750160016
v 6.319589800245363 2.5493592519196113 26.622424525636681
cstype bspline
deg 1
curv 0 2.396402988286531 59 60
parm u 0 0 2.396402988286531 2.396402988286531
end
usemtl diffuse_0
v 4.0166145889644769 2.3387870984047083 27.37783130111335
v 8.6225650115262482 2.7599314054345139 25.867017750160016
cstype bspline
deg 1
curv 0 4.8656653613030976 61 62
parm u 0 0 4.8656653613030976 4.8656653613030976
end
usemtl diffuse_0
v 4.0166145889644769 4.0811805143577633 27.37783130111335
v 8.6225650115262482 3.6600362073279578 25.867017750160016
cstype bspline
deg 1
curv 0 4.8656653613030976 63 64
parm u 0 0 4.8656653613030976 4.8656653613030976
end
usemtl diffuse_0
v 8.6225650115262482 3.6600362073279578 25.867017750160016
v 8.6225650115262482 2.7599314054345139 25.867017750160016
cstype bspline
deg 1
curv 0 0.90010480189344388 65 66
parm u 0 0 0.90010480189344388 0.90010480189344388
end
usemtl diffuse_0
v 4.0588495891766758 4.1179170422304523 25.867017750160016
v 8.6225650115262482 3.6600362073279578 25.867017750160016
cstype bspline
deg 1
curv 0 4.5866276625819928 67 68
parm u 0 0 4.5866276625819928 4.5866276625819928
end
usemtl diffuse_0
v 4.0588495891766758 2.3020505705320193 25.867017750160016
v 8.6225650115262482 2.7599314054345139 25.867017750160016
cstype bspline
deg 1
curv 0 4.5866276625819928 69 70
parm u 0 0 4.5866276625819928 4.5866276625819928
end
usemtl diffuse_0
v 2.1413677620198803 4.1179170422304523 25.867017750160016
v -0.11937244904880728 3.8706083608428603 26.622424525636681
cstype bspline
deg 1
curv 0 2.396402988286531 71 72
parm u 0 0 2.396402988286531 2.396402988286531
end
usemtl diffuse_0
v 2.1413677620198803 2.3020505705320193 25.867017750160016
v -0.11937244904880728 2.5493592519196113 26.622424525636681
cstype bspline
deg 1
curv 0 2.396402988286531 73 74
parm u 0 0 2.396402988286531 2.396402988286531
end
usemtl diffuse_0
v 2.1836027622320788 2.3387870984047083 27.37783130111335
v -2.4223476603296934 2.7599314054345139 25.867017750160016
cstype bspline
deg 1
curv 0 4.8656653613030976 75 76
parm u 0 0 4.8656653613030976 4.8656653613030976
end
usemtl diffuse_0
v 2.1836027622320788 4.0811805143577633 27.37783130111335
v -2.4223476603296934 3.6600362073279578 25.867017750160016
cstype bspline
deg 1
curv 0 4.8656653613030976 77 78
parm u 0 0 4.8656653613030976 4.8656653613030976
end
usemtl diffuse_0
v -2.4223476603296934 3.6600362073279578 25.867017750160016
v -2.4223476603296934 2.7599314054345139 25.867017750160016
cstype bspline
deg 1
curv 0 0.90010480189344388 79 80
parm u 0 0 0.90010480189344388 0.90010480189344388
end
usemtl diffuse_0
v 2.1413677620198799 4.1179170422304523 25.867017750160016
v -2.4223476603296934 3.6600362073279578 25.867017750160016
cstype bspline
deg 1
curv 0 4.5866276625819928 81 82
parm u 0 0 4.5866276625819928 4.5866276625819928
end
usemtl diffuse_0
v 2.1413677620198799 2.3020505705320193 25.867017750160016
v -2.4223476603296934 2.7599314054345139 25.867017750160016
cstype bspline
deg 1
curv 0 4.5866276625819928 83 84
parm u 0 0 4.5866276625819928 4.5866276625819928
end
usemtl diffuse_0
v 3.1001086755982783 3.2099838063812358 43.889684557152755
v 2.6249651266707161 2.7226895660664185 43.166069438308909
cstype bspline
deg 1
curv 0.68060052066647247 1.3612010413329452 85 86
parm u 0.68060052066647247 0.68060052066647247 1.3612010413329452 1.3612010413329452
end
usemtl diffuse_0
v 3.1001086755982783 3.2099838063812358 43.889684557152755
v 3.5752522245258405 2.7226895660664185 43.166069438308909
cstype bspline
deg 1
curv 0.68060052066647259 1.3612010413329452 87 88
parm u 0.68060052066647259 0.68060052066647259 1.3612010413329452 1.3612010413329452
end
usemtl diffuse_0
v 3.5752522245258405 3.6972780466960531 43.166069438308909
v 3.1001086755982783 3.2099838063812358 43.889684557152755
cstype bspline
deg 1
curv 0 0.68060052066647247 89 90
parm u 0 0 0.68060052066647247 0.68060052066647247
end
usemtl diffuse_0
v 2.6249651266707161 3.6972780466960531 43.166069438308909
v 3.1001086755982783 3.2099838063812358 43.889684557152755
cstype bspline
deg 1
curv 0 0.68060052066647259 91 92
parm u 0 0 0.68060052066647259 0.68060052066647259
end
usemtl diffuse_0
v 0.90980700380865365 5.371423436746138 6.4394117936234698
v 0.60127937635050088 4.2985319092382035 4.2557218081696577
cstype bspline
deg 1
curv 0 2.4525063668163098 93 94
parm u 0 0 2.4525063668163098 2.4525063668163098
end
usemtl diffuse_0
v 0.90980700380865365 1.0485441760163341 6.4394117936234698
v 0.60127937635050088 2.1214357035242681 4.2557218081696577
cstype bspline
deg 1
curv 0 2.4525063668163098 95 96
parm u 0 0 2.4525063668163098 2.4525063668163098
end
usemtl diffuse_0
v 5.2904103473879029 5.371423436746138 6.4394117936234698
v 5.5989379748460557 4.2985319092382035 4.2557218081696577
cstype bspline
deg 1
curv 0 2.4525063668163098 97 98
parm u 0 0 2.4525063668163098 2.4525063668163098
end
usemtl diffuse_0
v 5.2904103473879029 1.0485441760163341 6.4394117936234698
v 5.5989379748460557 2.1214357035242681 4.2557218081696577
cstype bspline
deg 1
curv 0 2.4525063668163098 99 100
parm u 0 0 2.4525063668163098 2.4525063668163098
end
usemtl diffuse_0
v 5.2904103473879029 5.371423436746138 6.4394117936234698
v 4.1513966636449533 5.7269986802396708 4.2557218081696577
cstype bspline
deg 1
curv 0 2.4884308063738563 101 102
parm u 0 0 2.4884308063738563 2.4884308063738563
end
usemtl diffuse_0
v 0.90980700380865398 5.371423436746138 6.4394117936234698
v 2.0488206875516037 5.7269986802396708 4.2557218081696577
cstype bspline
deg 1
curv 0 2.4884308063738563 103 104
parm u 0 0 2.4884308063738563 2.4884308063738563
end
usemtl diffuse_0
v 5.2904103473879029 1.0485441760163341 6.4394117936234698
v 4.1513966636449533 0.69296893252280078 4.2557218081696577
cstype bspline
deg 1
curv 0 2.4884308063738563 105 106
parm u 0 0 2.4884308063738563 2.4884308063738563
end
usemtl diffuse_0
v 0.90980700380865398 1.0485441760163341 6.4394117936234698
v 2.0488206875516037 0.69296893252280078 4.2557218081696577
cstype bspline
deg 1
curv 0 2.4884308063738563 107 108
parm u 0 0 2.4884308063738563 2.4884308063738563
end
usemtl diffuse_0
v 3.6820169953193482 2.6298242420846245 39.346922719501272
v 3.7210355645463364 3.8240822069216711 37.95116605250076
v 2.5182003558772079 3.7901433706778471 39.346922719501265
v 2.4791817866502202 2.5958854058408005 37.95116605250076
cstype bspline
deg 1
curv 0 7.360433257751744 109 110 111 112 109
parm u 0 0 1.8373652899730157 3.680216628875872 5.5175819188488822 7.360433257751744 7.360433257751744
end
usemtl diffuse_0
v 2.5182003558772079 2.6298242420846245 39.346922719501265
v 3.7210355645463364 2.5958854058408001 37.951166052500753
v 3.6820169953193482 3.7901433706778471 39.346922719501272
v 2.4791817866502197 3.8240822069216711 37.951166052500753
cstype bspline
deg 1
curv 0 7.3604332577517662 113 114 115 116 113
parm u 0 0 1.8428513389028618 3.6802166288758835 5.5230679677787506 7.3604332577517662 7.3604332577517662
end
usemtl diffuse_0
v 2.6249651266707161 3.6972780466960531 43.166069438308909
v 2.5848500480093861 2.6877969722945965 41.73108887397612
v 2.5561807897294622 3.7571075174797892 40.705543622704162
v 2.5182003558772084 2.6298242420846245 39.346922719501272
cstype bspline
deg 1
curv 0 5.002635076227218 117 118 119 120
parm u 0 0 1.7549445800718539 3.2368319006266377 5.002635076227218 5.002635076227218
end
usemtl diffuse_0
v 2.6249651266707161 2.7226895660664185 43.166069438308909
v 2.5848500480093861 3.7321706404678752 41.73108887397612
v 2.5561807897294622 2.6628600952826824 40.705543622704162
v 2.5182003558772084 3.7901433706778471 39.346922719501272
cstype bspline
deg 1
curv 0 5.002635076227218 121 122 123 124
parm u 0 0 1.7549445800718539 3.2368319006266377 5.002635076227218 5.002635076227218
end
usemtl diffuse_0
v 3.5752522245258405 3.6972780466960531 43.166069438308909
v 3.6153673031871705 2.6877969722945965 41.73108887397612
v 3.6440365614670944 3.7571075174797892 40.705543622704162
v 3.6820169953193482 2.6298242420846245 39.346922719501272
cstype bspline
deg 1
curv 0 5.002635076227218 125 126 127 128
parm u 0 0 1.7549445800718539 3.2368319006266377 5.002635076227218 5.002635076227218
end
usemtl diffuse_0
v 3.5752522245258405 2.7226895660664185 43.166069438308909
v 3.6153673031871705 3.7321706404678752 41.73108887397612
v 3.6440365614670944 2.6628600952826824 40.705543622704162
v 3.6820169953193482 3.7901433706778471 39.346922719501272
cstype bspline
deg 1
curv 0 5.002635076227218 129 130 131 132
parm u 0 0 1.7549445800718539 3.2368319006266377 5.002635076227218 5.002635076227218
end
usemtl diffuse_0
v 3.6820169953193482 3.7901433706778471 39.346922719501272
v 2.5561807897294622 3.7571075174797892 40.705543622704162
v 3.6153673031871705 3.7321706404678752 41.73108887397612
v 2.6249651266707161 3.6972780466960531 43.166069438308909
cstype bspline
deg 1
curv 0 4.9832385210531314 133 134 135 136
parm u 0 0 1.7647802378861208 3.2393110041071127 4.9832385210531314 4.9832385210531314
end
usemtl diffuse_0
v 2.5182003558772084 3.7901433706778471 39.346922719501272
v 3.6440365614670944 3.7571075174797892 40.705543622704162
v 2.5848500480093861 3.7321706404678752 41.73108887397612
v 3.5752522245258405 3.6972780466960531 43.166069438308909
cstype bspline
deg 1
curv 0 4.9832385210531314 137 138 139 140
parm u 0 0 1.7647802378861208 3.2393110041071127 4.9832385210531314 4.9832385210531314
end
usemtl diffuse_0
v 3.6820169953193482 2.6298242420846245 39.346922719501272
v 2.5561807897294622 2.6628600952826824 40.705543622704162
v 3.6153673031871705 2.6877969722945965 41.73108887397612
v 2.6249651266707161 2.7226895660664185 43.166069438308909
cstype bspline
deg 1
curv 0 4.9832385210531314 141 142 143 144
parm u 0 0 1.7647802378861208 3.2393110041071127 4.9832385210531314 4.9832385210531314
end
usemtl diffuse_0
v 2.5182003558772084 2.6298242420846245 39.346922719501272
v 3.6440365614670944 2.6628600952826824 40.705543622704162
v 2.5848500480093861 2.6877969722945965 41.73108887397612
v 3.5752522245258405 2.7226895660664185 43.166069438308909
cstype bspline
deg 1
curv 0 4.9832385210531314 145 146 147 148
parm u 0 0 1.7647802378861208 3.2393110041071127 4.9832385210531314 4.9832385210531314
end
usemtl diffuse_0
v 2.4791817866502202 3.8240822069216711 37.95116605250076
v 2.452691668149336 2.5728439716802884 37.003572118644534
v 2.4191229399531951 3.8763221378936512 35.802764987303476
v 2.3837406596685886 2.5128695279209299 34.537084195329115
v 2.3460910505198096 3.9398461826026607 33.190297421225047
cstype bspline
deg 1
curv 0 7.1656173130368401 149 150 151 152 153
parm u 0 0 1.569787600661082 3.342390194585394 5.2030897384592594 7.1656173130368401 7.1656173130368401
end
usemtl diffuse_0
v 2.4791817866502202 2.5958854058408005 37.95116605250076
v 2.452691668149336 3.8471236410821832 37.003572118644534
v 2.4191229399531951 2.5436454748688204 35.802764987303476
v 2.3837406596685886 3.9070980848415418 34.537084195329115
v 2.3460910505198096 2.4801214301598109 33.190297421225047
cstype bspline
deg 1
curv 0 7.1656173130368401 154 155 156 157 158
parm u 0 0 1.569787600661082 3.342390194585394 5.2030897384592594 7.1656173130368401 7.1656173130368401
end
usemtl diffuse_0
v 3.7210355645463364 3.8240822069216711 37.95116605250076
v 3.7475256830472206 2.5728439716802884 37.003572118644534
v 3.7810944112433615 3.8763221378936512 35.802764987303476
v 3.816476691527968 2.5128695279209299 34.537084195329115
v 3.854126300676747 3.9398461826026607 33.190297421225047
cstype bspline
deg 1
curv 0 7.1656173130368401 159 160 161 162 163
parm u 0 0 1.569787600661082 3.342390194585394 5.2030897384592594 7.1656173130368401 7.1656173130368401
end
usemtl diffuse_0
v 3.7210355645463364 2.5958854058408005 37.95116605250076
v 3.7475256830472206 3.8471236410821832 37.003572118644534
v 3.7810944112433615 2.5436454748688204 35.802764987303476
v 3.816476691527968 3.9070980848415418 34.537084195329115
v 3.854126300676747 2.4801214301598109 33.190297421225047
cstype bspline
deg 1
curv 0 7.1656173130368401 164 165 166 167 168
parm u 0 0 1.569787600661082 3.342390194585394 5.2030897384592594 7.1656173130368401 7.1656173130368401
end
usemtl diffuse_0
v 3.8541263006767474 3.9398461826026607 33.190297421225047
v 2.3837406596685886 3.9070980848415418 34.537084195329115
v 3.7810944112433615 3.8763221378936512 35.802764987303476
v 2.452691668149336 3.8471236410821832 37.003572118644534
v 3.7210355645463364 3.8240822069216711 37.95116605250076
cstype bspline
deg 1
curv 0 7.254164014826431 169 170 171 172 173
parm u 0 0 1.994226914393542 3.8798282861377071 5.6707621673168314 7.254164014826431 7.254164014826431
end
usemtl diffuse_0
v 2.3460910505198092 3.9398461826026607 33.190297421225047
v 3.816476691527968 3.9070980848415418 34.537084195329115
v 2.4191229399531951 3.8763221378936512 35.802764987303476
v 3.7475256830472206 3.8471236410821832 37.003572118644534
v 2.4791817866502202 3.8240822069216711 37.95116605250076
cstype bspline
deg 1
curv 0 7.254164014826431 174 175 176 177 178
parm u 0 0 1.994226914393542 3.8798282861377071 5.6707621673168314 7.254164014826431 7.254164014826431
end
usemtl diffuse_0
v 3.8541263006767474 2.4801214301598109 33.190297421225047
v 2.3837406596685886 2.5128695279209299 34.537084195329115
v 3.7810944112433615 2.5436454748688204 35.802764987303476
v 2.452691668149336 2.5728439716802884 37.003572118644534
v 3.7210355645463364 2.5958854058408005 37.95116605250076
cstype bspline
deg 1
curv 0 7.254164014826431 179 180 181 182 183
parm u 0 0 1.994226914393542 3.8798282861377071 5.6707621673168314 7.254164014826431 7.254164014826431
end
usemtl diffuse_0
v 2.3460910505198092 2.4801214301598109 33.190297421225047
v 3.816476691527968 2.5128695279209299 34.537084195329115
v 2.4191229399531951 2.5436454748688204 35.802764987303476
v 3.7475256830472206 2.5728439716802884 37.003572118644534
v 2.4791817866502202 2.5958854058408005 37.95116605250076
cstype bspline
deg 1
curv 0 7.254164014826431 184 185 186 187 188
parm u 0 0 1.994226914393542 3.8798282861377071 5.6707621673168314 7.254164014826431 7.254164014826431
end
usemtl diffuse_0
v 2.3460910505198092 3.9398461826026603 33.190297421225047
v 3.8979553784385694 3.9779692589313393 31.62246116514229
v 3.854126300676747 2.4801214301598109 33.190297421225047
v 2.3022619727579876 2.4419983538311323 31.622461165142294
cstype bspline
deg 1
curv 0 8.7501870009967995 189 190 191 192 189
parm u 0 0 2.2063197381846318 4.3750935004984024 6.5814132386830311 8.7501870009967995 8.7501870009967995
end
usemtl diffuse_0
v 3.854126300676747 3.9398461826026603 33.190297421225047
v 2.3022619727579872 3.9779692589313393 31.62246116514229
v 2.3460910505198092 2.4801214301598109 33.190297421225047
v 3.8979553784385685 2.4419983538311323 31.62246116514229
cstype bspline
deg 1
curv 0 8.750187000996803 193 194 195 196 193
parm u 0 0 2.2063197381846318 4.3750935004984024 6.5814132386830337 8.750187000996803 8.750187000996803
end
usemtl diffuse_0
v 3.8979553784385694 2.4419983538311323 31.62246116514229
v 3.9342689382363383 4.0095552443691229 30.323467014552051
v 3.9723380807921185 2.3772993552629291 28.961672859053621
v 4.0166145889644778 4.0811805143577633 27.377831301113353
cstype bspline
deg 1
curv 0 6.4889735974098883 197 198 199 200
parm u 0 0 2.0361579219122414 4.1622322077937266 6.4889735974098883 6.4889735974098883
end
usemtl diffuse_0
v 3.8979553784385694 3.9779692589313393 31.62246116514229
v 3.9342689382363383 2.4104123683933487 30.323467014552051
v 3.9723380807921185 4.0426682574995425 28.961672859053621
v 4.0166145889644778 2.3387870984047083 27.377831301113353
cstype bspline
deg 1
curv 0 6.4889735974098883 201 202 203 204
parm u 0 0 2.0361579219122414 4.1622322077937266 6.4889735974098883 6.4889735974098883
end
usemtl diffuse_0
v 2.3022619727579872 2.4419983538311323 31.62246116514229
v 2.2659484129602183 4.0095552443691229 30.323467014552051
v 2.2278792704044381 2.3772993552629291 28.961672859053621
v 2.1836027622320788 4.0811805143577633 27.377831301113353
cstype bspline
deg 1
curv 0 6.4889735974098883 205 206 207 208
parm u 0 0 2.0361579219122414 4.1622322077937266 6.4889735974098883 6.4889735974098883
end
usemtl diffuse_0
v 2.3022619727579872 3.9779692589313393 31.62246116514229
v 2.2659484129602183 2.4104123683933487 30.323467014552051
v 2.2278792704044381 4.0426682574995425 28.961672859053621
v 2.1836027622320788 2.3387870984047083 27.377831301113353
cstype bspline
deg 1
curv 0 6.4889735974098883 209 210 211 212
parm u 0 0 2.0361579219122414 4.1622322077937266 6.4889735974098883 6.4889735974098883
end
usemtl diffuse_0
v 4.0166145889644769 4.0811805143577633 27.377831301113353
v 2.2278792704044381 4.0426682574995425 28.961672859053621
v 3.9342689382363374 4.0095552443691229 30.323467014552051
v 2.3022619727579872 3.9779692589313393 31.62246116514229
cstype bspline
deg 1
curv 0 6.6590085474667564 213 214 215 216
parm u 0 0 2.3894792977657393 4.5729044721355221 6.6590085474667564 6.6590085474667564
end
usemtl diffuse_0
v 2.1836027622320788 4.0811805143577633 27.377831301113353
v 3.9723380807921176 4.0426682574995425 28.961672859053621
v 2.2659484129602183 4.0095552443691229 30.323467014552051
v 3.8979553784385685 3.9779692589313393 31.62246116514229
cstype bspline
deg 1
curv 0 6.6590085474667564 217 218 219 220
parm u 0 0 2.3894792977657393 4.5729044721355221 6.6590085474667564 6.6590085474667564
end
usemtl diffuse_0
v 4.0166145889644769 2.3387870984047083 27.377831301113353
v 2.2278792704044381 2.3772993552629291 28.961672859053621
v 3.9342689382363374 2.4104123683933487 30.323467014552051
v 2.3022619727579872 2.4419983538311323 31.62246116514229
cstype bspline
deg 1
curv 0 6.6590085474667564 221 222 223 224
parm u 0 0 2.3894792977657393 4.5729044721355221 6.6590085474667564 6.6590085474667564
end
usemtl diffuse_0
v 2.1836027622320788 2.3387870984047083 27.377831301113353
v 3.9723380807921176 2.3772993552629291 28.961672859053621
v 2.2659484129602183 2.4104123683933487 30.323467014552051
v 3.8979553784385685 2.4419983538311323 31.62246116514229
cstype bspline
deg 1
curv 0 6.6590085474667564 225 226 227 228
parm u 0 0 2.3894792977657393 4.5729044721355221 6.6590085474667564 6.6590085474667564
end
usemtl diffuse_0
v 4.0166145889644769 2.3387870984047083 27.37783130111335
v 2.1413677620198803 2.3020505705320193 25.867017750160016
v 2.1836027622320788 4.0811805143577633 27.37783130111335
v 4.0588495891766758 4.1179170422304523 25.867017750160016
cstype bspline
deg 1
curv 0 9.4857227592249522 229 230 231 232 229
parm u 0 0 2.4084139636262987 4.7428613796124761 7.1512753432387752 9.4857227592249522 9.4857227592249522
end
usemtl diffuse_0
v 2.1836027622320788 2.3387870984047083 27.37783130111335
v 4.0588495891766758 2.3020505705320193 25.867017750160016
v 4.0166145889644769 4.0811805143577633 27.37783130111335
v 2.1413677620198803 4.1179170422304523 25.867017750160016
cstype bspline
deg 1
curv 0 9.4857227592249522 233 234 235 236 233
parm u 0 0 2.4084139636262991 4.7428613796124761 7.1512753432387743 9.4857227592249522 9.4857227592249522
end
usemtl diffuse_0
v 4.8944471504736411 3.2099838063812358 9.6701413575973341
v 5.0924287489307716 5.1912460993002449 8.0547765756104024
v 5.2904103473879029 3.2099838063812358 6.4394117936234698
v 5.0924287489307716 1.2287215134622267 8.0547765756104024
cstype bspline
deg 1
curv 0 10.255925401876922 237 238 239 240 237
parm u 0 0 2.5639813504692301 5.1279627009384612 7.6919440514076918 10.255925401876922 10.255925401876922
end
usemtl diffuse_0
v 4.6963236899105585 3.2099838063812358 12.656643787321634
v 4.7953854201921002 4.9048528851273101 11.163392572459484
v 4.8944471504736411 3.2099838063812358 9.6701413575973341
v 4.7953854201921002 1.5151147276351611 11.163392572459484
cstype bspline
deg 1
curv 0 9.0440642290361719 241 242 243 244 241
parm u 0 0 2.2610160572590425 4.5220321145180851 6.7830481717771285 9.0440642290361719 9.0440642290361719
end
usemtl diffuse_0
v 4.5145974254569605 3.2099838063812358 15.39597576139942
v 4.6054605576837595 4.7012118248888832 14.026309774360527
v 4.6963236899105585 3.2099838063812358 12.656643787321634
v 4.6054605576837595 1.7187557878735882 14.026309774360527
cstype bspline
deg 1
curv 0 8.1072826796963575 245 246 247 248 245
parm u 0 0 2.0268206699240894 4.0536413398481788 6.0804620097722681 8.1072826796963575 8.1072826796963575
end
usemtl diffuse_0
v 4.3599367748581539 3.2099838063812363 17.727322122316686
v 4.4372671001575572 4.5208715915805735 16.561648941858053
v 4.5145974254569605 3.2099838063812358 15.39597576139942
v 4.4372671001575572 1.8990960211818979 16.561648941858053
cstype bspline
deg 1
curv 0 7.0236181311187833 249 250 251 252 249
parm u 0 0 1.7559045327796954 3.5118090655593912 5.2677135983390873 7.0236181311187833 7.0236181311187833
end
usemtl diffuse_0
v 4.225248748487096 3.2099838063812358 19.757602215692401
v 4.2789210246524956 4.351089909105859 18.948549200359256
v 4.3599367748581539 3.2099838063812363 17.727322122316686
v 4.2789210246524956 2.0688777036566126 18.948549200359256
cstype bspline
deg 1
curv 0 6.146382561022647 253 254 255 256 253
parm u 0 0 1.3998466460737073 3.0731912805113231 4.7465359149489394 6.146382561022647 6.146382561022647
end
usemtl diffuse_0
v 4.1733940582537201 3.2099838063812358 21.661469106364564
v 4.1993214033704085 4.2661766981497093 20.709535661028482
v 4.225248748487096 3.2099838063812358 19.757602215692401
v 4.1993214033704085 2.1537909146127623 20.709535661028482
cstype bspline
deg 1
curv 0 5.6884344928234478 257 258 259 260 257
parm u 0 0 1.422108623205862 2.8442172464117239 4.2663258696175861 5.6884344928234478 5.6884344928234478
end
usemtl diffuse_0
v 4.1249770320830201 3.2099838063812358 23.439120706563973
v 4.1491855451683701 4.213261277864758 22.550294906464266
v 4.1733940582537201 3.2099838063812358 21.661469106364564
v 4.1491855451683701 2.2067063348977132 22.550294906464266
cstype bspline
deg 1
curv 0 5.3623323877806062 261 262 263 264 261
parm u 0 0 1.3405830969451527 2.6811661938903031 4.0217492908354533 5.3623323877806062 5.3623323877806062
end
usemtl diffuse_0
v 4.0791500786959292 3.2099838063812358 25.121676688701569
v 4.1020635553894742 4.1635268166780133 24.280398697632769
v 4.1249770320830201 3.2099838063812358 23.439120706563973
v 4.1020635553894742 2.2564407960844579 24.280398697632769
cstype bspline
deg 1
curv 0 5.0872671770321318 265 266 267 268 265
parm u 0 0 1.2718167942580338 2.5436335885160655 3.8154503827740971 5.0872671770321318 5.0872671770321318
end
usemtl diffuse_0
v 4.0588495891766758 4.1179170422304523 25.867017750160016
v 4.0791500786959292 3.2099838063812358 25.121676688701569
v 4.0588495891766758 2.3020505705320193 25.867017750160016
cstype bspline
deg 1
curv 0 2.3497133174328777 269 270 271
parm u 0 0 1.1748566587164389 2.3497133174328777 2.3497133174328777
end
usemtl diffuse_0
v 1.3057702007229153 3.2099838063812358 9.6701413575973341
v 1.1077886022657846 5.1912460993002449 8.0547765756104024
v 0.90980700380865365 3.2099838063812358 6.4394117936234698
v 1.1077886022657846 1.2287215134622267 8.0547765756104024
cstype bspline
deg 1
curv 0 10.255925401876922 272 273 274 275 272
parm u 0 0 2.5639813504692301 5.1279627009384612 7.6919440514076918 10.255925401876922 10.255925401876922
end
usemtl diffuse_0
v 1.5038936612859979 3.2099838063812358 12.656643787321634
v 1.4048319310044566 4.9048528851273101 11.163392572459484
v 1.3057702007229153 3.2099838063812358 9.6701413575973341
v 1.4048319310044566 1.5151147276351611 11.163392572459484
cstype bspline
deg 1
curv 0 9.0440642290361719 276 277 278 279 276
parm u 0 0 2.2610160572590425 4.5220321145180851 6.7830481717771285 9.0440642290361719 9.0440642290361719
end
usemtl diffuse_0
v 1.6856199257395958 3.2099838063812358 15.39597576139942
v 1.5947567935127969 4.7012118248888832 14.026309774360527
v 1.5038936612859979 3.2099838063812358 12.656643787321634
v 1.5947567935127969 1.7187557878735882 14.026309774360527
cstype bspline
deg 1
curv 0 8.1072826796963575 280 281 282 283 280
parm u 0 0 2.0268206699240894 4.0536413398481788 6.0804620097722681 8.1072826796963575 8.1072826796963575
end
usemtl diffuse_0
v 1.8402805763384027 3.2099838063812363 17.727322122316686
v 1.7629502510389994 4.5208715915805735 16.561648941858053
v 1.6856199257395958 3.2099838063812358 15.39597576139942
v 1.7629502510389994 1.8990960211818979 16.561648941858053
cstype bspline
deg 1
curv 0 7.0236181311187833 284 285 286 287 284
parm u 0 0 1.7559045327796954 3.5118090655593912 5.2677135983390873 7.0236181311187833 7.0236181311187833
end
usemtl diffuse_0
v 1.9749686027094606 3.2099838063812358 19.757602215692401
v 1.921296326544061 4.351089909105859 18.948549200359256
v 1.8402805763384027 3.2099838063812363 17.727322122316686
v 1.921296326544061 2.0688777036566126 18.948549200359256
cstype bspline
deg 1
curv 0 6.146382561022647 288 289 290 291 288
parm u 0 0 1.3998466460737073 3.0731912805113231 4.7465359149489394 6.146382561022647 6.146382561022647
end
usemtl diffuse_0
v 2.026823292942836 3.2099838063812358 21.661469106364564
v 2.0008959478261481 4.2661766981497093 20.709535661028482
v 1.9749686027094606 3.2099838063812358 19.757602215692401
v 2.0008959478261481 2.1537909146127623 20.709535661028482
cstype bspline
deg 1
curv 0 5.6884344928234478 292 293 294 295 292
parm u 0 0 1.422108623205862 2.8442172464117239 4.2663258696175861 5.6884344928234478 5.6884344928234478
end
usemtl diffuse_0
v 2.0752403191135369 3.2099838063812358 23.439120706563973
v 2.0510318060281865 4.213261277864758 22.550294906464266
v 2.026823292942836 3.2099838063812358 21.661469106364564
v 2.0510318060281865 2.2067063348977132 22.550294906464266
cstype bspline
deg 1
curv 0 5.3623323877806062 296 297 298 299 296
parm u 0 0 1.3405830969451527 2.6811661938903031 4.0217492908354533 5.3623323877806062 5.3623323877806062
end
usemtl diffuse_0
v 2.1210672725006274 3.2099838063812358 25.121676688701569
v 2.0981537958070824 4.1635268166780133 24.280398697632769
v 2.0752403191135369 3.2099838063812358 23.439120706563973
v 2.0981537958070824 2.2564407960844579 24.280398697632769
cstype bspline
deg 1
curv 0 5.0872671770321318 300 301 302 303 300
parm u 0 0 1.2718167942580338 2.5436335885160655 3.8154503827740971 5.0872671770321318 5.0872671770321318
end
usemtl diffuse_0
v 2.1413677620198803 4.1179170422304523 25.867017750160016
v 2.1210672725006274 3.2099838063812358 25.121676688701569
v 2.1413677620198803 2.3020505705320193 25.867017750160016
cstype bspline
deg 1
curv 0 2.3497133174328777 304 305 306
parm u 0 0 1.1748566587164389 2.3497133174328777 2.3497133174328777
end
usemtl diffuse_0
v 3.1001086755982787 4.4379565417836497 17.727322122316686
v 4.2789210246524956 4.351089909105859 18.948549200359256
v 3.1001086755982783 4.2935414708478001 19.757602215692401
v 1.921296326544061 4.351089909105859 18.948549200359256
cstype bspline
deg 1
curv 0 6.2609426754039381 307 308 309 310 307
parm u 0 0 1.6995705170130169 3.1304713377019691 4.5613721583909212 6.2609426754039381 6.2609426754039381
end
usemtl diffuse_0
v 3.1001086755982783 5.371423436746138 6.4394117936234698
v 5.0924287489307716 5.1912460993002449 8.0547765756104024
v 3.1001086755982783 5.0110687618543519 9.6701413575973341
v 1.1077886022657846 5.1912460993002449 8.0547765756104024
cstype bspline
deg 1
curv 0 10.284906631693939 311 312 313 314 311
parm u 0 0 2.5712266579234848 5.1424533158469696 7.7136799737704536 10.284906631693939 10.284906631693939
end
usemtl diffuse_0
v 2.1413677620198803 4.1179170422304523 25.867017750160016
v 3.1001086755982783 4.1393430030781282 25.121676688701569
v 4.0588495891766758 4.1179170422304523 25.867017750160016
cstype bspline
deg 1
curv 0 2.4291368912133309 315 316 317
parm u 0 0 1.2145684456066657 2.4291368912133309 2.4291368912133309
end
usemtl diffuse_0
v 3.1001086755982783 4.1877106302778984 23.439120706563973
v 2.0981537958070824 4.1635268166780133 24.280398697632769
v 3.1001086755982783 4.1393430030781282 25.121676688701569
v 4.1020635553894742 4.1635268166780133 24.280398697632769
cstype bspline
deg 1
curv 0 5.2341143988023457 318 319 320 321 318
parm u 0 0 1.3085285997005853 2.6170571994011729 3.9255857991017606 5.2341143988023457 5.2341143988023457
end
usemtl diffuse_0
v 3.1001086755982783 4.2388119254516177 21.661469106364564
v 2.0510318060281865 4.213261277864758 22.550294906464266
v 3.1001086755982783 4.1877106302778984 23.439120706563973
v 4.1491855451683701 4.213261277864758 22.550294906464266
cstype bspline
deg 1
curv 0 5.5008747184890092 322 323 324 325 322
parm u 0 0 1.3752186796222512 2.7504373592445046 4.125656038866758 5.5008747184890092 5.5008747184890092
end
usemtl diffuse_0
v 3.1001086755982783 4.2935414708478001 19.757602215692401
v 2.0008959478261481 4.2661766981497093 20.709535661028482
v 3.1001086755982783 4.2388119254516177 21.661469106364564
v 4.1993214033704085 4.2661766981497093 20.709535661028482
cstype bspline
deg 1
curv 0 5.8174836292410657 326 327 328 329 326
parm u 0 0 1.4543709073102664 2.9087418146205328 4.3631127219307988 5.8174836292410657 5.8174836292410657
end
usemtl diffuse_0
v 3.1001086755982783 4.6037866413774982 15.39597576139942
v 1.7629502510389994 4.5208715915805735 16.561648941858053
v 3.1001086755982779 4.4379565417836497 17.727322122316686
v 4.4372671001575572 4.5208715915805735 16.561648941858053
cstype bspline
deg 1
curv 0 7.103420608685056 330 331 332 333 330
parm u 0 0 1.775855152171264 3.551710304342528 5.327565456513792 7.103420608685056 7.103420608685056
end
usemtl diffuse_0
v 1.5947567935127969 4.7012118248888832 14.026309774360527
v 3.1001086755982783 4.6037866413774982 15.39597576139942
v 4.6054605576837595 4.7012118248888832 14.026309774360527
v 3.1001086755982783 4.7986370084002692 12.656643787321634
cstype bspline
deg 1
curv 0 8.1501517741271563 334 335 336 337 334
parm u 0 0 2.0375379435317891 4.0750758870635782 6.1126138305953672 8.1501517741271563 8.1501517741271563
end
usemtl diffuse_0
v 3.1001086755982783 4.7986370084002692 12.656643787321634
v 1.4048319310044566 4.9048528851273101 11.163392572459484
v 3.1001086755982783 5.0110687618543519 9.6701413575973341
v 4.7953854201920993 4.9048528851273101 11.163392572459484
cstype bspline
deg 1
curv 0 9.0465854278102569 338 339 340 341 338
parm u 0 0 2.2616463569525642 4.5232927139051284 6.7849390708576927 9.0465854278102569 9.0465854278102569
end
usemtl diffuse_0
v 3.1001086755982787 1.9820110709788219 17.727322122316686
v 4.2789210246524956 2.0688777036566126 18.948549200359256
v 3.1001086755982783 2.1264261419146715 19.757602215692401
v 1.921296326544061 2.0688777036566126 18.948549200359256
cstype bspline
deg 1
curv 0 6.2609426754039381 342 343 344 345 342
parm u 0 0 1.6995705170130169 3.1304713377019691 4.5613721583909212 6.2609426754039381 6.2609426754039381
end
usemtl diffuse_0
v 3.1001086755982783 1.0485441760163341 6.4394117936234698
v 5.0924287489307716 1.2287215134622267 8.0547765756104024
v 3.1001086755982783 1.4088988509081195 9.6701413575973341
v 1.1077886022657846 1.2287215134622267 8.0547765756104024
cstype bspline
deg 1
curv 0 10.284906631693939 346 347 348 349 346
parm u 0 0 2.5712266579234848 5.1424533158469696 7.7136799737704536 10.284906631693939 10.284906631693939
end
usemtl diffuse_0
v 2.1413677620198803 2.3020505705320193 25.867017750160016
v 3.1001086755982783 2.280624609684343 25.121676688701569
v 4.0588495891766758 2.3020505705320193 25.867017750160016
cstype bspline
deg 1
curv 0 2.4291368912133309 350 351 352
parm u 0 0 1.2145684456066657 2.4291368912133309 2.4291368912133309
end
usemtl diffuse_0
v 3.1001086755982783 2.2322569824845728 23.439120706563973
v 2.0981537958070824 2.2564407960844579 24.280398697632769
v 3.1001086755982783 2.280624609684343 25.121676688701569
v 4.1020635553894742 2.2564407960844579 24.280398697632769
cstype bspline
deg 1
curv 0 5.2341143988023457 353 354 355 356 353
parm u 0 0 1.3085285997005853 2.6170571994011729 3.9255857991017606 5.2341143988023457 5.2341143988023457
end
usemtl diffuse_0
v 3.1001086755982783 2.1811556873108535 21.661469106364564
v 2.0510318060281865 2.2067063348977132 22.550294906464266
v 3.1001086755982783 2.2322569824845728 23.439120706563973
v 4.1491855451683701 2.2067063348977132 22.550294906464266
cstype bspline
deg 1
curv 0 5.5008747184890092 357 358 359 360 357
parm u 0 0 1.3752186796222512 2.7504373592445046 4.125656038866758 5.5008747184890092 5.5008747184890092
end
usemtl diffuse_0
v 3.1001086755982783 2.1264261419146715 19.757602215692401
v 2.0008959478261481 2.1537909146127623 20.709535661028482
v 3.1001086755982783 2.1811556873108535 21.661469106364564
v 4.1993214033704085 2.1537909146127623 20.709535661028482
cstype bspline
deg 1
curv 0 5.8174836292410657 361 362 363 364 361
parm u 0 0 1.4543709073102664 2.9087418146205328 4.3631127219307988 5.8174836292410657 5.8174836292410657
end
usemtl diffuse_0
v 3.1001086755982783 1.8161809713849739 15.39597576139942
v 1.7629502510389994 1.8990960211818979 16.561648941858053
v 3.1001086755982779 1.9820110709788219 17.727322122316686
v 4.4372671001575572 1.8990960211818979 16.561648941858053
cstype bspline
deg 1
curv 0 7.103420608685056 365 366 367 368 365
parm u 0 0 1.775855152171264 3.551710304342528 5.327565456513792 7.103420608685056 7.103420608685056
end
usemtl diffuse_0
v 1.5947567935127969 1.7187557878735882 14.026309774360527
v 3.1001086755982783 1.8161809713849739 15.39597576139942
v 4.6054605576837595 1.7187557878735882 14.026309774360527
v 3.1001086755982783 1.6213306043622024 12.656643787321634
cstype bspline
deg 1
curv 0 8.1501517741271563 369 370 371 372 369
parm u 0 0 2.0375379435317891 4.0750758870635782 6.1126138305953672 8.1501517741271563 8.1501517741271563
end
usemtl diffuse_0
v 3.1001086755982783 1.6213306043622024 12.656643787321634
v 1.4048319310044566 1.5151147276351611 11.163392572459484
v 3.1001086755982783 1.4088988509081195 9.6701413575973341
v 4.7953854201920993 1.5151147276351611 11.163392572459484
cstype bspline
deg 1
curv 0 9.0465854278102569 373 374 375 376 373
parm u 0 0 2.2616463569525642 4.5232927139051284 6.7849390708576927 9.0465854278102569 9.0465854278102569
end
usemtl diffuse_0
v 0.97792821509844285 0.33076289956371774 2.0313102347635521
v 0.28699830632452061 0.33076289956371774 2.0313102347635521
v 0.28699830632452061 1.012588287300443 2.0313102347635521
cstype bspline
deg 1
curv 10.993168165346717 15.147451290310483 377 378 379
parm u 10.993168165346717 10.993168165346717 13.084085947888303 15.147451290310483 15.147451290310483
end
usemtl diffuse_0
v 5.9132190448720356 1.012588287300443 2.0313102347635521
v 5.9132190448720356 0.33076289956371774 2.0313102347635521
v 5.2222891360981132 0.33076289956371774 2.0313102347635521
cstype bspline
deg 1
curv 6.6401172618868749 10.79440038685064 380 381 382
parm u 6.6401172618868749 6.6401172618868749 8.7034826043090536 10.79440038685064 10.79440038685064
end
usemtl diffuse_0
v 5.5989379748460557 2.1214357035242681 4.2557218081696577
v 5.5989379748460557 0.69296893252280078 4.2557218081696577
v 4.1513966636449533 0.69296893252280078 4.2557218081696577
cstype bspline
deg 1
curv 4.3806033435792493 13.084085947888303 383 384 385
parm u 4.3806033435792493 4.3806033435792493 8.7034826043090536 13.084085947888303 13.084085947888303
end
usemtl diffuse_0
v 2.0488206875516037 0.69296893252280078 4.2557218081696577
v 0.60127937635050133 0.69296893252280078 4.2557218081696577
v 0.60127937635050133 2.1214357035242681 4.2557218081696577
cstype bspline
deg 1
curv 8.7034826043090536 17.406965208618107 386 387 388
parm u 8.7034826043090536 8.7034826043090536 13.084085947888303 17.406965208618107 17.406965208618107
end
usemtl diffuse_0
v 0.97792821509844285 6.0892047131987539 2.0313102347635521
v 0.28699830632452061 6.0892047131987539 2.0313102347635521
v 0.28699830632452061 5.4073793254620286 2.0313102347635521
cstype bspline
deg 1
curv 10.993168165346717 15.147451290310483 389 390 391
parm u 10.993168165346717 10.993168165346717 13.084085947888303 15.147451290310483 15.147451290310483
end
usemtl diffuse_0
v 5.9132190448720356 5.4073793254620286 2.0313102347635521
v 5.9132190448720356 6.0892047131987539 2.0313102347635521
v 5.2222891360981132 6.0892047131987539 2.0313102347635521
cstype bspline
deg 1
curv 6.6401172618868749 10.79440038685064 392 393 394
parm u 6.6401172618868749 6.6401172618868749 8.7034826043090536 10.79440038685064 10.79440038685064
end
usemtl diffuse_0
v 5.5989379748460557 4.2985319092382035 4.2557218081696577
v 5.5989379748460557 5.7269986802396708 4.2557218081696577
v 4.1513966636449533 5.7269986802396708 4.2557218081696577
cstype bspline
deg 1
curv 4.3806033435792493 13.084085947888303 395 396 397
parm u 4.3806033435792493 4.3806033435792493 8.7034826043090536 13.084085947888303 13.084085947888303
end
usemtl diffuse_0
v 2.0488206875516037 5.7269986802396708 4.2557218081696577
v 0.60127937635050133 5.7269986802396708 4.2557218081696577
v 0.60127937635050133 4.2985319092382035 4.2557218081696577
cstype bspline
deg 1
curv 8.7034826043090536 17.406965208618107 398 399 400
parm u 8.7034826043090536 8.7034826043090536 13.084085947888303 17.406965208618107 17.406965208618107
end
usemtl diffuse_0
v 0 6.4199676127624716 0
v 0.90980700380865365 3.2099838063812358 6.4394117936234698
v 0 0 0
cstype bspline
deg 1
curv 0 14.504863883438007 401 402 403
parm u 0 0 7.2524319417190037 14.504863883438007 14.504863883438007
end
usemtl diffuse_0
v 0 6.4199676127624716 0
v 3.1001086755982783 5.371423436746138 6.4394117936234698
v 6.2002173511965566 6.4199676127624716 0
cstype bspline
deg 1
curv 0 14.446611081832932 404 405 406
parm u 0 0 7.2233055409164661 14.446611081832932 14.446611081832932
end
usemtl diffuse_0
v 6.2002173511965566 6.4199676127624716 0
v 5.2904103473879029 3.2099838063812358 6.4394117936234698
v 6.2002173511965566 0 0
cstype bspline
deg 1
curv 0 14.504863883438007 407 408 409
parm u 0 0 7.2524319417190037 14.504863883438007 14.504863883438007
end
usemtl diffuse_0
v 0 0 0
v 3.1001086755982783 1.0485441760163341 6.4394117936234698
v 6.2002173511965566 0 0
cstype bspline
deg 1
curv 0 14.446611081832932 410 411 412
parm u 0 0 7.2233055409164661 14.446611081832932 14.446611081832932
end
usemtl diffuse_0
v 2.6249651266707161 2.7226895660664185 43.166069438308909
v 3.5752522245258405 2.7226895660664185 43.166069438308909
v 3.5752522245258405 3.6972780466960531 43.166069438308909
v 2.6249651266707161 3.6972780466960531 43.166069438308909
cstype bspline
deg 1
curv 0 3.8497511569695178 413 414 415 416 413
parm u 0 0 0.95028709785512433 1.9248755784847589 2.8751626763398832 3.8497511569695178 3.8497511569695178
end
usemtl diffuse_0
v 2.5182003558772079 2.6298242420846245 39.346922719501265
v 3.6820169953193482 2.6298242420846245 39.346922719501265
v 3.6820169953193482 3.7901433706778471 39.346922719501265
v 2.5182003558772079 3.7901433706778471 39.346922719501265
cstype bspline
deg 1
curv 0 4.6482715360707259 417 418 419 420 417
parm u 0 0 1.1638166394421403 2.3241357680353629 3.4879524074775032 4.6482715360707259 4.6482715360707259
end
usemtl diffuse_0
v 2.4791817866502197 2.5958854058408001 37.951166052500753
v 3.7210355645463364 2.5958854058408001 37.951166052500753
v 3.7210355645463364 3.8240822069216711 37.951166052500753
v 2.4791817866502197 3.8240822069216711 37.951166052500753
cstype bspline
deg 1
curv 0 4.9401011579539755 421 422 423 424 421
parm u 0 0 1.2418537778961167 2.4700505789769878 3.7119043568731045 4.9401011579539755 4.9401011579539755
end
usemtl diffuse_0
v 2.3460910505198092 2.4801214301598109 33.190297421225047
v 3.854126300676747 2.4801214301598109 33.190297421225047
v 3.854126300676747 3.9398461826026603 33.190297421225047
v 2.3460910505198092 3.9398461826026603 33.190297421225047
cstype bspline
deg 1
curv 0 5.9355200051995745 425 426 427 428 425
parm u 0 0 1.5080352501569378 2.9677600025997872 4.4757952527567255 5.9355200051995745 5.9355200051995745
end
usemtl diffuse_0
v 2.3022619727579872 2.4419983538311323 31.62246116514229
v 3.8979553784385685 2.4419983538311323 31.62246116514229
v 3.8979553784385685 3.9779692589313393 31.62246116514229
v 2.3022619727579872 3.9779692589313393 31.62246116514229
cstype bspline
deg 1
curv 0 6.2633286215615769 429 430 431 432 429
parm u 0 0 1.5956934056805814 3.1316643107807884 4.7273577164613698 6.2633286215615769 6.2633286215615769
end
usemtl diffuse_0
v 2.1836027622320788 2.3387870984047083 27.37783130111335
v 4.0166145889644769 2.3387870984047083 27.37783130111335
v 4.0166145889644769 4.0811805143577633 27.37783130111335
v 2.1836027622320788 4.0811805143577633 27.37783130111335
cstype bspline
deg 1
curv 0 7.150810485370906 433 434 435 436 433
parm u 0 0 1.833011826732398 3.575405242685453 5.4084170694178511 7.150810485370906 7.150810485370906
end
usemtl diffuse_0
v 2.1413677620198803 2.3020505705320193 25.867017750160016
v 4.0588495891766758 2.3020505705320193 25.867017750160016
v 4.0588495891766758 4.1179170422304523 25.867017750160016
v 2.1413677620198803 4.1179170422304523 25.867017750160016
cstype bspline
deg 1
curv 0 7.4666965977104569 437 438 439 440 437
parm u 0 0 1.9174818271567955 3.7333482988552285 5.6508301260120239 7.4666965977104569 7.4666965977104569
end
usemtl diffuse_0
v 2.1210672725006274 2.280624609684343 25.121676688701569
v 4.0791500786959292 2.280624609684343 25.121676688701569
v 4.0791500786959292 4.1393430030781282 25.121676688701569
v 2.1210672725006274 4.1393430030781282 25.121676688701569
cstype bspline
deg 1
curv 0 7.633602399178173 441 442 443 444 441
parm u 0 0 1.9580828061953017 3.8168011995890869 5.7748840057843882 7.633602399178173 7.633602399178173
end
usemtl diffuse_0
v 2.0752403191135369 2.2322569824845728 23.439120706563973
v 4.1249770320830192 2.2322569824845728 23.439120706563973
v 4.1249770320830192 4.1877106302778984 23.439120706563973
v 2.0752403191135369 4.1877106302778984 23.439120706563973
cstype bspline
deg 1
curv 0 8.0103807215256158 445 446 447 448 445
parm u 0 0 2.0497367129694823 4.0051903607628079 6.0549270737322907 8.0103807215256158 8.0103807215256158
end
usemtl diffuse_0
v 2.026823292942836 2.1811556873108535 21.661469106364564
v 4.1733940582537201 2.1811556873108535 21.661469106364564
v 4.1733940582537201 4.2388119254516177 21.661469106364564
v 2.026823292942836 4.2388119254516177 21.661469106364564
cstype bspline
deg 1
curv 0 8.4084540069032965 449 450 451 452 449
parm u 0 0 2.1465707653108841 4.2042270034516482 6.3507977687625328 8.4084540069032965 8.4084540069032965
end
usemtl diffuse_0
v 1.9749686027094606 2.1264261419146715 19.757602215692401
v 4.225248748487096 2.1264261419146715 19.757602215692401
v 4.225248748487096 4.2935414708478001 19.757602215692401
v 1.9749686027094606 4.2935414708478001 19.757602215692401
cstype bspline
deg 1
curv 0 8.834790949421528 453 454 455 456 453
parm u 0 0 2.2502801457776354 4.417395474710764 6.6676756204883993 8.834790949421528 8.834790949421528
end
usemtl diffuse_0
v 1.8402805763384027 1.9820110709788219 17.727322122316686
v 4.3599367748581539 1.9820110709788219 17.727322122316686
v 4.3599367748581539 4.4379565417836506 17.727322122316686
v 1.8402805763384027 4.4379565417836506 17.727322122316686
cstype bspline
deg 1
curv 0 9.9512033386491598 457 458 459 460 457
parm u 0 0 2.5196561985197512 4.9756016693245799 7.4952578678443311 9.9512033386491598 9.9512033386491598
end
usemtl diffuse_0
v 1.6856199257395958 1.8161809713849739 15.39597576139942
v 4.5145974254569605 1.8161809713849739 15.39597576139942
v 4.5145974254569605 4.6037866413774982 15.39597576139942
v 1.6856199257395958 4.6037866413774982 15.39597576139942
cstype bspline
deg 1
curv 0 11.233166339419778 461 462 463 464 461
parm u 0 0 2.8289774997173645 5.6165831697098891 8.4455606694272536 11.233166339419778 11.233166339419778
end
usemtl diffuse_0
v 1.5038936612859979 1.6213306043622024 12.656643787321634
v 4.6963236899105585 1.6213306043622024 12.656643787321634
v 4.6963236899105585 4.7986370084002692 12.656643787321634
v 1.5038936612859979 4.7986370084002692 12.656643787321634
cstype bspline
deg 1
curv 0 12.739472865325254 465 466 467 468 465
parm u 0 0 3.1924300286245604 6.3697364326626271 9.5621664612871875 12.739472865325254 12.739472865325254
end
usemtl diffuse_0
v 1.3057702007229153 1.4088988509081195 9.6701413575973341
v 4.8944471504736411 1.4088988509081195 9.6701413575973341
v 4.8944471504736411 5.0110687618543519 9.6701413575973341
v 1.3057702007229153 5.0110687618543519 9.6701413575973341
cstype bspline
deg 1
curv 0 14.381693721393916 469 470 471 472 469
parm u 0 0 3.5886769497507256 7.1908468606969578 10.779523810447683 14.381693721393916 14.381693721393916
end
usemtl diffuse_0
v 0.90980700380865398 1.0485441760163341 6.4394117936234698
v 5.2904103473879029 1.0485441760163341 6.4394117936234698
v 5.2904103473879029 5.371423436746138 6.4394117936234698
v 0.90980700380865398 5.371423436746138 6.4394117936234698
cstype bspline
deg 1
curv 0 17.406965208618107 473 474 475 476 473
parm u 0 0 4.3806033435792493 8.7034826043090536 13.084085947888303 17.406965208618107 17.406965208618107
end
usemtl diffuse_0
v 4.3599367748581539 4.4379565417836506 17.727322122316686
v 4.225248748487096 4.2935414708478001 19.757602215692401
cstype bspline
deg 1
curv 8.0748909105327336 10.109633676094374 477 478
parm u 8.0748909105327336 8.0748909105327336 10.109633676094374 10.109633676094374
end
usemtl diffuse_0
v 4.5145974254569605 4.6037866413774982 15.39597576139942
v 4.3599367748581539 4.4379565417836506 17.727322122316686
cstype bspline
deg 1
curv 5.7384201164918949 8.0748909105327336 479 480
parm u 5.7384201164918949 5.7384201164918949 8.0748909105327336 8.0748909105327336
end
usemtl diffuse_0
v 4.6963236899105585 4.7986370084002692 12.656643787321634
v 4.5145974254569605 4.6037866413774982 15.39597576139942
cstype bspline
deg 1
curv 2.9930669334939108 5.7384201164918949 481 482
parm u 2.9930669334939108 2.9930669334939108 5.7384201164918949 5.7384201164918949
end
usemtl diffuse_0
v 4.8944471504736411 5.0110687618543519 9.6701413575973341
v 4.6963236899105585 4.7986370084002692 12.656643787321634
cstype bspline
deg 1
curv 0 2.9930669334939108 483 484
parm u 0 0 2.9930669334939108 2.9930669334939108
end
usemtl diffuse_0
v 4.3599367748581539 1.9820110709788219 17.727322122316686
v 4.225248748487096 2.1264261419146715 19.757602215692401
cstype bspline
deg 1
curv 8.0748909105327336 10.109633676094374 485 486
parm u 8.0748909105327336 8.0748909105327336 10.109633676094374 10.109633676094374
end
usemtl diffuse_0
v 4.5145974254569605 1.8161809713849739 15.39597576139942
v 4.3599367748581539 1.9820110709788219 17.727322122316686
cstype bspline
deg 1
curv 5.7384201164918949 8.0748909105327336 487 488
parm u 5.7384201164918949 5.7384201164918949 8.0748909105327336 8.0748909105327336
end
usemtl diffuse_0
v 4.6963236899105585 1.6213306043622024 12.656643787321634
v 4.5145974254569605 1.8161809713849739 15.39597576139942
cstype bspline
deg 1
curv 2.9930669334939108 5.7384201164918949 489 490
parm u 2.9930669334939108 2.9930669334939108 5.7384201164918949 5.7384201164918949
end
usemtl diffuse_0
v 4.8944471504736411 1.4088988509081195 9.6701413575973341
v 4.6963236899105585 1.6213306043622024 12.656643787321634
cstype bspline
deg 1
curv 0 2.9930669334939108 491 492
parm u 0 0 2.9930669334939108 2.9930669334939108
end
usemtl diffuse_0
v 1.8402805763384027 4.4379565417836506 17.727322122316686
v 1.9749686027094606 4.2935414708478001 19.757602215692401
cstype bspline
deg 1
curv 8.0748909105327336 10.109633676094374 493 494
parm u 8.0748909105327336 8.0748909105327336 10.109633676094374 10.109633676094374
end
usemtl diffuse_0
v 1.6856199257395958 4.6037866413774982 15.39597576139942
v 1.8402805763384027 4.4379565417836506 17.727322122316686
cstype bspline
deg 1
curv 5.7384201164918949 8.0748909105327336 495 496
parm u 5.7384201164918949 5.7384201164918949 8.0748909105327336 8.0748909105327336
end
usemtl diffuse_0
v 1.5038936612859979 4.7986370084002692 12.656643787321634
v 1.6856199257395958 4.6037866413774982 15.39597576139942
cstype bspline
deg 1
curv 2.9930669334939108 5.7384201164918949 497 498
parm u 2.9930669334939108 2.9930669334939108 5.7384201164918949 5.7384201164918949
end
usemtl diffuse_0
v 1.3057702007229153 5.0110687618543519 9.6701413575973341
v 1.5038936612859979 4.7986370084002692 12.656643787321634
cstype bspline
deg 1
curv 0 2.9930669334939108 499 500
parm u 0 0 2.9930669334939108 2.9930669334939108
end
usemtl diffuse_0
v 1.8402805763384027 1.9820110709788219 17.727322122316686
v 1.9749686027094606 2.1264261419146715 19.757602215692401
cstype bspline
deg 1
curv 8.0748909105327336 10.109633676094374 501 502
parm u 8.0748909105327336 8.0748909105327336 10.109633676094374 10.109633676094374
end
usemtl diffuse_0
v 1.6856199257395958 1.8161809713849739 15.39597576139942
v 1.8402805763384027 1.9820110709788219 17.727322122316686
cstype bspline
deg 1
curv 5.7384201164918949 8.0748909105327336 503 504
parm u 5.7384201164918949 5.7384201164918949 8.0748909105327336 8.0748909105327336
end
usemtl diffuse_0
v 1.5038936612859979 1.6213306043622024 12.656643787321634
v 1.6856199257395958 1.8161809713849739 15.39597576139942
cstype bspline
deg 1
curv 2.9930669334939108 5.7384201164918949 505 506
parm u 2.9930669334939108 2.9930669334939108 5.7384201164918949 5.7384201164918949
end
usemtl diffuse_0
v 1.3057702007229153 1.4088988509081195 9.6701413575973341
v 1.5038936612859979 1.6213306043622024 12.656643787321634
cstype bspline
deg 1
curv 0 2.9930669334939108 507 508
parm u 0 0 2.9930669334939108 2.9930669334939108
end
usemtl diffuse_0
v 4.0791500786959292 4.1393430030781282 25.121676688701569
v 4.0588495891766758 4.1179170422304523 25.867017750160016
cstype bspline
deg 1
curv 5.3674192062545476 6.1132250202140925 509 510
parm u 5.3674192062545476 5.3674192062545476 6.1132250202140925 6.1132250202140925
end
usemtl diffuse_0
v 4.1249770320830192 4.1877106302778984 23.439120706563973
v 4.0791500786959292 4.1393430030781282 25.121676688701569
cstype bspline
deg 1
curv 3.6838140774358239 5.3674192062545476 511 512
parm u 3.6838140774358239 3.6838140774358239 5.3674192062545476 5.3674192062545476
end
usemtl diffuse_0
v 4.1733940582537201 4.2388119254516177 21.661469106364564
v 4.1249770320830192 4.1877106302778984 23.439120706563973
cstype bspline
deg 1
curv 1.905054034310091 3.6838140774358239 513 514
parm u 1.905054034310091 1.905054034310091 3.6838140774358239 3.6838140774358239
end
usemtl diffuse_0
v 4.225248748487096 4.2935414708478001 19.757602215692401
v 4.1733940582537201 4.2388119254516177 21.661469106364564
cstype bspline
deg 1
curv 0 1.905054034310091 515 516
parm u 0 0 1.905054034310091 1.905054034310091
end
usemtl diffuse_0
v 4.0791500786959292 2.280624609684343 25.121676688701569
v 4.0588495891766758 2.3020505705320193 25.867017750160016
cstype bspline
deg 1
curv 5.3674192062545476 6.1132250202140925 517 518
parm u 5.3674192062545476 5.3674192062545476 6.1132250202140925 6.1132250202140925
end
usemtl diffuse_0
v 4.1249770320830192 2.2322569824845728 23.439120706563973
v 4.0791500786959292 2.280624609684343 25.121676688701569
cstype bspline
deg 1
curv 3.6838140774358239 5.3674192062545476 519 520
parm u 3.6838140774358239 3.6838140774358239 5.3674192062545476 5.3674192062545476
end
usemtl diffuse_0
v 4.1733940582537201 2.1811556873108535 21.661469106364564
v 4.1249770320830192 2.2322569824845728 23.439120706563973
cstype bspline
deg 1
curv 1.905054034310091 3.6838140774358239 521 522
parm u 1.905054034310091 1.905054034310091 3.6838140774358239 3.6838140774358239
end
usemtl diffuse_0
v 4.225248748487096 2.1264261419146715 19.757602215692401
v 4.1733940582537201 2.1811556873108535 21.661469106364564
cstype bspline
deg 1
curv 0 1.905054034310091 523 524
parm u 0 0 1.905054034310091 1.905054034310091
end
usemtl diffuse_0
v 2.1210672725006274 4.1393430030781282 25.121676688701569
v 2.1413677620198803 4.1179170422304523 25.867017750160016
cstype bspline
deg 1
curv 5.3674192062545476 6.1132250202140925 525 526
parm u 5.3674192062545476 5.3674192062545476 6.1132250202140925 6.1132250202140925
end
usemtl diffuse_0
v 2.0752403191135369 4.1877106302778984 23.439120706563973
v 2.1210672725006274 4.1393430030781282 25.121676688701569
cstype bspline
deg 1
curv 3.6838140774358239 5.3674192062545476 527 528
parm u 3.6838140774358239 3.6838140774358239 5.3674192062545476 5.3674192062545476
end
usemtl diffuse_0
v 2.026823292942836 4.2388119254516177 21.661469106364564
v 2.0752403191135369 4.1877106302778984 23.439120706563973
cstype bspline
deg 1
curv 1.905054034310091 3.6838140774358239 529 530
parm u 1.905054034310091 1.905054034310091 3.6838140774358239 3.6838140774358239
end
usemtl diffuse_0
v 1.9749686027094606 4.2935414708478001 19.757602215692401
v 2.026823292942836 4.2388119254516177 21.661469106364564
cstype bspline
deg 1
curv 0 1.905054034310091 531 532
parm u 0 0 1.905054034310091 1.905054034310091
end
usemtl diffuse_0
v 2.1210672725006274 2.280624609684343 25.121676688701569
v 2.1413677620198803 2.3020505705320193 25.867017750160016
cstype bspline
deg 1
curv 5.3674192062545476 6.1132250202140925 533 534
parm u 5.3674192062545476 5.3674192062545476 6.1132250202140925 6.1132250202140925
end
usemtl diffuse_0
v 2.0752403191135369 2.2322569824845728 23.439120706563973
v 2.1210672725006274 2.280624609684343 25.121676688701569
cstype bspline
deg 1
curv 3.6838140774358239 5.3674192062545476 535 536
parm u 3.6838140774358239 3.6838140774358239 5.3674192062545476 5.3674192062545476
end
usemtl diffuse_0
v 2.026823292942836 2.1811556873108535 21.661469106364564
v 2.0752403191135369 2.2322569824845728 23.439120706563973
cstype bspline
deg 1
curv 1.905054034310091 3.6838140774358239 537 538
parm u 1.905054034310091 1.905054034310091 3.6838140774358239 3.6838140774358239
end
usemtl diffuse_0
v 1.9749686027094606 2.1264261419146715 19.757602215692401
v 2.026823292942836 2.1811556873108535 21.661469106364564
cstype bspline
deg 1
curv 0 1.905054034310091 539 540
parm u 0 0 1.905054034310091 1.905054034310091
end
usemtl diffuse_0
v 3.6820169953193482 3.7901433706778471 39.346922719501265
v 3.5752522245258405 3.6972780466960531 43.166069438308909
cstype bspline
deg 1
curv 13.48517114412213 17.305809883398823 541 542
parm u 13.48517114412213 13.48517114412213 17.305809883398823 17.305809883398823
end
usemtl diffuse_0
v 3.7210355645463364 3.8240822069216711 37.951166052500753
v 3.6820169953193482 3.7901433706778471 39.346922719501265
cstype bspline
deg 1
curv 12.088869198903652 13.48517114412213 543 544
parm u 12.088869198903652 12.088869198903652 13.48517114412213 13.48517114412213
end
usemtl diffuse_0
v 3.8541263006767479 3.9398461826026603 33.190297421225047
v 3.7210355645463364 3.8240822069216711 37.951166052500753
cstype bspline
deg 1
curv 7.3261406460351655 12.088869198903652 545 546
parm u 7.3261406460351655 7.3261406460351655 12.088869198903652 12.088869198903652
end
usemtl diffuse_0
v 3.8979553784385694 3.9779692589313393 31.622461165142294
v 3.8541263006767479 3.9398461826026603 33.190297421225047
cstype bspline
deg 1
curv 5.7576918856527817 7.3261406460351655 547 548
parm u 5.7576918856527817 5.7576918856527817 7.3261406460351655 7.3261406460351655
end
usemtl diffuse_0
v 4.0166145889644778 4.0811805143577633 27.377831301113346
v 3.8979553784385694 3.9779692589313393 31.622461165142294
cstype bspline
deg 1
curv 1.5114037782760565 5.7576918856527817 549 550
parm u 1.5114037782760565 1.5114037782760565 5.7576918856527817 5.7576918856527817
end
usemtl diffuse_0
v 4.0588495891766758 4.1179170422304523 25.867017750160016
v 4.0166145889644778 4.0811805143577633 27.377831301113346
cstype bspline
deg 1
curv 0 1.5114037782760565 551 552
parm u 0 0 1.5114037782760565 1.5114037782760565
end
usemtl diffuse_0
v 3.6820169953193482 2.6298242420846245 39.346922719501265
v 3.5752522245258405 2.7226895660664185 43.166069438308909
cstype bspline
deg 1
curv 13.48517114412213 17.305809883398823 553 554
parm u 13.48517114412213 13.48517114412213 17.305809883398823 17.305809883398823
end
usemtl diffuse_0
v 3.7210355645463364 2.5958854058408001 37.951166052500753
v 3.6820169953193482 2.6298242420846245 39.346922719501265
cstype bspline
deg 1
curv 12.088869198903652 13.48517114412213 555 556
parm u 12.088869198903652 12.088869198903652 13.48517114412213 13.48517114412213
end
usemtl diffuse_0
v 3.854126300676747 2.4801214301598109 33.190297421225047
v 3.7210355645463364 2.5958854058408001 37.951166052500753
cstype bspline
deg 1
curv 7.3261406460351655 12.088869198903652 557 558
parm u 7.3261406460351655 7.3261406460351655 12.088869198903652 12.088869198903652
end
usemtl diffuse_0
v 3.8979553784385685 2.4419983538311323 31.62246116514229
v 3.854126300676747 2.4801214301598109 33.190297421225047
cstype bspline
deg 1
curv 5.7576918856527817 7.3261406460351655 559 560
parm u 5.7576918856527817 5.7576918856527817 7.3261406460351655 7.3261406460351655
end
usemtl diffuse_0
v 4.0166145889644769 2.3387870984047083 27.37783130111335
v 3.8979553784385685 2.4419983538311323 31.62246116514229
cstype bspline
deg 1
curv 1.5114037782760583 5.7576918856527817 561 562
parm u 1.5114037782760583 1.5114037782760583 5.7576918856527817 5.7576918856527817
end
usemtl diffuse_0
v 4.0588495891766758 2.3020505705320193 25.867017750160016
v 4.0166145889644769 2.3387870984047083 27.37783130111335
cstype bspline
deg 1
curv 0 1.5114037782760583 563 564
parm u 0 0 1.5114037782760583 1.5114037782760583
end
usemtl diffuse_0
v 2.5182003558772079 3.7901433706778471 39.346922719501265
v 2.6249651266707161 3.6972780466960531 43.166069438308909
cstype bspline
deg 1
curv 13.48517114412213 17.305809883398823 565 566
parm u 13.48517114412213 13.48517114412213 17.305809883398823 17.305809883398823
end
usemtl diffuse_0
v 2.4791817866502197 3.8240822069216711 37.951166052500753
v 2.5182003558772079 3.7901433706778471 39.346922719501265
cstype bspline
deg 1
curv 12.088869198903652 13.48517114412213 567 568
parm u 12.088869198903652 12.088869198903652 13.48517114412213 13.48517114412213
end
usemtl diffuse_0
v 2.3460910505198092 3.9398461826026603 33.190297421225047
v 2.4791817866502197 3.8240822069216711 37.951166052500753
cstype bspline
deg 1
curv 7.3261406460351655 12.088869198903652 569 570
parm u 7.3261406460351655 7.3261406460351655 12.088869198903652 12.088869198903652
end
usemtl diffuse_0
v 2.3022619727579872 3.9779692589313393 31.62246116514229
v 2.3460910505198092 3.9398461826026603 33.190297421225047
cstype bspline
deg 1
curv 5.7576918856527817 7.3261406460351655 571 572
parm u 5.7576918856527817 5.7576918856527817 7.3261406460351655 7.3261406460351655
end
usemtl diffuse_0
v 2.1836027622320788 4.0811805143577633 27.37783130111335
v 2.3022619727579872 3.9779692589313393 31.62246116514229
cstype bspline
deg 1
curv 1.5114037782760585 5.7576918856527817 573 574
parm u 1.5114037782760585 1.5114037782760585 5.7576918856527817 5.7576918856527817
end
usemtl diffuse_0
v 2.1413677620198803 4.1179170422304523 25.867017750160016
v 2.1836027622320788 4.0811805143577633 27.37783130111335
cstype bspline
deg 1
curv 0 1.5114037782760585 575 576
parm u 0 0 1.5114037782760585 1.5114037782760585
end
usemtl diffuse_0
v 2.5182003558772084 2.6298242420846245 39.346922719501272
v 2.6249651266707161 2.7226895660664185 43.166069438308909
cstype bspline
deg 1
curv 13.48517114412213 17.305809883398823 577 578
parm u 13.48517114412213 13.48517114412213 17.305809883398823 17.305809883398823
end
usemtl diffuse_0
v 2.4791817866502202 2.5958854058408005 37.95116605250076
v 2.5182003558772084 2.6298242420846245 39.346922719501272
cstype bspline
deg 1
curv 12.088869198903657 13.48517114412213 579 580
parm u 12.088869198903657 12.088869198903657 13.48517114412213 13.48517114412213
end
usemtl diffuse_0
v 2.3460910505198092 2.4801214301598109 33.190297421225047
v 2.4791817866502202 2.5958854058408005 37.95116605250076
cstype bspline
deg 1
curv 7.3261406460351655 12.088869198903657 581 582
parm u 7.3261406460351655 7.3261406460351655 12.088869198903657 12.088869198903657
end
usemtl diffuse_0
v 2.3022619727579876 2.4419983538311323 31.622461165142294
v 2.3460910505198092 2.4801214301598109 33.190297421225047
cstype bspline
deg 1
curv 5.7576918856527817 7.3261406460351655 583 584
parm u 5.7576918856527817 5.7576918856527817 7.3261406460351655 7.3261406460351655
end
usemtl diffuse_0
v 2.1836027622320788 2.3387870984047083 27.377831301113353
v 2.3022619727579876 2.4419983538311323 31.622461165142294
cstype bspline
deg 1
curv 1.5114037782760601 5.7576918856527817 585 586
parm u 1.5114037782760601 1.5114037782760601 5.7576918856527817 5.7576918856527817
end
usemtl diffuse_0
v 2.1413677620198803 2.3020505705320193 25.867017750160016
v 2.1836027622320788 2.3387870984047083 27.377831301113353
cstype bspline
deg 1
curv 0 1.5114037782760601 587 588
parm u 0 0 1.5114037782760601 1.5114037782760601
end
usemtl diffuse_0
v 5.2904103473879029 5.371423436746138 6.4394117936234698
v 4.8944471504736411 5.0110687618543519 9.6701413575973341
cstype bspline
deg 1
curv 0 3.254904049099653 589 590
parm u 0 0 3.254904049099653 3.254904049099653
end
usemtl diffuse_0
v 5.2904103473879029 1.0485441760163341 6.4394117936234698
v 4.8944471504736411 1.4088988509081195 9.6701413575973341
cstype bspline
deg 1
curv 0 3.254904049099653 591 592
parm u 0 0 3.254904049099653 3.254904049099653
end
usemtl diffuse_0
v 5.2904103473879029 5.371423436746138 6.4394117936234698
v 6.2002173511965566 6.4199676127624716 0
cstype bspline
deg 1
curv 0.033556519882069945 6.5369228045100787 593 594
parm u 0.033556519882069945 0.033556519882069945 6.5369228045100787 6.5369228045100787
end
usemtl diffuse_0
v 5.2904103473879029 1.0485441760163341 6.4394117936234698
v 6.2002173511965566 0 0
cstype bspline
deg 1
curv 0.033556519882069945 6.5369228045100787 595 596
parm u 0.033556519882069945 0.033556519882069945 6.5369228045100787 6.5369228045100787
end
usemtl diffuse_0
v 0.90980700380865398 5.371423436746138 6.4394117936234698
v 1.3057702007229153 5.0110687618543519 9.6701413575973341
cstype bspline
deg 1
curv 0 3.254904049099653 597 598
parm u 0 0 3.254904049099653 3.254904049099653
end
usemtl diffuse_0
v 0.90980700380865398 1.0485441760163341 6.4394117936234698
v 1.3057702007229153 1.4088988509081195 9.6701413575973341
cstype bspline
deg 1
curv 0 3.254904049099653 599 600
parm u 0 0 3.254904049099653 3.254904049099653
end
usemtl diffuse_0
v 0.90980700380865398 5.371423436746138 6.4394117936234698
v 0 6.4199676127624716 0
cstype bspline
deg 1
curv 0.033556519882069945 6.5369228045100787 601 602
parm u 0.033556519882069945 0.033556519882069945 6.5369228045100787 6.5369228045100787
end
usemtl diffuse_0
v 0.90980700380865398 1.0485441760163341 6.4394117936234698
v 0 0 0
cstype bspline
deg 1
curv 0.033556519882069945 6.5369228045100787 603 604
parm u 0.033556519882069945 0.033556519882069945 6.5369228045100787 6.5369228045100787
end
