# Rhino

mtllib pylon8_lines.mtl
usemtl diffuse_0
v 2.3492745897047205 3.9557166327970639 37.48120053616779
v 3.1524956112508917 3.9252289700684084 38.269567826934981
cstype bspline
deg 1
curv 3.5020846721715153 4.6279694318978084 1 2
parm u 3.5020846721715153 3.5020846721715153 4.6279694318978084 4.6279694318978084
end
usemtl diffuse_0
v 3.1524956112508922 3.989546768117382 36.606401691594534
v 2.3492745897047205 3.9557166327970639 37.48120053616779
cstype bspline
deg 1
curv 2.3139847159489042 3.5020846721715153 3 4
parm u 2.3139847159489042 2.3139847159489042 3.5020846721715153 3.5020846721715153
end
usemtl diffuse_0
v 3.9557166327970639 3.9557166327970639 37.48120053616779
v 3.1524956112508922 3.989546768117382 36.606401691594534
cstype bspline
deg 1
curv 1.1258847597262931 2.3139847159489042 5 6
parm u 1.1258847597262931 1.1258847597262931 2.3139847159489042 2.3139847159489042
end
usemtl diffuse_0
v 3.1524956112508917 3.9252289700684084 38.269567826934981
v 3.9557166327970639 3.9557166327970639 37.48120053616779
cstype bspline
deg 1
curv 0 1.1258847597262931 7 8
parm u 0 0 1.1258847597262931 1.1258847597262931
end
usemtl diffuse_0
v 2.3492745897047205 2.3492745897047205 37.48120053616779
v 3.1524956112508917 2.3797622524333759 38.269567826934981
cstype bspline
deg 1
curv 3.5020846721715153 4.6279694318978084 9 10
parm u 3.5020846721715153 3.5020846721715153 4.6279694318978084 4.6279694318978084
end
usemtl diffuse_0
v 3.1524956112508922 2.3154444543844024 36.606401691594534
v 2.3492745897047205 2.3492745897047205 37.48120053616779
cstype bspline
deg 1
curv 2.3139847159489042 3.5020846721715153 11 12
parm u 2.3139847159489042 2.3139847159489042 3.5020846721715153 3.5020846721715153
end
usemtl diffuse_0
v 3.9557166327970639 2.3492745897047205 37.48120053616779
v 3.1524956112508922 2.3154444543844024 36.606401691594534
cstype bspline
deg 1
curv 1.1258847597262931 2.3139847159489042 13 14
parm u 1.1258847597262931 1.1258847597262931 2.3139847159489042 2.3139847159489042
end
usemtl diffuse_0
v 3.1524956112508917 2.3797622524333759 38.269567826934981
v 3.9557166327970639 2.3492745897047205 37.48120053616779
cstype bspline
deg 1
curv 0 1.1258847597262931 15 16
parm u 0 0 1.1258847597262931 1.1258847597262931
end
usemtl diffuse_0
v 2.3492745897047205 2.3492745897047205 37.48120053616779
v 2.3154444543844019 3.1524956112508926 36.606401691594534
cstype bspline
deg 1
curv 3.4398694756751969 4.6279694318978075 17 18
parm u 3.4398694756751969 3.4398694756751969 4.6279694318978075 4.6279694318978075
end
usemtl diffuse_0
v 2.3797622524333764 3.1524956112508922 38.269567826934981
v 2.3492745897047205 2.3492745897047205 37.48120053616779
cstype bspline
deg 1
curv 2.3139847159489038 3.4398694756751969 19 20
parm u 2.3139847159489038 2.3139847159489038 3.4398694756751969 3.4398694756751969
end
usemtl diffuse_0
v 2.3492745897047205 3.9557166327970639 37.48120053616779
v 2.3797622524333764 3.1524956112508922 38.269567826934981
cstype bspline
deg 1
curv 1.1880999562226109 2.3139847159489038 21 22
parm u 1.1880999562226109 1.1880999562226109 2.3139847159489038 2.3139847159489038
end
usemtl diffuse_0
v 2.3154444543844019 3.1524956112508926 36.606401691594534
v 2.3492745897047205 3.9557166327970639 37.48120053616779
cstype bspline
deg 1
curv 0 1.1880999562226109 23 24
parm u 0 0 1.1880999562226109 1.1880999562226109
end
usemtl diffuse_0
v 3.9557166327970639 2.3492745897047205 37.48120053616779
v 3.9895467681173824 3.1524956112508926 36.606401691594534
cstype bspline
deg 1
curv 3.4398694756751969 4.6279694318978075 25 26
parm u 3.4398694756751969 3.4398694756751969 4.6279694318978075 4.6279694318978075
end
usemtl diffuse_0
v 3.925228970068408 3.1524956112508922 38.269567826934981
v 3.9557166327970639 2.3492745897047205 37.48120053616779
cstype bspline
deg 1
curv 2.3139847159489038 3.4398694756751969 27 28
parm u 2.3139847159489038 2.3139847159489038 3.4398694756751969 3.4398694756751969
end
usemtl diffuse_0
v 3.9557166327970639 3.9557166327970639 37.48120053616779
v 3.925228970068408 3.1524956112508922 38.269567826934981
cstype bspline
deg 1
curv 1.1880999562226109 2.3139847159489038 29 30
parm u 1.1880999562226109 1.1880999562226109 2.3139847159489038 2.3139847159489038
end
usemtl diffuse_0
v 3.9895467681173824 3.1524956112508926 36.606401691594534
v 3.9557166327970639 3.9557166327970639 37.48120053616779
cstype bspline
deg 1
curv 0 1.1880999562226109 31 32
parm u 0 0 1.1880999562226109 1.1880999562226109
end
usemtl diffuse_0
v 4.0543579018640106 4.0543579018640106 34.930478601716104
v 3.9895467681173824 2.3154444543844024 36.606401691594534
cstype bspline
deg 1
curv 7.2478029758427915 9.6637373011237191 33 34
parm u 7.2478029758427915 7.2478029758427915 9.6637373011237191 9.6637373011237191
end
usemtl diffuse_0
v 2.3154444543844019 3.9895467681173811 36.606401691594534
v 4.0543579018640106 4.0543579018640106 34.930478601716104
cstype bspline
deg 1
curv 4.831868650561864 7.2478029758427915 35 36
parm u 4.831868650561864 4.831868650561864 7.2478029758427915 7.2478029758427915
end
usemtl diffuse_0
v 2.2506333206377729 2.2506333206377729 34.930478601716096
v 2.3154444543844019 3.9895467681173811 36.606401691594534
cstype bspline
deg 1
curv 2.4159343252809324 4.831868650561864 37 38
parm u 2.4159343252809324 2.4159343252809324 4.831868650561864 4.831868650561864
end
usemtl diffuse_0
v 3.9895467681173824 2.3154444543844024 36.606401691594534
v 2.2506333206377729 2.2506333206377729 34.930478601716096
cstype bspline
deg 1
curv 0 2.4159343252809324 39 40
parm u 0 0 2.4159343252809324 2.4159343252809324
end
usemtl diffuse_0
v 2.2506333206377738 4.0543579018640106 34.930478601716104
v 2.3154444543844019 2.3154444543844024 36.606401691594534
cstype bspline
deg 1
curv 7.2478029758427915 9.6637373011237191 41 42
parm u 7.2478029758427915 7.2478029758427915 9.6637373011237191 9.6637373011237191
end
usemtl diffuse_0
v 3.9895467681173824 3.9895467681173811 36.606401691594534
v 2.2506333206377738 4.0543579018640106 34.930478601716104
cstype bspline
deg 1
curv 4.831868650561864 7.2478029758427915 43 44
parm u 4.831868650561864 4.831868650561864 7.2478029758427915 7.2478029758427915
end
usemtl diffuse_0
v 4.0543579018640115 2.2506333206377729 34.930478601716096
v 3.9895467681173824 3.9895467681173811 36.606401691594534
cstype bspline
deg 1
curv 2.4159343252809324 4.831868650561864 45 46
parm u 2.4159343252809324 2.4159343252809324 4.831868650561864 4.831868650561864
end
usemtl diffuse_0
v 2.3154444543844019 2.3154444543844024 36.606401691594534
v 4.0543579018640115 2.2506333206377729 34.930478601716096
cstype bspline
deg 1
curv 0 2.4159343252809324 47 48
parm u 0 0 2.4159343252809324 2.4159343252809324
end
usemtl diffuse_0
v 2.3154444543844019 3.9895467681173811 36.606401691594534
v 2.3154444543844019 2.3154444543844024 36.606401691594534
cstype bspline
deg 1
curv 18.91497366750535 25.219964890007134 49 50
parm u 18.91497366750535 18.91497366750535 25.219964890007134 25.219964890007134
end
usemtl diffuse_0
v 3.9895467681173824 3.9895467681173811 36.606401691594534
v 2.3154444543844019 3.9895467681173811 36.606401691594534
cstype bspline
deg 1
curv 12.609982445003567 18.91497366750535 51 52
parm u 12.609982445003567 12.609982445003567 18.91497366750535 18.91497366750535
end
usemtl diffuse_0
v 3.9895467681173824 2.3154444543844024 36.606401691594534
v 3.9895467681173824 3.9895467681173811 36.606401691594534
cstype bspline
deg 1
curv 6.3049912225017835 12.609982445003567 53 54
parm u 6.3049912225017835 6.3049912225017835 12.609982445003567 12.609982445003567
end
usemtl diffuse_0
v 2.3154444543844019 2.3154444543844024 36.606401691594534
v 3.9895467681173824 2.3154444543844024 36.606401691594534
cstype bspline
deg 1
curv 0 6.3049912225017835 55 56
parm u 0 0 6.3049912225017835 6.3049912225017835
end
usemtl diffuse_0
v 2.2188380103919316 4.0861532121098527 34.108297419094399
v 2.2506333206377729 3.1524956112508917 34.930478601716096
cstype bspline
deg 1
curv 6.6740917563689219 7.9185632724963719 57 58
parm u 6.6740917563689219 6.6740917563689219 7.9185632724963719 7.9185632724963719
end
usemtl diffuse_0
v 2.1524877139083012 2.1524877139083003 32.392573785375674
v 2.2188380103919316 4.0861532121098527 34.108297419094399
cstype bspline
deg 1
curv 4.0881350266304857 6.6740917563689219 59 60
parm u 4.0881350266304857 4.0881350266304857 6.6740917563689219 6.6740917563689219
end
usemtl diffuse_0
v 2.0855883885600122 4.2194028339417722 30.662653051589409
v 2.1524877139083012 2.1524877139083003 32.392573785375674
cstype bspline
deg 1
curv 1.3919823272570522 4.0881350266304857 61 62
parm u 1.3919823272570522 1.3919823272570522 4.0881350266304857 4.0881350266304857
end
usemtl diffuse_0
v 2.0510396340400243 3.1524956112508917 29.769271743789034
v 2.0855883885600122 4.2194028339417722 30.662653051589409
cstype bspline
deg 1
curv 0 1.3919823272570522 63 64
parm u 0 0 1.3919823272570522 1.3919823272570522
end
usemtl diffuse_0
v 2.2188380103919316 2.2188380103919307 34.108297419094399
v 2.2506333206377729 3.1524956112508917 34.930478601716096
cstype bspline
deg 1
curv 6.6740917563689219 7.9185632724963719 65 66
parm u 6.6740917563689219 6.6740917563689219 7.9185632724963719 7.9185632724963719
end
usemtl diffuse_0
v 2.1524877139083012 4.1525035085934832 32.392573785375674
v 2.2188380103919316 2.2188380103919307 34.108297419094399
cstype bspline
deg 1
curv 4.0881350266304857 6.6740917563689219 67 68
parm u 4.0881350266304857 4.0881350266304857 6.6740917563689219 6.6740917563689219
end
usemtl diffuse_0
v 2.0855883885600122 2.0855883885600113 30.662653051589409
v 2.1524877139083012 4.1525035085934832 32.392573785375674
cstype bspline
deg 1
curv 1.3919823272570522 4.0881350266304857 69 70
parm u 1.3919823272570522 1.3919823272570522 4.0881350266304857 4.0881350266304857
end
usemtl diffuse_0
v 2.0510396340400243 3.1524956112508917 29.769271743789034
v 2.0855883885600122 2.0855883885600113 30.662653051589409
cstype bspline
deg 1
curv 0 1.3919823272570522 71 72
parm u 0 0 1.3919823272570522 1.3919823272570522
end
usemtl diffuse_0
v 4.0861532121098527 4.0861532121098527 34.108297419094399
v 4.0543579018640115 3.1524956112508917 34.930478601716096
cstype bspline
deg 1
curv 6.6740917563689219 7.9185632724963719 73 74
parm u 6.6740917563689219 6.6740917563689219 7.9185632724963719 7.9185632724963719
end
usemtl diffuse_0
v 4.1525035085934832 2.1524877139083003 32.392573785375674
v 4.0861532121098527 4.0861532121098527 34.108297419094399
cstype bspline
deg 1
curv 4.0881350266304857 6.6740917563689219 75 76
parm u 4.0881350266304857 4.0881350266304857 6.6740917563689219 6.6740917563689219
end
usemtl diffuse_0
v 4.2194028339417722 4.2194028339417722 30.662653051589409
v 4.1525035085934832 2.1524877139083003 32.392573785375674
cstype bspline
deg 1
curv 1.3919823272570522 4.0881350266304857 77 78
parm u 1.3919823272570522 1.3919823272570522 4.0881350266304857 4.0881350266304857
end
usemtl diffuse_0
v 4.25395158846176 3.1524956112508917 29.769271743789034
v 4.2194028339417722 4.2194028339417722 30.662653051589409
cstype bspline
deg 1
curv 0 1.3919823272570522 79 80
parm u 0 0 1.3919823272570522 1.3919823272570522
end
usemtl diffuse_0
v 4.0861532121098527 2.2188380103919307 34.108297419094399
v 4.0543579018640115 3.1524956112508917 34.930478601716096
cstype bspline
deg 1
curv 6.6740917563689219 7.9185632724963719 81 82
parm u 6.6740917563689219 6.6740917563689219 7.9185632724963719 7.9185632724963719
end
usemtl diffuse_0
v 4.1525035085934832 4.1525035085934832 32.392573785375674
v 4.0861532121098527 2.2188380103919307 34.108297419094399
cstype bspline
deg 1
curv 4.0881350266304857 6.6740917563689219 83 84
parm u 4.0881350266304857 4.0881350266304857 6.6740917563689219 6.6740917563689219
end
usemtl diffuse_0
v 4.2194028339417722 2.0855883885600113 30.662653051589409
v 4.1525035085934832 4.1525035085934832 32.392573785375674
cstype bspline
deg 1
curv 1.3919823272570522 4.0881350266304857 85 86
parm u 1.3919823272570522 1.3919823272570522 4.0881350266304857 4.0881350266304857
end
usemtl diffuse_0
v 4.25395158846176 3.1524956112508917 29.769271743789034
v 4.2194028339417722 2.0855883885600113 30.662653051589409
cstype bspline
deg 1
curv 0 1.3919823272570522 87 88
parm u 0 0 1.3919823272570522 1.3919823272570522
end
usemtl diffuse_0
v 2.1847188750235613 4.1202723474782221 33.2260254472125
v 4.0543579018640115 4.0543579018640106 34.930478601716096
cstype bspline
deg 1
curv 5.3758703475655043 7.9468318115595569 89 90
parm u 5.3758703475655043 5.3758703475655043 7.9468318115595569 7.9468318115595569
end
usemtl diffuse_0
v 4.186955508061196 4.1869555080611951 31.501694424645127
v 2.1847188750235613 4.1202723474782221 33.2260254472125
cstype bspline
deg 1
curv 2.6587391932492186 5.3758703475655043 91 92
parm u 2.6587391932492186 2.6587391932492186 5.3758703475655043 5.3758703475655043
end
usemtl diffuse_0
v 2.0510396340400243 4.2539515884617582 29.769271743789034
v 4.186955508061196 4.1869555080611951 31.501694424645127
cstype bspline
deg 1
curv 0 2.6587391932492186 93 94
parm u 0 0 2.6587391932492186 2.6587391932492186
end
usemtl diffuse_0
v 4.120272347478223 4.1202723474782221 33.2260254472125
v 2.2506333206377729 4.0543579018640106 34.930478601716096
cstype bspline
deg 1
curv 5.3758703475655043 7.9468318115595569 95 96
parm u 5.3758703475655043 5.3758703475655043 7.9468318115595569 7.9468318115595569
end
usemtl diffuse_0
v 2.1180357144405884 4.1869555080611951 31.501694424645127
v 4.120272347478223 4.1202723474782221 33.2260254472125
cstype bspline
deg 1
curv 2.6587391932492186 5.3758703475655043 97 98
parm u 2.6587391932492186 2.6587391932492186 5.3758703475655043 5.3758703475655043
end
usemtl diffuse_0
v 4.25395158846176 4.2539515884617582 29.769271743789034
v 2.1180357144405884 4.1869555080611951 31.501694424645127
cstype bspline
deg 1
curv 0 2.6587391932492186 99 100
parm u 0 0 2.6587391932492186 2.6587391932492186
end
usemtl diffuse_0
v 2.1847188750235613 2.1847188750235609 33.2260254472125
v 4.0543579018640115 2.2506333206377729 34.930478601716096
cstype bspline
deg 1
curv 5.3758703475655043 7.9468318115595569 101 102
parm u 5.3758703475655043 5.3758703475655043 7.9468318115595569 7.9468318115595569
end
usemtl diffuse_0
v 4.186955508061196 2.1180357144405884 31.501694424645127
v 2.1847188750235613 2.1847188750235609 33.2260254472125
cstype bspline
deg 1
curv 2.6587391932492186 5.3758703475655043 103 104
parm u 2.6587391932492186 2.6587391932492186 5.3758703475655043 5.3758703475655043
end
usemtl diffuse_0
v 2.0510396340400243 2.0510396340400248 29.769271743789034
v 4.186955508061196 2.1180357144405884 31.501694424645127
cstype bspline
deg 1
curv 0 2.6587391932492186 105 106
parm u 0 0 2.6587391932492186 2.6587391932492186
end
usemtl diffuse_0
v 4.120272347478223 2.1847188750235609 33.2260254472125
v 2.2506333206377729 2.2506333206377729 34.930478601716096
cstype bspline
deg 1
curv 5.3758703475655043 7.9468318115595569 107 108
parm u 5.3758703475655043 5.3758703475655043 7.9468318115595569 7.9468318115595569
end
usemtl diffuse_0
v 2.1180357144405884 2.1180357144405884 31.501694424645127
v 4.120272347478223 2.1847188750235609 33.2260254472125
cstype bspline
deg 1
curv 2.6587391932492186 5.3758703475655043 109 110
parm u 2.6587391932492186 2.6587391932492186 5.3758703475655043 5.3758703475655043
end
usemtl diffuse_0
v 4.25395158846176 2.0510396340400248 29.769271743789034
v 2.1180357144405884 2.1180357144405884 31.501694424645127
cstype bspline
deg 1
curv 0 2.6587391932492186 111 112
parm u 0 0 2.6587391932492186 2.6587391932492186
end
usemtl diffuse_0
v 4.3252798513609987 4.3252798513609978 27.924825028490343
v 4.25395158846176 2.0510396340400248 29.769271743789034
cstype bspline
deg 1
curv 8.7871018973664192 11.716135863155225 113 114
parm u 8.7871018973664192 8.7871018973664192 11.716135863155225 11.716135863155225
end
usemtl diffuse_0
v 2.0510396340400243 4.2539515884617591 29.769271743789034
v 4.3252798513609987 4.3252798513609978 27.924825028490343
cstype bspline
deg 1
curv 5.8580679315776116 8.7871018973664192 115 116
parm u 5.8580679315776116 5.8580679315776116 8.7871018973664192 8.7871018973664192
end
usemtl diffuse_0
v 1.9797113711407865 1.9797113711407861 27.924825028490343
v 2.0510396340400243 4.2539515884617591 29.769271743789034
cstype bspline
deg 1
curv 2.9290339657888063 5.8580679315776116 117 118
parm u 2.9290339657888063 2.9290339657888063 5.8580679315776116 5.8580679315776116
end
usemtl diffuse_0
v 4.25395158846176 2.0510396340400248 29.769271743789034
v 1.9797113711407865 1.9797113711407861 27.924825028490343
cstype bspline
deg 1
curv 0 2.9290339657888063 119 120
parm u 0 0 2.9290339657888063 2.9290339657888063
end
usemtl diffuse_0
v 1.9797113711407857 4.3252798513609978 27.924825028490343
v 2.0510396340400243 2.0510396340400248 29.769271743789034
cstype bspline
deg 1
curv 8.7871018973664192 11.716135863155225 121 122
parm u 8.7871018973664192 8.7871018973664192 11.716135863155225 11.716135863155225
end
usemtl diffuse_0
v 4.25395158846176 4.2539515884617591 29.769271743789034
v 1.9797113711407857 4.3252798513609978 27.924825028490343
cstype bspline
deg 1
curv 5.8580679315776116 8.7871018973664192 123 124
parm u 5.8580679315776116 5.8580679315776116 8.7871018973664192 8.7871018973664192
end
usemtl diffuse_0
v 4.3252798513609978 1.9797113711407861 27.924825028490343
v 4.25395158846176 4.2539515884617591 29.769271743789034
cstype bspline
deg 1
curv 2.9290339657888063 5.8580679315776116 125 126
parm u 2.9290339657888063 2.9290339657888063 5.8580679315776116 5.8580679315776116
end
usemtl diffuse_0
v 2.0510396340400243 2.0510396340400248 29.769271743789034
v 4.3252798513609978 1.9797113711407861 27.924825028490343
cstype bspline
deg 1
curv 0 2.9290339657888063 127 128
parm u 0 0 2.9290339657888063 2.9290339657888063
end
usemtl diffuse_0
v 2.0510396340400243 4.2539515884617591 29.769271743789034
v 2.0510396340400243 2.0510396340400248 29.769271743789034
cstype bspline
deg 1
curv 18.91497366750535 25.219964890007134 129 130
parm u 18.91497366750535 18.91497366750535 25.219964890007134 25.219964890007134
end
usemtl diffuse_0
v 4.25395158846176 4.2539515884617591 29.769271743789034
v 2.0510396340400243 4.2539515884617591 29.769271743789034
cstype bspline
deg 1
curv 12.609982445003567 18.91497366750535 131 132
parm u 12.609982445003567 12.609982445003567 18.91497366750535 18.91497366750535
end
usemtl diffuse_0
v 4.25395158846176 2.0510396340400248 29.769271743789034
v 4.25395158846176 4.2539515884617591 29.769271743789034
cstype bspline
deg 1
curv 6.3049912225017835 12.609982445003567 133 134
parm u 6.3049912225017835 6.3049912225017835 12.609982445003567 12.609982445003567
end
usemtl diffuse_0
v 2.0510396340400243 2.0510396340400248 29.769271743789034
v 4.25395158846176 2.0510396340400248 29.769271743789034
cstype bspline
deg 1
curv 0 6.3049912225017835 135 136
parm u 0 0 6.3049912225017835 6.3049912225017835
end
usemtl diffuse_0
v 4.3570287626806907 1.9479624598210936 27.103843655641828
v 4.3252798513609978 3.1524956112508917 27.924825028490343
cstype bspline
deg 1
curv 7.6773614226940268 9.1354144124127199 137 138
parm u 7.6773614226940268 7.6773614226940268 9.1354144124127199 9.1354144124127199
end
usemtl diffuse_0
v 4.4204176324772 4.4204176324772 25.464698274408711
v 4.3570287626806907 1.9479624598210936 27.103843655641828
cstype bspline
deg 1
curv 4.7102331291371282 7.6773614226940268 139 140
parm u 4.7102331291371282 4.7102331291371282 7.6773614226940268 7.6773614226940268
end
usemtl diffuse_0
v 4.4852585362592166 1.8197326862425669 23.78800537405467
v 4.4204176324772 4.4204176324772 25.464698274408711
cstype bspline
deg 1
curv 1.6152265678399877 4.7102331291371282 141 142
parm u 1.6152265678399877 1.6152265678399877 4.7102331291371282 4.7102331291371282
end
usemtl diffuse_0
v 4.5205212127760674 3.1524956112508917 22.876163065963919
v 4.4852585362592166 1.8197326862425669 23.78800537405467
cstype bspline
deg 1
curv 0 1.6152265678399877 143 144
parm u 0 0 1.6152265678399877 1.6152265678399877
end
usemtl diffuse_0
v 4.3570287626806907 4.3570287626806898 27.103843655641828
v 4.3252798513609978 3.1524956112508917 27.924825028490343
cstype bspline
deg 1
curv 7.6773614226940268 9.1354144124127199 145 146
parm u 7.6773614226940268 7.6773614226940268 9.1354144124127199 9.1354144124127199
end
usemtl diffuse_0
v 4.4204176324772 1.8845735900245839 25.464698274408711
v 4.3570287626806907 4.3570287626806898 27.103843655641828
cstype bspline
deg 1
curv 4.7102331291371282 7.6773614226940268 147 148
parm u 4.7102331291371282 4.7102331291371282 7.6773614226940268 7.6773614226940268
end
usemtl diffuse_0
v 4.4852585362592166 4.4852585362592166 23.78800537405467
v 4.4204176324772 1.8845735900245839 25.464698274408711
cstype bspline
deg 1
curv 1.6152265678399877 4.7102331291371282 149 150
parm u 1.6152265678399877 1.6152265678399877 4.7102331291371282 4.7102331291371282
end
usemtl diffuse_0
v 4.5205212127760674 3.1524956112508917 22.876163065963919
v 4.4852585362592166 4.4852585362592166 23.78800537405467
cstype bspline
deg 1
curv 0 1.6152265678399877 151 152
parm u 0 0 1.6152265678399877 1.6152265678399877
end
usemtl diffuse_0
v 1.9479624598210927 1.9479624598210936 27.103843655641828
v 1.9797113711407861 3.1524956112508917 27.924825028490343
cstype bspline
deg 1
curv 7.6773614226940268 9.1354144124127199 153 154
parm u 7.6773614226940268 7.6773614226940268 9.1354144124127199 9.1354144124127199
end
usemtl diffuse_0
v 1.8845735900245835 4.4204176324772 25.464698274408711
v 1.9479624598210927 1.9479624598210936 27.103843655641828
cstype bspline
deg 1
curv 4.7102331291371282 7.6773614226940268 155 156
parm u 4.7102331291371282 4.7102331291371282 7.6773614226940268 7.6773614226940268
end
usemtl diffuse_0
v 1.8197326862425669 1.8197326862425669 23.78800537405467
v 1.8845735900245835 4.4204176324772 25.464698274408711
cstype bspline
deg 1
curv 1.6152265678399877 4.7102331291371282 157 158
parm u 1.6152265678399877 1.6152265678399877 4.7102331291371282 4.7102331291371282
end
usemtl diffuse_0
v 1.7844700097257156 3.1524956112508917 22.876163065963919
v 1.8197326862425669 1.8197326862425669 23.78800537405467
cstype bspline
deg 1
curv 0 1.6152265678399877 159 160
parm u 0 0 1.6152265678399877 1.6152265678399877
end
usemtl diffuse_0
v 1.9479624598210927 4.3570287626806898 27.103843655641828
v 1.9797113711407861 3.1524956112508917 27.924825028490343
cstype bspline
deg 1
curv 7.6773614226940268 9.1354144124127199 161 162
parm u 7.6773614226940268 7.6773614226940268 9.1354144124127199 9.1354144124127199
end
usemtl diffuse_0
v 1.8845735900245835 1.8845735900245839 25.464698274408711
v 1.9479624598210927 4.3570287626806898 27.103843655641828
cstype bspline
deg 1
curv 4.7102331291371282 7.6773614226940268 163 164
parm u 4.7102331291371282 4.7102331291371282 7.6773614226940268 7.6773614226940268
end
usemtl diffuse_0
v 1.8197326862425669 4.4852585362592166 23.78800537405467
v 1.8845735900245835 1.8845735900245839 25.464698274408711
cstype bspline
deg 1
curv 1.6152265678399877 4.7102331291371282 165 166
parm u 1.6152265678399877 1.6152265678399877 4.7102331291371282 4.7102331291371282
end
usemtl diffuse_0
v 1.7844700097257156 3.1524956112508917 22.876163065963919
v 1.8197326862425669 4.4852585362592166 23.78800537405467
cstype bspline
deg 1
curv 0 1.6152265678399877 167 168
parm u 0 0 1.6152265678399877 1.6152265678399877
end
usemtl diffuse_0
v 4.3905444788390273 4.3905444788390273 26.237175240255695
v 1.9797113711407857 4.3252798513609978 27.924825028490343
cstype bspline
deg 1
curv 6.1975832271804139 9.1411418816838808 169 170
parm u 6.1975832271804139 6.1975832271804139 9.1411418816838808 9.1411418816838808
end
usemtl diffuse_0
v 1.8532231590367907 4.4517680634649928 24.654021032200841
v 4.3905444788390273 4.3905444788390273 26.237175240255695
cstype bspline
deg 1
curv 3.2062415459746028 6.1975832271804139 171 172
parm u 3.2062415459746028 3.2062415459746028 6.1975832271804139 6.1975832271804139
end
usemtl diffuse_0
v 4.5205212127760674 4.5205212127760674 22.876163065963919
v 1.8532231590367907 4.4517680634649928 24.654021032200841
cstype bspline
deg 1
curv 0 3.2062415459746028 173 174
parm u 0 0 3.2062415459746028 3.2062415459746028
end
usemtl diffuse_0
v 1.9144467436627557 4.3905444788390273 26.237175240255695
v 4.3252798513609978 4.3252798513609978 27.924825028490343
cstype bspline
deg 1
curv 6.1975832271804139 9.1411418816838808 175 176
parm u 6.1975832271804139 6.1975832271804139 9.1411418816838808 9.1411418816838808
end
usemtl diffuse_0
v 4.4517680634649928 4.4517680634649928 24.654021032200841
v 1.9144467436627557 4.3905444788390273 26.237175240255695
cstype bspline
deg 1
curv 3.2062415459746028 6.1975832271804139 177 178
parm u 3.2062415459746028 3.2062415459746028 6.1975832271804139 6.1975832271804139
end
usemtl diffuse_0
v 1.7844700097257156 4.5205212127760674 22.876163065963919
v 4.4517680634649928 4.4517680634649928 24.654021032200841
cstype bspline
deg 1
curv 0 3.2062415459746028 179 180
parm u 0 0 3.2062415459746028 3.2062415459746028
end
usemtl diffuse_0
v 4.3905444788390273 1.9144467436627561 26.237175240255695
v 1.9797113711407857 1.9797113711407861 27.924825028490343
cstype bspline
deg 1
curv 6.1975832271804139 9.1411418816838808 181 182
parm u 6.1975832271804139 6.1975832271804139 9.1411418816838808 9.1411418816838808
end
usemtl diffuse_0
v 1.8532231590367907 1.8532231590367911 24.654021032200841
v 4.3905444788390273 1.9144467436627561 26.237175240255695
cstype bspline
deg 1
curv 3.2062415459746028 6.1975832271804139 183 184
parm u 3.2062415459746028 3.2062415459746028 6.1975832271804139 6.1975832271804139
end
usemtl diffuse_0
v 4.5205212127760674 1.7844700097257165 22.876163065963919
v 1.8532231590367907 1.8532231590367911 24.654021032200841
cstype bspline
deg 1
curv 0 3.2062415459746028 185 186
parm u 0 0 3.2062415459746028 3.2062415459746028
end
usemtl diffuse_0
v 1.9144467436627557 1.9144467436627561 26.237175240255695
v 4.3252798513609978 1.9797113711407861 27.924825028490343
cstype bspline
deg 1
curv 6.1975832271804139 9.1411418816838808 187 188
parm u 6.1975832271804139 6.1975832271804139 9.1411418816838808 9.1411418816838808
end
usemtl diffuse_0
v 4.4517680634649928 1.8532231590367911 24.654021032200841
v 1.9144467436627557 1.9144467436627561 26.237175240255695
cstype bspline
deg 1
curv 3.2062415459746028 6.1975832271804139 189 190
parm u 3.2062415459746028 3.2062415459746028 6.1975832271804139 6.1975832271804139
end
usemtl diffuse_0
v 1.7844700097257156 1.7844700097257165 22.876163065963919
v 4.4517680634649928 1.8532231590367911 24.654021032200841
cstype bspline
deg 1
curv 0 3.2062415459746028 191 192
parm u 0 0 3.2062415459746028 3.2062415459746028
end
usemtl diffuse_0
v 4.5964734619549592 1.708517760546824 20.91214668839627
v 1.7844700097257151 1.7844700097257165 22.876163065963919
cstype bspline
deg 1
curv 10.292445405137022 13.723260540182697 193 194
parm u 10.292445405137022 10.292445405137022 13.723260540182697 13.723260540182697
end
usemtl diffuse_0
v 4.5205212127760674 4.5205212127760674 22.876163065963919
v 4.5964734619549592 1.708517760546824 20.91214668839627
cstype bspline
deg 1
curv 6.8616302700913483 10.292445405137022 195 196
parm u 6.8616302700913483 6.8616302700913483 10.292445405137022 10.292445405137022
end
usemtl diffuse_0
v 1.7085177605468234 4.5964734619549601 20.91214668839627
v 4.5205212127760674 4.5205212127760674 22.876163065963919
cstype bspline
deg 1
curv 3.4308151350456737 6.8616302700913483 197 198
parm u 3.4308151350456737 3.4308151350456737 6.8616302700913483 6.8616302700913483
end
usemtl diffuse_0
v 1.7844700097257151 1.7844700097257165 22.876163065963919
v 1.7085177605468234 4.5964734619549601 20.91214668839627
cstype bspline
deg 1
curv 0 3.4308151350456737 199 200
parm u 0 0 3.4308151350456737 3.4308151350456737
end
usemtl diffuse_0
v 1.708517760546824 1.708517760546824 20.91214668839627
v 4.5205212127760683 1.7844700097257165 22.876163065963919
cstype bspline
deg 1
curv 10.292445405137022 13.723260540182697 201 202
parm u 10.292445405137022 10.292445405137022 13.723260540182697 13.723260540182697
end
usemtl diffuse_0
v 1.7844700097257156 4.5205212127760674 22.876163065963919
v 1.708517760546824 1.708517760546824 20.91214668839627
cstype bspline
deg 1
curv 6.8616302700913483 10.292445405137022 203 204
parm u 6.8616302700913483 6.8616302700913483 10.292445405137022 10.292445405137022
end
usemtl diffuse_0
v 4.5964734619549601 4.5964734619549601 20.91214668839627
v 1.7844700097257156 4.5205212127760674 22.876163065963919
cstype bspline
deg 1
curv 3.4308151350456737 6.8616302700913483 205 206
parm u 3.4308151350456737 3.4308151350456737 6.8616302700913483 6.8616302700913483
end
usemtl diffuse_0
v 4.5205212127760683 1.7844700097257165 22.876163065963919
v 4.5964734619549601 4.5964734619549601 20.91214668839627
cstype bspline
deg 1
curv 0 3.4308151350456737 207 208
parm u 0 0 3.4308151350456737 3.4308151350456737
end
usemtl diffuse_0
v 1.7844700097257156 4.5205212127760674 22.876163065963919
v 1.7844700097257156 1.7844700097257165 22.876163065963919
cstype bspline
deg 1
curv 18.91497366750535 25.219964890007134 209 210
parm u 18.91497366750535 18.91497366750535 25.219964890007134 25.219964890007134
end
usemtl diffuse_0
v 4.5205212127760683 4.5205212127760674 22.876163065963919
v 1.7844700097257156 4.5205212127760674 22.876163065963919
cstype bspline
deg 1
curv 12.609982445003567 18.91497366750535 211 212
parm u 12.609982445003567 12.609982445003567 18.91497366750535 18.91497366750535
end
usemtl diffuse_0
v 4.5205212127760683 1.7844700097257165 22.876163065963919
v 4.5205212127760683 4.5205212127760674 22.876163065963919
cstype bspline
deg 1
curv 6.3049912225017835 12.609982445003567 213 214
parm u 6.3049912225017835 6.3049912225017835 12.609982445003567 12.609982445003567
end
usemtl diffuse_0
v 1.7844700097257156 1.7844700097257165 22.876163065963919
v 4.5205212127760683 1.7844700097257165 22.876163065963919
cstype bspline
deg 1
curv 0 6.3049912225017835 215 216
parm u 0 0 6.3049912225017835 6.3049912225017835
end
usemtl diffuse_0
v 4.6295506110960467 1.6754406114057376 20.056818987917907
v 4.5964734619549601 3.1524956112508922 20.91214668839627
cstype bspline
deg 1
curv 21.479632906740115 23.186785813063526 217 218
parm u 21.479632906740115 21.479632906740115 23.186785813063526 23.186785813063526
end
usemtl diffuse_0
v 4.7011248450137764 4.7011248450137764 18.206011814384656
v 4.6295506110960467 1.6754406114057376 20.056818987917907
cstype bspline
deg 1
curv 17.932045677922858 21.479632906740115 219 220
parm u 17.932045677922858 17.932045677922858 21.479632906740115 21.479632906740115
end
usemtl diffuse_0
v 4.7761370428355701 1.5288541796662143 16.26630381847859
v 4.7011248450137764 4.7011248450137764 18.206011814384656
cstype bspline
deg 1
curv 14.212987314112384 17.932045677922858 221 222
parm u 14.212987314112384 14.212987314112384 17.932045677922858 17.932045677922858
end
usemtl diffuse_0
v 4.8518348660342303 4.8518348660342303 14.30886653234611
v 4.7761370428355701 1.5288541796662143 16.26630381847859
cstype bspline
deg 1
curv 10.355592917430402 14.212987314112384 223 224
parm u 10.355592917430402 10.355592917430402 14.212987314112384 14.212987314112384
end
usemtl diffuse_0
v 4.9295102403644044 1.3754809821373799 12.300292606393736
v 4.8518348660342303 4.8518348660342303 14.30886653234611
cstype bspline
deg 1
curv 6.3399436541259249 10.355592917430402 225 226
parm u 6.3399436541259249 6.3399436541259249 10.355592917430402 10.355592917430402
end
usemtl diffuse_0
v 5.0097225804295125 5.0097225804295125 10.226116380225076
v 4.9295102403644044 1.3754809821373799 12.300292606393736
cstype bspline
deg 1
curv 2.1546894167516957 6.3399436541259249 227 228
parm u 2.1546894167516957 2.1546894167516957 6.3399436541259249 6.3399436541259249
end
usemtl diffuse_0
v 5.0519372155397981 3.1524956112508922 9.1345063801793334
v 5.0097225804295125 5.0097225804295125 10.226116380225076
cstype bspline
deg 1
curv 0 2.1546894167516957 229 230
parm u 0 0 2.1546894167516957 2.1546894167516957
end
usemtl diffuse_0
v 4.6295506110960467 4.6295506110960467 20.056818987917907
v 4.5964734619549601 3.1524956112508922 20.91214668839627
cstype bspline
deg 1
curv 21.479632906740115 23.186785813063526 231 232
parm u 21.479632906740115 21.479632906740115 23.186785813063526 23.186785813063526
end
usemtl diffuse_0
v 4.7011248450137764 1.603866377488008 18.206011814384656
v 4.6295506110960467 4.6295506110960467 20.056818987917907
cstype bspline
deg 1
curv 17.932045677922858 21.479632906740115 233 234
parm u 17.932045677922858 17.932045677922858 21.479632906740115 21.479632906740115
end
usemtl diffuse_0
v 4.7761370428355701 4.7761370428355701 16.26630381847859
v 4.7011248450137764 1.603866377488008 18.206011814384656
cstype bspline
deg 1
curv 14.212987314112384 17.932045677922858 235 236
parm u 14.212987314112384 14.212987314112384 17.932045677922858 17.932045677922858
end
usemtl diffuse_0
v 4.8518348660342303 1.453156356467554 14.30886653234611
v 4.7761370428355701 4.7761370428355701 16.26630381847859
cstype bspline
deg 1
curv 10.355592917430402 14.212987314112384 237 238
parm u 10.355592917430402 10.355592917430402 14.212987314112384 14.212987314112384
end
usemtl diffuse_0
v 4.9295102403644044 4.9295102403644044 12.300292606393736
v 4.8518348660342303 1.453156356467554 14.30886653234611
cstype bspline
deg 1
curv 6.3399436541259249 10.355592917430402 239 240
parm u 6.3399436541259249 6.3399436541259249 10.355592917430402 10.355592917430402
end
usemtl diffuse_0
v 5.0097225804295125 1.2952686420722723 10.226116380225076
v 4.9295102403644044 4.9295102403644044 12.300292606393736
cstype bspline
deg 1
curv 2.1546894167516957 6.3399436541259249 241 242
parm u 2.1546894167516957 2.1546894167516957 6.3399436541259249 6.3399436541259249
end
usemtl diffuse_0
v 5.0519372155397981 3.1524956112508922 9.1345063801793334
v 5.0097225804295125 1.2952686420722723 10.226116380225076
cstype bspline
deg 1
curv 0 2.1546894167516957 243 244
parm u 0 0 2.1546894167516957 2.1546894167516957
end
usemtl diffuse_0
v 1.6754406114057374 1.6754406114057376 20.056818987917907
v 1.708517760546824 3.1524956112508922 20.91214668839627
cstype bspline
deg 1
curv 21.479632906740115 23.186785813063526 245 246
parm u 21.479632906740115 21.479632906740115 23.186785813063526 23.186785813063526
end
usemtl diffuse_0
v 1.6038663774880078 4.7011248450137764 18.206011814384656
v 1.6754406114057374 1.6754406114057376 20.056818987917907
cstype bspline
deg 1
curv 17.932045677922858 21.479632906740115 247 248
parm u 17.932045677922858 17.932045677922858 21.479632906740115 21.479632906740115
end
usemtl diffuse_0
v 1.5288541796662143 1.5288541796662143 16.26630381847859
v 1.6038663774880078 4.7011248450137764 18.206011814384656
cstype bspline
deg 1
curv 14.212987314112384 17.932045677922858 249 250
parm u 14.212987314112384 14.212987314112384 17.932045677922858 17.932045677922858
end
usemtl diffuse_0
v 1.453156356467554 4.8518348660342303 14.30886653234611
v 1.5288541796662143 1.5288541796662143 16.26630381847859
cstype bspline
deg 1
curv 10.355592917430402 14.212987314112384 251 252
parm u 10.355592917430402 10.355592917430402 14.212987314112384 14.212987314112384
end
usemtl diffuse_0
v 1.3754809821373799 1.3754809821373799 12.300292606393736
v 1.453156356467554 4.8518348660342303 14.30886653234611
cstype bspline
deg 1
curv 6.3399436541259249 10.355592917430402 253 254
parm u 6.3399436541259249 6.3399436541259249 10.355592917430402 10.355592917430402
end
usemtl diffuse_0
v 1.2952686420722723 5.0097225804295125 10.226116380225076
v 1.3754809821373799 1.3754809821373799 12.300292606393736
cstype bspline
deg 1
curv 2.1546894167516957 6.3399436541259249 255 256
parm u 2.1546894167516957 2.1546894167516957 6.3399436541259249 6.3399436541259249
end
usemtl diffuse_0
v 1.2530540069619862 3.1524956112508922 9.1345063801793334
v 1.2952686420722723 5.0097225804295125 10.226116380225076
cstype bspline
deg 1
curv 0 2.1546894167516957 257 258
parm u 0 0 2.1546894167516957 2.1546894167516957
end
usemtl diffuse_0
v 1.6754406114057374 4.6295506110960467 20.056818987917907
v 1.708517760546824 3.1524956112508922 20.91214668839627
cstype bspline
deg 1
curv 21.479632906740115 23.186785813063526 259 260
parm u 21.479632906740115 21.479632906740115 23.186785813063526 23.186785813063526
end
usemtl diffuse_0
v 1.6038663774880078 1.603866377488008 18.206011814384656
v 1.6754406114057374 4.6295506110960467 20.056818987917907
cstype bspline
deg 1
curv 17.932045677922858 21.479632906740115 261 262
parm u 17.932045677922858 17.932045677922858 21.479632906740115 21.479632906740115
end
usemtl diffuse_0
v 1.5288541796662143 4.7761370428355701 16.26630381847859
v 1.6038663774880078 1.603866377488008 18.206011814384656
cstype bspline
deg 1
curv 14.212987314112384 17.932045677922858 263 264
parm u 14.212987314112384 14.212987314112384 17.932045677922858 17.932045677922858
end
usemtl diffuse_0
v 1.453156356467554 1.453156356467554 14.30886653234611
v 1.5288541796662143 4.7761370428355701 16.26630381847859
cstype bspline
deg 1
curv 10.355592917430402 14.212987314112384 265 266
parm u 10.355592917430402 10.355592917430402 14.212987314112384 14.212987314112384
end
usemtl diffuse_0
v 1.3754809821373799 4.9295102403644044 12.300292606393736
v 1.453156356467554 1.453156356467554 14.30886653234611
cstype bspline
deg 1
curv 6.3399436541259249 10.355592917430402 267 268
parm u 6.3399436541259249 6.3399436541259249 10.355592917430402 10.355592917430402
end
usemtl diffuse_0
v 1.2952686420722723 1.2952686420722723 10.226116380225076
v 1.3754809821373799 4.9295102403644044 12.300292606393736
cstype bspline
deg 1
curv 2.1546894167516957 6.3399436541259249 269 270
parm u 2.1546894167516957 2.1546894167516957 6.3399436541259249 6.3399436541259249
end
usemtl diffuse_0
v 1.2530540069619862 3.1524956112508922 9.1345063801793334
v 1.2952686420722723 1.2952686420722723 10.226116380225076
cstype bspline
deg 1
curv 0 2.1546894167516957 271 272
parm u 0 0 2.1546894167516957 2.1546894167516957
end
usemtl diffuse_0
v 1.6408125412195487 4.6641786812822357 19.161386690593165
v 4.5964734619549601 4.5964734619549601 20.91214668839627
cstype bspline
deg 1
curv 19.760838999481681 23.19677788790711 273 274
parm u 19.760838999481681 19.760838999481681 23.19677788790711 23.19677788790711
end
usemtl diffuse_0
v 4.739922212181872 4.739922212181872 17.202767468780465
v 1.6408125412195487 4.6641786812822357 19.161386690593165
cstype bspline
deg 1
curv 16.09390470893603 19.760838999481681 275 276
parm u 16.09390470893603 16.09390470893603 19.760838999481681 19.760838999481681
end
usemtl diffuse_0
v 1.4909483949024374 4.814042827599347 15.286114516839032
v 4.739922212181872 4.739922212181872 17.202767468780465
cstype bspline
deg 1
curv 12.320990282503466 16.09390470893603 277 278
parm u 12.320990282503466 12.320990282503466 16.09390470893603 16.09390470893603
end
usemtl diffuse_0
v 4.8913860836711152 4.8913860836711152 13.286128693356989
v 1.4909483949024374 4.814042827599347 15.286114516839032
cstype bspline
deg 1
curv 8.3752455177489846 12.320990282503466 279 280
parm u 8.3752455177489846 8.3752455177489846 12.320990282503466 12.320990282503466
end
usemtl diffuse_0
v 1.3356476531608257 4.9693435693409587 11.27025977222806
v 4.8913860836711152 4.8913860836711152 13.286128693356989
cstype bspline
deg 1
curv 4.2870820348445582 8.3752455177489846 281 282
parm u 4.2870820348445582 4.2870820348445582 8.3752455177489846 8.3752455177489846
end
usemtl diffuse_0
v 5.0519372155397981 5.0519372155397981 9.1345063801793334
v 1.3356476531608257 4.9693435693409587 11.27025977222806
cstype bspline
deg 1
curv 0 4.2870820348445582 283 284
parm u 0 0 4.2870820348445582 4.2870820348445582
end
usemtl diffuse_0
v 4.6641786812822357 4.6641786812822357 19.161386690593165
v 1.708517760546824 4.5964734619549601 20.91214668839627
cstype bspline
deg 1
curv 19.760838999481681 23.19677788790711 285 286
parm u 19.760838999481681 19.760838999481681 23.19677788790711 23.19677788790711
end
usemtl diffuse_0
v 1.5650690103199127 4.739922212181872 17.202767468780465
v 4.6641786812822357 4.6641786812822357 19.161386690593165
cstype bspline
deg 1
curv 16.09390470893603 19.760838999481681 287 288
parm u 16.09390470893603 16.09390470893603 19.760838999481681 19.760838999481681
end
usemtl diffuse_0
v 4.814042827599347 4.814042827599347 15.286114516839032
v 1.5650690103199127 4.739922212181872 17.202767468780465
cstype bspline
deg 1
curv 12.320990282503466 16.09390470893603 289 290
parm u 12.320990282503466 12.320990282503466 16.09390470893603 16.09390470893603
end
usemtl diffuse_0
v 1.4136051388306696 4.8913860836711152 13.286128693356989
v 4.814042827599347 4.814042827599347 15.286114516839032
cstype bspline
deg 1
curv 8.3752455177489846 12.320990282503466 291 292
parm u 8.3752455177489846 8.3752455177489846 12.320990282503466 12.320990282503466
end
usemtl diffuse_0
v 4.9693435693409587 4.9693435693409587 11.27025977222806
v 1.4136051388306696 4.8913860836711152 13.286128693356989
cstype bspline
deg 1
curv 4.2870820348445582 8.3752455177489846 293 294
parm u 4.2870820348445582 4.2870820348445582 8.3752455177489846 8.3752455177489846
end
usemtl diffuse_0
v 1.253054006961986 5.0519372155397981 9.1345063801793334
v 4.9693435693409587 4.9693435693409587 11.27025977222806
cstype bspline
deg 1
curv 0 4.2870820348445582 295 296
parm u 0 0 4.2870820348445582 4.2870820348445582
end
usemtl diffuse_0
v 1.6408125412195487 1.6408125412195487 19.161386690593165
v 4.5964734619549601 1.708517760546824 20.91214668839627
cstype bspline
deg 1
curv 19.760838999481681 23.19677788790711 297 298
parm u 19.760838999481681 19.760838999481681 23.19677788790711 23.19677788790711
end
usemtl diffuse_0
v 4.739922212181872 1.5650690103199127 17.202767468780465
v 1.6408125412195487 1.6408125412195487 19.161386690593165
cstype bspline
deg 1
curv 16.09390470893603 19.760838999481681 299 300
parm u 16.09390470893603 16.09390470893603 19.760838999481681 19.760838999481681
end
usemtl diffuse_0
v 1.4909483949024374 1.4909483949024374 15.286114516839032
v 4.739922212181872 1.5650690103199127 17.202767468780465
cstype bspline
deg 1
curv 12.320990282503466 16.09390470893603 301 302
parm u 12.320990282503466 12.320990282503466 16.09390470893603 16.09390470893603
end
usemtl diffuse_0
v 4.8913860836711152 1.4136051388306696 13.286128693356989
v 1.4909483949024374 1.4909483949024374 15.286114516839032
cstype bspline
deg 1
curv 8.3752455177489846 12.320990282503466 303 304
parm u 8.3752455177489846 8.3752455177489846 12.320990282503466 12.320990282503466
end
usemtl diffuse_0
v 1.3356476531608257 1.3356476531608257 11.27025977222806
v 4.8913860836711152 1.4136051388306696 13.286128693356989
cstype bspline
deg 1
curv 4.2870820348445582 8.3752455177489846 305 306
parm u 4.2870820348445582 4.2870820348445582 8.3752455177489846 8.3752455177489846
end
usemtl diffuse_0
v 5.0519372155397981 1.253054006961986 9.1345063801793334
v 1.3356476531608257 1.3356476531608257 11.27025977222806
cstype bspline
deg 1
curv 0 4.2870820348445582 307 308
parm u 0 0 4.2870820348445582 4.2870820348445582
end
usemtl diffuse_0
v 4.6641786812822357 1.6408125412195487 19.161386690593165
v 1.708517760546824 1.708517760546824 20.91214668839627
cstype bspline
deg 1
curv 19.760838999481681 23.19677788790711 309 310
parm u 19.760838999481681 19.760838999481681 23.19677788790711 23.19677788790711
end
usemtl diffuse_0
v 1.5650690103199127 1.5650690103199127 17.202767468780465
v 4.6641786812822357 1.6408125412195487 19.161386690593165
cstype bspline
deg 1
curv 16.09390470893603 19.760838999481681 311 312
parm u 16.09390470893603 16.09390470893603 19.760838999481681 19.760838999481681
end
usemtl diffuse_0
v 4.814042827599347 1.4909483949024374 15.286114516839032
v 1.5650690103199127 1.5650690103199127 17.202767468780465
cstype bspline
deg 1
curv 12.320990282503466 16.09390470893603 313 314
parm u 12.320990282503466 12.320990282503466 16.09390470893603 16.09390470893603
end
usemtl diffuse_0
v 1.4136051388306696 1.4136051388306696 13.286128693356989
v 4.814042827599347 1.4909483949024374 15.286114516839032
cstype bspline
deg 1
curv 8.3752455177489846 12.320990282503466 315 316
parm u 8.3752455177489846 8.3752455177489846 12.320990282503466 12.320990282503466
end
usemtl diffuse_0
v 4.9693435693409587 1.3356476531608257 11.27025977222806
v 1.4136051388306696 1.4136051388306696 13.286128693356989
cstype bspline
deg 1
curv 4.2870820348445582 8.3752455177489846 317 318
parm u 4.2870820348445582 4.2870820348445582 8.3752455177489846 8.3752455177489846
end
usemtl diffuse_0
v 1.253054006961986 1.253054006961986 9.1345063801793334
v 4.9693435693409587 1.3356476531608257 11.27025977222806
cstype bspline
deg 1
curv 0 4.2870820348445582 319 320
parm u 0 0 4.2870820348445582 4.2870820348445582
end
usemtl diffuse_0
v 1.0995504525560138 5.2054407699457705 8.0747135803841701
v 1.2530540069619862 3.1524956112508922 9.1345063801793334
cstype bspline
deg 1
curv 7.717407900152649 10.080995740766369 321 322
parm u 7.717407900152649 7.717407900152649 10.080995740766369 10.080995740766369
end
usemtl diffuse_0
v 0.77031710006553133 0.77031710006553133 5.801677377593407
v 1.0995504525560138 5.2054407699457705 8.0747135803841701
cstype bspline
deg 1
curv 2.7618445717386009 7.717407900152649 323 324
parm u 2.7618445717386009 2.7618445717386009 7.717407900152649 7.717407900152649
end
usemtl diffuse_0
v 0.57243517507824304 3.1524956112508926 4.4354950756741678
v 0.77031710006553133 0.77031710006553133 5.801677377593407
cstype bspline
deg 1
curv 0 2.7618445717386009 325 326
parm u 0 0 2.7618445717386009 2.7618445717386009
end
usemtl diffuse_0
v 1.0995504525560138 1.0995504525560138 8.0747135803841701
v 1.2530540069619862 3.1524956112508922 9.1345063801793334
cstype bspline
deg 1
curv 7.717407900152649 10.080995740766369 327 328
parm u 7.717407900152649 7.717407900152649 10.080995740766369 10.080995740766369
end
usemtl diffuse_0
v 0.77031710006553133 5.534674122436253 5.801677377593407
v 1.0995504525560138 1.0995504525560138 8.0747135803841701
cstype bspline
deg 1
curv 2.7618445717386009 7.717407900152649 329 330
parm u 2.7618445717386009 2.7618445717386009 7.717407900152649 7.717407900152649
end
usemtl diffuse_0
v 0.57243517507824304 3.1524956112508917 4.4354950756741678
v 0.77031710006553133 5.534674122436253 5.801677377593407
cstype bspline
deg 1
curv 0 2.7618445717386009 331 332
parm u 0 0 2.7618445717386009 2.7618445717386009
end
usemtl diffuse_0
v 0.93054873041943864 5.3744424920823466 6.9079210004570593
v 5.0519372155397981 5.0519372155397981 9.1345063801793334
cstype bspline
deg 1
curv 3.3433790113138948 8.0388593011110387 333 334
parm u 3.3433790113138948 3.3433790113138948 8.0388593011110387 8.0388593011110387
end
usemtl diffuse_0
v 3.1524956112508926 5.7325560474235422 4.4354950756741678
v 0.93054873041943864 5.3744424920823466 6.9079210004570593
cstype bspline
deg 1
curv 0 3.3433790113138948 335 336
parm u 0 0 3.3433790113138948 3.3433790113138948
end
usemtl diffuse_0
v 5.3744424920823457 5.3744424920823466 6.9079210004570593
v 1.253054006961986 5.0519372155397981 9.1345063801793334
cstype bspline
deg 1
curv 3.3433790113138948 8.0388593011110387 337 338
parm u 3.3433790113138948 3.3433790113138948 8.0388593011110387 8.0388593011110387
end
usemtl diffuse_0
v 3.1524956112508917 5.7325560474235422 4.4354950756741678
v 5.3744424920823457 5.3744424920823466 6.9079210004570593
cstype bspline
deg 1
curv 0 3.3433790113138948 339 340
parm u 0 0 3.3433790113138948 3.3433790113138948
end
usemtl diffuse_0
v 5.2054407699457705 5.2054407699457705 8.0747135803841701
v 5.0519372155397981 3.1524956112508922 9.1345063801793334
cstype bspline
deg 1
curv 7.717407900152649 10.080995740766369 341 342
parm u 7.717407900152649 7.717407900152649 10.080995740766369 10.080995740766369
end
usemtl diffuse_0
v 5.534674122436253 0.77031710006553133 5.801677377593407
v 5.2054407699457705 5.2054407699457705 8.0747135803841701
cstype bspline
deg 1
curv 2.7618445717386009 7.717407900152649 343 344
parm u 2.7618445717386009 2.7618445717386009 7.717407900152649 7.717407900152649
end
usemtl diffuse_0
v 5.7325560474235413 3.1524956112508926 4.4354950756741678
v 5.534674122436253 0.77031710006553133 5.801677377593407
cstype bspline
deg 1
curv 0 2.7618445717386009 345 346
parm u 0 0 2.7618445717386009 2.7618445717386009
end
usemtl diffuse_0
v 5.2054407699457705 1.0995504525560138 8.0747135803841701
v 5.0519372155397981 3.1524956112508922 9.1345063801793334
cstype bspline
deg 1
curv 7.717407900152649 10.080995740766369 347 348
parm u 7.717407900152649 7.717407900152649 10.080995740766369 10.080995740766369
end
usemtl diffuse_0
v 5.534674122436253 5.534674122436253 5.801677377593407
v 5.2054407699457705 1.0995504525560138 8.0747135803841701
cstype bspline
deg 1
curv 2.7618445717386009 7.717407900152649 349 350
parm u 2.7618445717386009 2.7618445717386009 7.717407900152649 7.717407900152649
end
usemtl diffuse_0
v 5.7325560474235413 3.1524956112508917 4.4354950756741678
v 5.534674122436253 5.534674122436253 5.801677377593407
cstype bspline
deg 1
curv 0 2.7618445717386009 351 352
parm u 0 0 2.7618445717386009 2.7618445717386009
end
usemtl diffuse_0
v 0.93054873041943864 0.9305487304194382 6.9079210004570593
v 5.0519372155397981 1.253054006961986 9.1345063801793334
cstype bspline
deg 1
curv 3.3433790113138948 8.0388593011110387 353 354
parm u 3.3433790113138948 3.3433790113138948 8.0388593011110387 8.0388593011110387
end
usemtl diffuse_0
v 3.1524956112508926 0.57243517507824193 4.4354950756741678
v 0.93054873041943864 0.9305487304194382 6.9079210004570593
cstype bspline
deg 1
curv 0 3.3433790113138948 355 356
parm u 0 0 3.3433790113138948 3.3433790113138948
end
usemtl diffuse_0
v 5.3744424920823457 0.9305487304194382 6.9079210004570593
v 1.253054006961986 1.253054006961986 9.1345063801793334
cstype bspline
deg 1
curv 3.3433790113138948 8.0388593011110387 357 358
parm u 3.3433790113138948 3.3433790113138948 8.0388593011110387 8.0388593011110387
end
usemtl diffuse_0
v 3.1524956112508917 0.57243517507824193 4.4354950756741678
v 5.3744424920823457 0.9305487304194382 6.9079210004570593
cstype bspline
deg 1
curv 0 3.3433790113138948 359 360
parm u 0 0 3.3433790113138948 3.3433790113138948
end
usemtl diffuse_0
v 0.57243517507824215 3.1524956112508917 4.4354950756741678
v -0.070015179177579157 6.3750064016793626 0
cstype bspline
deg 1
curv 5.5200484434868091 11.040096886973618 361 362
parm u 5.5200484434868091 5.5200484434868091 11.040096886973618 11.040096886973618
end
usemtl diffuse_0
v -0.070015179177579157 -0.070015179177578712 0
v 0.57243517507824215 3.1524956112508917 4.4354950756741678
cstype bspline
deg 1
curv 0 5.5200484434868091 363 364
parm u 0 0 5.5200484434868091 5.5200484434868091
end
usemtl diffuse_0
v 3.1524956112508917 5.7325560474235413 4.4354950756741678
v 6.3750064016793626 6.3750064016793626 0
cstype bspline
deg 1
curv 5.5200484434868091 11.040096886973618 365 366
parm u 5.5200484434868091 5.5200484434868091 11.040096886973618 11.040096886973618
end
usemtl diffuse_0
v -0.070015179177578712 6.3750064016793626 0
v 3.1524956112508917 5.7325560474235413 4.4354950756741678
cstype bspline
deg 1
curv 0 5.5200484434868091 367 368
parm u 0 0 5.5200484434868091 5.5200484434868091
end
usemtl diffuse_0
v 5.7325560474235413 3.1524956112508917 4.4354950756741678
v 6.3750064016793626 6.3750064016793626 0
cstype bspline
deg 1
curv 5.5200484434868091 11.040096886973618 369 370
parm u 5.5200484434868091 5.5200484434868091 11.040096886973618 11.040096886973618
end
usemtl diffuse_0
v 6.3750064016793626 -0.070015179177578712 0
v 5.7325560474235413 3.1524956112508917 4.4354950756741678
cstype bspline
deg 1
curv 0 5.5200484434868091 371 372
parm u 0 0 5.5200484434868091 5.5200484434868091
end
usemtl diffuse_0
v 3.1524956112508917 0.57243517507824193 4.4354950756741678
v 6.3750064016793626 -0.070015179177578712 0
cstype bspline
deg 1
curv 5.5200484434868091 11.040096886973618 373 374
parm u 5.5200484434868091 5.5200484434868091 11.040096886973618 11.040096886973618
end
usemtl diffuse_0
v -0.070015179177578712 -0.070015179177578712 0
v 3.1524956112508917 0.57243517507824193 4.4354950756741678
cstype bspline
deg 1
curv 0 5.5200484434868091 375 376
parm u 0 0 5.5200484434868091 5.5200484434868091
end
usemtl diffuse_0
v 0.57243517507824193 5.7325560474235413 4.4354950756741678
v 0.57243517507824193 0.57243517507824193 4.4354950756741678
cstype bspline
deg 1
curv 18.91497366750535 25.219964890007134 377 378
parm u 18.91497366750535 18.91497366750535 25.219964890007134 25.219964890007134
end
usemtl diffuse_0
v 5.7325560474235413 5.7325560474235413 4.4354950756741678
v 0.57243517507824193 5.7325560474235413 4.4354950756741678
cstype bspline
deg 1
curv 12.609982445003567 18.91497366750535 379 380
parm u 12.609982445003567 12.609982445003567 18.91497366750535 18.91497366750535
end
usemtl diffuse_0
v 5.7325560474235413 0.57243517507824193 4.4354950756741678
v 5.7325560474235413 5.7325560474235413 4.4354950756741678
cstype bspline
deg 1
curv 6.3049912225017835 12.609982445003567 381 382
parm u 6.3049912225017835 6.3049912225017835 12.609982445003567 12.609982445003567
end
usemtl diffuse_0
v 0.57243517507824193 0.57243517507824193 4.4354950756741678
v 5.7325560474235413 0.57243517507824193 4.4354950756741678
cstype bspline
deg 1
curv 0 6.3049912225017835 383 384
parm u 0 0 6.3049912225017835 6.3049912225017835
end
usemtl diffuse_0
v 2.2506333206377729 4.0543579018640106 34.930478601716096
v 2.2506333206377729 2.2506333206377729 34.930478601716096
cstype bspline
deg 1
curv 18.91497366750535 25.219964890007134 385 386
parm u 18.91497366750535 18.91497366750535 25.219964890007134 25.219964890007134
end
usemtl diffuse_0
v 4.0543579018640115 4.0543579018640106 34.930478601716096
v 2.2506333206377729 4.0543579018640106 34.930478601716096
cstype bspline
deg 1
curv 12.609982445003567 18.91497366750535 387 388
parm u 12.609982445003567 12.609982445003567 18.91497366750535 18.91497366750535
end
usemtl diffuse_0
v 4.0543579018640115 2.2506333206377729 34.930478601716096
v 4.0543579018640115 4.0543579018640106 34.930478601716096
cstype bspline
deg 1
curv 6.3049912225017835 12.609982445003567 389 390
parm u 6.3049912225017835 6.3049912225017835 12.609982445003567 12.609982445003567
end
usemtl diffuse_0
v 2.2506333206377729 2.2506333206377729 34.930478601716096
v 4.0543579018640115 2.2506333206377729 34.930478601716096
cstype bspline
deg 1
curv 0 6.3049912225017835 391 392
parm u 0 0 6.3049912225017835 6.3049912225017835
end
usemtl diffuse_0
v 1.9797113711407861 4.3252798513609978 27.924825028490343
v 1.9797113711407861 1.9797113711407861 27.924825028490343
cstype bspline
deg 1
curv 18.91497366750535 25.219964890007134 393 394
parm u 18.91497366750535 18.91497366750535 25.219964890007134 25.219964890007134
end
usemtl diffuse_0
v 4.3252798513609978 4.3252798513609978 27.924825028490343
v 1.9797113711407861 4.3252798513609978 27.924825028490343
cstype bspline
deg 1
curv 12.609982445003567 18.91497366750535 395 396
parm u 12.609982445003567 12.609982445003567 18.91497366750535 18.91497366750535
end
usemtl diffuse_0
v 4.3252798513609978 1.9797113711407861 27.924825028490343
v 4.3252798513609978 4.3252798513609978 27.924825028490343
cstype bspline
deg 1
curv 6.3049912225017835 12.609982445003567 397 398
parm u 6.3049912225017835 6.3049912225017835 12.609982445003567 12.609982445003567
end
usemtl diffuse_0
v 1.9797113711407861 1.9797113711407861 27.924825028490343
v 4.3252798513609978 1.9797113711407861 27.924825028490343
cstype bspline
deg 1
curv 0 6.3049912225017835 399 400
parm u 0 0 6.3049912225017835 6.3049912225017835
end
usemtl diffuse_0
v 1.708517760546824 4.5964734619549601 20.91214668839627
v 1.708517760546824 1.708517760546824 20.91214668839627
cstype bspline
deg 1
curv 18.91497366750535 25.219964890007134 401 402
parm u 18.91497366750535 18.91497366750535 25.219964890007134 25.219964890007134
end
usemtl diffuse_0
v 4.5964734619549601 4.5964734619549601 20.91214668839627
v 1.708517760546824 4.5964734619549601 20.91214668839627
cstype bspline
deg 1
curv 12.609982445003567 18.91497366750535 403 404
parm u 12.609982445003567 12.609982445003567 18.91497366750535 18.91497366750535
end
usemtl diffuse_0
v 4.5964734619549601 1.708517760546824 20.91214668839627
v 4.5964734619549601 4.5964734619549601 20.91214668839627
cstype bspline
deg 1
curv 6.3049912225017835 12.609982445003567 405 406
parm u 6.3049912225017835 6.3049912225017835 12.609982445003567 12.609982445003567
end
usemtl diffuse_0
v 1.708517760546824 1.708517760546824 20.91214668839627
v 4.5964734619549601 1.708517760546824 20.91214668839627
cstype bspline
deg 1
curv 0 6.3049912225017835 407 408
parm u 0 0 6.3049912225017835 6.3049912225017835
end
usemtl diffuse_0
v 2.3797622524333755 3.9252289700684084 38.269567826934981
v 2.3797622524333755 2.3797622524333759 38.269567826934981
cstype bspline
deg 1
curv 18.91497366750535 25.219964890007134 409 410
parm u 18.91497366750535 18.91497366750535 25.219964890007134 25.219964890007134
end
usemtl diffuse_0
v 3.925228970068408 3.9252289700684084 38.269567826934981
v 2.3797622524333755 3.9252289700684084 38.269567826934981
cstype bspline
deg 1
curv 12.609982445003567 18.91497366750535 411 412
parm u 12.609982445003567 12.609982445003567 18.91497366750535 18.91497366750535
end
usemtl diffuse_0
v 3.925228970068408 2.3797622524333759 38.269567826934981
v 3.925228970068408 3.9252289700684084 38.269567826934981
cstype bspline
deg 1
curv 6.3049912225017835 12.609982445003567 413 414
parm u 6.3049912225017835 6.3049912225017835 12.609982445003567 12.609982445003567
end
usemtl diffuse_0
v 2.3797622524333755 2.3797622524333759 38.269567826934981
v 3.925228970068408 2.3797622524333759 38.269567826934981
cstype bspline
deg 1
curv 0 6.3049912225017835 415 416
parm u 0 0 6.3049912225017835 6.3049912225017835
end
usemtl diffuse_0
v 1.253054006961986 5.0519372155397981 9.1345063801793334
v 1.253054006961986 1.253054006961986 9.1345063801793334
cstype bspline
deg 1
curv 18.91497366750535 25.219964890007134 417 418
parm u 18.91497366750535 18.91497366750535 25.219964890007134 25.219964890007134
end
usemtl diffuse_0
v 5.0519372155397981 5.0519372155397981 9.1345063801793334
v 1.253054006961986 5.0519372155397981 9.1345063801793334
cstype bspline
deg 1
curv 12.609982445003567 18.91497366750535 419 420
parm u 12.609982445003567 12.609982445003567 18.91497366750535 18.91497366750535
end
usemtl diffuse_0
v 5.0519372155397981 1.253054006961986 9.1345063801793334
v 5.0519372155397981 5.0519372155397981 9.1345063801793334
cstype bspline
deg 1
curv 6.3049912225017835 12.609982445003567 421 422
parm u 6.3049912225017835 6.3049912225017835 12.609982445003567 12.609982445003567
end
usemtl diffuse_0
v 1.253054006961986 1.253054006961986 9.1345063801793334
v 5.0519372155397981 1.253054006961986 9.1345063801793334
cstype bspline
deg 1
curv 0 6.3049912225017835 423 424
parm u 0 0 6.3049912225017835 6.3049912225017835
end
usemtl diffuse_0
v 2.3797622524333755 2.3797622524333759 39.162949274860367
v 3.925228970068408 2.3797622524333759 39.162949274860367
cstype bspline
deg 1
curv 0 1.5454667176350325 425 426
parm u 0 0 1.5454667176350325 1.5454667176350325
end
usemtl diffuse_0
v 2.3797622524333755 3.9252289700684084 39.162949274860367
v 3.925228970068408 3.9252289700684084 39.162949274860367
cstype bspline
deg 1
curv 0 1.5454667176350325 427 428
parm u 0 0 1.5454667176350325 1.5454667176350325
end
usemtl diffuse_0
v 3.925228970068408 3.9252289700684084 39.162949274860367
v 7.3229187113477714 3.3604953108626701 39.162949274860374
cstype bspline
deg 1
curv 0 3.2972091373375747 429 430
parm u 0 0 3.2972091373375747 3.2972091373375747
end
usemtl diffuse_0
v 3.925228970068408 2.3797622524333759 39.162949274860367
v 7.3229187113477714 2.9444959116391143 39.162949274860374
cstype bspline
deg 1
curv 0 3.2972091373375747 431 432
parm u 0 0 3.2972091373375747 3.2972091373375747
end
usemtl diffuse_0
v 2.3797622524333755 3.9252289700684084 39.162949274860367
v -1.0179274888459879 3.3604953108626701 39.162949274860374
cstype bspline
deg 1
curv 0 3.2972091373375747 433 434
parm u 0 0 3.2972091373375747 3.2972091373375747
end
usemtl diffuse_0
v 2.3797622524333755 2.3797622524333759 39.162949274860367
v -1.0179274888459879 2.9444959116391143 39.162949274860374
cstype bspline
deg 1
curv 0 3.2972091373375747 435 436
parm u 0 0 3.2972091373375747 3.2972091373375747
end
usemtl diffuse_0
v 2.3797622524333755 2.3797622524333759 38.269567826934981
v -1.0179274888459893 2.9444959116391143 39.162949274860367
cstype bspline
deg 1
curv 0 3.2972091373375747 437 438
parm u 0 0 3.2972091373375747 3.2972091373375747
end
usemtl diffuse_0
v 7.3229187113477732 3.3604953108626701 39.162949274860367
v 7.3229187113477732 2.9444959116391143 39.162949274860367
cstype bspline
deg 1
curv 0 0.41599939922355578 439 440
parm u 0 0 0.41599939922355578 0.41599939922355578
end
usemtl diffuse_0
v 3.925228970068408 3.9252289700684084 38.269567826934981
v 7.3229187113477732 3.3604953108626701 39.162949274860367
cstype bspline
deg 1
curv 0 3.2972091373375747 441 442
parm u 0 0 3.2972091373375747 3.2972091373375747
end
usemtl diffuse_0
v 3.925228970068408 2.3797622524333759 38.269567826934981
v 7.3229187113477732 2.9444959116391143 39.162949274860367
cstype bspline
deg 1
curv 0 3.2972091373375747 443 444
parm u 0 0 3.2972091373375747 3.2972091373375747
end
usemtl diffuse_0
v -1.0179274888459893 3.3604953108626701 39.162949274860367
v -1.0179274888459893 2.9444959116391143 39.162949274860367
cstype bspline
deg 1
curv 0 0.41599939922355578 445 446
parm u 0 0 0.41599939922355578 0.41599939922355578
end
usemtl diffuse_0
v 2.3797622524333755 3.9252289700684084 38.269567826934981
v -1.0179274888459893 3.3604953108626701 39.162949274860367
cstype bspline
deg 1
curv 0 3.2972091373375747 447 448
parm u 0 0 3.2972091373375747 3.2972091373375747
end
usemtl diffuse_0
v 7.6892121027258327 3.2417227417187826 34.930478601716096
v 3.9895467681173824 3.9895467681173811 36.606401691594534
cstype bspline
deg 1
curv 0 4.1298283942253775 449 450
parm u 0 0 4.1298283942253775 4.1298283942253775
end
usemtl diffuse_0
v 3.9895467681173824 2.3154444543844024 36.606401691594534
v 7.6892121027258327 3.0632684807830008 34.930478601716096
cstype bspline
deg 1
curv 0 4.1298283942253775 451 452
parm u 0 0 4.1298283942253775 4.1298283942253775
end
usemtl diffuse_0
v 7.6892121027258327 3.2417227417187826 34.930478601716096
v 7.6892121027258327 3.0632684807830008 34.930478601716096
cstype bspline
deg 1
curv 0 0.17845426093578176 453 454
parm u 0 0 0.17845426093578176 0.17845426093578176
end
usemtl diffuse_0
v 4.0543579018640115 4.0543579018640106 34.930478601716096
v 7.6892121027258327 3.2417227417187826 34.930478601716096
cstype bspline
deg 1
curv 0 3.7245860125693282 455 456
parm u 0 0 3.7245860125693282 3.7245860125693282
end
usemtl diffuse_0
v 4.0543579018640115 2.2506333206377729 34.930478601716096
v 7.6892121027258327 3.0632684807830008 34.930478601716096
cstype bspline
deg 1
curv 0 3.7245860125693282 457 458
parm u 0 0 3.7245860125693282 3.7245860125693282
end
usemtl diffuse_0
v -1.3842208802240479 3.2417227417187826 34.930478601716096
v 2.3154444543844019 3.9895467681173811 36.606401691594534
cstype bspline
deg 1
curv 0 4.1298283942253775 459 460
parm u 0 0 4.1298283942253775 4.1298283942253775
end
usemtl diffuse_0
v 2.3154444543844019 2.3154444543844024 36.606401691594534
v -1.3842208802240479 3.0632684807830008 34.930478601716096
cstype bspline
deg 1
curv 0 4.1298283942253775 461 462
parm u 0 0 4.1298283942253775 4.1298283942253775
end
usemtl diffuse_0
v -1.3842208802240479 3.2417227417187826 34.930478601716096
v -1.3842208802240479 3.0632684807830008 34.930478601716096
cstype bspline
deg 1
curv 0 0.17845426093578176 463 464
parm u 0 0 0.17845426093578176 0.17845426093578176
end
usemtl diffuse_0
v 2.2506333206377729 4.0543579018640106 34.930478601716096
v -1.3842208802240479 3.2417227417187826 34.930478601716096
cstype bspline
deg 1
curv 0 3.7245860125693282 465 466
parm u 0 0 3.7245860125693282 3.7245860125693282
end
usemtl diffuse_0
v 2.2506333206377729 2.2506333206377729 34.930478601716096
v -1.3842208802240479 3.0632684807830008 34.930478601716096
cstype bspline
deg 1
curv 0 3.7245860125693282 467 468
parm u 0 0 3.7245860125693282 3.7245860125693282
end
usemtl diffuse_0
v 4.2539515884617591 4.2539515884617591 29.769271743789034
v 8.1225862401269833 3.2918299058077674 27.924825028490343
cstype bspline
deg 1
curv 0 4.3924931287224567 469 470
parm u 0 0 4.3924931287224567 4.3924931287224567
end
usemtl diffuse_0
v 8.1225862401269833 3.0131613166940161 27.924825028490343
v 4.2539515884617591 2.0510396340400248 29.769271743789034
cstype bspline
deg 1
curv 0 4.3924931287224558 471 472
parm u 0 0 4.3924931287224558 4.3924931287224558
end
usemtl diffuse_0
v 8.1225862401269833 3.2918299058077674 27.924825028490343
v 8.1225862401269833 3.0131613166940161 27.924825028490343
cstype bspline
deg 1
curv 0 0.27866858911375125 473 474
parm u 0 0 0.27866858911375125 0.27866858911375125
end
usemtl diffuse_0
v 4.3252798513609969 4.3252798513609978 27.924825028490343
v 8.1225862401269833 3.2918299058077674 27.924825028490343
cstype bspline
deg 1
curv 0 3.9354230522431712 475 476
parm u 0 0 3.9354230522431712 3.9354230522431712
end
usemtl diffuse_0
v 4.3252798513609969 1.9797113711407861 27.924825028490343
v 8.1225862401269833 3.0131613166940161 27.924825028490343
cstype bspline
deg 1
curv 0 3.9354230522431712 477 478
parm u 0 0 3.9354230522431712 3.9354230522431712
end
usemtl diffuse_0
v 2.0510396340400243 4.2539515884617591 29.769271743789034
v -1.8175950176252005 3.2918299058077674 27.924825028490343
cstype bspline
deg 1
curv 0 4.3924931287224567 479 480
parm u 0 0 4.3924931287224567 4.3924931287224567
end
usemtl diffuse_0
v -1.8175950176252005 3.0131613166940161 27.924825028490343
v 2.0510396340400243 2.0510396340400248 29.769271743789034
cstype bspline
deg 1
curv 0 4.3924931287224558 481 482
parm u 0 0 4.3924931287224558 4.3924931287224558
end
usemtl diffuse_0
v -1.8175950176252005 3.2918299058077674 27.924825028490343
v -1.8175950176252005 3.0131613166940161 27.924825028490343
cstype bspline
deg 1
curv 0 0.27866858911375125 483 484
parm u 0 0 0.27866858911375125 0.27866858911375125
end
usemtl diffuse_0
v 1.9797113711407865 4.3252798513609978 27.924825028490343
v -1.8175950176252005 3.2918299058077674 27.924825028490343
cstype bspline
deg 1
curv 0 3.9354230522431712 485 486
parm u 0 0 3.9354230522431712 3.9354230522431712
end
usemtl diffuse_0
v 1.9797113711407865 1.9797113711407861 27.924825028490343
v -1.8175950176252005 3.0131613166940161 27.924825028490343
cstype bspline
deg 1
curv 0 3.9354230522431712 487 488
parm u 0 0 3.9354230522431712 3.9354230522431712
end
usemtl diffuse_0
v 8.4064493954768515 3.3350989877780877 20.91214668839627
v 4.5205212127760692 4.5205212127760674 22.876163065963919
cstype bspline
deg 1
curv 0 4.5125407503956483 489 490
parm u 0 0 4.5125407503956483 4.5125407503956483
end
usemtl diffuse_0
v 4.5205212127760692 1.7844700097257165 22.876163065963919
v 8.4064493954768515 2.9698922347236967 20.91214668839627
cstype bspline
deg 1
curv 0 4.5125407503956483 491 492
parm u 0 0 4.5125407503956483 4.5125407503956483
end
usemtl diffuse_0
v 8.4064493954768515 3.3350989877780877 20.91214668839627
v 8.4064493954768515 2.9698922347236967 20.91214668839627
cstype bspline
deg 1
curv 0 0.36520675305439099 493 494
parm u 0 0 0.36520675305439099 0.36520675305439099
end
usemtl diffuse_0
v 4.596473461954961 1.7085177605468242 20.91214668839627
v 8.4064493954768515 2.9698922347236967 20.91214668839627
cstype bspline
deg 1
curv 0 3.8369761793656565 495 496
parm u 0 0 3.8369761793656565 3.8369761793656565
end
usemtl diffuse_0
v 4.596473461954961 4.5964734619549601 20.91214668839627
v 8.4064493954768515 3.3350989877780877 20.91214668839627
cstype bspline
deg 1
curv 0 3.8369761793656565 497 498
parm u 0 0 3.8369761793656565 3.8369761793656565
end
usemtl diffuse_0
v -2.1014581729750663 3.3350989877780877 20.91214668839627
v 1.7844700097257156 4.5205212127760674 22.876163065963919
cstype bspline
deg 1
curv 0 4.5125407503956483 499 500
parm u 0 0 4.5125407503956483 4.5125407503956483
end
usemtl diffuse_0
v 1.7844700097257156 1.7844700097257165 22.876163065963919
v -2.1014581729750663 2.9698922347236967 20.91214668839627
cstype bspline
deg 1
curv 0 4.5125407503956483 501 502
parm u 0 0 4.5125407503956483 4.5125407503956483
end
usemtl diffuse_0
v -2.1014581729750663 3.3350989877780877 20.91214668839627
v -2.1014581729750663 2.9698922347236967 20.91214668839627
cstype bspline
deg 1
curv 0 0.36520675305439099 503 504
parm u 0 0 0.36520675305439099 0.36520675305439099
end
usemtl diffuse_0
v 1.7085177605468238 1.7085177605468242 20.91214668839627
v -2.1014581729750663 2.9698922347236967 20.91214668839627
cstype bspline
deg 1
curv 0 3.8369761793656565 505 506
parm u 0 0 3.8369761793656565 3.8369761793656565
end
usemtl diffuse_0
v 1.7085177605468238 4.5964734619549601 20.91214668839627
v -2.1014581729750663 3.3350989877780877 20.91214668839627
cstype bspline
deg 1
curv 0 3.8369761793656565 507 508
parm u 0 0 3.8369761793656565 3.8369761793656565
end
usemtl diffuse_0
v 3.925228970068408 2.3797622524333759 38.269567826934981
v 5.0519372155397981 1.253054006961986 9.1345063801793334
cstype bspline
deg 1
curv 0 29.178600865138375 509 510
parm u 0 0 29.178600865138375 29.178600865138375
end
usemtl diffuse_0
v 2.3797622524333755 2.3797622524333759 38.269567826934981
v 1.253054006961986 1.253054006961986 9.1345063801793334
cstype bspline
deg 1
curv 0 29.178600865138375 511 512
parm u 0 0 29.178600865138375 29.178600865138375
end
usemtl diffuse_0
v 3.925228970068408 3.9252289700684084 38.269567826934981
v 5.0519372155397981 5.0519372155397981 9.1345063801793334
cstype bspline
deg 1
curv 0 29.178600865138375 513 514
parm u 0 0 29.178600865138375 29.178600865138375
end
usemtl diffuse_0
v 1.253054006961986 5.0519372155397981 9.1345063801793334
v 2.3797622524333755 3.9252289700684084 38.269567826934981
cstype bspline
deg 1
curv 0 29.178600865138375 515 516
parm u 0 0 29.178600865138375 29.178600865138375
end
usemtl diffuse_0
v 5.0519372155397981 5.0519372155397981 9.1345063801793334
v 6.3750064016793626 6.3750064016793626 0
cstype bspline
deg 1
curv 0 9.3241745453504326 517 518
parm u 0 0 9.3241745453504326 9.3241745453504326
end
usemtl diffuse_0
v 1.253054006961986 5.0519372155397981 9.1345063801793334
v -0.070015179177578712 6.3750064016793626 0
cstype bspline
deg 1
curv 0 9.3241745453504326 519 520
parm u 0 0 9.3241745453504326 9.3241745453504326
end
usemtl diffuse_0
v 5.0519372155397981 1.253054006961986 9.1345063801793334
v 6.3750064016793626 -0.070015179177578712 0
cstype bspline
deg 1
curv 0 9.3241745453504326 521 522
parm u 0 0 9.3241745453504326 9.3241745453504326
end
usemtl diffuse_0
v -0.070015179177578712 -0.070015179177578712 0
v 1.253054006961986 1.253054006961986 9.1345063801793334
cstype bspline
deg 1
curv 0 9.3241745453504326 523 524
parm u 0 0 9.3241745453504326 9.3241745453504326
end
