ply
format ascii 1.0
element vertex 528
property float x
property float y
property float z
element edge 1911
property list uchar int vertex_indices
end_header
152.446 0.353181 4.216
152.837 0.407783 4.22
153.215 0.420505 4.25401
153.298 0.252523 4.343
153.746 0.334889 4.291
153.829 0.236783 4.396
153.983 0.138445 4.242
154.556 0.35316 4.30801
151.887 0.285161 4.162
154.892 0.379997 4.333
155.185 0.316133 4.444
156.051 0.257354 4.50201
156.457 0.318897 4.484
156.862 0.240687 4.58801
157.169 0.288579 4.52901
157.505 0.315416 4.58601
157.547 0.301301 4.566
156.583 0.381368 4.505
158.371 0.291575 4.69
158.693 0.311471 4.647
159.056 0.317251 4.716
159.168 0.267966 4.732
159.741 0.377866 4.812
159.769 0.321872 4.79301
159.978 0.251299 4.894
160.496 0.333434 4.866
160.776 0.472259 4.93401
161.111 0.359342 4.925
161.628 0.3716 4.938
161.893 0.293854 4.96201
161.181 0.428987 4.944
157.756 0.160852 4.58701
161.362 0.239716 5.006
142.943 0.349806 3.54601
143.376 0.320416 3.54401
143.697 0.37525 3.54
145.053 0.314846 3.755
145.29 0.293094 3.717
145.472 0.313454 3.731
145.849 0.326176 3.674
146.072 0.122791 3.542
146.492 0.331028 3.732
146.576 0.372676 3.772
146.744 0.246341 3.896
146.94 0.378457 3.734
147.96 0.326155 3.894
148.351 0.31088 3.845
148.729 0.393479 3.899
149.497 0.390926 3.939
149.832 0.278009 4.01801
150.419 0.255097 4.049
150.503 0.331682 4.065
151.104 0.280773 4.05701
148.854 0.281258 4.02901
151.65 0.411728 4.146
150.224 0.262734 3.86401
142.481 0.190621 3.46001
143.166 0.181359 3.33701
133.216 0.375123 2.789
134.124 0.197414 2.86301
134.641 0.349426 2.959
134.739 0.223323 2.92001
134.892 0.159923 2.958
133.523 0.283262 2.912
135.172 0.403563 2.90401
135.549 0.206655 2.985
135.592 0.367233 2.952
136.178 0.239505 3.07401
136.374 0.266806 3.01601
136.626 0.321872 3.039
136.877 0.167308 3.104
137.03 0.208723 3.149
137.324 0.284613 3.134
137.408 0.32626 3.07
137.716 0.374153 3.208
137.883 0.352633 3.15601
138.107 0.184186 3.139
138.415 0.40677 3.209
139.477 0.305415 3.217
139.518 0.256362 3.248
138.778 0.377613 3.201
139.127 0.376453 3.242
140.245 0.372739 3.291
139.826 0.40907 3.318
140.608 0.273705 3.37801
140.986 0.391242 3.305
141.531 0.382444 3.429
141.573 0.263515 3.359
141.782 0.22788 3.494
123.363 0.372908 2.255
124.509 0.278262 2.306
123.754 0.322695 2.23701
124.117 0.22366 2.29
124.411 0.264612 2.32
123.74 0.280815 2.245
125.137 0.241235 2.366
125.208 0.345818 2.357
123.963 0.112368 2.246
125.557 0.239843 2.348
125.822 0.231973 2.384
125.906 0.343497 2.368
126.563 0.145661 2.441
127.01 0.228028 2.371
127.01 0.297904 2.431
127.387 0.24075 2.481
127.597 0.274992 2.50201
127.834 0.113486 2.51701
128.114 0.252312 2.48901
128.226 0.272903 2.54301
128.478 0.362908 2.533
129.022 0.179418 2.576
129.554 0.338371 2.631
129.791 0.141927 2.565
129.554 0.408247 2.64001
130.434 0.251594 2.687
130.63 0.243957 2.729
129.917 0.274275 2.653
131.091 0.263388 2.661
131.384 0.199524 2.77901
131.664 0.373288 2.756
131.873 0.1979 2.675
132.139 0.224968 2.743
132.559 0.293453 2.845
113.761 0.251067 1.651
114.6 0.248282 1.71301
114.837 0.0867763 1.71301
114.111 0.354721 1.787
115.354 0.168911 1.75201
115.355 0.273726 1.764
116.095 0.117537 1.82401
114.166 0.137918 1.723
116.612 0.199672 1.806
117.186 0.309572 1.915
117.549 0.245476 1.90501
118.625 0.290816 1.972
118.639 0.192942 1.956
118.848 0.122369 1.939
117.339 0.246172 1.931
119.338 0.330374 2.056
119.422 0.267207 1.97601
119.561 0.161928 2.024
120.889 0.192456 2.122
121.015 0.219989 2.15701
121.322 0.267882 2.15701
121.546 0.344004 2.132
121.797 0.154501 2.132
122.44 0.159354 2.056
122.65 0.333349 2.164
123.055 0.255139 2.16801
103.587 0.298833 1.19601
105.25 0.251383 1.247
104.622 0.358287 1.355
105.711 0.235876 1.19701
104.985 0.224314 1.291
104.621 0.218534 1.258
104.006 0.122748 1.147
106.075 0.17178 1.345
106.69 0.16275 1.314
106.829 0.197225 1.34901
107.346 0.139606 1.39001
107.947 0.158573 1.395
108.548 0.212478 1.445
108.828 0.316365 1.479
109.331 0.14699 1.472
109.555 0.25805 1.482
110.687 0.22634 1.568
109.177 0.175451 1.506
110.659 0.317272 1.555
111.036 0.329995 1.62601
111.148 0.350586 1.514
111.399 0.23096 1.662
112.042 0.235813 1.604
112.727 0.226551 1.634
111.498 0.314488 1.59901
112.629 0.143024 1.772
113.007 0.295499 1.677
113.384 0.203406 1.636
113.468 0.210115 1.749
94.2238 0.294993 0.849007
94.6707 0.202668 0.843002
94.8944 0.208913 0.832001
95.2579 0.249632 0.819
95.3135 0.172582 0.798004
95.5789 0.129774 0.873001
95.8449 0.261658 0.868004
95.9986 0.268135 0.842003
96.376 0.280857 0.895004
96.697 0.160999 0.904007
96.739 0.181823 0.923004
97.1026 0.257481 0.895004
97.4238 0.172561 0.957001
97.9832 0.275519 0.943001
98.2062 0.107073 0.959
98.2206 0.218829 0.855003
98.5698 0.18273 0.914001
98.626 0.280372 0.992004
98.8912 0.167687 0.986
98.8771 0.125808 1.05701
99.2267 0.194524 1.037
99.4223 0.186887 1.04501
100.037 0.177857 1.048
100.764 0.294233 1.051
100.596 0.245877 1.03201
101.183 0.257903 1.096
101.351 0.201444 1.148
101.603 0.186633 1.111
102.022 0.150302 1.118
102.469 0.337484 1.138
102.847 0.245391 1.153
103.196 0.209293 1.2
93.5385 0.129563 0.777
83.9654 0.161358 0.415001
84.7205 0.291617 0.460007
84.7762 0.249506 0.465004
85.0133 0.088 0.515007
84.3426 0.139142 0.427002
85.5024 0.0863754 0.466003
85.5025 0.121314 0.550003
86.1313 0.0842867 0.510002
86.3552 0.160408 0.479004
84.4543 0.0898566 0.479004
85.8942 0.245792 0.477005
86.8439 0.0539688 0.585007
87.1521 0.276553 0.562004
87.2358 0.213386 0.446007
87.501 0.100701 0.643005
87.5993 0.254105 0.561005
88.0323 0.189777 0.542
88.1161 0.161548 0.629005
88.9405 0.116883 0.673004
89.4442 0.296892 0.686005
89.6812 0.135386 0.735001
90.8974 0.2152 0.650002
91.2746 0.192984 0.738007
91.568 0.164058 0.670006
90.2125 0.189524 0.590004
92.1692 0.217964 0.706001
92.3922 0.0495171 0.755005
90.9531 0.173088 0.705002
92.8818 0.187646 0.751007
84.2172 0.251362 0.445
73.9585 0.0478504 0.260002
74.5175 0.0459937 0.146004
75.0907 0.0860167 0.127007
76.349 0.256531 0.182007
76.7261 0.164438 0.253006
75.6919 0.174861 0.198006
77.229 0.0998782 0.249001
77.8722 0.209546 0.239006
77.9277 0.0975574 0.275002
76.5303 0.137137 0.296005
78.2637 0.264148 0.252007
78.5007 0.102642 0.300003
78.5985 0.0813541 0.309006
78.8925 0.227121 0.245003
79.1295 0.0656149 0.310005
79.605 0.161864 0.332001
79.6469 0.14775 0.319
80.0801 0.153298 0.242004
80.3456 0.145429 0.368004
80.891 0.241446 0.346001
81.0165 0.164164 0.357002
81.6874 0.182899 0.345001
81.7293 0.168784 0.354004
79.8702 0.0491796 0.513
82.0368 0.181739 0.426003
82.4279 0.131525 0.347
82.4421 0.173405 0.414001
82.8613 0.172012 0.397003
83.1268 0.164143 0.451004
83.7138 0.176169 0.436005
73.8051 0.146188 0.121002
74.2945 0.214441 0.113007
73.6095 0.153826 0.136002
64.5257 0.253873 -0.0619965
63.6309 0.124078 -0.111996
65.5731 0.00582306 -0.0079956
66.16 -0.0170894 -0.0649948
64.9169 0.203659 -0.0889969
65.336 0.167329 -0.0909958
64.1622 0.213154 -0.060997
66.6636 0.127981 -0.0209961
67.0273 0.238577 -0.0399971
67.4322 0.125428 -0.00099945
68.0611 0.123339 -0.0579948
68.5925 0.212415 -0.0629959
68.7461 0.183954 0.0390015
68.8997 0.155493 0.0500031
69.5425 0.125407 0.105003
67.4737 0.0064982 0.00200653
69.2494 0.224209 0.0180054
70.0041 0.249653 -0.0169983
70.2272 0.0812064 0.0699997
70.8422 0.107115 0.0430069
71.5409 0.104794 0.104004
70.7449 0.268156 0.0970001
72.1977 0.0816495 0.155006
71.6253 0.251257 0.0559998
72.6591 0.136019 0.0820007
72.4497 0.206592 0.0710068
72.8549 0.198258 0.109001
73.3715 0.0358245 0.161003
64.3993 0.051648 0.00500489
64.763 0.162244 -0.113998
62.9741 0.147222 -0.109997
67.2367 0.168004 -0.079998
53.5827 0.199377 -0.285995
53.9598 0.107284 -0.255997
54.7144 0.0977895 -0.233997
54.3372 0.120006 -0.265995
53.5265 0.101735 -0.320995
54.8401 0.0554457 -0.296997
52.9395 0.0897089 -0.283997
54.1136 0.148699 -0.277996
56.1677 0.0510362 -0.186996
53.1776 0.242649 -0.263996
56.3916 0.127158 -0.205997
56.7407 0.0561208 -0.230995
57.3001 0.159079 -0.158997
57.37 0.158847 -0.233997
57.4951 -0.0232501 -0.207996
57.691 0.0389892 -0.126995
58.0405 0.0727672 -0.215996
58.7811 0.0563318 -0.166996
59.0609 0.12528 -0.138996
59.4102 0.0891815 -0.159996
60.2064 -0.004304 -0.137997
60.5563 0.134289 -0.247997
61.4092 0.243261 -0.172997
62.4566 0.0301491 -0.157997
61.8143 0.199988 -0.130997
62.2336 0.198596 -0.0919952
61.1154 0.167371 -0.168995
61.7444 0.20022 -0.0509949
54.3227 -0.026689 -0.293995
61.9535 0.0248324 -0.0849953
43.2404 0.0590323 -0.375996
43.7015 0.0435253 -0.344997
44.0933 0.168004 -0.353996
44.2469 0.139542 -0.315998
44.5264 0.138614 -0.345997
44.9871 -0.0166464 -0.365997
43.1006 0.0594965 -0.294998
45.4767 0.121483 -0.353996
45.2949 0.101123 -0.382996
46.0638 0.168447 -0.286995
46.2869 -2.84217e-14 -0.254997
45.5888 0.211951 -0.306995
47.0279 0.0883797 -0.315998
47.2936 0.150387 -0.359997
46.7065 0.103423 -0.350998
47.5026 -0.0250012 -0.342999
47.7968 0.190642 -0.306995
48.1318 0.0427868 -0.271996
48.7468 0.0686952 -0.302998
48.1736 0.0286722 -0.227997
49.0125 0.130702 -0.269997
49.4174 0.0175536 -0.356998
49.9347 0.0647499 -0.317997
50.1441 -0.00582306 -0.263996
49.4879 0.192013 -0.351997
50.6752 0.0133762 -0.289997
50.8015 0.180663 -0.274998
51.2065 0.0675138 -0.288998
51.5977 0.0522388 -0.201996
51.8212 0.0235454 -0.309998
52.0172 0.120723 -0.251995
51.207 0.242206 -0.270996
52.3945 0.0985068 -0.224998
52.3804 0.0566272 -0.323997
42.402 0.0967557 -0.354996
34.6316 0.0806367 -0.317997
35.0509 0.114183 -0.371998
35.0512 0.184059 -0.367996
34.0581 -0.0642014 -0.426998
33.849 0.111187 -0.426998
35.6238 0.0843289 -0.411995
33.4152 -0.0690539 -0.398998
36.1967 0.0544752 -0.467999
37.0357 0.191444 -0.400997
37.9858 0.104435 -0.295998
38.6703 0.0252966 -0.368996
38.2653 0.103507 -0.342999
38.6845 0.102115 -0.370998
39.104 0.170599 -0.391998
37.4125 0.029474 -0.375996
39.2017 0.114373 -0.429996
39.4387 -0.047133 -0.314995
39.8303 0.0424071 -0.292995
39.8724 0.0981692 -0.367996
40.5711 0.0609101 -0.380997
40.7111 0.130323 -0.411995
41.1301 0.0590534 -0.350998
41.5911 0.008608 -0.372997
41.7731 0.0988444 -0.388996
41.0746 0.171042 -0.387997
34.5059 0.122981 -0.331997
36.8116 0.0454452 -0.414997
41.2696 -0.0112875 -0.435997
32.6328 -0.00356557 -0.395996
21.4526 0.0685054 -0.358997
22.2909 -0.00415632 -0.329998
21.844 0.0881687 -0.370998
23.4231 0.0340101 -0.318996
23.0041 0.140218 -0.317997
23.6465 -0.0296217 -0.327995
24.2753 -0.0317104 -0.356998
21.648 -0.00900887 -0.282997
24.611 0.0300647 -0.352997
22.8502 0.0638638 -0.412998
24.7788 0.0784215 -0.357998
25.0302 0.0286722 -0.334995
25.3657 0.055509 -0.332996
25.7711 0.0821136 -0.368996
25.8553 0.193638 -0.326996
26.3858 0.0032069 -0.353996
26.9588 0.00829153 -0.328995
27.0426 0.0150007 -0.332996
26.6376 0.0932112 -0.307995
27.4621 0.083485 -0.380997
27.4623 0.118423 -0.410995
27.6993 -0.0430822 -0.329998
27.8677 0.179966 -0.378998
28.2588 0.0948146 -0.343998
28.3003 -0.0241151 -0.379997
28.4678 -0.0805734 -0.342999
29.1251 0.0360355 -0.357998
28.6922 0.135302 -0.360996
29.5308 0.167455 -0.349998
29.5866 0.125344 -0.397995
29.8376 -0.0292208 -0.248997
30.285 0.0182076 -0.410995
30.0058 0.123951 -0.422997
29.1946 -0.0690117 -0.306995
30.4107 0.0108022 -0.425995
30.7185 0.0936331 -0.372997
30.9555 -0.0678724 -0.258995
31.1236 0.050361 -0.298996
31.8784 0.0758053 -0.393997
31.9759 -0.0153594 -0.413998
32.2561 0.193343 -0.434998
21.0331 2.1098e-05 -0.274998
30.0619 0.186654 -0.475998
31.3052 0.0357823 -0.427998
33.0107 0.183848 -0.440998
10.3841 0.0912913 -0.197998
11.39 -0.00289043 -0.245998
10.8174 0.09684 -0.225998
11.9073 0.0443059 -0.274998
11.2646 0.10933 -0.233997
12.0749 0.0227859 -0.220997
12.1303 -0.124141 -0.176998
11.684 0.142876 -0.213997
12.4803 0.0493905 -0.262997
12.55 0.0142201 -0.258995
12.8854 0.00611843 -0.307995
13.249 0.081776 -0.243996
13.2486 -0.0579774 -0.175995
13.696 -0.010549 -0.276997
13.8078 0.0100427 -0.240997
14.3532 0.10606 -0.235996
14.5346 0.0216044 -0.233997
14.5622 -0.0693282 -0.202995
15.0098 0.047977 -0.346996
15.3876 0.165514 -0.314995
15.625 0.108824 -0.293995
15.8067 0.129183 -0.237995
16.2955 0.0227437 -0.254997
16.4909 -0.0547705 -0.225998
17.0502 0.0132496 -0.288998
15.834 -0.0665643 -0.243996
16.7431 0.140049 -0.345997
18.2658 -0.04669 -0.344997
18.6153 -0.012912 -0.253998
18.9928 0.0347485 -0.243996
18.8807 -0.0557199 -0.299995
18.2382 0.0442426 -0.318996
19.2443 0.0199377 -0.340996
19.4261 0.0402973 -0.350998
19.6918 0.102304 -0.290997
18.4333 -0.103148 -0.253998
19.8177 0.129837 -0.371998
20.4739 -0.067999 -0.287998
20.223 0.121504 -0.356998
20.9075 0.0423649 -0.336998
20.2228 0.0865653 -0.402996
10.3136 -0.0831685 -0.175995
10.6497 0.11836 -0.256996
10.8867 -0.0780839 -0.191998
16.2679 0.113676 -0.324997
19.8868 -0.114963 -0.355995
0.0 0.0 0.0
0.321271 -0.0499813 -0.0059967
0.866634 0.0460359 0.0370026
1.06157 -0.171232 -0.0279961
1.11838 0.101102 -0.00499725
1.45341 -0.0118149 -0.131996
1.67646 -0.180262 -0.0329971
1.9149 0.0774931 -0.0719948
2.12395 -0.097895 -0.0389977
2.57156 0.0194102 -0.0519981
2.72508 -0.0439894 -0.0569954
3.11669 0.0455507 -0.00699615
3.55006 0.0860378 -0.0769958
4.2486 0.0138403 -0.140995
4.41647 0.062197 -0.119995
4.91937 -0.00236298 -0.137997
5.24099 0.0524708 -0.0809975
5.52049 0.0515425 -0.102997
5.70213 0.0369638 -0.125996
5.72954 -0.123846 -0.086998
6.10716 -0.0412467 -0.0969963
6.28879 -0.0558254 -0.190998
6.8205 0.138066 -0.0379982
6.86203 0.0191359 -0.115997
7.25318 -0.0310774 -0.111996
7.56045 -0.088 -0.184998
7.70044 -0.0185874 -0.212997
8.06417 0.0920086 -0.117996
8.10559 -0.0618595 -0.147995
8.48331 0.0556778 -0.215996
8.70636 -0.112769 -0.166996
8.8327 0.0545174 -0.137997
9.61534 0.0589058 -0.230995
9.62911 -0.00402973 -0.211998
9.16832 0.116292 -0.0699959
9.16762 -0.0933378 -0.237995
8.97268 0.12393 -0.187996
2 0 1
2 0 2
2 0 3
2 0 4
2 0 5
2 0 6
2 1 4
2 1 5
2 1 6
2 1 7
2 2 4
2 2 5
2 2 8
2 2 7
2 5 3
2 5 7
2 5 9
2 5 10
2 7 10
2 7 4
2 7 3
2 7 11
2 9 4
2 9 11
2 9 12
2 9 3
2 12 11
2 12 13
2 12 14
2 12 15
2 12 16
2 12 10
2 14 13
2 14 15
2 14 16
2 14 17
2 14 11
2 14 18
2 16 13
2 16 18
2 16 17
2 16 11
2 19 18
2 19 20
2 19 21
2 19 22
2 19 23
2 19 15
2 19 24
2 20 18
2 20 22
2 20 23
2 20 24
2 20 25
2 16 20
2 23 21
2 23 25
2 23 26
2 23 27
2 23 18
2 26 27
2 26 24
2 26 28
2 26 22
2 26 29
2 30 28
2 30 25
2 30 29
2 30 24
2 23 30
2 30 22
2 28 29
2 28 27
2 28 25
2 28 24
2 23 28
2 28 22
2 8 3
2 4 10
2 10 11
2 10 17
2 10 13
2 11 13
2 11 15
2 17 15
2 17 31
2 13 15
2 13 18
2 15 18
2 18 21
2 18 22
2 21 22
2 21 24
2 21 25
2 16 21
2 22 25
2 22 27
2 24 25
2 24 27
2 25 27
2 25 32
2 27 29
2 32 29
2 24 32
2 23 32
2 22 32
2 25 29
2 24 29
2 23 29
2 22 29
2 2 10
2 19 25
2 17 18
2 18 24
2 33 34
2 33 35
2 33 36
2 34 35
2 34 36
2 34 37
2 36 37
2 36 38
2 36 39
2 36 40
2 36 35
2 36 41
2 36 42
2 38 37
2 38 39
2 38 41
2 38 42
2 38 43
2 38 44
2 38 35
2 42 44
2 42 39
2 42 37
2 42 45
2 44 41
2 44 45
2 44 39
2 44 46
2 44 37
2 46 47
2 46 45
2 46 48
2 46 49
2 46 43
2 42 46
2 46 41
2 47 48
2 47 45
2 47 49
2 47 50
2 47 51
2 44 47
2 48 50
2 48 51
2 48 45
2 48 52
2 49 50
2 49 51
2 49 53
2 49 52
2 49 54
2 55 53
2 51 52
2 51 54
2 51 8
2 51 53
2 54 52
2 54 0
2 54 50
2 54 3
2 0 1
2 0 8
2 0 52
2 1 8
2 2 8
2 56 35
2 36 57
2 57 37
2 35 37
2 37 39
2 37 41
2 37 43
2 39 41
2 39 43
2 39 45
2 41 45
2 43 45
2 45 53
2 49 45
2 53 50
2 44 53
2 50 52
2 50 8
2 52 8
2 1 52
2 8 3
2 58 59
2 58 60
2 58 61
2 58 62
2 63 59
2 63 60
2 63 61
2 63 62
2 63 64
2 61 59
2 61 65
2 61 66
2 61 67
2 64 67
2 64 59
2 64 68
2 64 69
2 66 67
2 66 68
2 66 60
2 66 69
2 66 70
2 68 69
2 68 70
2 68 71
2 68 65
2 68 72
2 68 73
2 71 72
2 71 74
2 71 67
2 71 75
2 71 76
2 73 75
2 73 70
2 73 76
2 73 69
2 73 77
2 74 72
2 74 70
2 74 69
2 77 78
2 77 72
2 77 79
2 80 81
2 80 76
2 80 78
2 80 79
2 80 75
2 73 80
2 81 78
2 81 79
2 81 76
2 81 82
2 81 75
2 78 83
2 78 82
2 78 84
2 78 76
2 78 85
2 83 84
2 82 79
2 82 86
2 82 87
2 80 82
2 84 86
2 84 87
2 84 79
2 84 88
2 81 84
2 85 86
2 85 87
2 85 88
2 85 79
2 85 56
2 87 56
2 87 33
2 83 87
2 33 34
2 33 88
2 33 86
2 85 33
2 34 56
2 34 88
2 87 34
2 34 86
2 59 62
2 59 65
2 66 59
2 60 65
2 60 67
2 62 65
2 62 67
2 68 62
2 65 67
2 65 69
2 65 70
2 67 69
2 67 70
2 67 72
2 73 67
2 69 72
2 70 72
2 70 75
2 72 75
2 72 76
2 76 79
2 86 56
2 86 57
2 88 56
2 88 57
2 82 88
2 56 35
2 84 56
2 88 35
2 87 35
2 66 73
2 68 76
2 74 67
2 74 79
2 83 88
2 89 90
2 91 92
2 91 93
2 91 90
2 92 93
2 92 94
2 92 90
2 92 95
2 92 96
2 90 93
2 90 97
2 90 95
2 90 96
2 90 94
2 90 98
2 96 98
2 96 99
2 96 100
2 96 93
2 96 97
2 96 101
2 98 99
2 98 100
2 98 95
2 98 101
2 98 93
2 92 98
2 98 102
2 100 101
2 100 95
2 100 103
2 100 102
2 90 100
2 100 104
2 103 104
2 103 101
2 103 105
2 103 106
2 103 107
2 103 99
2 103 108
2 104 105
2 104 102
2 104 106
2 104 107
2 104 101
2 104 108
2 104 109
2 107 109
2 107 105
2 107 110
2 107 102
2 107 111
2 109 110
2 109 105
2 109 111
2 109 112
2 113 114
2 113 115
2 113 108
2 107 113
2 116 111
2 116 114
2 116 115
2 116 110
2 116 117
2 109 116
2 116 118
2 115 114
2 115 117
2 115 118
2 115 112
2 115 119
2 115 111
2 115 120
2 118 120
2 118 121
2 118 114
2 118 122
2 118 112
2 121 120
2 121 122
2 121 119
2 121 117
2 121 58
2 121 63
2 115 121
2 121 114
2 58 122
2 58 59
2 58 120
2 63 122
2 63 120
2 94 93
2 97 95
2 93 95
2 95 99
2 91 95
2 99 101
2 99 102
2 90 99
2 93 99
2 101 105
2 102 105
2 102 106
2 102 108
2 105 108
2 105 110
2 108 110
2 108 111
2 110 114
2 111 114
2 112 114
2 112 117
2 108 112
2 114 117
2 114 119
2 117 119
2 117 120
2 117 122
2 119 122
2 116 119
2 120 122
2 114 120
2 122 59
2 115 122
2 89 95
2 91 96
2 91 98
2 98 97
2 100 105
2 103 109
2 107 112
2 109 102
2 113 105
2 113 106
2 113 117
2 115 110
2 121 59
2 63 119
2 95 101
2 123 124
2 123 125
2 126 124
2 126 127
2 128 124
2 128 129
2 128 130
2 128 131
2 123 128
2 128 132
2 132 133
2 132 131
2 132 129
2 132 134
2 132 135
2 132 136
2 133 137
2 133 131
2 133 134
2 133 135
2 133 136
2 133 129
2 133 138
2 135 138
2 135 139
2 135 140
2 135 137
2 139 136
2 139 134
2 139 141
2 139 142
2 133 139
2 141 143
2 141 144
2 141 145
2 141 140
2 141 146
2 141 138
2 141 147
2 143 142
2 143 145
2 143 146
2 143 147
2 143 148
2 143 140
2 139 143
2 147 148
2 147 145
2 147 94
2 147 144
2 147 91
2 147 97
2 89 94
2 89 92
2 89 146
2 89 93
2 89 90
2 91 92
2 91 148
2 91 146
2 92 94
2 92 148
2 130 127
2 124 127
2 124 129
2 127 129
2 127 131
2 123 127
2 132 127
2 129 131
2 129 137
2 131 137
2 125 131
2 124 131
2 131 134
2 137 134
2 137 136
2 128 137
2 134 138
2 134 140
2 136 140
2 138 142
2 140 142
2 142 144
2 142 145
2 142 146
2 147 142
2 144 146
2 144 148
2 140 144
2 145 146
2 145 148
2 89 145
2 145 94
2 146 148
2 146 94
2 148 94
2 148 97
2 148 93
2 126 129
2 149 150
2 151 152
2 153 150
2 153 154
2 153 152
2 153 155
2 153 156
2 153 157
2 152 150
2 152 157
2 152 154
2 152 158
2 152 159
2 152 155
2 158 159
2 158 156
2 158 160
2 158 150
2 158 161
2 153 158
2 158 162
2 162 163
2 162 164
2 162 160
2 162 159
2 162 165
2 166 163
2 166 164
2 166 161
2 166 160
2 166 167
2 166 165
2 166 159
2 166 168
2 164 161
2 164 167
2 164 165
2 164 168
2 164 169
2 164 160
2 167 170
2 167 163
2 167 171
2 168 171
2 168 172
2 173 171
2 173 165
2 173 174
2 173 172
2 173 175
2 174 171
2 174 176
2 174 123
2 175 172
2 175 177
2 175 123
2 175 171
2 175 130
2 176 123
2 176 172
2 176 130
2 176 124
2 176 171
2 123 130
2 123 124
2 123 172
2 123 125
2 155 154
2 155 150
2 154 150
2 154 156
2 150 156
2 150 157
2 156 157
2 156 159
2 156 160
2 157 159
2 157 160
2 157 161
2 154 157
2 159 160
2 159 161
2 159 163
2 160 161
2 160 163
2 161 163
2 167 161
2 163 165
2 168 163
2 163 169
2 165 170
2 165 171
2 169 171
2 174 169
2 169 172
2 170 171
2 170 172
2 175 170
2 171 172
2 172 177
2 126 172
2 177 130
2 177 124
2 177 125
2 176 125
2 178 179
2 178 180
2 178 181
2 178 182
2 178 183
2 178 184
2 178 185
2 180 179
2 180 181
2 180 182
2 180 183
2 180 184
2 180 185
2 180 186
2 181 184
2 181 179
2 181 185
2 181 186
2 181 187
2 183 185
2 183 186
2 183 179
2 183 187
2 183 188
2 185 184
2 185 186
2 185 182
2 185 187
2 185 188
2 185 189
2 186 188
2 186 184
2 186 189
2 186 190
2 186 182
2 188 189
2 188 190
2 188 184
2 188 191
2 188 182
2 189 187
2 189 191
2 189 192
2 189 193
2 189 184
2 193 194
2 193 195
2 193 196
2 193 197
2 193 190
2 193 198
2 194 196
2 194 192
2 194 191
2 194 198
2 194 199
2 194 190
2 196 198
2 196 199
2 196 192
2 196 191
2 196 200
2 198 199
2 198 197
2 198 195
2 198 200
2 198 192
2 198 191
2 201 202
2 201 203
2 201 204
2 201 200
2 201 205
2 201 206
2 201 199
2 198 201
2 203 205
2 203 202
2 203 206
2 203 200
2 203 207
2 203 208
2 203 199
2 205 204
2 205 206
2 205 207
2 205 202
2 205 208
2 205 200
2 205 209
2 207 208
2 207 209
2 207 204
2 207 155
2 208 209
2 208 149
2 208 206
2 208 155
2 208 204
2 208 154
2 209 149
2 209 155
2 209 206
2 209 154
2 209 153
2 149 154
2 149 153
2 149 206
2 149 150
2 181 210
2 210 182
2 179 182
2 179 184
2 185 179
2 186 179
2 182 184
2 182 187
2 184 187
2 187 190
2 187 191
2 190 191
2 190 192
2 190 195
2 191 195
2 191 197
2 192 197
2 195 199
2 197 199
2 197 200
2 199 200
2 199 202
2 193 199
2 192 199
2 200 202
2 200 204
2 195 200
2 202 204
2 198 202
2 202 206
2 196 202
2 204 206
2 209 204
2 155 154
2 183 190
2 185 191
2 186 191
2 193 187
2 194 200
2 207 202
2 187 192
2 190 197
2 192 200
2 195 202
2 199 204
2 200 206
2 206 155
2 211 212
2 211 213
2 211 214
2 215 213
2 215 214
2 215 216
2 215 217
2 212 217
2 212 216
2 217 214
2 217 218
2 217 213
2 217 219
2 217 220
2 219 221
2 219 222
2 219 223
2 219 216
2 219 224
2 219 225
2 219 226
2 223 226
2 223 227
2 223 228
2 223 218
2 223 221
2 226 227
2 226 228
2 226 222
2 226 229
2 226 218
2 227 225
2 227 229
2 227 222
2 227 230
2 227 231
2 232 233
2 232 234
2 232 235
2 232 231
2 232 236
2 232 230
2 232 237
2 232 229
2 233 234
2 233 238
2 233 236
2 233 235
2 233 237
2 233 231
2 233 239
2 233 230
2 178 179
2 178 210
2 178 239
2 180 210
2 240 213
2 240 214
2 240 216
2 220 214
2 220 216
2 213 216
2 214 216
2 214 221
2 216 218
2 221 222
2 213 221
2 218 224
2 214 218
2 213 218
2 222 228
2 224 228
2 221 224
2 225 228
2 218 225
2 225 229
2 228 229
2 228 230
2 228 231
2 229 231
2 229 235
2 224 229
2 223 229
2 230 235
2 230 238
2 231 238
2 231 234
2 235 238
2 235 234
2 235 236
2 228 235
2 238 234
2 238 236
2 238 237
2 238 239
2 234 236
2 234 237
2 234 239
2 234 210
2 236 239
2 236 210
2 178 236
2 237 210
2 178 237
2 235 237
2 239 210
2 239 179
2 232 239
2 210 179
2 181 210
2 210 182
2 215 221
2 217 223
2 217 240
2 217 222
2 216 222
2 216 224
2 225 230
2 241 242
2 241 243
2 244 245
2 244 246
2 244 247
2 244 243
2 244 248
2 244 249
2 244 242
2 245 250
2 245 247
2 245 246
2 245 248
2 245 249
2 245 251
2 245 243
2 245 252
2 248 251
2 248 252
2 248 247
2 248 253
2 248 254
2 248 255
2 248 250
2 253 252
2 253 255
2 253 249
2 253 256
2 253 257
2 257 258
2 257 255
2 257 259
2 257 254
2 257 252
2 257 260
2 258 256
2 258 260
2 258 261
2 258 255
2 258 254
2 253 258
2 260 259
2 260 262
2 260 263
2 260 264
2 260 265
2 260 256
2 262 265
2 262 261
2 262 266
2 262 267
2 262 268
2 262 259
2 262 269
2 265 263
2 265 266
2 265 267
2 265 268
2 265 261
2 265 269
2 265 270
2 267 268
2 267 269
2 267 263
2 267 270
2 267 261
2 267 211
2 268 269
2 268 266
2 268 270
2 268 211
2 268 263
2 268 240
2 211 270
2 211 215
2 211 220
2 211 212
2 211 213
2 211 269
2 215 270
2 212 270
2 271 242
2 271 243
2 272 243
2 272 246
2 242 243
2 242 246
2 243 246
2 243 250
2 273 243
2 246 250
2 246 247
2 241 246
2 271 246
2 250 247
2 250 249
2 250 251
2 250 252
2 247 249
2 247 251
2 247 252
2 253 247
2 249 252
2 249 254
2 249 255
2 251 255
2 251 256
2 257 251
2 252 254
2 252 255
2 252 256
2 254 256
2 254 264
2 255 256
2 256 259
2 264 261
2 259 261
2 255 259
2 259 263
2 261 263
2 257 261
2 256 261
2 263 266
2 263 269
2 266 269
2 266 270
2 261 266
2 211 266
2 269 270
2 269 240
2 215 269
2 269 220
2 270 240
2 270 220
2 270 213
2 258 262
2 258 263
2 260 267
2 260 268
2 267 240
2 215 266
2 212 269
2 247 254
2 247 255
2 251 264
2 264 263
2 266 240
2 269 214
2 274 275
2 274 276
2 274 277
2 278 279
2 278 276
2 278 280
2 278 277
2 278 275
2 278 281
2 282 281
2 282 277
2 282 276
2 283 284
2 283 281
2 283 285
2 283 277
2 283 286
2 283 287
2 285 288
2 285 289
2 287 286
2 287 290
2 287 288
2 287 284
2 287 291
2 287 292
2 287 289
2 290 286
2 290 292
2 290 284
2 290 293
2 291 293
2 291 294
2 295 294
2 295 296
2 297 296
2 297 293
2 297 298
2 297 292
2 299 298
2 299 300
2 299 294
2 299 301
2 299 273
2 299 271
2 299 241
2 300 301
2 300 296
2 300 273
2 300 271
2 300 241
2 300 294
2 273 271
2 273 272
2 273 242
2 273 298
2 273 296
2 241 298
2 275 280
2 275 302
2 275 303
2 280 303
2 280 279
2 280 276
2 302 279
2 302 276
2 303 279
2 303 276
2 303 277
2 304 303
2 279 277
2 279 281
2 276 281
2 277 281
2 281 305
2 281 289
2 281 284
2 305 286
2 287 305
2 289 284
2 289 286
2 284 286
2 286 288
2 286 292
2 288 292
2 288 293
2 284 288
2 292 293
2 292 294
2 293 294
2 293 296
2 299 293
2 294 296
2 294 298
2 296 298
2 296 301
2 298 301
2 298 271
2 301 271
2 301 272
2 271 272
2 271 242
2 300 272
2 298 272
2 300 242
2 282 286
2 283 276
2 285 292
2 299 272
2 241 296
2 275 276
2 288 294
2 292 296
2 293 298
2 294 301
2 298 242
2 306 307
2 306 308
2 307 309
2 307 310
2 307 308
2 307 311
2 307 312
2 309 313
2 309 308
2 309 312
2 308 313
2 308 310
2 308 314
2 315 308
2 316 317
2 316 318
2 316 319
2 316 320
2 316 321
2 316 311
2 316 322
2 308 316
2 319 317
2 319 322
2 319 314
2 319 323
2 319 324
2 321 317
2 321 323
2 321 324
2 321 314
2 324 323
2 324 325
2 324 322
2 324 326
2 324 327
2 324 320
2 328 329
2 328 326
2 330 331
2 330 329
2 330 332
2 330 304
2 330 326
2 331 333
2 331 304
2 331 332
2 331 275
2 274 304
2 312 313
2 315 334
2 311 314
2 314 317
2 314 318
2 309 314
2 317 318
2 317 322
2 308 317
2 318 322
2 318 323
2 324 318
2 322 323
2 322 325
2 323 325
2 323 326
2 325 326
2 325 332
2 321 325
2 320 325
2 326 332
2 326 333
2 327 333
2 327 335
2 332 333
2 332 335
2 332 329
2 333 329
2 333 304
2 335 304
2 335 275
2 329 304
2 329 275
2 329 280
2 304 275
2 304 280
2 304 302
2 275 280
2 304 303
2 331 280
2 329 302
2 336 337
2 336 338
2 336 339
2 336 340
2 338 339
2 338 337
2 338 341
2 338 342
2 340 339
2 340 341
2 340 337
2 340 343
2 340 342
2 344 345
2 344 346
2 344 339
2 347 346
2 348 349
2 348 350
2 348 351
2 348 346
2 348 352
2 348 345
2 348 353
2 352 354
2 355 354
2 355 351
2 355 356
2 355 349
2 348 355
2 355 357
2 356 354
2 356 357
2 356 353
2 356 358
2 356 359
2 360 359
2 360 361
2 355 360
2 358 361
2 358 362
2 358 354
2 358 363
2 362 363
2 362 359
2 362 364
2 362 365
2 362 366
2 367 366
2 367 359
2 367 368
2 364 363
2 364 366
2 364 369
2 364 368
2 364 361
2 364 312
2 366 369
2 366 368
2 366 363
2 366 312
2 368 312
2 368 365
2 368 315
2 368 310
2 368 363
2 368 306
2 306 312
2 307 312
2 370 337
2 342 337
2 342 339
2 337 339
2 344 337
2 339 341
2 339 343
2 341 343
2 341 345
2 343 345
2 343 346
2 343 350
2 345 350
2 346 350
2 346 349
2 349 353
2 353 354
2 353 357
2 359 363
2 361 363
2 312 313
2 338 370
2 352 356
2 352 346
2 355 346
2 355 359
2 356 362
2 364 315
2 364 359
2 368 307
2 368 334
2 342 341
2 371 372
2 371 373
2 371 374
2 371 375
2 371 376
2 371 377
2 371 378
2 373 374
2 373 377
2 379 380
2 379 381
2 382 380
2 382 381
2 382 383
2 382 384
2 382 385
2 382 386
2 382 387
2 383 380
2 383 387
2 383 388
2 383 389
2 384 388
2 384 380
2 388 387
2 388 386
2 388 390
2 388 391
2 388 381
2 391 392
2 392 393
2 392 390
2 392 394
2 392 389
2 392 370
2 388 392
2 393 395
2 393 370
2 393 390
2 393 342
2 336 370
2 336 394
2 393 336
2 377 396
2 375 396
2 374 372
2 396 372
2 396 376
2 396 378
2 372 376
2 377 372
2 372 397
2 378 380
2 397 385
2 397 380
2 382 397
2 397 381
2 385 380
2 385 381
2 383 385
2 384 385
2 376 385
2 380 381
2 380 386
2 380 387
2 381 387
2 381 389
2 387 389
2 387 390
2 389 390
2 388 395
2 394 370
2 390 394
2 394 342
2 370 342
2 370 337
2 388 393
2 388 380
2 388 398
2 392 387
2 392 342
2 399 396
2 400 401
2 402 401
2 402 403
2 404 403
2 404 405
2 404 401
2 404 406
2 404 407
2 400 404
2 404 408
2 403 405
2 403 409
2 403 406
2 403 401
2 403 408
2 403 410
2 403 411
2 408 410
2 408 406
2 408 411
2 408 412
2 408 405
2 408 413
2 408 414
2 411 410
2 411 412
2 411 413
2 411 406
2 411 414
2 411 415
2 411 405
2 414 412
2 414 416
2 414 417
2 418 416
2 418 417
2 418 419
2 418 420
2 418 413
2 418 421
2 417 416
2 417 419
2 417 420
2 417 415
2 417 421
2 417 422
2 419 416
2 419 423
2 419 424
2 419 425
2 422 416
2 424 421
2 424 426
2 424 420
2 427 423
2 427 426
2 426 428
2 426 429
2 426 425
2 426 430
2 426 423
2 428 431
2 432 433
2 426 432
2 434 435
2 434 436
2 434 430
2 434 437
2 437 435
2 437 438
2 437 431
2 437 439
2 432 437
2 438 399
2 438 436
2 438 435
2 437 440
2 440 436
2 407 401
2 407 409
2 401 409
2 441 401
2 401 405
2 409 405
2 405 406
2 405 410
2 405 412
2 406 410
2 406 412
2 406 413
2 410 412
2 410 413
2 412 413
2 412 415
2 418 412
2 413 415
2 413 416
2 415 416
2 419 415
2 415 420
2 416 420
2 416 421
2 420 425
2 421 423
2 427 421
2 430 435
2 433 442
2 431 435
2 431 436
2 435 443
2 429 435
2 432 436
2 436 439
2 435 439
2 437 399
2 441 404
2 404 410
2 403 407
2 403 412
2 411 418
2 411 416
2 418 423
2 422 430
2 427 430
2 428 437
2 428 423
2 428 435
2 437 444
2 437 430
2 407 405
2 412 416
2 415 421
2 423 433
2 423 430
2 433 431
2 436 399
2 445 446
2 447 446
2 447 448
2 449 448
2 449 450
2 449 451
2 452 450
2 452 453
2 452 454
2 450 453
2 450 454
2 450 446
2 450 455
2 450 456
2 453 455
2 453 448
2 453 456
2 453 457
2 453 446
2 455 454
2 455 456
2 455 451
2 455 458
2 455 459
2 456 458
2 456 459
2 456 454
2 456 460
2 456 451
2 458 457
2 458 460
2 458 461
2 458 462
2 458 454
2 453 458
2 461 463
2 461 459
2 461 464
2 461 465
2 461 466
2 456 461
2 464 462
2 464 467
2 466 467
2 466 468
2 466 469
2 467 470
2 467 471
2 467 465
2 467 469
2 467 463
2 471 470
2 472 473
2 472 474
2 472 469
2 473 475
2 473 474
2 473 476
2 473 477
2 473 478
2 473 479
2 474 478
2 474 480
2 474 479
2 474 476
2 478 477
2 478 479
2 478 475
2 481 482
2 474 481
2 481 475
2 483 484
2 483 441
2 441 400
2 441 482
2 441 407
2 441 402
2 441 485
2 481 441
2 400 484
2 400 482
2 402 484
2 402 482
2 486 446
2 487 446
2 488 446
2 488 448
2 450 488
2 446 448
2 446 451
2 448 454
2 454 457
2 457 459
2 457 460
2 450 457
2 459 460
2 459 462
2 459 463
2 454 459
2 462 465
2 466 462
2 462 470
2 463 470
2 465 468
2 470 468
2 470 469
2 489 469
2 468 469
2 464 468
2 463 468
2 469 476
2 469 480
2 476 475
2 476 477
2 478 476
2 480 477
2 478 480
2 480 479
2 475 477
2 475 479
2 477 479
2 479 482
2 474 490
2 482 484
2 478 482
2 484 407
2 482 407
2 483 407
2 441 401
2 484 401
2 452 455
2 452 457
2 455 446
2 458 451
2 466 460
2 471 473
2 472 468
2 473 469
2 474 469
2 474 482
2 441 479
2 457 462
2 462 468
2 482 401
2 491 492
2 491 493
2 491 494
2 491 495
2 491 496
2 491 497
2 491 498
2 491 499
2 491 500
2 495 493
2 495 498
2 495 492
2 495 499
2 495 500
2 501 502
2 501 499
2 501 498
2 501 503
2 501 496
2 501 504
2 495 501
2 502 503
2 502 500
2 502 499
2 502 504
2 502 498
2 502 505
2 502 497
2 502 496
2 503 504
2 503 505
2 503 500
2 503 506
2 503 499
2 503 498
2 503 507
2 505 506
2 505 507
2 505 508
2 505 509
2 505 510
2 505 511
2 507 508
2 507 506
2 507 509
2 507 510
2 507 511
2 507 504
2 507 512
2 509 508
2 509 511
2 509 512
2 509 506
2 509 513
2 509 514
2 511 510
2 511 508
2 511 513
2 511 514
2 511 515
2 511 506
2 513 516
2 513 517
2 513 510
2 515 516
2 515 514
2 515 517
2 515 518
2 515 519
2 515 512
2 515 520
2 517 519
2 517 520
2 517 514
2 517 521
2 517 522
2 518 520
2 518 521
2 518 522
2 522 520
2 522 519
2 522 523
2 522 524
2 525 520
2 525 519
2 523 526
2 523 486
2 523 445
2 523 521
2 445 447
2 445 488
2 445 524
2 445 449
2 445 446
2 525 445
2 447 524
2 492 493
2 492 496
2 492 498
2 492 499
2 492 500
2 493 497
2 493 498
2 493 499
2 493 500
2 494 498
2 494 500
2 496 498
2 496 499
2 496 500
2 497 500
2 498 500
2 499 500
2 504 506
2 504 508
2 509 504
2 504 510
2 506 508
2 506 510
2 506 512
2 508 512
2 513 508
2 510 514
2 512 514
2 514 516
2 518 514
2 516 519
2 516 520
2 519 520
2 519 521
2 519 527
2 520 526
2 521 524
2 527 524
2 526 524
2 518 526
2 524 486
2 524 487
2 486 488
2 449 486
2 486 446
2 495 502
2 505 512
2 513 519
2 513 520
2 515 525
2 515 510
2 515 521
2 517 512
2 525 486
2 525 488
2 523 520
2 526 487
